<svg xmlns="http://www.w3.org/2000/svg" fill="none" aria-hidden="true" viewBox="0 0 270.874 386.243"><mask id="a" width="272" height="387" x="0" y="0" maskUnits="userSpaceOnUse" style="mask-type:alpha"><rect width="270.874" height="386.243" x=".417" class="cls-1" rx="10"/></mask><g mask="url(#a)"><path d="m241.886 403.264-34.484-44.589 20.262-15.67 21.948 28.379a5.115 5.115 0 0 0 7.186.919 5.116 5.116 0 0 0 .919-7.187l-21.949-28.379 8.105-6.268c6.715-5.193 7.948-14.845 2.755-21.559l-3.134-4.053 10.505-8.124 26.636 3.44a5.135 5.135 0 0 0 3.785-1.041l16.21-12.536a5.116 5.116 0 0 0 .918-7.187 5.116 5.116 0 0 0-7.186-.918l-14.557 11.258-26.636-3.44a5.135 5.135 0 0 0-3.785 1.041l-12.158 9.402-18.804-24.314 28.38-21.948a5.115 5.115 0 0 0 .919-7.186 5.116 5.116 0 0 0-7.187-.919l-28.38 21.948-18.803-24.314 12.157-9.402a5.132 5.132 0 0 0 1.959-3.402l3.37-26.645 40.786-31.543a5.115 5.115 0 0 0 .918-7.186 5.115 5.115 0 0 0-7.186-.918l-42.439 32.82a5.132 5.132 0 0 0-1.959 3.402l-3.37 26.645-10.504 8.124-3.134-4.052c-5.193-6.715-14.845-7.948-21.56-2.755l-8.104 6.268-21.959-28.393a5.115 5.115 0 0 0-7.186-.919 5.115 5.115 0 0 0-.918 7.187l21.948 28.38-20.262 15.669-34.484-44.589a5.115 5.115 0 0 0-7.187-.918 5.115 5.115 0 0 0-.918 7.186l34.484 44.589-20.262 15.67-21.948-28.379a5.116 5.116 0 0 0-7.186-.919 5.116 5.116 0 0 0-.919 7.187l21.948 28.379-8.104 6.268c-6.715 5.193-7.948 14.845-2.755 21.56l3.133 4.052-10.504 8.124-26.637-3.44a5.136 5.136 0 0 0-3.785 1.041l-16.209 12.536a5.116 5.116 0 0 0-.918 7.187 5.116 5.116 0 0 0 7.186.918L45.4 328.493l26.636 3.44a5.136 5.136 0 0 0 3.785-1.041l12.157-9.402 18.804 24.314-28.38 21.948a5.115 5.115 0 0 0-.918 7.186 5.116 5.116 0 0 0 7.187.919l28.366-21.938 18.804 24.314-12.157 9.402a5.132 5.132 0 0 0-1.959 3.402l-3.37 26.645-14.557 11.258a5.115 5.115 0 0 0-.918 7.186 5.116 5.116 0 0 0 7.186.919l16.21-12.536a5.136 5.136 0 0 0 1.959-3.402l3.369-26.645 10.505-8.124 3.134 4.052c5.193 6.715 14.845 7.948 21.559 2.756l8.105-6.268 21.948 28.379a5.116 5.116 0 0 0 7.187.919 5.117 5.117 0 0 0 .918-7.187l-21.948-28.379 20.262-15.67 34.484 44.589a5.115 5.115 0 0 0 7.186.918c2.243-1.734 2.676-4.94.942-7.183ZM127.95 322.958a5.116 5.116 0 0 1-7.187-.919l-12.536-16.209a5.116 5.116 0 0 1 .919-7.187l16.209-12.535a5.115 5.115 0 0 1 7.187.918l12.536 16.209a5.116 5.116 0 0 1-.919 7.187l-16.209 12.536Zm40.537-31.35a5.116 5.116 0 0 1-7.187-.919l-12.536-16.209a5.116 5.116 0 0 1 .919-7.187l16.209-12.536a5.115 5.115 0 0 1 7.186.919l12.536 16.209a5.115 5.115 0 0 1-.918 7.187l-16.209 12.536Zm-9.187 71.887a5.116 5.116 0 0 1-7.187-.919l-12.536-16.209a5.116 5.116 0 0 1 .919-7.187l16.209-12.536a5.116 5.116 0 0 1 7.187.919l12.536 16.209a5.116 5.116 0 0 1-.919 7.187L159.3 363.495Zm40.537-31.35a5.116 5.116 0 0 1-7.187-.919l-12.536-16.209a5.116 5.116 0 0 1 .919-7.187l16.209-12.536a5.116 5.116 0 0 1 7.187.919l12.536 16.209a5.116 5.116 0 0 1-.919 7.187l-16.209 12.536Z" class="cls-2"/><path d="M247.582 394.289c-5.74-7.423-4.37-18.144 3.053-23.885 7.422-5.74 18.144-4.37 23.884 3.053 5.741 7.423 4.371 18.144-3.052 23.885-7.423 5.74-18.144 4.37-23.885-3.053Z" class="cls-2"/><path d="M256.296 388.43c-5.74-7.423-4.37-18.144 3.053-23.885 7.422-5.741 18.144-4.37 23.884 3.053 5.741 7.422 4.371 18.144-3.052 23.884-7.423 5.741-18.144 4.371-23.885-3.052Z" class="cls-3"/><path d="M57.027 213.368c-5.74-7.423-4.37-18.144 3.053-23.885 7.422-5.74 18.144-4.37 23.885 3.052 5.74 7.423 4.37 18.145-3.053 23.885-7.423 5.741-18.144 4.371-23.885-3.052Z" class="cls-2"/><path d="M67.119 219.206c-6.578-7.991-5.417-19.85 2.574-26.428 7.99-6.578 19.85-5.417 26.428 2.574 6.578 7.991 5.417 19.85-2.574 26.428-7.99 6.578-19.85 5.417-26.428-2.574ZM122.085 211.824c-5.741-7.422-4.371-18.144 3.052-23.884 7.423-5.741 18.144-4.371 23.885 3.052 5.741 7.423 4.37 18.144-3.052 23.885-7.423 5.74-18.145 4.37-23.885-3.053Z" class="cls-2"/><path d="M112.781 206.654c-5.74-7.423-4.37-18.145 3.053-23.885 7.423-5.741 18.144-4.371 23.885 3.052 5.74 7.423 4.37 18.144-3.053 23.885-7.423 5.741-18.144 4.37-23.885-3.052Z" class="cls-4"/><path d="M46.85 266.467c-5.742-7.423-4.371-18.144 3.051-23.885 7.423-5.74 18.145-4.37 23.885 3.053 5.74 7.422 4.37 18.144-3.052 23.884-7.413 5.754-18.134 4.384-23.885-3.052Z" class="cls-2"/><path d="M51.92 269.608c-5.74-7.423-4.37-18.144 3.052-23.885 7.423-5.74 18.145-4.37 23.885 3.053 5.74 7.423 4.37 18.144-3.052 23.885-7.423 5.74-18.134 4.383-23.885-3.053Z" class="cls-5"/></g></svg>