<svg xmlns="http://www.w3.org/2000/svg" fill="none" aria-hidden="true" viewBox="0 0 271 276"><mask id="blue-mask" width="271" height="276" x="0" y="0" maskUnits="userSpaceOnUse" style="mask-type:alpha"><path d="M0 10C0 4.477 4.477 0 10 0h251c5.523 0 10 4.477 10 10v256c0 5.523-4.477 10-10 10H10c-5.523 0-10-4.477-10-10V10Z" class="cls-1"/></mask><g mask="url(#blue-mask)"><path d="m-101.813 286.459 64.757 91.225L244.13 178.041l-54.769-77.11c-5.533-7.78-16.342-9.63-24.122-4.098L-101.813 286.46Z" class="cls-2"/><path d="M-105.586 269.844 42.541 407.002l192.848-208.271L87.262 61.572l-192.848 208.272Z" class="cls-1"/><path d="m109.154 120.319-1.386 1.496 66.155 61.257 1.386-1.496-66.155-61.257ZM98.715 103.679l-1.385 1.496 93.944 86.987 1.385-1.496-93.944-86.987ZM70.784 113.774l-1.386 1.497 113.966 105.526 1.386-1.496L70.784 113.774ZM64.162 120.9l-1.386 1.496 113.966 105.527 1.386-1.496L64.162 120.9ZM50.945 135.212l-1.386 1.497 113.966 105.527 1.386-1.497L50.945 135.212ZM44.324 142.333l-1.386 1.496 113.966 105.527 1.386-1.497L44.324 142.333ZM37.73 149.479l-1.386 1.497 113.965 105.527 1.386-1.497L37.729 149.479ZM8.629 180.91l-1.386 1.496L121.21 287.933l1.386-1.496L8.629 180.91ZM1.756 188.295l-1.385 1.497 113.966 105.526 1.385-1.496L1.756 188.295ZM-5.088 195.717l-1.386 1.496L107.492 302.74l1.386-1.496L-5.088 195.717ZM-11.936 203.129l-1.386 1.496 113.966 105.527 1.386-1.496-113.966-105.527ZM-18.81 210.517l-1.386 1.496L93.77 317.54l1.386-1.497L-18.81 210.517ZM-25.658 217.922l-1.385 1.497L86.923 324.946l1.385-1.497-113.966-105.527ZM-32.504 225.338l-1.386 1.497L80.076 332.362l1.386-1.497-113.966-105.527Z" class="cls-3"/><path d="M-94.192 262.975 42.238 411.79l209.239-191.826L115.046 71.148-94.192 262.975Z" class="cls-4"/><path d="m130.597 132.835 60.932 66.463 1.504-1.378-60.932-66.463-1.504 1.378ZM121.599 115.421l86.526 94.38 1.503-1.378-86.526-94.38-1.503 1.378ZM92.945 123.181l104.967 114.496 1.503-1.379L94.448 121.803l-1.503 1.378ZM85.765 129.741l104.967 114.496 1.504-1.379L87.268 128.363l-1.503 1.378ZM71.403 142.912l104.968 114.495 1.503-1.378L72.907 141.534l-1.504 1.378ZM64.252 149.494 169.219 263.99l1.503-1.379L65.755 148.116l-1.503 1.378ZM57.048 156.077l104.968 114.495 1.503-1.378L58.552 154.699l-1.504 1.378ZM25.5 185.003l104.967 114.495 1.503-1.378L27.003 183.625l-1.503 1.378ZM18.045 191.836l104.967 114.495 1.504-1.378L19.548 190.458l-1.503 1.378ZM10.614 198.646l104.967 114.495 1.504-1.378L12.117 197.268l-1.503 1.378ZM3.179 205.46l104.967 114.495 1.503-1.378L4.682 204.081l-1.503 1.379ZM-4.276 212.291 100.69 326.786l1.504-1.378L-2.773 210.913l-1.503 1.378ZM-11.715 219.102 93.253 333.598l1.503-1.379-104.967-114.495-1.504 1.378ZM-19.168 225.937 85.799 340.432l1.503-1.378-104.967-114.495-1.503 1.378Z" class="cls-1"/><path d="M-77.245 321.071 53.167 504.726 319.89 315.35l-89.143-186.133c-5.021-10.461-18.236-13.901-27.695-7.189L-77.245 321.071Z" class="cls-5"/><path d="M270.621 340.738 194.93 195.322l-36.778 21.629 80.811 143.566 31.658-19.779Z" class="cls-2"/></g></svg>
