<svg viewBox="0 0 143.11 34.11" xmlns="http://www.w3.org/2000/svg"><path d="m136 .21h5.2v10.4h-5.2zm-9 5.2-.3.1s1.8 1.5 1.8 1.6.2.1.1.4l-.2.6s1.6-.3 1.8-.4.3 0 .3.2-.1 1.9-.1 1.9h.5s-.1-1.8-.1-1.9.1-.2.3-.2 1.8.4 1.8.4a3.93 3.93 0 0 0 -.2-.6c-.1-.3 0-.3.1-.4s1.8-1.6 1.8-1.6l-.3-.1c-.2-.1-.1-.2-.1-.3s.3-1.1.3-1.1-.8.2-.9.2-.2 0-.2-.1a2.57 2.57 0 0 0 -.2-.5s-.9 1-1 1.1-.4 0-.3-.2.5-2.3.5-2.3-.5.3-.7.4-.3.1-.3-.1-.7-1.3-.7-1.4l-.7 1.4c-.1.2-.2.2-.3.1s-.7-.4-.7-.4.5 2.1.5 2.3-.1.3-.3.2l-1-1.1a1.42 1.42 0 0 1 -.2.4c0 .1-.1.2-.2.1a8.66 8.66 0 0 1 -1-.2 7.6 7.6 0 0 0 .4 1.1.4.4 0 0 1 -.2.4zm-6.7-5.2h5.2v10.4h-5.2z" fill="#f00"/><path d="m142.3 31.41a1.93 1.93 0 0 1 -1.7 1.2c-.6 0-2.4-.1-2.4-4.8v-10.1c0-3.1-2.4-5.6-8.6-5.6-6.7 0-6.8 3.3-6.8 4.1s.4 1.9 2.1 1.9c1.5 0 1.9-1.7 2.1-2.3s.3-2.7 3-2.7c2.3 0 3.7 2 3.8 4.9v1.7a2.4 2.4 0 0 1 -1.6 1.9 29.72 29.72 0 0 1 -5.1 1.2c-1.4.3-5.3 1.3-5.2 5.4s4.1 5.4 6.9 5.3a8 8 0 0 0 5-1.8c.4-.3.4-.3.7.1s1.7 1.7 4.8 1.7 3.6-1.5 3.8-2c.1-.3-.6-.6-.8-.1zm-12.5 1.1a3.36 3.36 0 0 1 -3.5-3.5 6.05 6.05 0 0 1 3.4-5 27.32 27.32 0 0 1 3.8-1.8h.2a.35.35 0 0 1 .1.2v4.4c0 3.3-1.6 5.7-4 5.7zm-9.2-.1c-.4-.1-2.9.2-2.9-7.4v-23.9c0-.3 0-1.1-.9-1.1s-6.9.3-7.3.4-.7.5 0 .5 3.9.3 3.9 5.6v7.3c0 .2 0 .3-.1.4v.1c-.1.1-.2 0-.5-.2a10.23 10.23 0 0 0 -5.7-1.8c-4.7 0-10.5 3.4-10.5 10.4 0 7.5 5.3 11.1 10.8 11.1a10.2 10.2 0 0 0 5.3-1.6c.8-.5.7-.4.8.3.1.5 0 1.5 1.4 1.4s5.1-.6 5.8-.7c.7-.3.5-.7-.1-.8zm-12.4.3c-4.4 0-6.7-5.2-6.7-10.2 0-5.5 3.1-9.2 6.4-9 4.3.3 5.4 3.7 5.5 9.8v1.3c-.1 6-2.6 8.1-5.2 8.1zm-11.7-1.3a1.93 1.93 0 0 1 -1.7 1.2c-.6 0-2.4-.1-2.4-4.8v-10.1c0-3.1-2.4-5.6-8.6-5.6-6.7 0-6.8 3.3-6.8 4.1s.4 1.9 2.1 1.9c1.5 0 1.9-1.7 2.1-2.3s.3-2.7 3-2.7c2.3 0 3.8 2 3.8 5v1a2.54 2.54 0 0 1 -1.7 2.6 29.72 29.72 0 0 1 -5.1 1.2c-1.4.3-5.3 1.3-5.2 5.4s4.1 5.4 6.9 5.3a8 8 0 0 0 5-1.8c.4-.3.4-.3.7.1s1.7 1.7 4.8 1.7 3.6-1.5 3.8-2-.4-.7-.7-.2zm-12.4 1.1a3.36 3.36 0 0 1 -3.5-3.51 6.05 6.05 0 0 1 3.4-5 27.32 27.32 0 0 1 3.8-1.8h.2v4.7c0 3.21-1.6 5.61-3.9 5.61zm-9.6-.1c-.8-.2-2.2-1.1-2.2-5.5v-8c0-1.9.2-6.8-7.3-6.8a10.15 10.15 0 0 0 -6.3 2.1c-.3.3-.5.4-.6-.1s-.3-1-.4-1.4-.3-.6-1-.5-5.1.8-5.9 1-.5.5 0 .6 2.9.3 2.9 4.4v8.6c0 5-1 5.4-1.9 5.7-1.2.3-.6.7-.1.7h9.1c.6 0 .9-.6-.3-.8s-2.3-.9-2.3-4.8v-5.5c0-2.1-.5-8.5 5.3-8.6 4.1-.1 4.5 3.3 4.5 5.5v8.5c0 3.5-1 4.6-2.2 4.8s-.9.7-.3.7h9.3c.5.2 1-.3-.3-.6zm-24.3-1a1.93 1.93 0 0 1 -1.7 1.2c-.6 0-2.4-.1-2.4-4.8v-10.1c0-3.1-2.4-5.6-8.6-5.6-6.7 0-6.8 3.3-6.8 4.1s.4 1.9 2.1 1.9c1.5 0 1.9-1.7 2.1-2.3s.3-2.7 3-2.7c2.3 0 3.7 2 3.8 4.9v1.1a.75.75 0 0 1 -.1.5v.1a2.4 2.4 0 0 1 -1.6 1.9 29.72 29.72 0 0 1 -5.1 1.2c-1.4.3-5.3 1.3-5.2 5.4s4.1 5.4 6.9 5.3a8 8 0 0 0 5-1.8c.4-.3.4-.3.7.1s1.7 1.7 4.8 1.7 3.6-1.5 3.8-2c.2-.3-.5-.6-.7-.1zm-12.5 1.1a3.36 3.36 0 0 1 -3.5-3.51c0-1.2.6-3.4 3.4-5a27.32 27.32 0 0 1 3.8-1.8h.2a.35.35 0 0 1 .1.2v4.5c0 3.21-1.6 5.61-4 5.61zm-9.6-8.7c-1 3.2-2.9 8.4-9.8 8.6-7.2.1-11.5-4.8-11.7-13.9-.3-9.7 3.9-17.1 10.4-17.3 7.3-.1 9.9 8.6 10 9.9a.7.7 0 1 0 1.4-.1c0-.5-.6-9.1-.8-10.1s-1-.6-1.2-.2.1-.3-.3.6-1.5.4-1.9.3a15.42 15.42 0 0 0 -7.2-1.61c-8.5.21-17.2 6.51-17 17.51a16.55 16.55 0 0 0 16.8 16.6c7.3-.1 11.4-4.7 12.6-10 .4-1.3-.9-1.6-1.3-.3z"/></svg>