<svg xmlns="http://www.w3.org/2000/svg" fill="none" aria-hidden="true" viewBox="0 0 270.874 386.243"><mask id="a" width="272" height="387" x="0" y="0" maskUnits="userSpaceOnUse" style="mask-type:alpha"><rect width="270.874" height="386.243" class="cls-1" rx="10"/></mask><g mask="url(#a)"><path d="M176.986 450.674c-35.132 0-66.977-14.084-90.163-36.931-9.702-9.546-22.378-14.241-35.053-14.11l-20.918-78.14 20.918-77.722c8.71.079 17.552-2.112 25.403-6.572a49.98 49.98 0 0 0 10.015-7.512c23.186-22.612 54.849-36.565 89.798-36.565 67.576 0 123.364 52.918 128.293 119.243.261 3.547.365 7.146.339 10.771-.652 70.55-58.005 127.538-128.632 127.538Z" class="cls-2"/><path d="M176.986 450.673c-35.132 0-66.977-14.084-90.163-36.931-9.702-9.546-22.378-14.24-35.053-14.11l-20.918-78.139 20.918-77.722c8.71.078 17.552-2.113 25.403-6.573v141.1A49.676 49.676 0 0 1 87.71 386.2c23.212 22.847 55.057 36.931 90.162 36.931 64.943 0 118.644-48.172 127.407-110.767.261 3.547.365 7.147.339 10.772-.652 70.55-58.004 127.537-128.632 127.537Z" class="cls-3"/><path d="M221.873 372.924c0-14.553-11.815-26.394-26.368-26.394H185.02v-50.05h10.667c14.527 0 26.368-11.841 26.368-26.394 0-14.553-11.815-26.394-26.368-26.394-14.553 0-26.368 11.841-26.368 26.394v10.693H30.828v15.701h138.491v50.05H30.828v15.701h138.491v10.615c0 14.58 11.736 26.447 26.185 26.447 14.528 0 26.369-11.841 26.369-26.369ZM185.02 270.086c0-5.894 4.799-10.693 10.667-10.693 5.868 0 10.667 4.799 10.667 10.693 0 5.894-4.773 10.693-10.667 10.693H185.02v-10.693Zm0 102.76v-10.615h10.484c5.869 0 10.668 4.799 10.668 10.693 0 5.895-4.773 10.694-10.668 10.694-5.79-.026-10.484-4.851-10.484-10.772Z" class="cls-4"/><path d="M1.014 417.159c-6.625 0-11.972-5.372-11.972-11.997V238.92c0-3.312 1.33-6.311 3.495-8.476a11.965 11.965 0 0 1 8.477-3.521c1.278 0 2.504.13 3.703.365 8.946 1.721 15.675 9.598 15.675 19.039l10.459 75.192-10.459 76.236c0 1.956-.287 3.86-.834 5.633-.94 3.078-2.609 5.869-4.826 8.086-3.52 3.521-8.346 5.685-13.718 5.685Z" class="cls-4"/><path d="M1.014 417.159c-6.625 0-11.971-5.372-11.971-11.997V238.92c0-3.312 1.33-6.311 3.494-8.476a11.965 11.965 0 0 1 8.477-3.521c1.278 0 2.504.13 3.704.365v164.338a11.955 11.955 0 0 0 11.97 11.971c.966 0 1.93-.078 2.87-.209-.94 3.078-2.608 5.869-4.825 8.086-3.521 3.521-8.346 5.685-13.72 5.685Z" class="cls-5"/><path d="M32.39 416.846c-6.625 0-11.972-5.373-11.972-11.997V238.581c0-3.312 1.33-6.312 3.495-8.477a11.969 11.969 0 0 1 8.477-3.521c1.278 0 2.504.131 3.703.366 8.946 1.721 15.675 9.598 15.675 19.039v151.428c0 1.956-.287 3.86-.834 5.633-.94 3.078-2.609 5.868-4.825 8.085a19.254 19.254 0 0 1-13.72 5.712Z" class="cls-4"/><path d="M32.392 416.846c-6.625 0-11.972-5.373-11.972-11.997V238.581c0-3.312 1.33-6.312 3.495-8.477a11.969 11.969 0 0 1 8.477-3.521c1.278 0 2.503.131 3.703.366v164.337a11.955 11.955 0 0 0 11.971 11.972c.965 0 1.93-.078 2.87-.209-.94 3.078-2.609 5.868-4.826 8.085a19.253 19.253 0 0 1-13.718 5.712Z" class="cls-5"/></g></svg>