<svg width="13" height="18" viewBox="0 0 13 18" fill="none" xmlns="http://www.w3.org/2000/svg">
<g clip-path="url(#clip0_766_17826)">
<path d="M4.57485 3.10544C6.01052 5.50201 7.80619 8.50333 8.90819 11.0567C9.50089 10.3534 10.436 9.30517 11.2614 8.45405V2.49622H4.21045L4.57485 3.10544Z" fill="var(--fl-fgColor, #00A0CD)"/>
<path d="M9.2023 11.7689C9.5228 12.5394 9.74671 13.3458 9.87842 14.17C10.0101 14.833 9.86525 15.5228 9.47889 16.0738C9.27693 16.3202 8.98278 16.4591 8.66667 16.4591C8.35495 16.4411 8.06518 16.2933 7.86322 16.0514C7.46809 15.59 7.28369 14.9808 7.34515 14.3671C7.44613 13.3771 7.82371 12.4364 8.42519 11.657C7.36711 9.09911 5.48362 5.94549 3.99527 3.4638L3.42013 2.49622H0V17.4311H11.257V9.43956C10.4623 10.2907 9.65012 11.2269 9.2023 11.7689Z" fill="var(--fl-fgColor, #00A0CD)"/>
<path d="M8.35924 15.59C8.43826 15.6886 8.54802 15.7602 8.67095 15.7826C8.78949 15.7826 8.89926 15.7244 8.97389 15.6303C9.22415 15.2272 9.31195 14.7389 9.21097 14.273C9.11438 13.6459 8.95194 13.0277 8.72364 12.4364C8.33289 13.0322 8.08703 13.7176 8.01678 14.4298C7.97288 14.8464 8.09581 15.2675 8.35924 15.59Z" fill="var(--fl-fgColor, #00A0CD)"/>
<path d="M12.5609 8.92894C12.8033 8.92894 12.9999 8.72838 12.9999 8.48098C12.9999 8.23358 12.8033 8.03302 12.5609 8.03302C12.3184 8.03302 12.1218 8.23358 12.1218 8.48098C12.1218 8.72838 12.3184 8.92894 12.5609 8.92894Z" fill="var(--fl-fgColor, #00A0CD)"/>
<path d="M4.05244 1.12101C4.05244 1.50177 3.7495 1.81086 3.37632 1.81086C3.00313 1.81086 2.7002 1.50177 2.7002 1.12101C2.7002 0.740243 3.00313 0.431152 3.37632 0.431152C3.75389 0.431152 4.05244 0.735764 4.05244 1.12101Z" fill="var(--fl-fgColor, #00A0CD)"/>
</g>
<defs>
<clipPath id="clip0_766_17826">
<rect width="13" height="17" fill="white" transform="translate(0 0.431152)"/>
</clipPath>
</defs>
</svg>
