<svg fill="none" height="50" viewBox="0 0 50 50" width="50" xmlns="http://www.w3.org/2000/svg"><path clip-rule="evenodd" d="m25 0c-13.8071 0-25 11.1929-25 25s11.1929 25 25 25 25-11.1929 25-25-11.1929-25-25-25zm-12.9983 20.7061h5.6655v17.0226h-5.6655zm6.0387-5.2658c-.0368-1.669-1.2303-2.9403-3.1685-2.9403-1.9381 0-3.2052 1.2713-3.2052 2.9403 0 1.6345 1.2296 2.9424 3.1317 2.9424h.0362c1.9755 0 3.2058-1.3079 3.2058-2.9424zm13.5358 4.8661c3.7282 0 6.5232 2.4335 6.5232 7.6621l-.0003 9.7602h-5.6653v-9.1071c0-2.2875-.8198-3.8484-2.8708-3.8484-1.5652 0-2.4975 1.0523-2.907 2.0686-.1498.3643-.1865.8718-.1865 1.3805v9.5069h-5.6663s.0747-15.4253 0-17.0227h5.6663v2.4112c.7519-1.1591 2.0986-2.8113 5.1067-2.8113z" fill="#fff" fill-rule="evenodd"/></svg>
