<svg width="92" height="110" viewBox="0 0 92 110" fill="none" xmlns="http://www.w3.org/2000/svg">
<path d="M38.0015 68.0732C36.8929 69.6754 35.7843 71.1382 34.6064 72.5314C36.0615 74.0639 37.5165 75.5964 38.9716 77.0592C40.0802 76.084 41.1888 75.1088 42.2281 74.0639C40.7038 72.1135 39.2487 70.0934 38.0015 68.0732Z" fill="#85BBD1"/>
<path d="M33.29 81.1688C35.2994 79.9149 37.1701 78.5218 38.9023 76.9893C37.4473 75.5264 35.9922 73.9939 34.5372 72.4614C32.6664 74.7602 30.5878 76.9196 28.3706 78.8701C30.1721 79.6363 31.7657 80.4025 33.29 81.1688Z" fill="#6995BF"/>
<path d="M89.4821 39.7918H90.2443C88.8585 28.507 83.1769 18.2672 74.4467 11.0923C62.6678 22.3074 57.8869 46.1307 50.4731 61.804C51.7203 64.0331 52.9675 66.1228 54.3533 68.0036C62.1828 55.674 68.9037 39.7918 89.4821 39.7918Z" fill="#FADC90"/>
<path d="M54.2842 68.0732C55.3928 69.6754 56.5014 71.0685 57.6793 72.4617C64.3309 65.3565 71.6754 57.9727 88.8587 57.8333C90.0366 53.7931 90.5909 49.6136 90.5909 45.434C90.5909 43.5533 90.4523 41.7421 90.2445 39.8613H89.4823C68.9039 39.8613 62.183 55.6739 54.2842 68.0732Z" fill="#FDCC70"/>
<path d="M54.2842 68.0032C54.2842 68.0496 54.2842 68.0496 54.2842 68.0032C62.2523 55.6736 68.9039 39.7913 89.4823 39.7913V39.7217C68.9039 39.7913 62.183 55.6736 54.2842 68.0032Z" fill="#FDCC70"/>
<path d="M57.6792 72.4617C59.55 74.7605 61.6286 76.9199 63.8458 78.8703C68.7652 76.9199 73.8925 75.666 79.1584 75.1784C83.6621 70.163 86.9879 64.242 88.8586 57.7637C71.6753 57.9726 64.3308 65.4262 57.6792 72.4617Z" fill="#FCB33E"/>
<path d="M69.3888 83.3285C72.9917 81.0994 76.3175 78.3827 79.1583 75.248C73.8925 75.7357 68.7652 76.9895 63.915 78.94C65.5779 80.4725 67.4487 82.005 69.3888 83.3285Z" fill="#F49822"/>
<path d="M46.1078 69.2575L46.3157 69.0486C47.9093 66.7498 49.2258 64.3814 50.4037 61.8737C48.8101 58.948 47.355 55.9527 46.1078 52.8877C44.8607 55.9527 43.4056 58.948 41.812 61.8737C42.9899 64.3814 44.3757 66.8195 45.9 69.0486C46.0386 69.1182 46.0386 69.1879 46.1078 69.2575Z" fill="#CEE6C5"/>
<path d="M46.1079 69.2574C47.2858 70.9292 48.6023 72.5314 50.0573 73.9942C51.5816 72.1134 52.9674 70.1629 54.2839 68.0732C52.9674 66.1227 51.6509 64.033 50.4037 61.8735C49.2259 64.3813 47.8401 66.8193 46.3158 69.0484C46.2465 69.1181 46.1772 69.1877 46.1079 69.2574Z" fill="#C0D8CA"/>
<path d="M57.6793 72.4618C56.5014 71.1382 55.3928 69.6057 54.2842 68.0732C52.9677 70.0934 51.5819 72.1135 50.0576 73.9943C50.5426 74.5515 51.0969 75.0391 51.6512 75.5267C52.2055 76.0144 52.7598 76.502 53.3141 76.9896C54.7692 75.5964 56.2242 74.0639 57.6793 72.4618Z" fill="#C1C6C1"/>
<path d="M54.2842 68.0732C55.3928 69.6057 56.5014 71.1382 57.6793 72.4618C56.5014 71.0686 55.3928 69.6057 54.2842 68.0732Z" fill="#C1C6C1"/>
<path d="M63.8457 78.9397C61.6285 76.9196 59.6191 74.7602 57.6791 72.4614C56.224 73.9939 54.769 75.5264 53.314 76.9893C55.1154 78.5218 56.9862 79.9149 58.9263 81.1688C59.6884 80.7508 60.4506 80.4025 61.282 80.0543C61.7671 79.8453 62.2521 79.6363 62.7371 79.4273C63.0835 79.2183 63.43 79.079 63.8457 78.9397Z" fill="#A0B9C1"/>
<path d="M63.8458 78.9399C61.6286 76.9198 59.6193 74.7603 57.6792 72.5312C59.55 74.7603 61.6286 76.9198 63.8458 78.9399Z" fill="#A0B9C1"/>
<path d="M61.2821 80.0546C60.4506 80.4029 59.6884 80.8209 58.9263 81.2388C61.2128 82.7017 63.6378 84.0252 66.1322 85.1398C67.2408 84.5825 68.2801 84.0252 69.3194 83.3983C67.3794 82.0748 65.5086 80.5423 63.7764 79.0098C63.43 79.1491 63.0835 79.2884 62.6678 79.4277C62.2521 79.567 61.7671 79.8457 61.2821 80.0546Z" fill="#8CB6C6"/>
<path d="M61.2822 80.0547C61.7672 79.8457 62.2523 79.6367 62.7373 79.4277C62.2523 79.5671 61.7672 79.8457 61.2822 80.0547Z" fill="#8CB6C6"/>
<path d="M25.9453 50.1708C30.7262 55.5345 34.1905 62.1521 38.0014 68.0035C39.3871 65.9834 40.7036 63.8936 41.8815 61.7342C34.4677 46.2699 29.6868 22.7948 18.1851 11.4404C9.6627 18.6153 4.18898 28.7158 2.80322 39.7916C4.95114 39.7916 6.96048 40.0006 8.83125 40.3489C16.3143 41.6027 21.6495 45.3643 25.9453 50.1708Z" fill="#ACDDE9"/>
<path d="M42.228 73.9944C43.6138 72.5315 44.9302 70.9294 46.1081 69.3272C46.0388 69.2575 45.9695 69.1879 45.9695 69.1182C44.3759 66.8195 43.0595 64.4511 41.8816 61.9434C40.7037 64.1028 39.3872 66.1926 38.0015 68.2127C39.2486 70.0935 40.7037 72.1136 42.228 73.9944Z" fill="#AEDBD5"/>
<path d="M42.228 73.9941C43.3366 75.3873 44.5838 76.6412 45.9696 77.8254L46.1774 77.9647L46.3853 77.8254C47.771 76.6412 49.0182 75.3873 50.1268 73.9941C48.7411 72.5313 47.4246 70.9291 46.1774 69.2573C44.9302 70.9291 43.6138 72.5313 42.228 73.9941Z" fill="#B0D0BE"/>
<path d="M46.1081 69.2573C44.9302 70.9291 43.6137 72.4616 42.1587 73.9245C43.6137 72.5313 44.9302 70.9291 46.1081 69.2573Z" fill="#B0D0BE"/>
<path d="M50.0573 73.9941C48.9487 75.3873 47.7015 76.6412 46.3158 77.8254L46.1079 77.9647C47.1472 78.8006 48.2558 79.6365 49.3644 80.3331C50.0573 79.8455 50.6809 79.2882 51.3738 78.7309C51.9974 78.1737 52.621 77.6164 53.2445 76.9895C52.6902 76.5019 52.1359 76.0142 51.5816 75.5266C51.0966 75.039 50.5423 74.4818 50.0573 73.9941Z" fill="#B2BCB1"/>
<path d="M49.4341 80.3331C50.7505 81.169 52.067 81.9352 53.4528 82.6318C53.9378 82.8408 54.3535 83.1194 54.8385 83.3284C56.155 82.6318 57.5407 81.9352 58.9265 81.2386C56.9171 79.9848 55.0464 78.5916 53.2449 77.0591C52.6213 77.686 51.9977 78.2433 51.3741 78.8006C50.7505 79.2882 50.127 79.8454 49.4341 80.3331Z" fill="#8EABB8"/>
<path d="M63.1529 86.4632C64.1922 86.0452 65.1622 85.6273 66.1323 85.1397C63.6379 84.0251 61.2128 82.7016 58.9264 81.2388C57.5406 81.9354 56.2241 82.6319 54.8384 83.3285C57.5406 84.5127 60.3121 85.5576 63.1529 86.4632Z" fill="#77A5BB"/>
<path d="M4.18913 57.8333C20.8182 58.2513 28.0241 65.4958 34.5371 72.4617C35.6457 71.0685 36.8236 69.6057 37.9322 68.0035C34.1907 62.1522 30.7263 55.5346 25.9455 50.1708C21.6496 45.434 16.3838 41.6725 8.90069 40.3489C7.02993 40.0006 5.02059 39.8613 2.87267 39.8613C2.04122 45.852 2.45694 51.982 4.18913 57.8333Z" fill="#84BCDE"/>
<path d="M8.83125 40.279C6.96048 39.9307 4.95114 39.7913 2.80322 39.7217C4.95114 39.7913 6.96048 40.0003 8.83125 40.279Z" fill="#84BCDE"/>
<path d="M42.228 73.9943C40.7037 72.1135 39.3179 70.0934 38.0015 68.0732C39.2486 70.0934 40.7037 72.1135 42.228 73.9943Z" fill="#85BBD1"/>
<path d="M45.9692 77.8254C44.5835 76.6412 43.3363 75.3873 42.2277 73.9941C41.1884 75.039 40.1491 76.0839 38.9712 76.9895C40.2184 78.1737 41.4655 79.2882 42.8513 80.3331C43.9599 79.6365 45.0685 78.8006 46.1078 77.9647L45.9692 77.8254Z" fill="#88B5C4"/>
<path d="M46.1081 82.423L46.316 82.3534C47.4246 81.7961 48.4639 81.0995 49.4339 80.3332C48.3253 79.6367 47.2167 78.8008 46.1774 77.9648C45.1381 78.8008 44.0295 79.6367 42.9209 80.3332C43.8909 81.0995 44.9302 81.7264 46.0388 82.3534L46.1081 82.423Z" fill="#8CAABB"/>
<path d="M49.4337 80.333C48.4637 81.0993 47.4244 81.7262 46.3158 82.3531L46.1079 82.4228C47.8401 83.3283 49.6416 84.1643 51.5123 84.7912C52.621 84.3036 53.7296 83.816 54.7689 83.2587C54.2839 83.0497 53.8681 82.8407 53.3831 82.5621C52.0666 81.9352 50.7502 81.1689 49.4337 80.333Z" fill="#74A0BF"/>
<path d="M53.4526 82.6318C53.9377 82.8408 54.3534 83.1194 54.8384 83.3284C54.3534 83.0498 53.9377 82.8408 53.4526 82.6318Z" fill="#74A0BF"/>
<path d="M51.582 84.7915C54.5614 85.8363 57.6101 86.6722 60.6587 87.3688C61.4902 87.0902 62.3216 86.8116 63.0838 86.4633C60.243 85.6274 57.4715 84.5128 54.8385 83.3286C53.7992 83.8162 52.6906 84.3038 51.582 84.7915Z" fill="#639CC0"/>
<path d="M54.8384 83.2588C57.4713 84.5126 60.2428 85.5575 63.0836 86.4631H63.1529C60.3121 85.5575 57.5406 84.5126 54.8384 83.2588Z" fill="#639CC0"/>
<path d="M34.6063 72.4614C28.024 65.4955 20.8181 58.1813 4.2583 57.833C6.12907 64.3113 9.52416 70.302 14.0971 75.3174C19.0166 75.805 23.8667 77.0589 28.509 78.87C30.6569 76.9196 32.6662 74.7601 34.6063 72.4614Z" fill="#6895C6"/>
<path d="M38.9717 76.9893C37.1702 78.5218 35.2994 79.9149 33.3594 81.1688C34.7451 81.8654 36.0616 82.562 37.4473 83.2586C39.3181 82.4227 41.1196 81.4474 42.8518 80.3329C41.466 79.288 40.1496 78.1735 38.9717 76.9893Z" fill="#6B91B7"/>
<path d="M33.3594 81.1688C35.2994 79.9149 37.2395 78.5218 38.9717 76.9893C37.1702 78.5218 35.2994 79.9149 33.3594 81.1688Z" fill="#6B91B7"/>
<path d="M44.7917 83.1194C45.2074 82.9104 45.6924 82.7014 46.1082 82.4228L45.9003 82.3531C44.7917 81.7958 43.7524 81.0993 42.7824 80.333C41.0502 81.4476 39.2487 82.4228 37.3779 83.2587C38.4172 83.816 39.5258 84.3036 40.6345 84.7912C42.0895 84.3036 43.4752 83.7463 44.7917 83.1194Z" fill="#6F8AB1"/>
<path d="M44.7916 83.1196C43.4751 83.7465 42.0894 84.3038 40.7036 84.7914C42.4358 85.488 44.168 86.1149 45.9695 86.6026L46.1773 86.6722L46.3852 86.6026C46.8009 86.4632 47.2859 86.3239 47.7017 86.2543C48.6024 85.9756 49.4339 85.697 50.3346 85.3487C50.7503 85.2094 51.166 85.0004 51.6511 84.8611C49.7803 84.2342 47.9788 83.3982 46.2466 82.4927C45.6923 82.632 45.2766 82.9106 44.7916 83.1196Z" fill="#6085B3"/>
<path d="M47.6322 86.2539C47.2165 86.3932 46.7315 86.5325 46.3158 86.6021L46.1079 86.6718C49.5723 87.5077 53.0367 88.1346 56.5703 88.5526C57.9561 88.2043 59.2726 87.856 60.589 87.3684C57.5404 86.6718 54.4917 85.8359 51.5123 84.791C51.0966 85 50.6809 85.1393 50.1959 85.2786C49.4337 85.6269 48.533 85.9752 47.6322 86.2539Z" fill="#5482B3"/>
<path d="M47.6323 86.2542C48.5331 85.9756 49.3645 85.6969 50.2653 85.3486C49.4338 85.6273 48.5331 85.9756 47.6323 86.2542Z" fill="#5482B3"/>
<path d="M23.3124 83.0495C25.1139 81.7957 26.7768 80.4025 28.4397 78.87C23.8667 76.9892 19.0166 75.805 14.0972 75.3174C16.7301 78.3127 19.848 80.9598 23.3124 83.0495Z" fill="#556DA2"/>
<path d="M14.0278 75.3174C18.9473 75.8747 23.7974 77.0589 28.3704 78.9397C23.7974 76.9892 18.9473 75.805 14.0278 75.3174Z" fill="#556DA2"/>
<path d="M33.2899 81.2388C31.7656 80.4726 30.172 79.7064 28.4398 79.0098C26.7769 80.4726 25.114 81.8658 23.3125 83.1893C24.3518 83.8859 25.4604 84.4432 26.569 85.0004C28.8555 83.8162 31.142 82.5624 33.2899 81.2388Z" fill="#566D9E"/>
<path d="M33.2897 81.1689C33.2897 81.2154 33.2897 81.2154 33.2897 81.1689C31.1418 82.5621 28.8553 83.816 26.5688 84.9305C27.5389 85.4181 28.5089 85.9058 29.5482 86.3237C32.2504 85.4878 34.8834 84.4429 37.3777 83.2587C36.0613 82.5621 34.6755 81.8655 33.2897 81.1689Z" fill="#566A9A"/>
<path d="M33.3594 81.1689C34.7451 81.8655 36.1309 82.5621 37.4473 83.2587C36.0616 82.5621 34.7451 81.8655 33.3594 81.1689Z" fill="#566A9A"/>
<path d="M33.2897 81.2388C31.1418 82.6319 28.8553 83.8162 26.5688 84.9307H26.6381C28.9246 83.8162 31.1418 82.6319 33.2897 81.2388Z" fill="#566A9A"/>
<path d="M38.5557 85.4879C39.2486 85.2789 40.0108 85.0003 40.7037 84.7913C39.595 84.3037 38.4864 83.8161 37.4471 83.2588C34.8835 84.443 32.2506 85.4182 29.5483 86.3238C30.3798 86.6721 31.2112 87.0204 32.0427 87.299C33.4977 86.9507 34.9528 86.6024 36.4078 86.1845C37.17 85.9755 37.8629 85.7665 38.5557 85.4879Z" fill="#586697"/>
<path d="M36.4076 86.1842C34.9526 86.6021 33.4975 86.9504 32.0425 87.2987C33.3589 87.7863 34.7447 88.1346 36.1305 88.4829C39.4563 88.065 42.8514 87.4381 46.1079 86.6718L45.9 86.6021C44.0985 86.1145 42.3663 85.5573 40.6342 84.791C39.9413 85.0697 39.2484 85.2786 38.4862 85.4876C37.8626 85.7662 37.1698 85.9752 36.4076 86.1842Z" fill="#506499"/>
<path d="M38.5557 85.4876C39.2485 85.2786 40.0107 85 40.7036 84.791C40.0107 85.0697 39.3178 85.2786 38.5557 85.4876Z" fill="#506499"/>
<path d="M36.4076 86.1846C34.9526 86.6025 33.4975 86.9508 32.0425 87.2991C33.5668 86.9508 35.0218 86.6025 36.4076 86.1846Z" fill="#506499"/>
<path d="M36.1309 88.483C42.8518 90.0852 49.8498 90.1548 56.5707 88.5527C53.037 88.1347 49.5727 87.5078 46.1083 86.6719C42.8518 87.4381 39.526 88.0651 36.1309 88.483Z" fill="#486399"/>
<path d="M36.1309 88.483C39.4567 88.0651 42.7825 87.4381 46.1083 86.6719C42.8518 87.4381 39.526 88.0651 36.1309 88.483Z" fill="#486399"/>
<path d="M46.1773 15.2716C50.004 15.2716 53.1061 12.1529 53.1061 8.30574C53.1061 4.45858 50.004 1.33984 46.1773 1.33984C42.3506 1.33984 39.2485 4.45858 39.2485 8.30574C39.2485 12.1529 42.3506 15.2716 46.1773 15.2716Z" fill="#6895C6"/>
<path d="M14.5821 98.9321L11.8521 107.222H10.2239L8.18682 101.092L6.11512 107.222H4.47993L1.75 98.9321H3.33669L5.3876 105.229L7.52166 98.9321H8.93513L11.0207 105.264L13.127 98.9321H14.589H14.5821Z" fill="black"/>
<path d="M24.9685 105.933V107.222H18.7881V98.9321H24.8092V100.221H20.3193V102.373H24.3034V103.641H20.3193V105.926H24.9685V105.933Z" fill="black"/>
<path d="M35.2506 103.077C35.2506 100.604 37.1352 98.8135 39.6642 98.8135C41.0084 98.8135 42.1586 99.3011 42.9277 100.2L41.9368 101.133C41.334 100.485 40.5927 100.165 39.7335 100.165C38.029 100.165 36.7888 101.37 36.7888 103.077C36.7888 104.783 38.0221 105.988 39.7335 105.988C40.5927 105.988 41.334 105.668 41.9368 105.006L42.9277 105.954C42.1655 106.852 41.0084 107.34 39.6503 107.34C37.1283 107.34 35.2437 105.55 35.2437 103.077H35.2506Z" fill="black"/>
<path d="M46.6001 103.077C46.6001 100.625 48.4847 98.8135 51.0414 98.8135C53.5982 98.8135 55.4828 100.611 55.4828 103.077C55.4828 105.543 53.5982 107.34 51.0414 107.34C48.4847 107.34 46.6001 105.529 46.6001 103.077ZM53.9377 103.077C53.9377 101.384 52.6974 100.165 51.0414 100.165C49.3855 100.165 48.1452 101.384 48.1452 103.077C48.1452 104.769 49.3855 105.988 51.0414 105.988C52.6974 105.988 53.9377 104.769 53.9377 103.077Z" fill="black"/>
<path d="M59.9863 103.613V98.939H61.5176V103.557C61.5176 105.264 62.2867 105.995 63.617 105.995C64.9473 105.995 65.7026 105.264 65.7026 103.557V98.939H67.213V103.613C67.213 106.03 65.855 107.34 63.6101 107.34C61.3652 107.34 59.9933 106.023 59.9933 103.613H59.9863Z" fill="black"/>
<path d="M79.6362 98.9321V107.222H78.3752L73.8299 101.607V107.222H72.3125V98.9321H73.5735L78.1188 104.547V98.9321H79.6362Z" fill="black"/>
<path d="M86.4819 100.235H83.752V98.9321H90.75V100.235H88.0201V107.222H86.4888V100.235H86.4819Z" fill="black"/>
</svg>
