<svg xmlns="http://www.w3.org/2000/svg" class="logo" viewBox="0 0 90 107"><g clip-path="url(#a)"><path fill="#85BBD1" d="M36.276 67.756a68.178 68.178 0 0 1-3.459 4.484c1.493 1.567 2.95 3.113 4.47 4.568a45.014 45.014 0 0 0 3.296-3.05 60.636 60.636 0 0 1-4.314-5.96s.007-.014.014-.014c0 0 0-.007-.007-.014v-.014Z"/><path fill="#6995BF" d="M31.53 81.025v-.014h.014a52.468 52.468 0 0 0 5.75-4.203c-1.52-1.455-2.977-3-4.463-4.56a64.303 64.303 0 0 1-6.287 6.493c1.803.703 3.43 1.504 4.993 2.29l-.007-.006Z"/><path fill="#FADC90" d="M88.868 39.244v.035h.785c-1.442-11.364-7.228-21.737-16.16-28.982-12.017 11.308-16.89 35.343-24.5 51.148a72.726 72.726 0 0 0 3.932 6.29c8.077-12.489 14.923-28.49 35.943-28.49Z"/><path fill="#FDCC70" d="M52.946 67.77a73.817 73.817 0 0 0 3.438 4.449c6.79-7.14 14.3-14.604 31.813-14.794a44.585 44.585 0 0 0 1.796-12.51c0-1.883-.127-3.76-.375-5.621h-.757v-.021c-20.999.013-27.845 16.009-35.915 28.49v.007Z"/><path fill="#FDCC70" d="M52.918 67.735s.007.014.014.02c0 0 .007.015.014.015 8.077-12.481 14.916-28.477 35.915-28.49v-.036c-21.02 0-27.866 16.002-35.943 28.49Z"/><path fill="#FCB33E" d="M56.405 72.24a62.144 62.144 0 0 0 6.287 6.493 55.242 55.242 0 0 1 15.603-3.71 44.562 44.562 0 0 0 9.901-17.57l.036-.028c-17.526.19-25.03 7.66-31.827 14.807v.007Z"/><path fill="#F49822" d="M68.358 83.189a44.976 44.976 0 0 0 9.972-8.16h-.035a55.137 55.137 0 0 0-15.596 3.711 60.416 60.416 0 0 0 5.659 4.449Z"/><path fill="#CEE6C5" d="M44.614 68.978c.057-.077.128-.154.184-.245a49.476 49.476 0 0 0 4.188-7.267 79.618 79.618 0 0 1-4.371-9.052 82.685 82.685 0 0 1-4.371 9.052 49.475 49.475 0 0 0 4.187 7.267c.056.084.12.168.184.245Z"/><path fill="#C0D8CA" d="M48.986 61.43v.037s0-.014.007-.022c0 0 0-.007-.008-.014Z"/><path fill="#C0D8CA" d="M44.614 68.978a42.902 42.902 0 0 0 4.004 4.758 60.584 60.584 0 0 0 4.307-5.96s-.007-.013-.014-.02a78.982 78.982 0 0 1-3.925-6.29 49.466 49.466 0 0 1-4.188 7.267c-.056.09-.127.168-.184.245Z"/><path fill="#C0D8CA" d="M52.918 67.735a71.634 71.634 0 0 1-3.932-6.29s0 .014-.008.021a81.64 81.64 0 0 0 3.926 6.29s.007-.014.014-.02ZM52.91 67.756s.008.014.015.021c0 0-.007-.014-.014-.021Z"/><path fill="#C0D8CA" d="M52.94 67.756s-.008-.014-.015-.022c0 0-.007.015-.014.022a.1.1 0 0 0 .014.02s.007-.013.014-.02Z"/><path fill="#C1C6C1" d="M56.39 72.226s-.007.014-.014.014a67.595 67.595 0 0 1-3.451-4.463 60.585 60.585 0 0 1-4.307 5.96c.523.541 1.06 1.068 1.62 1.574a48.433 48.433 0 0 0 1.69 1.497c1.52-1.455 2.984-3 4.477-4.568 0 0-.007-.014-.014-.014Z"/><path fill="#C1C6C1" d="M52.94 67.791s-.008-.014-.015-.014a67.63 67.63 0 0 0 3.451 4.463s.008-.014.015-.014a70.431 70.431 0 0 1-3.438-4.449s-.007.014-.014.021v-.007Z"/><path fill="#C1C6C1" d="M52.94 67.792s.007-.014.014-.022c0 0-.007-.014-.015-.014 0 0-.007.014-.014.022 0 0 .007.014.014.014Z"/><path fill="#A0B9C1" d="M62.671 78.74h.014a62.067 62.067 0 0 1-6.28-6.493c-1.493 1.567-2.957 3.113-4.477 4.568a52.758 52.758 0 0 0 5.764 4.217c.778-.394 1.57-.78 2.398-1.16.488-.225.983-.45 1.492-.667.36-.155.721-.31 1.09-.457v-.007Z"/><path fill="#A0B9C1" d="M62.685 78.733a62.864 62.864 0 0 1-6.287-6.494 62.077 62.077 0 0 0 6.28 6.494h.007Z"/><path fill="#8CB6C6" d="M60.083 79.865c-.82.386-1.613.773-2.391 1.166a60.41 60.41 0 0 0 7.348 3.943 45.994 45.994 0 0 0 3.282-1.785 59.115 59.115 0 0 1-5.65-4.442c-.376.148-.736.295-1.097.45-.51.218-1.012.443-1.492.668ZM62.671 78.74h.007s.015 0 .022-.007h-.022l-.007.008Z"/><path fill="#8CB6C6" d="M60.083 79.865c.488-.225.983-.443 1.492-.668-.51.218-1.012.436-1.492.668Z"/><path fill="#ACDDE9" d="M23.99 49.723c4.902 5.418 8.452 12.109 12.272 17.998v.007c0 .007.014.021.02.028a73.016 73.016 0 0 0 3.962-6.325C32.71 45.823 27.838 22.104 16.112 10.648 7.426 17.88 1.81 28.091.382 39.252c2.214 0 4.265.196 6.181.527 7.646 1.328 13.078 5.123 17.428 9.937v.007Z"/><path fill="#AEDBD5" d="M40.611 73.737a43.41 43.41 0 0 0 3.99-4.744 2 2 0 0 1-.177-.232 49.47 49.47 0 0 1-4.188-7.267v-.035a74.817 74.817 0 0 1-3.946 6.31 60.636 60.636 0 0 0 4.314 5.96l.007.008Z"/><path fill="#B0D0BE" d="M40.626 73.757a29.315 29.315 0 0 0 3.805 3.851l.184.148.183-.148a30.902 30.902 0 0 0 3.82-3.865 42.279 42.279 0 0 1-4.004-4.758s-.006.007-.006.014c0 0 0 .007.007.014a44.078 44.078 0 0 1-3.99 4.744Z"/><path fill="#B0D0BE" d="M44.614 69.014s0-.007-.006-.014a44.091 44.091 0 0 1-3.99 4.744l.015.014a44.22 44.22 0 0 0 3.989-4.744h-.008Z"/><path fill="#B2BCB1" d="M48.618 73.743a30.492 30.492 0 0 1-3.82 3.873l-.176.14a34.163 34.163 0 0 0 3.352 2.404 37.459 37.459 0 0 0 3.954-3.352 42.629 42.629 0 0 1-1.69-1.497 56.863 56.863 0 0 1-1.62-1.575v.007Z"/><path fill="#B2BCB1" d="M48.618 73.743a30.429 30.429 0 0 1-3.82 3.865l-.184.148.177-.14a30.491 30.491 0 0 0 3.82-3.873h.007Z"/><path fill="#8EABB8" d="M47.974 80.16a45.985 45.985 0 0 0 5.524 2.98v-.029s.014.007.021.014a326.57 326.57 0 0 1 4.166-2.094 52.772 52.772 0 0 1-5.764-4.217 44.785 44.785 0 0 1-1.917 1.736 34.639 34.639 0 0 1-2.037 1.61h.007Z"/><path fill="#77A5BB" d="M61.985 86.316s-.028.007-.042.014a.1.1 0 0 1 .042.014 49.403 49.403 0 0 0 3.055-1.37 60.402 60.402 0 0 1-7.348-3.943c-1.415.696-2.758 1.399-4.166 2.094a67.329 67.329 0 0 0 8.46 3.191Z"/><path fill="#77A5BB" d="M53.526 83.126c1.4-.696 2.751-1.399 4.166-2.095a327.897 327.897 0 0 0-4.166 2.094Z"/><path fill="#84BCDE" d="M1.81 57.446c16.968.421 24.31 7.73 31 14.758a71.874 71.874 0 0 0 3.452-4.477c-3.82-5.903-7.363-12.593-12.264-18.012-4.357-4.807-9.789-8.602-17.427-9.937a35.552 35.552 0 0 0-6.182-.52 43.951 43.951 0 0 0 1.415 18.195h.014l-.007-.007Z"/><path fill="#84BCDE" d="M6.563 39.778a35.53 35.53 0 0 0-6.181-.527c2.214 0 4.265.19 6.181.52v.007ZM23.99 49.723c4.902 5.411 8.445 12.108 12.265 18.012v-.007c-3.82-5.896-7.37-12.587-12.272-17.998l.008-.007Z"/><path fill="#85BBD1" d="m36.276 67.756.008.008v-.008h-.008ZM40.59 73.751l.014-.014a61.482 61.482 0 0 1-4.314-5.96s-.007.014-.014.014a60.654 60.654 0 0 0 4.314 5.96Z"/><path fill="#88B5C4" d="M44.43 77.616a29.375 29.375 0 0 1-3.804-3.858l-.015.014s-.007-.014-.014-.021a46.513 46.513 0 0 1-3.296 3.05 39.697 39.697 0 0 0 3.954 3.345 33.034 33.034 0 0 0 3.352-2.403l-.176-.14v.013Z"/><path fill="#88B5C4" d="m40.612 73.743-.015.015s.008.014.015.022l.014-.015-.014-.015v-.007ZM44.43 77.609a29.751 29.751 0 0 1-3.804-3.851 29.37 29.37 0 0 0 3.805 3.858l.177.14-.184-.147h.007ZM40.611 73.743l.016.016-.016-.016Z"/><path fill="#8CAABB" d="m44.614 82.276.184-.099a25.733 25.733 0 0 0 3.176-2.017 33.018 33.018 0 0 1-3.352-2.403 36.286 36.286 0 0 1-3.353 2.403 24.432 24.432 0 0 0 3.176 2.017l.184.099h-.014Z"/><path fill="#8CAABB" d="m44.608 77.757.007.008v-.008h-.008Z"/><path fill="#8CAABB" d="M44.608 77.757a36.287 36.287 0 0 1-3.353 2.403 33.018 33.018 0 0 0 3.352-2.403Z"/><path fill="#74A0BF" d="M47.974 80.16a25.732 25.732 0 0 1-3.176 2.017l-.184.098a42.913 42.913 0 0 0 5.546 2.39 57.882 57.882 0 0 0 3.338-1.525 45.024 45.024 0 0 1-5.524-2.98ZM52.076 82.465ZM52.076 82.465Z"/><path fill="#639CC0" d="M50.167 84.665a78.49 78.49 0 0 0 9.272 2.593 46.541 46.541 0 0 0 2.504-.928 68.254 68.254 0 0 1-8.445-3.19 57.814 57.814 0 0 1-3.338 1.525h.007Z"/><path fill="#639CC0" d="M53.498 83.111v.03s.021-.008.028-.015a.054.054 0 0 1-.028-.015Z"/><path fill="#639CC0" d="M53.526 83.126s-.014.007-.021.014a67.806 67.806 0 0 0 8.445 3.19.101.101 0 0 0 .042-.013 68.47 68.47 0 0 1-8.459-3.191h-.007Z"/><path fill="#639CC0" d="M53.527 83.126c-.007 0-.015.007-.022.015 0 0 .015-.008.022-.015Z"/><path fill="#6895C6" d="M1.81 57.446v.037h.015c0-.015-.007-.022-.014-.037Z"/><path fill="#6895C6" d="M32.824 72.24c-6.69-7.028-14.074-14.372-31-14.759a44.763 44.763 0 0 0 10.009 17.647v-.035c5.05.513 10 1.729 14.704 3.612-.007.007-.021.014-.028.021.006 0 .02.008.028.014a63.657 63.657 0 0 0 6.287-6.5Z"/><path fill="#6B91B7" d="M37.287 76.808a51.484 51.484 0 0 1-5.743 4.203c1.422.702 2.773 1.398 4.18 2.1h-.014s.007 0 .014.008a45.804 45.804 0 0 0 5.517-2.98 38.14 38.14 0 0 1-3.954-3.345v.014ZM37.294 76.808Z"/><path fill="#6B91B7" d="M31.544 81.017a51.738 51.738 0 0 0 5.743-4.203 50.93 50.93 0 0 1-5.75 4.203h.007Z"/><path fill="#6F8AB1" d="M43.257 82.943c.452-.218.905-.436 1.35-.668l-.183-.098a24.45 24.45 0 0 1-3.176-2.017 45.354 45.354 0 0 1-5.524 2.98 55.762 55.762 0 0 0 3.339 1.525 42.682 42.682 0 0 0 4.194-1.722Z"/><path fill="#6085B3" d="M43.257 82.943a42.633 42.633 0 0 1-4.194 1.722c1.74.738 3.529 1.342 5.36 1.82l.184.042.184-.042c.46-.12.913-.246 1.365-.38a40.039 40.039 0 0 0 3.997-1.44 42.893 42.893 0 0 1-5.545-2.39 34.38 34.38 0 0 1-1.351.668Z"/><path fill="#5482B3" d="M46.156 86.106c-.452.133-.905.26-1.365.38l-.183.041c3.522.85 7.093 1.49 10.693 1.926a40.293 40.293 0 0 0 4.13-1.167 78.342 78.342 0 0 1-9.278-2.621 40.039 40.039 0 0 1-3.996 1.44Z"/><path fill="#556DA2" d="M21.289 82.922a59.602 59.602 0 0 0 5.22-4.196 54.172 54.172 0 0 0-14.676-3.598 45.063 45.063 0 0 0 9.456 7.794Z"/><path fill="#556DA2" d="M11.833 75.093v.035a54.431 54.431 0 0 1 14.675 3.598c.008-.007.022-.014.029-.02a54.325 54.325 0 0 0-14.704-3.613Z"/><path fill="#566D9E" d="M31.495 81.052a69.794 69.794 0 0 0-4.958-2.277v-.035a60.25 60.25 0 0 1-5.248 4.217 41.475 41.475 0 0 0 3.331 1.855c.014 0 .021-.014.035-.014-.014 0-.02-.014-.035-.02a60.538 60.538 0 0 0 6.875-3.726Z"/><path fill="#566A9A" d="M31.53 81.031s-.021.014-.035.021c.007 0 .02.007.035.014a60.574 60.574 0 0 1-6.875 3.732c.99.506 2.009.97 3.042 1.385 2.737-.85 5.41-1.87 8.02-3.058a384.515 384.515 0 0 0-4.18-2.094h-.007ZM31.53 81.01v.015s.008 0 .016-.008h-.016v-.007Z"/><path fill="#566A9A" d="M31.544 81.018s-.007 0-.014.007a383.59 383.59 0 0 1 4.18 2.094h.014c-1.407-.703-2.758-1.399-4.18-2.101Z"/><path fill="#566A9A" d="M31.53 81.025s.008 0 .015-.007c0 0-.007 0-.015.007ZM31.495 81.053a59.455 59.455 0 0 1-6.875 3.725c.014 0 .021.013.035.02a60.574 60.574 0 0 0 6.875-3.731.118.118 0 0 1-.035-.014Z"/><path fill="#586697" d="M36.898 85.388c.729-.231 1.45-.47 2.172-.723a55.73 55.73 0 0 1-3.339-1.525 68.434 68.434 0 0 1-8.034 3.064c.841.351 1.704.667 2.574.97 1.492-.33 2.97-.703 4.435-1.125.735-.21 1.464-.428 2.192-.66Z"/><path fill="#506499" d="M34.706 86.05c-1.464.421-2.95.794-4.435 1.124 1.358.47 2.744.871 4.159 1.216a92.246 92.246 0 0 0 10.184-1.835l-.183-.042a38.782 38.782 0 0 1-5.361-1.82v-.028a78.559 78.559 0 0 1-4.364 1.384ZM34.706 86.049Z"/><path fill="#486399" d="M34.423 88.389h-.021a45.332 45.332 0 0 0 20.871.063 92.817 92.817 0 0 1-10.666-1.897 92.403 92.403 0 0 1-10.177 1.834h-.007Z"/><path fill="#486399" d="M34.437 88.389a92.395 92.395 0 0 0-.007 0h.007Z"/><path fill="#6895C6" d="M44.622 14.513c3.894 0 7.051-3.137 7.051-7.006 0-3.87-3.157-7.007-7.051-7.007-3.895 0-7.052 3.137-7.052 7.007 0 3.87 3.157 7.006 7.052 7.006Z"/><path fill="#231F20" d="m8.501 99.704 1.684 4.139 1.768-4.139h1.103l1.783 4.154 1.676-4.154h1.337l-2.78 6.796h-.439l-2.128-4.976-2.136 4.976h-.425l-2.786-6.796h1.35-.007ZM25.412 99.703v1.012H22.35v1.764h2.928v1.012H22.35v1.905h3.126v1.012H21.04v-6.712h4.364l.007.007ZM38.419 99.612c.382 0 .757.043 1.124.127.368.084.764.232 1.189.443v1.222a5.544 5.544 0 0 0-1.153-.513 3.858 3.858 0 0 0-1.104-.161c-.48 0-.912.098-1.3.295a2.211 2.211 0 0 0-.906.836 2.309 2.309 0 0 0-.319 1.195c0 .436.107.85.319 1.209.212.358.509.632.898.822.389.197.82.288 1.308.288a3.54 3.54 0 0 0 1.061-.162c.34-.105.764-.295 1.273-.569v1.223a6.173 6.173 0 0 1-1.209.485c-.368.098-.8.148-1.287.148-.715 0-1.351-.141-1.91-.422a3.193 3.193 0 0 1-1.322-1.216 3.316 3.316 0 0 1-.481-1.743c0-.674.162-1.286.495-1.82a3.28 3.28 0 0 1 1.365-1.244c.58-.295 1.23-.436 1.952-.436l.007-.007ZM48.137 99.612c.7 0 1.33.14 1.888.429a3.37 3.37 0 0 1 1.337 1.237c.332.541.495 1.131.495 1.778 0 .646-.163 1.209-.488 1.743a3.362 3.362 0 0 1-1.337 1.251c-.566.295-1.202.443-1.91.443-.707 0-1.336-.148-1.909-.45a3.35 3.35 0 0 1-1.337-1.244 3.319 3.319 0 0 1-.48-1.743c0-.633.162-1.195.48-1.736a3.25 3.25 0 0 1 1.323-1.258c.559-.302 1.202-.45 1.93-.45h.008Zm-2.384 3.444c0 .443.1.843.304 1.202.206.358.488.632.85.829.36.197.77.295 1.23.295.693 0 1.266-.218 1.711-.646.446-.436.672-.991.672-1.673 0-.443-.099-.843-.304-1.202a2.093 2.093 0 0 0-.849-.829 2.573 2.573 0 0 0-1.237-.295c-.46 0-.87.098-1.238.295-.368.197-.65.471-.842.829a2.426 2.426 0 0 0-.297 1.202v-.007ZM56.624 99.704v3.908c0 .4.064.716.184.955s.318.436.594.584c.276.147.594.232.955.232.403 0 .735-.071 1.018-.218.276-.148.481-.345.608-.598.128-.253.192-.597.192-1.047v-3.816h1.308v3.985c0 .906-.269 1.595-.82 2.08-.545.485-1.316.731-2.313.731-.623 0-1.167-.112-1.627-.33a2.393 2.393 0 0 1-1.054-.956c-.24-.415-.36-.907-.36-1.469v-4.034h1.308l.007-.007ZM66.787 99.704l4.01 4.688v-4.688h1.274v6.712h-1.125l-4.038-4.758v4.758h-1.273v-6.712h1.152ZM81.874 99.704v1.012h-2.398v5.7h-1.309v-5.7H75.77v-1.012h6.104Z"/></g><defs><clipPath id="a"><path fill="#fff" d="M0 .5h90v106H0z"/></clipPath></defs></svg>