<svg xmlns="http://www.w3.org/2000/svg" viewBox="0 0 117 103"><path d="M40.58,83.5H7.82a.25.25,0,1,0,0,.5H40.58a.25.25,0,0,0,0-.5Z" style="fill:#1a4672"/><path d="M40.58,84.5H7.82a.75.75,0,1,1,0-1.5H40.58a.75.75,0,0,1,0,1.5Zm0-.5h0Z" style="fill:#1a4672"/><path d="M16.74,74a.25.25,0,0,0-.25.25v3.65a2.89,2.89,0,0,0,2.89,2.88h22a.25.25,0,1,0,0-.49h-22A2.39,2.39,0,0,1,17,77.92V74.27A.25.25,0,0,0,16.74,74Z" style="fill:#1a4672"/><path d="M41.38,81.3h-22A3.39,3.39,0,0,1,16,77.92V74.27a.75.75,0,0,1,1.5,0v3.65a1.89,1.89,0,0,0,1.89,1.89h22a.74.74,0,0,1,.75.74A.75.75,0,0,1,41.38,81.3Z" style="fill:#1a4672"/><path d="M46.42,86.28H15.78a2.88,2.88,0,0,0-2.88,2.88v12.17a.25.25,0,0,0,.24.25.25.25,0,0,0,.25-.25V89.16a2.39,2.39,0,0,1,2.39-2.39H46.42a.25.25,0,0,0,.25-.25A.25.25,0,0,0,46.42,86.28Z" style="fill:#1a4672"/><path d="M13.14,102.08a.75.75,0,0,1-.74-.75V89.16a3.38,3.38,0,0,1,3.38-3.38H46.42a.75.75,0,0,1,.75.74.76.76,0,0,1-.75.75H15.78a1.89,1.89,0,0,0-1.89,1.89v12.17A.76.76,0,0,1,13.14,102.08Zm33.28-15.3h0Z" style="fill:#1a4672"/><path d="M24.14,82.26a1.87,1.87,0,1,0,0-3.62,1.86,1.86,0,1,0,0,3.62Z" style="fill:#89b2e0"/><path d="M26.7,80.45a2.35,2.35,0,0,1-2.56,2,2.1,2.1,0,1,1,0-4.11A2.35,2.35,0,0,1,26.7,80.45Zm-.48,0c0-.87-.93-1.57-2.08-1.57a1.87,1.87,0,0,0-2.07,1.57c0,.86.93,1.56,2.07,1.56S26.22,81.31,26.22,80.45Z" style="fill:#1a4672"/><path d="M24.14,83a2.6,2.6,0,1,1,0-5.11,2.6,2.6,0,1,1,0,5.11Zm0-3.62c-.85,0-1.57.49-1.57,1.07s.72,1.06,1.57,1.06,1.58-.49,1.58-1.06S25,79.38,24.14,79.38Z" style="fill:#1a4672"/><path d="M36.79,22.58H24.61a2.89,2.89,0,0,1-2.88-2.89V1.77a.25.25,0,1,1,.49,0V19.69a2.39,2.39,0,0,0,2.39,2.39H36.79a.25.25,0,0,1,0,.5Z" style="fill:#1a4672"/><path d="M36.79,23.08H24.61a3.38,3.38,0,0,1-3.38-3.39V1.77A.75.75,0,0,1,22,1a.76.76,0,0,1,.75.75V19.69a1.89,1.89,0,0,0,1.89,1.89H36.79a.75.75,0,0,1,0,1.5Zm0-.5h0Z" style="fill:#1a4672"/><path d="M37.07,25.34H13.85a.24.24,0,0,1-.25-.24.25.25,0,0,1,.25-.25H37.07a.25.25,0,0,1,.25.25A.24.24,0,0,1,37.07,25.34Z" style="fill:#1a4672"/><path d="M37.07,25.84H13.85a.75.75,0,0,1-.75-.74.76.76,0,0,1,.75-.75H37.07a.75.75,0,0,1,.75.75A.74.74,0,0,1,37.07,25.84Zm0-.49h0Z" style="fill:#1a4672"/><path d="M22.05,5.88a2.11,2.11,0,0,0,1.81-2.32,2.1,2.1,0,0,0-1.81-2.31,2.1,2.1,0,0,0-1.81,2.31A2.11,2.11,0,0,0,22.05,5.88Z" style="fill:#89b2e0"/><path d="M22.05,6.12A2.35,2.35,0,0,1,20,3.56,2.36,2.36,0,0,1,22.05,1a2.35,2.35,0,0,1,2.06,2.56A2.35,2.35,0,0,1,22.05,6.12Zm0-4.63c-.86,0-1.56.93-1.56,2.07s.7,2.08,1.56,2.08,1.57-.93,1.57-2.08A1.87,1.87,0,0,0,22.05,1.49Z" style="fill:#1a4672"/><path d="M22.05,6.62a2.85,2.85,0,0,1-2.56-3.06A2.85,2.85,0,0,1,22.05.5a2.85,2.85,0,0,1,2.56,3.06A2.85,2.85,0,0,1,22.05,6.62Zm0-4.63C21.47,2,21,2.71,21,3.56s.48,1.58,1.06,1.58,1.07-.72,1.07-1.58S22.63,2,22.05,2Z" style="fill:#1a4672"/><path d="M82.26,46.42a.25.25,0,0,1,.25-.25h32.76a.25.25,0,0,1,0,.5H82.51A.26.26,0,0,1,82.26,46.42Z" style="fill:#1a4672"/><path d="M115.27,47.17H82.51a.75.75,0,0,1,0-1.5h32.76a.75.75,0,0,1,0,1.5Zm0-.5h0Z" style="fill:#1a4672"/><path d="M105.55,53V65.17a.25.25,0,0,1-.25.25.25.25,0,0,1-.24-.25V53a2.4,2.4,0,0,0-2.39-2.39H80.37a.25.25,0,0,1-.25-.25.25.25,0,0,1,.25-.25h22.3A2.9,2.9,0,0,1,105.55,53Z" style="fill:#1a4672"/><path d="M105.3,65.92a.75.75,0,0,1-.74-.75V53a1.89,1.89,0,0,0-1.89-1.89H80.37a.75.75,0,0,1,0-1.5h22.3A3.4,3.4,0,0,1,106.05,53V65.17A.76.76,0,0,1,105.3,65.92Z" style="fill:#1a4672"/><path d="M64.68,14.75c-32.84-15.93-43,22.41-42.82,33.34.3,17.18,16.52,37.72,31.85,45.15,11.13,5.4,21.8,3.88,25.55-10.87,8.92-35.06,34.43-30.76-1.36-59.1A73.22,73.22,0,0,0,64.68,14.75Z" style="fill:#d9efff"/><path d="M99.57,73.35H96.06a.21.21,0,0,1,0-.42h3.51a.21.21,0,1,1,0,.42Z" style="fill:#1a4672"/><path d="M99.57,73.85H96.06a.71.71,0,1,1,0-1.42h3.51a.71.71,0,0,1,0,1.42Zm0-.42h0Z" style="fill:#1a4672"/><path d="M93.42,73.35H89.9a.21.21,0,0,1,0-.42h3.52a.21.21,0,0,1,0,.42Z" style="fill:#1a4672"/><path d="M93.42,73.85H89.91a.71.71,0,0,1,0-1.42h3.51a.71.71,0,0,1,0,1.42Zm0-.42h0Z" style="fill:#1a4672"/><path d="M94.74,72a.21.21,0,0,1-.21-.21V68.31a.21.21,0,0,1,.21-.21.21.21,0,0,1,.21.21v3.51A.21.21,0,0,1,94.74,72Z" style="fill:#1a4672"/><path d="M94.74,72.53a.71.71,0,0,1-.71-.71V68.31a.71.71,0,1,1,1.42,0v3.51A.71.71,0,0,1,94.74,72.53Z" style="fill:#1a4672"/><path d="M94.74,78.18a.21.21,0,0,1-.21-.21V74.45a.2.2,0,0,1,.21-.2.21.21,0,0,1,.21.2V78A.21.21,0,0,1,94.74,78.18Z" style="fill:#1a4672"/><path d="M94.74,78.68A.71.71,0,0,1,94,78V74.45a.71.71,0,0,1,1.42,0V78A.71.71,0,0,1,94.74,78.68Z" style="fill:#1a4672"/><path d="M10.88,32.6H7.36a.21.21,0,0,1-.2-.21.2.2,0,0,1,.2-.21h3.52a.21.21,0,0,1,.21.21A.22.22,0,0,1,10.88,32.6Z" style="fill:#1a4672"/><path d="M10.88,33.1H7.36a.71.71,0,0,1,0-1.42h3.52a.71.71,0,0,1,0,1.42Zm0-.42h0Z" style="fill:#1a4672"/><path d="M4.73,32.6H1.21a.21.21,0,0,1,0-.42H4.73a.21.21,0,0,1,0,.42Z" style="fill:#1a4672"/><path d="M4.73,33.1H1.21a.71.71,0,0,1,0-1.42H4.73a.71.71,0,0,1,0,1.42Zm0-.42h0Z" style="fill:#1a4672"/><path d="M6,31.28a.2.2,0,0,1-.2-.21V27.56a.2.2,0,0,1,.2-.21.21.21,0,0,1,.21.21v3.51A.21.21,0,0,1,6,31.28Z" style="fill:#1a4672"/><path d="M6,31.78a.7.7,0,0,1-.7-.71V27.56a.71.71,0,1,1,1.41,0v3.51A.71.71,0,0,1,6,31.78Z" style="fill:#1a4672"/><path d="M6,37.43a.2.2,0,0,1-.2-.21V33.7a.21.21,0,1,1,.41,0v3.52A.21.21,0,0,1,6,37.43Z" style="fill:#1a4672"/><path d="M6,37.93a.7.7,0,0,1-.7-.71V33.7a.71.71,0,1,1,1.41,0v3.52A.71.71,0,0,1,6,37.93Z" style="fill:#1a4672"/><path d="M107.89,37.71h-3.52a.21.21,0,0,1-.21-.21.21.21,0,0,1,.21-.21h3.52a.22.22,0,0,1,.21.21A.21.21,0,0,1,107.89,37.71Z" style="fill:#1a4672"/><path d="M107.89,38.21h-3.52a.71.71,0,0,1,0-1.42h3.52a.71.71,0,0,1,0,1.42Zm0-.42h0Z" style="fill:#1a4672"/><path d="M101.73,37.71H98.21a.21.21,0,1,1,0-.41h3.52a.2.2,0,0,1,.21.2A.21.21,0,0,1,101.73,37.71Z" style="fill:#1a4672"/><path d="M101.73,38.21H98.21a.71.71,0,0,1-.71-.71.7.7,0,0,1,.71-.7h3.52a.7.7,0,0,1,.71.7A.71.71,0,0,1,101.73,38.21Zm0-.41h0Z" style="fill:#1a4672"/><path d="M103.05,36.39a.21.21,0,0,1-.21-.21V32.67a.21.21,0,0,1,.42,0v3.51A.21.21,0,0,1,103.05,36.39Z" style="fill:#1a4672"/><path d="M103.05,36.89a.71.71,0,0,1-.71-.71V32.67a.71.71,0,0,1,1.42,0v3.51A.71.71,0,0,1,103.05,36.89Z" style="fill:#1a4672"/><path d="M103.05,42.54a.2.2,0,0,1-.21-.2V38.82a.21.21,0,0,1,.42,0v3.52A.2.2,0,0,1,103.05,42.54Z" style="fill:#1a4672"/><path d="M103.05,43a.7.7,0,0,1-.71-.7V38.82a.71.71,0,0,1,1.42,0v3.52A.7.7,0,0,1,103.05,43Z" style="fill:#1a4672"/><path d="M54.36,57.9H38.89V73.37H54.36Z" style="fill:#30578e"/><path d="M54.36,73.37H38.89l-3,2.83H57.35Z" style="fill:#4f74aa"/><path d="M18.73,47.17H66.55V67.89H18.73Z" style="fill:#1a4672;fill-rule:evenodd"/><path d="M74.52,47.17h-8V67.89h8Z" style="fill:#8bb9fc"/><path d="M74.51,63.19H18.73V33a3.85,3.85,0,0,1,3.86-3.85H70.66A3.85,3.85,0,0,1,74.52,33V63.19Z" style="fill:#4f74aa"/><path d="M70.6,61.28H22.65a1.55,1.55,0,0,1-1.56-1.54V32.84a1.55,1.55,0,0,1,1.56-1.54H70.6a1.54,1.54,0,0,1,1.55,1.54v26.9A1.54,1.54,0,0,1,70.6,61.28Z" style="fill:#6894c5"/><path d="M47.85,65.52A1.48,1.48,0,1,1,46.37,64,1.49,1.49,0,0,1,47.85,65.52Z" style="fill:#30578e"/><path d="M57.35,76.2H35.91v1.25H57.35Z" style="fill:#30578e"/><path d="M39,76.2H35.91v1.25H39Z" style="fill:#1a4672"/><path d="M42,76.2H39v1.25H42Z" style="fill:#1a4672"/><path d="M45.09,76.2H42v1.25h3.06Z" style="fill:#1a4672"/><path d="M48.16,76.2H45.09v1.25h3.07Z" style="fill:#1a4672"/><path d="M51.22,76.2H48.16v1.25h3.06Z" style="fill:#1a4672"/><path d="M54.28,76.2H51.22v1.25h3.06Z" style="fill:#1a4672"/><path d="M57.35,76.2H54.28v1.25h3.07Z" style="fill:#1a4672"/><path d="M24.76,36.29H57.15v-.23l-32.39,0Z" style="fill:#30578e"/><path d="M24.76,37.44H57.14v-.24H24.76Z" style="fill:#30578e"/><path d="M24.61,44.63h18.3V44.4H24.61Z" style="fill:#30578e"/><path d="M24.61,45.78h18.3v-.24H24.61Z" style="fill:#30578e"/><path d="M24.61,46.92l18.3,0V46.7H24.61Z" style="fill:#30578e"/><path d="M24.58,48.05H42.87v-.24H24.58Z" style="fill:#30578e"/><path d="M24.61,51.26h18.3V51H24.61Z" style="fill:#30578e"/><path d="M24.61,52.4l18.3,0v-.24H24.61Z" style="fill:#30578e"/><path d="M24.61,53.55l18.3,0v-.24H24.61Z" style="fill:#30578e"/><path d="M24.58,54.68H42.87v-.24H24.58Z" style="fill:#30578e"/><path d="M24.58,55.83H42.87V55.6H24.58Z" style="fill:#30578e"/><path d="M24.57,57h18.3v-.23l-18.3,0Z" style="fill:#30578e"/><path d="M57.61,55A13.14,13.14,0,0,1,70.72,41.92a14.14,14.14,0,0,1,4.18.66,14.5,14.5,0,0,1,3.89,1.9,13.22,13.22,0,0,1,2.82,2.58,10.49,10.49,0,0,1,1,1.38,10.87,10.87,0,0,1,1,2.3,9.2,9.2,0,0,1,.26,4.14l-.41,2.44c-.23,1.45,1.32,3.62,2.11,4.75.9,1.29,1.8,2.57,1.8,3.61,0,.63-.61.67-1.21.71-1.1.07-2.2.14-2.7,1.45l-2,5a1.57,1.57,0,0,1-.76.81,3.92,3.92,0,0,1-1.78.39c-3.55.07-4.39.08-4.69,5.22H62.48c-.17-9.53-1.92-13.21-3.3-16.14a12.31,12.31,0,0,1-1.57-5.93V55Z" style="fill:#4f74aa"/><path d="M59.58,23.29h1.79a1.34,1.34,0,0,0,1.34-1.2,11.22,11.22,0,0,1,.6-1.92,12.14,12.14,0,0,1,1-1.89,1.33,1.33,0,0,0-.16-1.69l-1.27-1.27,1.64-1.63L65.78,15a1.34,1.34,0,0,0,1.77.12,11.68,11.68,0,0,1,1.82-1,11.31,11.31,0,0,1,2-.62,1.35,1.35,0,0,0,1.09-1.32V10.38H74.8v1.79A1.36,1.36,0,0,0,76,13.51a11,11,0,0,1,1.92.6,12.24,12.24,0,0,1,1.89,1,1.36,1.36,0,0,0,1.7-.17l1.26-1.26,1.64,1.63-1.27,1.27A1.34,1.34,0,0,0,83,18.35a11.68,11.68,0,0,1,1,1.82,11.34,11.34,0,0,1,.63,2A1.37,1.37,0,0,0,86,23.29h1.76V25.6H85.92a1.35,1.35,0,0,0-1.34,1.2,11.22,11.22,0,0,1-.6,1.92,12.19,12.19,0,0,1-1,1.89,1.36,1.36,0,0,0,.18,1.71l1.25,1.25L82.78,35.2l-1.27-1.26a1.34,1.34,0,0,0-1.76-.13,11.3,11.3,0,0,1-3.86,1.59,1.34,1.34,0,0,0-1.07,1.24c0,.6,0,1.26,0,1.87H72.5v-1.8a1.34,1.34,0,0,0-1.2-1.33,11.26,11.26,0,0,1-1.92-.61,10.65,10.65,0,0,1-1.89-1,1.35,1.35,0,0,0-1.72.2l-1.24,1.24-1.64-1.63,1.27-1.27a1.34,1.34,0,0,0,.12-1.76,10.19,10.19,0,0,1-1-1.82,10.9,10.9,0,0,1-.63-2,1.37,1.37,0,0,0-1.33-1.08H59.59V23.29Z" style="fill:#30578e"/><path d="M79.06,19a7.65,7.65,0,1,0,2.25,5.42A7.65,7.65,0,0,0,79.06,19ZM77.16,28a5,5,0,1,1,1.45-3.51A5,5,0,0,1,77.16,28Z" style="fill:#d9efff"/><path d="M41.89,11.21H43.1a.91.91,0,0,0,.9-.8,7.25,7.25,0,0,1,.4-1.3,7,7,0,0,1,.68-1.27A.91.91,0,0,0,45,6.7l-.85-.86,1.1-1.1.86.85a.91.91,0,0,0,1.19.09A7.19,7.19,0,0,1,48.49,5a6.58,6.58,0,0,1,1.37-.42.92.92,0,0,0,.73-.89V2.51h1.56V3.72a.9.9,0,0,0,.8.9A7.17,7.17,0,0,1,54.24,5a6.53,6.53,0,0,1,1.28.68.92.92,0,0,0,1.14-.12l.86-.85,1.1,1.1-.86.86a.91.91,0,0,0-.08,1.19,7.48,7.48,0,0,1,.65,1.22,8.63,8.63,0,0,1,.42,1.37.91.91,0,0,0,.9.73h1.19v1.56H59.63a.91.91,0,0,0-.9.81,7.67,7.67,0,0,1-.4,1.29,8.23,8.23,0,0,1-.68,1.28.91.91,0,0,0,.13,1.15l.84.85-1.1,1.1-.86-.86a.91.91,0,0,0-1.19-.08,7.5,7.5,0,0,1-2.6,1.07.9.9,0,0,0-.72.84c0,.4,0,.84,0,1.25H50.58V20.26a.91.91,0,0,0-.81-.9,7.82,7.82,0,0,1-1.3-.41,7.32,7.32,0,0,1-1.27-.67.9.9,0,0,0-1.16.13l-.83.83-1.11-1.1.86-.85A.91.91,0,0,0,45,16.1a8,8,0,0,1-.65-1.23A8.63,8.63,0,0,1,44,13.5a.92.92,0,0,0-.9-.73H41.88V11.21Z" style="fill:#4f74aa"/><path d="M55,8.34A5.17,5.17,0,0,0,46.2,12a5.16,5.16,0,0,0,5.17,5.17A5.16,5.16,0,0,0,55,8.34Zm-1.28,6A3.35,3.35,0,0,1,48,12a3.35,3.35,0,0,1,5.72-2.37,3.34,3.34,0,0,1,1,2.37A3.31,3.31,0,0,1,53.74,14.36Z" style="fill:#d9efff"/></svg>