<svg xmlns="http://www.w3.org/2000/svg" fill="none" aria-hidden="true" viewBox="0 0 278 353"><mask id="a" width="271" height="346" x="0" y="0" maskUnits="userSpaceOnUse" style="mask-type:alpha"><rect width="270.874" height="345" x=".126" y=".243" class="cls-1" rx="10"/></mask><g clip-path="url(#b)" mask="url(#a)"><path fill="#FFBF59" d="M50.278 210.002v58.189h58.189v-58.189H50.278Z" class="cls-5"/><path d="M279.411 381.789v-57.464h34.795c-25.144-41.223-70.519-68.744-122.313-68.744h-4.545c-19.788 0-38.632 4.016-55.778 11.28h32.98v57.464h-57.431v-44.161c-38.012 25.765-62.98 69.305-62.98 118.693 0 79.124 64.116 143.276 143.194 143.276h4.545c10.329 0 20.393-1.107 30.088-3.174v-42.227h57.43v15.533c33.866-26.208 55.675-67.253 55.675-113.393 0-5.773-.354-11.472-1.018-17.068h-54.657l.015-.015Zm0 57.464H164.55v-57.464h114.861v57.464Z" class="cls-3"/><path d="M221.966 324.888h-57.431v57.464h57.431v-57.464Z" class="cls-4"/><path d="M164.154 324.163v58.189h58.189v-58.189h-58.189Z" class="cls-2"/></g><defs><clipPath id="b"><path d="M44.14 210.727h350.133v409.512H44.14z" class="cls-4"/></clipPath></defs></svg>