<svg width="147" height="118" viewBox="0 0 147 118" fill="none" xmlns="http://www.w3.org/2000/svg">
<path d="M42.1507 25.2519C42.0145 25.2519 41.8995 25.1412 41.8995 25.0007V22.4716C41.8995 21.1262 40.8053 20.032 39.4599 20.032H28.2366C28.1003 20.032 27.9854 19.9212 27.9854 19.7807C27.9854 19.6402 28.0961 19.5295 28.2366 19.5295H39.4599C41.082 19.5295 42.4019 20.8494 42.4019 22.4716V25.0007C42.4019 25.1412 42.287 25.2519 42.1507 25.2519Z" fill="#198293" stroke="#198293" stroke-miterlimit="10" stroke-linecap="round" stroke-linejoin="round"/>
<path d="M34.6784 59.4412H1.2512C1.11496 59.4412 1 59.3305 1 59.19C1 59.0495 1.1107 58.9388 1.2512 58.9388H34.6784C34.8147 58.9388 34.9296 59.0495 34.9296 59.19C34.9296 59.3305 34.8147 59.4412 34.6784 59.4412Z" fill="#198293" stroke="#198293" stroke-miterlimit="10" stroke-linecap="round" stroke-linejoin="round"/>
<path d="M16.7407 69.1148C16.6045 69.1148 16.4895 69.0041 16.4895 68.8636V65.1423C16.4895 63.5201 17.8094 62.2003 19.4316 62.2003H33.3713C33.5075 62.2003 33.6225 62.311 33.6225 62.4515C33.6225 62.592 33.5118 62.7027 33.3713 62.7027H19.4316C18.0861 62.7027 16.9919 63.7969 16.9919 65.1423V68.8636C16.9919 69.0041 16.877 69.1148 16.7407 69.1148Z" fill="#198293" stroke="#198293" stroke-miterlimit="10" stroke-linecap="round" stroke-linejoin="round"/>
<path d="M85.3366 113.195C85.2003 113.195 85.0854 113.084 85.0854 112.944V95.4997C85.0854 95.3635 85.1961 95.2485 85.3366 95.2485C85.4771 95.2485 85.5878 95.3592 85.5878 95.4997V112.944C85.5835 113.084 85.4728 113.195 85.3366 113.195Z" fill="#198293" stroke="#198293" stroke-miterlimit="10" stroke-linecap="round" stroke-linejoin="round"/>
<path d="M108.707 104.909H90.4161C88.7939 104.909 87.474 103.589 87.474 101.967V95.4997C87.474 95.3635 87.5847 95.2485 87.7252 95.2485C87.8657 95.2485 87.9764 95.3592 87.9764 95.4997V101.967C87.9764 103.313 89.0706 104.407 90.4161 104.407H108.707C108.843 104.407 108.958 104.518 108.958 104.658C108.958 104.799 108.843 104.909 108.707 104.909Z" fill="#198293" stroke="#198293" stroke-miterlimit="10" stroke-linecap="round" stroke-linejoin="round"/>
<path d="M52.8844 24.5451C52.7481 24.5451 52.6332 24.4344 52.6332 24.2939V1.2512C52.6332 1.11496 52.7439 1 52.8844 1C53.0249 1 53.1356 1.1107 53.1356 1.2512V24.2982C53.1356 24.4344 53.0249 24.5451 52.8844 24.5451Z" fill="#198293" stroke="#198293" stroke-miterlimit="10" stroke-linecap="round" stroke-linejoin="round"/>
<path d="M55.8222 24.4387C55.6859 24.4387 55.571 24.328 55.571 24.1875V9.15777C55.571 7.53559 56.8909 6.2157 58.5131 6.2157H65.7171C65.8533 6.2157 65.9683 6.3264 65.9683 6.4669C65.9683 6.60741 65.8576 6.71811 65.7171 6.71811H58.5131C57.1676 6.71811 56.0734 7.81234 56.0734 9.15777V24.1875C56.0691 24.3237 55.9584 24.4387 55.8222 24.4387Z" fill="#198293" stroke="#198293" stroke-miterlimit="10" stroke-linecap="round" stroke-linejoin="round"/>
<path d="M132.542 50.3085H112.731C112.594 50.3085 112.479 50.1978 112.479 50.0573C112.479 49.9168 112.59 49.8061 112.731 49.8061H132.542C133.887 49.8061 134.981 48.7118 134.981 47.3664V42.883C134.981 42.7468 135.092 42.6318 135.233 42.6318C135.373 42.6318 135.484 42.7425 135.484 42.883V47.3664C135.48 48.9886 134.164 50.3085 132.542 50.3085Z" fill="#198293" stroke="#198293" stroke-miterlimit="10" stroke-linecap="round" stroke-linejoin="round"/>
<path d="M143.058 53.3528H112.514C112.377 53.3528 112.262 53.2421 112.262 53.1015C112.262 52.961 112.373 52.8503 112.514 52.8503H143.058C143.195 52.8503 143.309 52.961 143.309 53.1015C143.309 53.2421 143.195 53.3528 143.058 53.3528Z" fill="#198293" stroke="#198293" stroke-miterlimit="10" stroke-linecap="round" stroke-linejoin="round"/>
<path d="M32.1238 56.6141H9.3749C7.75272 56.6141 6.43283 55.2942 6.43283 53.672V41.2523C6.43283 41.1161 6.54353 41.0011 6.68404 41.0011C6.82454 41.0011 6.93524 41.1118 6.93524 41.2523V53.672C6.93524 55.0175 8.02947 56.1117 9.3749 56.1117H32.1238C32.2601 56.1117 32.375 56.2224 32.375 56.3629C32.375 56.5034 32.2601 56.6141 32.1238 56.6141Z" fill="#198293" stroke="#198293" stroke-miterlimit="10" stroke-linecap="round" stroke-linejoin="round"/>
<path d="M6.79569 51.6634C7.81622 51.6634 8.64353 50.6055 8.64353 49.3004C8.64353 47.9953 7.81622 46.9374 6.79569 46.9374C5.77515 46.9374 4.94785 47.9953 4.94785 49.3004C4.94785 50.6055 5.77515 51.6634 6.79569 51.6634Z" fill="#ABDDE9"/>
<path d="M6.79476 51.9136C5.63666 51.9136 4.69571 50.7428 4.69571 49.2994C4.69571 47.856 5.63666 46.6852 6.79476 46.6852C7.95285 46.6852 8.89381 47.856 8.89381 49.2994C8.89381 50.7428 7.95285 51.9136 6.79476 51.9136ZM6.79476 47.1833C5.91341 47.1833 5.19812 48.1328 5.19812 49.2994C5.19812 50.466 5.91341 51.4155 6.79476 51.4155C7.6761 51.4155 8.3914 50.466 8.3914 49.2994C8.3914 48.1328 7.6761 47.1833 6.79476 47.1833Z" fill="#198293" stroke="#198293" stroke-miterlimit="10" stroke-linecap="round" stroke-linejoin="round"/>
<path d="M24.2938 64.41C25.5989 64.41 26.6568 63.5827 26.6568 62.5621C26.6568 61.5416 25.5989 60.7143 24.2938 60.7143C22.9887 60.7143 21.9308 61.5416 21.9308 62.5621C21.9308 63.5827 22.9887 64.41 24.2938 64.41Z" fill="#ABDDE9"/>
<path d="M24.2938 64.6612C22.8505 64.6612 21.6796 63.7203 21.6796 62.5622C21.6796 61.4041 22.8505 60.4631 24.2938 60.4631C25.7372 60.4631 26.9081 61.4041 26.9081 62.5622C26.9081 63.716 25.7372 64.6612 24.2938 64.6612ZM24.2938 60.9613C23.1272 60.9613 22.1777 61.6766 22.1777 62.5579C22.1777 63.4393 23.1272 64.1546 24.2938 64.1546C25.4604 64.1546 26.4099 63.4393 26.4099 62.5579C26.4099 61.6808 25.4604 60.9613 24.2938 60.9613Z" fill="#198293" stroke="#198293" stroke-miterlimit="10" stroke-linecap="round" stroke-linejoin="round"/>
<path d="M85.444 110.347C86.4645 110.347 87.2918 109.289 87.2918 107.984C87.2918 106.679 86.4645 105.621 85.444 105.621C84.4235 105.621 83.5962 106.679 83.5962 107.984C83.5962 109.289 84.4235 110.347 85.444 110.347Z" fill="#ABDDE9"/>
<path d="M85.443 110.598C84.285 110.598 83.344 109.427 83.344 107.983C83.344 106.54 84.285 105.369 85.443 105.369C86.6011 105.369 87.5421 106.54 87.5421 107.983C87.5421 109.427 86.6011 110.598 85.443 110.598ZM85.443 105.867C84.5617 105.867 83.8464 106.817 83.8464 107.983C83.8464 109.15 84.5617 110.099 85.443 110.099C86.3244 110.099 87.0397 109.15 87.0397 107.983C87.0397 106.817 86.3244 105.867 85.443 105.867Z" fill="#198293" stroke="#198293" stroke-miterlimit="10" stroke-linecap="round" stroke-linejoin="round"/>
<path d="M143.059 54.9503C144.364 54.9503 145.422 54.123 145.422 53.1024C145.422 52.0819 144.364 51.2546 143.059 51.2546C141.754 51.2546 140.696 52.0819 140.696 53.1024C140.696 54.123 141.754 54.9503 143.059 54.9503Z" fill="#ABDDE9"/>
<path d="M143.058 55.2005C141.615 55.2005 140.444 54.2596 140.444 53.1015C140.444 51.9434 141.615 51.0024 143.058 51.0024C144.502 51.0024 145.673 51.9434 145.673 53.1015C145.673 54.2596 144.502 55.2005 143.058 55.2005ZM143.058 51.5049C141.892 51.5049 140.942 52.2201 140.942 53.1015C140.942 53.9828 141.892 54.6981 143.058 54.6981C144.225 54.6981 145.174 53.9828 145.174 53.1015C145.174 52.2201 144.225 51.5049 143.058 51.5049Z" fill="#198293" stroke="#198293" stroke-miterlimit="10" stroke-linecap="round" stroke-linejoin="round"/>
<path d="M35.0329 21.5231C36.3379 21.5231 37.3959 20.6958 37.3959 19.6752C37.3959 18.6547 36.3379 17.8274 35.0329 17.8274C33.7278 17.8274 32.6698 18.6547 32.6698 19.6752C32.6698 20.6958 33.7278 21.5231 35.0329 21.5231Z" fill="#ABDDE9"/>
<path d="M35.0319 21.7734C33.5885 21.7734 32.4177 20.8324 32.4177 19.6743C32.4177 18.5162 33.5885 17.5753 35.0319 17.5753C36.4753 17.5753 37.6461 18.5162 37.6461 19.6743C37.6461 20.8324 36.471 21.7734 35.0319 21.7734ZM35.0319 18.0777C33.8653 18.0777 32.9158 18.793 32.9158 19.6743C32.9158 20.5556 33.8653 21.2709 35.0319 21.2709C36.1985 21.2709 37.148 20.5556 37.148 19.6743C37.148 18.793 36.1985 18.0777 35.0319 18.0777Z" fill="#198293" stroke="#198293" stroke-miterlimit="10" stroke-linecap="round" stroke-linejoin="round"/>
<path d="M52.8852 12.4201C53.9058 12.4201 54.7331 11.3621 54.7331 10.0571C54.7331 8.75199 53.9058 7.69403 52.8852 7.69403C51.8647 7.69403 51.0374 8.75199 51.0374 10.0571C51.0374 11.3621 51.8647 12.4201 52.8852 12.4201Z" fill="#ABDDE9"/>
<path d="M52.8844 12.6704C51.7263 12.6704 50.7854 11.4995 50.7854 10.0561C50.7854 8.61276 51.7263 7.44189 52.8844 7.44189C54.0425 7.44189 54.9835 8.61276 54.9835 10.0561C54.9835 11.4995 54.0425 12.6704 52.8844 12.6704ZM52.8844 7.94005C52.0031 7.94005 51.2878 8.88951 51.2878 10.0561C51.2878 11.2227 52.0031 12.1722 52.8844 12.1722C53.7658 12.1722 54.4811 11.2227 54.4811 10.0561C54.4811 8.88951 53.7658 7.94005 52.8844 7.94005Z" fill="#198293" stroke="#198293" stroke-miterlimit="10" stroke-linecap="round" stroke-linejoin="round"/>
<path d="M12.0402 71.4693H8.45098C8.33177 71.4693 8.2381 71.3756 8.2381 71.2564C8.2381 71.1372 8.33177 71.0435 8.45098 71.0435H12.036C12.1552 71.0435 12.2489 71.1372 12.2489 71.2564C12.2489 71.3756 12.1552 71.4693 12.0402 71.4693Z" fill="#198293" stroke="#198293" stroke-miterlimit="10" stroke-linecap="round" stroke-linejoin="round"/>
<path d="M5.76009 71.4693H2.1751C2.05589 71.4693 1.96222 71.3756 1.96222 71.2564C1.96222 71.1372 2.05589 71.0435 2.1751 71.0435H5.76435C5.88356 71.0435 5.97723 71.1372 5.97723 71.2564C5.97723 71.3756 5.87931 71.4693 5.76009 71.4693Z" fill="#198293" stroke="#198293" stroke-miterlimit="10" stroke-linecap="round" stroke-linejoin="round"/>
<path d="M7.10552 70.1238C6.98631 70.1238 6.89264 70.0301 6.89264 69.9109V66.3216C6.89264 66.2024 6.98631 66.1088 7.10552 66.1088C7.22474 66.1088 7.31841 66.2024 7.31841 66.3216V69.9109C7.31841 70.0301 7.22474 70.1238 7.10552 70.1238Z" fill="#198293" stroke="#198293" stroke-miterlimit="10" stroke-linecap="round" stroke-linejoin="round"/>
<path d="M7.10552 76.4039C6.98631 76.4039 6.89264 76.3103 6.89264 76.191V72.6018C6.89264 72.4826 6.98631 72.3889 7.10552 72.3889C7.22474 72.3889 7.31841 72.4826 7.31841 72.6018V76.191C7.31841 76.306 7.22474 76.4039 7.10552 76.4039Z" fill="#198293" stroke="#198293" stroke-miterlimit="10" stroke-linecap="round" stroke-linejoin="round"/>
<path d="M78.3498 111.909H74.7648C74.6456 111.909 74.5519 111.815 74.5519 111.696C74.5519 111.577 74.6456 111.483 74.7648 111.483H78.3498C78.469 111.483 78.5627 111.577 78.5627 111.696C78.5627 111.815 78.469 111.909 78.3498 111.909Z" fill="#198293" stroke="#198293" stroke-miterlimit="10" stroke-linecap="round" stroke-linejoin="round"/>
<path d="M72.0739 111.909H68.4846C68.3654 111.909 68.2718 111.815 68.2718 111.696C68.2718 111.577 68.3654 111.483 68.4846 111.483H72.0739C72.1931 111.483 72.2868 111.577 72.2868 111.696C72.2868 111.815 72.1888 111.909 72.0739 111.909Z" fill="#198293" stroke="#198293" stroke-miterlimit="10" stroke-linecap="round" stroke-linejoin="round"/>
<path d="M73.4193 110.564C73.3001 110.564 73.2064 110.47 73.2064 110.351V106.761C73.2064 106.642 73.3001 106.549 73.4193 106.549C73.5385 106.549 73.6322 106.642 73.6322 106.761V110.351C73.6322 110.47 73.5343 110.564 73.4193 110.564Z" fill="#198293" stroke="#198293" stroke-miterlimit="10" stroke-linecap="round" stroke-linejoin="round"/>
<path d="M73.4193 116.844C73.3001 116.844 73.2064 116.75 73.2064 116.631V113.041C73.2064 112.922 73.3001 112.829 73.4193 112.829C73.5385 112.829 73.6322 112.922 73.6322 113.041V116.631C73.6322 116.746 73.5343 116.844 73.4193 116.844Z" fill="#198293" stroke="#198293" stroke-miterlimit="10" stroke-linecap="round" stroke-linejoin="round"/>
<path d="M128.765 41.0309H125.176C125.057 41.0309 124.963 40.9373 124.963 40.818C124.963 40.6988 125.057 40.6052 125.176 40.6052H128.765C128.885 40.6052 128.978 40.6988 128.978 40.818C128.978 40.9373 128.88 41.0309 128.765 41.0309Z" fill="#198293" stroke="#198293" stroke-miterlimit="10" stroke-linecap="round" stroke-linejoin="round"/>
<path d="M122.485 41.0309H118.9C118.781 41.0309 118.687 40.9373 118.687 40.818C118.687 40.6988 118.781 40.6052 118.9 40.6052H122.485C122.604 40.6052 122.698 40.6988 122.698 40.818C122.698 40.9373 122.604 41.0309 122.485 41.0309Z" fill="#198293" stroke="#198293" stroke-miterlimit="10" stroke-linecap="round" stroke-linejoin="round"/>
<path d="M123.83 39.6855C123.711 39.6855 123.618 39.5918 123.618 39.4726V35.8834C123.618 35.7641 123.711 35.6705 123.83 35.6705C123.95 35.6705 124.043 35.7641 124.043 35.8834V39.4726C124.043 39.5918 123.95 39.6855 123.83 39.6855Z" fill="#198293" stroke="#198293" stroke-miterlimit="10" stroke-linecap="round" stroke-linejoin="round"/>
<path d="M123.83 45.9656C123.711 45.9656 123.618 45.872 123.618 45.7528V42.1635C123.618 42.0443 123.711 41.9506 123.83 41.9506C123.95 41.9506 124.043 42.0443 124.043 42.1635V45.7528C124.043 45.8677 123.95 45.9656 123.83 45.9656Z" fill="#198293" stroke="#198293" stroke-miterlimit="10" stroke-linecap="round" stroke-linejoin="round"/>
<path d="M68.9955 15.0079C68.0886 14.8333 67.169 14.7056 66.2323 14.6247C54.481 13.6156 40.7158 18.5077 34.325 43.2535C22.0288 90.8716 49.5378 65.9257 52.2755 94.1841C52.8503 100.111 55.8562 103.142 60.263 103.994C76.885 107.2 113.493 79.4439 115.515 58.909C117.785 35.8493 98.7952 52.3777 89.3175 31.4554C85.4856 22.9911 77.975 16.7407 68.9955 15.0079Z" fill="#D9FAFF"/>
<path d="M73.1511 56.5545L85.7198 61.6041L101.282 22.859L90.6545 18.5928C89.5815 18.1628 88.3596 18.6822 87.9295 19.7552L73.1511 56.5545Z" fill="#198293"/>
<path d="M71.6789 55.1092L95.746 59.3771L101.747 25.5382L77.6796 21.2703L71.6789 55.1092Z" fill="#ABDDE9"/>
<path d="M83.7559 25.8194L83.7128 26.0626L94.4615 27.9686L94.5046 27.7255L83.7559 25.8194Z" fill="#55769F"/>
<path d="M81.6032 24.8086L81.5601 25.0517L96.8237 27.7584L96.8668 27.5153L81.6032 24.8086Z" fill="#55769F"/>
<path d="M79.4198 27.6661L79.3766 27.9092L97.8933 31.1928L97.9364 30.9497L79.4198 27.6661Z" fill="#55769F"/>
<path d="M79.212 28.825L79.1689 29.0682L97.6855 32.3518L97.7287 32.1086L79.212 28.825Z" fill="#55769F"/>
<path d="M78.8034 31.1482L78.7603 31.3913L97.277 34.6749L97.3201 34.4317L78.8034 31.1482Z" fill="#55769F"/>
<path d="M78.5954 32.307L78.5522 32.5502L97.0689 35.8337L97.112 35.5906L78.5954 32.307Z" fill="#55769F"/>
<path d="M78.3916 33.4666L78.3485 33.7097L96.8652 36.9933L96.9083 36.7501L78.3916 33.4666Z" fill="#55769F"/>
<path d="M77.4865 38.5733L77.4434 38.8164L95.9601 42.1L96.0032 41.8568L77.4865 38.5733Z" fill="#55769F"/>
<path d="M77.2705 39.7758L77.2274 40.0189L95.744 43.3025L95.7871 43.0594L77.2705 39.7758Z" fill="#55769F"/>
<path d="M77.0591 40.9795L77.016 41.2227L95.5327 44.5062L95.5758 44.2631L77.0591 40.9795Z" fill="#55769F"/>
<path d="M76.847 42.1826L76.8039 42.4257L95.3206 45.7093L95.3637 45.4662L76.847 42.1826Z" fill="#55769F"/>
<path d="M76.6309 43.3852L76.5878 43.6283L95.1045 46.9119L95.1476 46.6687L76.6309 43.3852Z" fill="#55769F"/>
<path d="M76.4185 44.588L76.3754 44.8311L94.892 48.1147L94.9351 47.8715L76.4185 44.588Z" fill="#55769F"/>
<path d="M76.207 45.7915L76.1639 46.0346L94.6806 49.3182L94.7237 49.075L76.207 45.7915Z" fill="#55769F"/>
<path d="M72.3893 53.6635L96.0286 59.8844L104.775 26.6469L81.136 20.4261L72.3893 53.6635Z" fill="#6AB9C6"/>
<path d="M86.7592 25.6898L97.3168 28.4681L97.3797 28.2293L86.8221 25.451L86.7592 25.6898Z" fill="#ABDDE9"/>
<path d="M84.7027 24.5058L99.695 28.4512L99.7579 28.2124L84.7656 24.267L84.7027 24.5058Z" fill="#ABDDE9"/>
<path d="M82.2928 27.1728L100.48 31.959L100.543 31.7202L82.3556 26.934L82.2928 27.1728Z" fill="#ABDDE9"/>
<path d="M81.9914 28.311L100.179 33.0972L100.242 32.8583L82.0543 28.0721L81.9914 28.311Z" fill="#ABDDE9"/>
<path d="M81.3911 30.5924L99.5787 35.3786L99.6415 35.1398L81.454 30.3536L81.3911 30.5924Z" fill="#ABDDE9"/>
<path d="M81.0939 31.7314L99.2815 36.5176L99.3443 36.2788L81.1568 31.4926L81.0939 31.7314Z" fill="#ABDDE9"/>
<path d="M80.7915 32.8735L98.979 37.6597L99.0419 37.4209L80.8543 32.6347L80.7915 32.8735Z" fill="#ABDDE9"/>
<path d="M79.4728 37.8851L97.6604 42.6713L97.7232 42.4325L79.5357 37.6463L79.4728 37.8851Z" fill="#ABDDE9"/>
<path d="M79.1609 39.0695L97.3484 43.8557L97.4113 43.6168L79.2237 38.8306L79.1609 39.0695Z" fill="#ABDDE9"/>
<path d="M78.8503 40.2494L97.0378 45.0356L97.1007 44.7968L78.9131 40.0106L78.8503 40.2494Z" fill="#ABDDE9"/>
<path d="M78.5392 41.43L96.7267 46.2162L96.7896 45.9774L78.602 41.1912L78.5392 41.43Z" fill="#ABDDE9"/>
<path d="M78.2273 42.6141L96.4149 47.4003L96.4777 47.1614L78.2902 42.3752L78.2273 42.6141Z" fill="#ABDDE9"/>
<path d="M77.9159 43.795L96.1034 48.5812L96.1663 48.3424L77.9787 43.5562L77.9159 43.795Z" fill="#ABDDE9"/>
<path d="M77.6043 44.9789L95.7918 49.7651L95.8547 49.5263L77.6671 44.7401L77.6043 44.9789Z" fill="#ABDDE9"/>
<path d="M77.9196 58.4705L103.227 68.6336L117.989 31.8811L96.7217 18.7632C95.5253 18.0266 93.9542 18.5418 93.4305 19.8446L77.9196 58.4705Z" fill="#37A5B7"/>
<path d="M35.9217 43.8921H34.193C34.474 43.7005 34.8317 43.5813 35.2149 43.5813H78.5668C80.8362 43.5813 82.6755 45.212 82.6755 47.2216V49.5336C82.6755 51.5432 80.8362 53.1739 78.5668 53.1739L35.7003 53.1654L35.9217 43.8921Z" fill="#198293"/>
<path d="M79.0394 49.5378V47.2259C79.0394 45.2163 77.2001 43.5856 74.9307 43.5856H75.8631C78.1325 43.5856 79.9718 45.2163 79.9718 47.2259V49.5378C79.9718 51.5475 78.1325 53.1782 75.8631 53.1782H74.9435C77.2086 53.1697 79.0394 51.5432 79.0394 49.5378Z" fill="#ABDDE9"/>
<path d="M68.8848 49.5378V47.2259C68.8848 45.2163 67.0455 43.5856 64.7761 43.5856H65.7086C67.9779 43.5856 69.8172 45.2163 69.8172 47.2259V49.5378C69.8172 51.5475 67.9779 53.1782 65.7086 53.1782H64.7889C67.054 53.1697 68.8848 51.5432 68.8848 49.5378Z" fill="#ABDDE9"/>
<path d="M60.5356 43.5897C62.7027 43.5897 64.4612 45.148 64.4612 47.0725V49.6868C64.4612 51.6112 62.7027 53.1696 60.5356 53.1696H33.546V52.5863H33.6567L40.5158 52.0115L41.9038 47.1875C41.9038 47.1875 39.2258 44.5222 39.0512 44.454C38.8766 44.3859 33.6524 44.1773 33.6524 44.1773H33.5417V43.594H60.5356V43.5897Z" fill="#ABDDE9"/>
<path d="M35.2958 48.3627C35.2958 45.5441 33.6523 44.1774 33.6523 44.1774H59.982C61.9746 44.1774 63.5882 45.608 63.5882 47.375V49.3846C63.5882 51.1515 61.9746 52.5821 59.982 52.5821H33.6523C33.6523 52.5821 35.2958 51.9137 35.2958 48.3627Z" fill="#77CAD8"/>
<path d="M36.6369 63.0688H34.6784C34.9977 62.8261 35.398 62.6813 35.8365 62.6813H84.9065C87.4739 62.6813 89.556 64.7208 89.556 67.2371V70.1323C89.556 72.6486 87.4739 74.6881 84.9065 74.6881L36.3857 74.671L36.6369 63.0688Z" fill="#6AB9C6"/>
<path d="M64.4951 62.6898C66.9518 62.6898 68.9402 64.6398 68.9402 67.0496V70.3196C68.9402 72.7252 66.9518 74.6795 64.4951 74.6795H33.9461V73.9471H34.0738L41.8399 73.2276L43.411 67.1902C43.411 67.1902 40.3837 63.8564 40.1836 63.767C39.9878 63.6818 34.0738 63.4221 34.0738 63.4221H33.9461V62.694H64.4951V62.6898Z" fill="#6AB9C6"/>
<path d="M35.9302 68.6634C35.9302 65.1338 34.0696 63.4222 34.0696 63.4222H63.8693C66.1259 63.4222 67.9524 65.2147 67.9524 67.4244V69.9407C67.9524 72.1505 66.1259 73.943 63.8693 73.943H34.0696C34.0696 73.9472 35.9302 73.1085 35.9302 68.6634Z" fill="#ABDDE9"/>
<path d="M91.1696 53.4591H93.1282C92.8089 53.2675 92.4086 53.1526 91.9701 53.1526H42.883C40.3156 53.1526 38.2336 54.7705 38.2336 56.7674V59.0623C38.2336 61.0591 40.3156 62.6771 42.883 62.6771L91.4208 62.6643L91.1696 53.4591Z" fill="#6AB9C6"/>
<path d="M63.3029 53.1611C60.8462 53.1611 58.8579 54.7109 58.8579 56.6184V59.2156C58.8579 61.1273 60.8505 62.6728 63.3029 62.6728H93.8605V62.0938H93.7327L85.9624 61.5233L84.3913 56.7333C84.3913 56.7333 87.4228 54.0851 87.6187 54.0169C87.8145 53.9488 93.7285 53.7402 93.7285 53.7402H93.8562V53.1611H63.3029Z" fill="#198293"/>
<path d="M91.8764 57.8999C91.8764 55.0984 93.7371 53.7402 93.7371 53.7402H63.9289C61.6723 53.7402 59.8457 55.1622 59.8457 56.9164V58.9133C59.8457 60.6675 61.6765 62.0895 63.9289 62.0895H93.7413C93.7371 62.0895 91.8764 61.4253 91.8764 57.8999Z" fill="#77CAD8"/>
<path d="M47.2259 59.0666V56.7717C47.2259 54.7748 49.3079 53.1569 51.8753 53.1569H47.2131C44.6457 53.1569 42.5637 54.7748 42.5637 56.7717V59.0666C42.5637 61.0634 44.6457 62.6813 47.2131 62.6813H51.8115C49.2739 62.6515 47.2259 61.0464 47.2259 59.0666Z" fill="#198293"/>
<path d="M94.4012 75.0585H96.8579C96.4577 74.8456 95.9553 74.7136 95.406 74.7136H33.8694C30.6506 74.7136 28.0406 76.5231 28.0406 78.7542V81.3216C28.0406 83.5526 30.6506 85.3621 33.8694 85.3621L94.7205 85.3494L94.4012 75.0585Z" fill="#37A5B7"/>
<path d="M59.4668 74.7222C56.3885 74.7222 53.8935 76.4508 53.8935 78.5839V81.4834C53.8935 83.6165 56.3885 85.3451 59.4668 85.3451H97.7776V84.698H97.6201L87.8827 84.0593L85.9157 78.7074C85.9157 78.7074 89.7136 75.7483 89.9648 75.6759C90.2117 75.5993 97.6244 75.3693 97.6244 75.3693H97.7819V74.7222H59.4668Z" fill="#37A5B7"/>
<path d="M95.2911 80.0188C95.2911 76.8893 97.6243 75.3736 97.6243 75.3736H60.2502C57.4231 75.3736 55.1282 76.9617 55.1282 78.9203V81.1513C55.1282 83.1098 57.4231 84.698 60.2502 84.698H97.6243C97.6243 84.7022 95.2911 83.9571 95.2911 80.0188Z" fill="#ABDDE9"/>
<path d="M113.506 35.9388L96.2747 26.0864L93.9457 30.6975L111.577 40.0262L113.506 35.9388Z" fill="#198293"/>
</svg>
