<svg width="123" height="117" viewBox="0 0 123 117" fill="none" xmlns="http://www.w3.org/2000/svg">
<path d="M121.374 84.0125H87.9466C87.8104 84.0125 87.6954 83.9018 87.6954 83.7613C87.6954 83.6208 87.8061 83.5101 87.9466 83.5101H121.374C121.51 83.5101 121.625 83.6208 121.625 83.7613C121.625 83.9018 121.51 84.0125 121.374 84.0125Z" fill="#679156" stroke="#679156" stroke-miterlimit="10" stroke-linecap="round" stroke-linejoin="round"/>
<path d="M103.193 80.751H89.2537C89.1174 80.751 89.0025 80.6403 89.0025 80.4998C89.0025 80.3593 89.1132 80.2486 89.2537 80.2486H103.193C104.539 80.2486 105.633 79.1544 105.633 77.809V74.0835C105.633 73.9472 105.744 73.8323 105.884 73.8323C106.025 73.8323 106.135 73.943 106.135 74.0835V77.809C106.131 79.4354 104.816 80.751 103.193 80.751Z" fill="#679156" stroke="#679156" stroke-miterlimit="10" stroke-linecap="round" stroke-linejoin="round"/>
<path d="M115.937 101.95C115.8 101.95 115.686 101.839 115.686 101.699V89.2792C115.686 87.9338 114.591 86.8396 113.246 86.8396H90.5012C90.365 86.8396 90.25 86.7289 90.25 86.5884C90.25 86.4479 90.3607 86.3372 90.5012 86.3372H113.25C114.872 86.3372 116.192 87.6571 116.192 89.2792V101.699C116.188 101.839 116.077 101.95 115.937 101.95Z" fill="#679156" stroke="#679156" stroke-miterlimit="10" stroke-linecap="round" stroke-linejoin="round"/>
<path d="M115.831 96.0201C116.852 96.0201 117.679 94.9622 117.679 93.6571C117.679 92.352 116.852 91.2941 115.831 91.2941C114.811 91.2941 113.983 92.352 113.983 93.6571C113.983 94.9622 114.811 96.0201 115.831 96.0201Z" fill="#CDE6C4"/>
<path d="M115.83 96.2704C114.672 96.2704 113.731 95.0995 113.731 93.6561C113.731 92.2128 114.672 91.0419 115.83 91.0419C116.988 91.0419 117.929 92.2128 117.929 93.6561C117.929 95.0995 116.988 96.2704 115.83 96.2704ZM115.83 91.5401C114.949 91.5401 114.234 92.4895 114.234 93.6561C114.234 94.8228 114.949 95.7722 115.83 95.7722C116.712 95.7722 117.427 94.8228 117.427 93.6561C117.427 92.4895 116.712 91.5401 115.83 91.5401Z" fill="#679156" stroke="#679156" stroke-miterlimit="10" stroke-linecap="round" stroke-linejoin="round"/>
<path d="M98.3278 82.2421C99.6328 82.2421 100.691 81.4148 100.691 80.3943C100.691 79.3738 99.6328 78.5464 98.3278 78.5464C97.0227 78.5464 95.9647 79.3738 95.9647 80.3943C95.9647 81.4148 97.0227 82.2421 98.3278 82.2421Z" fill="#CDE6C4"/>
<path d="M98.3269 82.4925C96.8835 82.4925 95.7126 81.5515 95.7126 80.3934C95.7126 79.2353 96.8835 78.2944 98.3269 78.2944C99.7702 78.2944 100.941 79.2353 100.941 80.3934C100.941 81.5515 99.7702 82.4925 98.3269 82.4925ZM98.3269 78.7968C97.1602 78.7968 96.2108 79.5121 96.2108 80.3934C96.2108 81.2748 97.1602 81.9901 98.3269 81.9901C99.4935 81.9901 100.443 81.2748 100.443 80.3934C100.443 79.5121 99.4935 78.7968 98.3269 78.7968Z" fill="#679156" stroke="#679156" stroke-miterlimit="10" stroke-linecap="round" stroke-linejoin="round"/>
<path d="M24.66 86.0689H12.2276C10.6054 86.0689 9.28548 84.749 9.28548 83.1268V64.8357C9.28548 64.6995 9.39618 64.5845 9.53668 64.5845C9.67719 64.5845 9.78789 64.6952 9.78789 64.8357V83.1268C9.78789 84.4723 10.8821 85.5665 12.2276 85.5665H24.6558C24.792 85.5665 24.907 85.6772 24.907 85.8177C24.907 85.9582 24.7963 86.0689 24.66 86.0689Z" fill="#679156" stroke="#679156" stroke-miterlimit="10" stroke-linecap="round" stroke-linejoin="round"/>
<path d="M24.9496 88.896H1.2512C1.11496 88.896 1 88.7853 1 88.6448C1 88.5043 1.1107 88.3936 1.2512 88.3936H24.9496C25.0858 88.3936 25.2008 88.5043 25.2008 88.6448C25.2008 88.7853 25.0858 88.896 24.9496 88.896Z" fill="#679156" stroke="#679156" stroke-miterlimit="10" stroke-linecap="round" stroke-linejoin="round"/>
<path d="M9.62284 69.0348C10.6434 69.0348 11.4707 67.9768 11.4707 66.6717C11.4707 65.3667 10.6434 64.3087 9.62284 64.3087C8.6023 64.3087 7.77499 65.3667 7.77499 66.6717C7.77499 67.9768 8.6023 69.0348 9.62284 69.0348Z" fill="#CDE6C4"/>
<path d="M9.62186 69.285C8.46376 69.285 7.52281 68.1142 7.52281 66.6708C7.52281 65.2275 8.46376 64.0566 9.62186 64.0566C10.78 64.0566 11.7209 65.2275 11.7209 66.6708C11.7209 68.1142 10.78 69.285 9.62186 69.285ZM9.62186 64.5547C8.74052 64.5547 8.02522 65.5042 8.02522 66.6708C8.02522 67.8374 8.74052 68.7869 9.62186 68.7869C10.5032 68.7869 11.2185 67.8374 11.2185 66.6708C11.2185 65.5042 10.5032 64.5547 9.62186 64.5547Z" fill="#679156" stroke="#679156" stroke-miterlimit="10" stroke-linecap="round" stroke-linejoin="round"/>
<path d="M39.0809 24.5494C38.9447 24.5494 38.8297 24.4387 38.8297 24.2982V1.2512C38.8297 1.11496 38.9404 1 39.0809 1C39.2214 1 39.3322 1.1107 39.3322 1.2512V24.2982C39.3322 24.4387 39.2214 24.5494 39.0809 24.5494Z" fill="#679156" stroke="#679156" stroke-miterlimit="10" stroke-linecap="round" stroke-linejoin="round"/>
<path d="M42.0188 24.443C41.8825 24.443 41.7675 24.3323 41.7675 24.1917V9.16205C41.7675 7.53986 43.0874 6.21997 44.7096 6.21997H51.9137C52.0499 6.21997 52.1649 6.33067 52.1649 6.47117C52.1649 6.61168 52.0542 6.72239 51.9137 6.72239H44.7096C43.3642 6.72239 42.27 7.81661 42.27 9.16205V24.1917C42.2657 24.3323 42.155 24.443 42.0188 24.443Z" fill="#679156" stroke="#679156" stroke-miterlimit="10" stroke-linecap="round" stroke-linejoin="round"/>
<path d="M39.0818 12.4244C40.1024 12.4244 40.9297 11.3664 40.9297 10.0613C40.9297 8.75627 40.1024 7.6983 39.0818 7.6983C38.0613 7.6983 37.234 8.75627 37.234 10.0613C37.234 11.3664 38.0613 12.4244 39.0818 12.4244Z" fill="#CDE6C4"/>
<path d="M39.0809 12.6746C37.9228 12.6746 36.9818 11.5038 36.9818 10.0604C36.9818 8.61704 37.9228 7.44617 39.0809 7.44617C40.239 7.44617 41.1799 8.61704 41.1799 10.0604C41.1799 11.5038 40.239 12.6746 39.0809 12.6746ZM39.0809 7.94432C38.1995 7.94432 37.4843 8.89379 37.4843 10.0604C37.4843 11.227 38.1995 12.1765 39.0809 12.1765C39.9622 12.1765 40.6775 11.227 40.6775 10.0604C40.6775 8.89379 39.9622 7.94432 39.0809 7.94432Z" fill="#679156" stroke="#679156" stroke-miterlimit="10" stroke-linecap="round" stroke-linejoin="round"/>
<path d="M120.22 35.2106H116.635C116.516 35.2106 116.422 35.117 116.422 34.9977C116.422 34.8785 116.516 34.7849 116.635 34.7849H120.22C120.339 34.7849 120.433 34.8785 120.433 34.9977C120.433 35.117 120.335 35.2106 120.22 35.2106Z" fill="#679156" stroke="#679156" stroke-miterlimit="10" stroke-linecap="round" stroke-linejoin="round"/>
<path d="M113.94 35.2106H110.351C110.231 35.2106 110.138 35.117 110.138 34.9977C110.138 34.8785 110.231 34.7849 110.351 34.7849H113.94C114.059 34.7849 114.153 34.8785 114.153 34.9977C114.153 35.117 114.059 35.2106 113.94 35.2106Z" fill="#679156" stroke="#679156" stroke-miterlimit="10" stroke-linecap="round" stroke-linejoin="round"/>
<path d="M115.285 33.861C115.166 33.861 115.072 33.7673 115.072 33.6481V30.0588C115.072 29.9396 115.166 29.8459 115.285 29.8459C115.405 29.8459 115.498 29.9396 115.498 30.0588V33.6481C115.498 33.7673 115.405 33.861 115.285 33.861Z" fill="#679156" stroke="#679156" stroke-miterlimit="10" stroke-linecap="round" stroke-linejoin="round"/>
<path d="M115.285 40.141C115.166 40.141 115.072 40.0474 115.072 39.9282V36.3389C115.072 36.2197 115.166 36.126 115.285 36.126C115.405 36.126 115.498 36.2197 115.498 36.3389V39.9282C115.498 40.0474 115.405 40.141 115.285 40.141Z" fill="#679156" stroke="#679156" stroke-miterlimit="10" stroke-linecap="round" stroke-linejoin="round"/>
<path d="M43.2535 107.932H39.6642C39.545 107.932 39.4514 107.839 39.4514 107.719C39.4514 107.6 39.545 107.506 39.6642 107.506H43.2535C43.3727 107.506 43.4664 107.6 43.4664 107.719C43.4664 107.839 43.3727 107.932 43.2535 107.932Z" fill="#679156" stroke="#679156" stroke-miterlimit="10" stroke-linecap="round" stroke-linejoin="round"/>
<path d="M36.9776 107.932H33.3884C33.2691 107.932 33.1755 107.839 33.1755 107.719C33.1755 107.6 33.2691 107.506 33.3884 107.506H36.9776C37.0968 107.506 37.1905 107.6 37.1905 107.719C37.1905 107.839 37.0926 107.932 36.9776 107.932Z" fill="#679156" stroke="#679156" stroke-miterlimit="10" stroke-linecap="round" stroke-linejoin="round"/>
<path d="M38.323 106.587C38.2038 106.587 38.1101 106.493 38.1101 106.374V102.785C38.1101 102.665 38.2038 102.572 38.323 102.572C38.4422 102.572 38.5359 102.665 38.5359 102.785V106.374C38.5359 106.493 38.438 106.587 38.323 106.587Z" fill="#679156" stroke="#679156" stroke-miterlimit="10" stroke-linecap="round" stroke-linejoin="round"/>
<path d="M38.323 112.867C38.2038 112.867 38.1101 112.773 38.1101 112.654V109.065C38.1101 108.946 38.2038 108.852 38.323 108.852C38.4422 108.852 38.5359 108.946 38.5359 109.065V112.654C38.5359 112.769 38.438 112.867 38.323 112.867Z" fill="#679156" stroke="#679156" stroke-miterlimit="10" stroke-linecap="round" stroke-linejoin="round"/>
<path d="M11.7296 34.0142H8.14033C8.02111 34.0142 7.92744 33.9205 7.92744 33.8013C7.92744 33.6821 8.02111 33.5884 8.14033 33.5884H11.7296C11.8488 33.5884 11.9425 33.6821 11.9425 33.8013C11.9425 33.9205 11.8445 34.0142 11.7296 34.0142Z" fill="#679156" stroke="#679156" stroke-miterlimit="10" stroke-linecap="round" stroke-linejoin="round"/>
<path d="M5.44935 34.0142H1.8601C1.74089 34.0142 1.64722 33.9205 1.64722 33.8013C1.64722 33.6821 1.74089 33.5884 1.8601 33.5884H5.44935C5.56856 33.5884 5.66223 33.6821 5.66223 33.8013C5.66223 33.9205 5.56856 34.0142 5.44935 34.0142Z" fill="#679156" stroke="#679156" stroke-miterlimit="10" stroke-linecap="round" stroke-linejoin="round"/>
<path d="M6.79486 32.6688C6.67564 32.6688 6.58197 32.5751 6.58197 32.4559V28.8666C6.58197 28.7474 6.67564 28.6537 6.79486 28.6537C6.91407 28.6537 7.00774 28.7474 7.00774 28.8666V32.4559C7.00774 32.5708 6.91407 32.6688 6.79486 32.6688Z" fill="#679156" stroke="#679156" stroke-miterlimit="10" stroke-linecap="round" stroke-linejoin="round"/>
<path d="M6.79482 38.9446C6.67561 38.9446 6.58194 38.8509 6.58194 38.7317V35.1425C6.58194 35.0232 6.67561 34.9296 6.79482 34.9296C6.91404 34.9296 7.00771 35.0232 7.00771 35.1425V38.7317C7.00771 38.8509 6.91404 38.9446 6.79482 38.9446Z" fill="#679156" stroke="#679156" stroke-miterlimit="10" stroke-linecap="round" stroke-linejoin="round"/>
<path d="M57.4103 15.3868C53.0717 15.3868 48.6011 16.1745 44.0922 18.0393C15.1228 30.0205 53.6976 49.5123 24.0938 71.8525C6.87988 84.8427 32.5964 103.061 58.232 103.061C76.6807 103.061 95.0867 93.6264 97.4157 66.0151C97.5562 64.3759 97.701 62.7623 97.85 61.1954C99.8681 40.0772 85.9199 20.4535 65.138 16.1958C62.626 15.6763 60.0416 15.3868 57.4103 15.3868Z" fill="#F7FFE9"/>
<path d="M14.5735 46.6937C14.416 47.0854 14.4628 47.5324 14.7013 47.8816C14.9397 48.2307 15.3314 48.4393 15.7572 48.4393H36.1345C36.8371 48.4393 37.4076 47.8688 37.4076 47.1663V42.9214C37.4076 42.2188 36.8371 41.6483 36.1345 41.6483H33.1627V30.1866C33.1627 29.484 32.5921 28.9135 31.8896 28.9135H15.7529C15.3314 28.9135 14.9354 29.1221 14.697 29.4713C14.4586 29.8204 14.4117 30.2675 14.5693 30.6592L17.7796 38.6764L14.5735 46.6937Z" fill="#85A576"/>
<path d="M35.2319 48.0689L30.987 43.824C30.6208 43.4578 30.5144 42.9128 30.7102 42.436C30.9061 41.9591 31.3702 41.6483 31.8853 41.6483H36.1303C36.8328 41.6483 37.4033 42.2188 37.4033 42.9214V47.1663C37.4033 47.6815 37.0925 48.1456 36.6156 48.3414C36.4581 48.4053 36.2921 48.4393 36.1303 48.4393C35.7982 48.4393 35.4746 48.3116 35.2319 48.0689Z" fill="#679156"/>
<path d="M30.6124 25.9416V42.9214C30.6124 43.6239 31.1829 44.1944 31.8854 44.1944H48.8651C49.5677 44.1944 50.1382 43.6239 50.1382 42.9214V25.9416C50.1382 25.2391 49.5677 24.6686 48.8651 24.6686H31.8854C31.1829 24.6686 30.6124 25.2391 30.6124 25.9416Z" fill="#B1D6A1"/>
<path d="M47.592 63.3839V22.4631C47.592 21.7606 48.1626 21.1901 48.8651 21.1901C49.5676 21.1901 50.1381 21.7606 50.1381 22.4631V63.3839C50.1381 64.0864 49.5676 64.657 48.8651 64.657C48.1626 64.657 47.592 64.0864 47.592 63.3839Z" fill="#679156"/>
<path d="M102.41 32.3026C97.5775 27.4701 91.1526 24.8091 84.319 24.8091C77.4854 24.8091 71.0605 27.4701 66.228 32.3026C61.3955 37.1351 58.7345 43.56 58.7345 50.3936C58.7345 57.2272 61.3955 63.6521 66.228 68.4846C71.0605 73.3171 77.4854 75.9782 84.319 75.9782C87.6954 75.9782 90.9908 75.3225 94.1075 74.0324C97.2284 72.7381 100.021 70.8732 102.406 68.4889C102.797 68.0972 102.797 67.467 102.406 67.0753C102.014 66.6836 101.384 66.6836 100.992 67.0753C96.5386 71.5289 90.6162 73.9813 84.3148 73.9813C80.3806 73.9813 76.6679 73.0105 73.4023 71.299L75.3863 67.8587C75.4715 67.7097 75.5141 67.5479 75.5183 67.3861C75.5269 67.0327 75.348 66.6836 75.0202 66.492C75.0202 66.492 75.0202 66.492 75.0159 66.492C69.5746 63.3498 66.0918 57.6317 65.7554 51.3942H69.7236C70.2771 51.3942 70.7242 50.9471 70.7242 50.3936C70.7242 49.8401 70.2771 49.3931 69.7236 49.3931H65.7554C65.8235 48.1072 66.0237 46.8257 66.36 45.5824C66.5048 45.0502 66.1854 44.501 65.6532 44.3605C65.121 44.2157 64.5718 44.535 64.4313 45.0672C63.9672 46.8044 63.7288 48.5969 63.7288 50.3936C63.7288 57.389 67.3223 63.9331 73.1681 67.7012L71.6694 70.2941C65.0955 66.1046 60.7271 58.7515 60.7271 50.3936C60.7271 46.4595 61.6978 42.7468 63.4094 39.4811L66.8497 41.4652C67.0072 41.5546 67.1775 41.5972 67.3478 41.5972C67.6927 41.5972 68.029 41.4184 68.2121 41.0991C69.0253 39.694 70.0174 38.3997 71.167 37.2501C71.5587 36.8584 71.5587 36.2282 71.167 35.8365C70.7753 35.4448 70.1451 35.4448 69.7534 35.8365C68.7188 36.8712 67.7991 38.0165 67.0029 39.247L64.4057 37.7483C68.5953 31.1744 75.9484 26.8059 84.3062 26.8059C88.2404 26.8059 91.9531 27.7767 95.2187 29.4883L93.2346 32.9285C92.9579 33.4054 93.1239 34.0185 93.6008 34.2952C93.7583 34.3847 93.9286 34.4272 94.099 34.4272C94.4438 34.4272 94.7802 34.2484 94.9633 33.9291L96.9474 30.4931C99.8639 32.3537 102.346 34.836 104.202 37.7483L101.605 39.247C100.813 38.0207 99.8979 36.8754 98.8591 35.8365C98.4674 35.4448 97.8372 35.4448 97.4455 35.8365C97.0538 36.2282 97.0538 36.8584 97.4455 37.2501C99.7489 39.5535 101.414 42.436 102.257 45.5824C102.376 46.0295 102.78 46.3233 103.223 46.3233C103.308 46.3233 103.398 46.3105 103.483 46.2892C104.015 46.1444 104.334 45.5995 104.19 45.0672C103.811 43.6494 103.274 42.2784 102.61 40.9798L105.207 39.4811C106.919 42.7468 107.89 46.4595 107.89 50.3936C107.89 54.1958 106.966 57.9468 105.212 61.3104L102.61 59.8074C104.066 56.9846 104.892 53.7828 104.892 50.3936C104.892 49.8401 104.445 49.3931 103.892 49.3931H99.8639C99.8426 49.078 99.8128 48.7587 99.7745 48.4479C99.7063 47.8986 99.2039 47.5112 98.659 47.5793C98.1097 47.6474 97.7223 48.1498 97.7904 48.6948C97.8628 49.2568 97.8968 49.8273 97.8968 50.3936C97.8968 52.4501 97.4242 54.4725 96.5429 56.3033L93.9372 54.8003C94.5673 53.4209 94.8994 51.9179 94.8994 50.3936C94.8994 49.8401 94.4523 49.3931 93.8988 49.3931H88.9258H88.9216C88.3681 49.3931 87.921 49.8401 87.921 50.3936C87.921 52.3777 86.3074 53.9914 84.3233 53.9914C82.3392 53.9914 80.7255 52.3777 80.7255 50.3936C80.7255 48.4095 82.3392 46.7959 84.3233 46.7959C84.8768 46.7959 85.3238 46.3488 85.3238 45.7953C85.3238 45.2418 84.8768 44.7947 84.3233 44.7947C81.577 44.7947 79.2907 46.7831 78.8181 49.3931H75.7908C76.289 45.1226 79.9251 41.7973 84.3233 41.7973C87.3846 41.7973 90.2372 43.4451 91.7657 46.0934C92.0425 46.5702 92.6513 46.7363 93.1325 46.4595C93.6093 46.1828 93.7754 45.5739 93.4986 45.0928C92.728 43.7559 91.6848 42.6276 90.4629 41.759L91.9701 39.149C93.6519 40.2901 95.0655 41.8058 96.0958 43.5941C96.2789 43.9134 96.6153 44.0922 96.9601 44.0922C97.1304 44.0922 97.3008 44.0497 97.4583 43.9602C97.9352 43.6835 98.1012 43.0746 97.8244 42.5935C96.445 40.2049 94.4736 38.2464 92.1191 36.8882C91.225 36.373 90.2798 35.943 89.2878 35.6109C88.7641 35.4363 88.1978 35.7173 88.0232 36.241C87.8486 36.7647 88.1297 37.331 88.6534 37.5056C89.1983 37.6886 89.7263 37.9058 90.2372 38.1527L88.73 40.7627C87.3675 40.1368 85.8688 39.7962 84.3233 39.7962C80.7681 39.7962 77.6174 41.5589 75.6929 44.254L73.0872 42.7468C74.7434 40.3071 77.1661 38.4508 80.0102 37.5013C80.5339 37.3267 80.8149 36.7605 80.6404 36.2368C80.4658 35.7131 79.8995 35.4321 79.3758 35.6066C78.6988 35.8323 78.0432 36.1048 77.413 36.4156L75.9143 33.8184C78.2177 32.6475 80.7468 31.9705 83.327 31.83V35.7982C83.327 36.3517 83.774 36.7988 84.3275 36.7988C84.881 36.7988 85.3281 36.3517 85.3281 35.7982V31.83C86.6139 31.8982 87.8912 32.0983 89.1387 32.4346C89.6709 32.5794 90.2202 32.2601 90.3607 31.7279C90.5055 31.1956 90.1861 30.6464 89.6539 30.5059C87.9168 30.0418 86.1243 29.8034 84.3275 29.8034C80.717 29.8034 77.1576 30.7571 74.0324 32.5624C73.5555 32.8391 73.3895 33.448 73.6662 33.9291L75.6801 37.4161C73.696 38.736 72.0355 40.503 70.8349 42.5807C70.8306 42.585 70.8263 42.5893 70.8263 42.5978C70.8221 42.6063 70.8178 42.6105 70.8178 42.6191C70.4985 43.1768 70.209 43.7559 69.9578 44.3562C69.7449 44.8671 69.9833 45.4504 70.49 45.6633C70.6177 45.7144 70.7497 45.74 70.8774 45.74C71.2691 45.74 71.6396 45.51 71.7971 45.1268C71.8908 44.9097 71.9887 44.6926 72.0909 44.4797L74.6966 45.9826C74.0792 47.3238 73.7344 48.8183 73.7344 50.3894C73.7344 51.9605 74.0792 53.4549 74.6966 54.7961L72.0909 56.2991C71.9589 56.0223 71.8312 55.737 71.7162 55.4475C71.5118 54.9366 70.9285 54.6854 70.4176 54.894C69.9067 55.0984 69.6555 55.6817 69.8641 56.1926C71.58 60.4631 75.067 63.7415 79.4397 65.1891C79.5419 65.2232 79.6483 65.2402 79.7548 65.2402C80.172 65.2402 80.5637 64.9763 80.7042 64.5547C80.8788 64.0311 80.5935 63.4648 80.0698 63.2902C77.1959 62.3407 74.7647 60.4801 73.0957 58.0277L75.7057 56.5205C77.6259 59.2156 80.7809 60.9783 84.336 60.9783C86.1924 60.9783 88.0232 60.4886 89.6326 59.5605C90.1095 59.2837 90.2755 58.6749 89.9988 58.1937C89.722 57.7169 89.1132 57.5508 88.6321 57.8276C87.6187 58.4151 86.4947 58.7856 85.3323 58.9176V55.8861C87.6187 55.4731 89.424 53.6678 89.837 51.3814H92.8642C92.728 52.5395 92.3576 53.6635 91.7743 54.6769C91.7743 54.6769 91.7743 54.6769 91.7743 54.6811C91.4975 55.158 91.6635 55.7711 92.1404 56.0479L95.5679 58.0277C95.3124 58.4066 95.0356 58.7685 94.7419 59.1219C94.3885 59.5434 94.4438 60.1736 94.8653 60.5312C95.0527 60.6887 95.2783 60.7654 95.5083 60.7654C95.7935 60.7654 96.0788 60.6419 96.2746 60.4077C96.858 59.7137 97.3731 58.9729 97.8244 58.1937C97.8287 58.1895 97.8287 58.1852 97.833 58.181C97.8372 58.1767 97.8372 58.1682 97.8415 58.1639C99.0294 56.0989 99.7362 53.7742 99.8894 51.3857H102.891C102.568 57.4784 99.2934 62.8048 94.4736 65.9555L92.4938 62.5238C92.217 62.047 91.6082 61.8809 91.1271 62.1577C90.6502 62.4344 90.4842 63.0433 90.7609 63.5244L92.745 66.9604C90.4969 68.1057 87.9892 68.8082 85.3323 68.9487V65.9428C85.988 65.9002 86.6395 65.8193 87.2824 65.6958C87.8231 65.5894 88.1808 65.0657 88.0743 64.5249C87.9679 63.9842 87.4442 63.6266 86.9034 63.733C86.0562 63.8948 85.1918 63.98 84.3318 63.98C83.7783 63.98 83.3312 64.427 83.3312 64.9805V68.9487C82.0454 68.8806 80.7681 68.6805 79.5206 68.3441C78.9884 68.1993 78.4391 68.5187 78.2986 69.0509C78.1539 69.5831 78.4732 70.1323 79.0054 70.2728C80.7425 70.7369 82.535 70.9754 84.3318 70.9754C88.0573 70.9754 91.5528 69.9791 94.5716 68.2419C94.5886 68.2334 94.6099 68.2249 94.6269 68.2164C94.6567 68.1993 94.6865 68.1781 94.7163 68.1568C97.5094 66.5175 99.8809 64.2439 101.635 61.5318L105.118 63.5457C105.118 63.5457 105.122 63.5457 105.122 63.5499C105.16 63.5712 105.195 63.5882 105.233 63.6053C105.241 63.6095 105.25 63.6138 105.258 63.6138C105.288 63.6266 105.318 63.6351 105.352 63.6436C105.361 63.6479 105.369 63.6479 105.378 63.6521C105.454 63.6734 105.535 63.6819 105.612 63.6819C105.616 63.6819 105.616 63.6819 105.62 63.6819C105.625 63.6819 105.629 63.6819 105.637 63.6819C105.671 63.6819 105.705 63.6777 105.735 63.6734C105.744 63.6734 105.752 63.6734 105.761 63.6692C105.842 63.6564 105.918 63.6393 105.991 63.6095C105.999 63.6053 106.004 63.6053 106.012 63.601C106.042 63.5883 106.072 63.5755 106.101 63.5584C106.11 63.5542 106.118 63.5499 106.123 63.5457C106.191 63.5074 106.255 63.4563 106.314 63.4009C106.323 63.3967 106.327 63.3881 106.331 63.3839C106.353 63.3626 106.374 63.337 106.395 63.3115C106.399 63.303 106.408 63.2945 106.412 63.2859C106.438 63.2519 106.459 63.2178 106.48 63.1838C108.724 59.3007 109.908 54.877 109.908 50.3936C109.904 43.5557 107.242 37.1351 102.41 32.3026ZM83.3227 58.9261C79.3801 58.4662 76.2464 55.3326 75.7866 51.3899H78.8138C79.2268 53.6763 81.0321 55.4816 83.3184 55.8946V58.9261H83.3227Z" fill="#96BC84"/>
<path d="M66.9646 106.885V115.085C66.9646 115.979 66.2408 116.703 65.3509 116.703H54.9153C54.0254 116.703 53.2973 115.979 53.2973 115.085V106.885H66.9646Z" fill="#85A576"/>
<path d="M63.205 106.885H66.9646V115.085C66.9646 115.979 66.2408 116.703 65.3509 116.703H61.5914C62.4812 116.703 63.205 115.979 63.205 115.085V106.885Z" fill="#679156"/>
<path d="M81.13 67.1605C81.13 72.8956 78.8309 78.0942 75.1011 81.8793C73.5428 83.4632 72.7764 85.5325 72.7977 87.6017L60.0416 91.0164L47.3537 87.6017C47.3664 86.1796 47.0088 84.7363 46.2807 83.4547C45.9486 82.8714 45.5399 82.3221 45.0545 81.8197C41.3631 78.0346 39.0852 72.8658 39.0852 67.1605C39.0852 56.1288 47.7241 47.0215 58.5514 46.2168C59.1305 46.1742 59.718 46.1572 60.3098 46.1615C71.8269 46.2679 81.13 55.6306 81.13 67.1605Z" fill="#CDE6C4"/>
<path d="M81.13 67.1605C81.13 72.8956 78.8308 78.0942 75.1011 81.8793C73.5428 83.4632 72.7764 85.5325 72.7977 87.6017L60.0416 91.0164L47.3536 87.6017C47.3664 86.1796 47.0088 84.7363 46.2807 83.4547H69.3149C69.6597 82.8416 70.0855 82.2625 70.6049 81.7346C74.3347 77.9452 76.6339 72.7466 76.6339 67.0157C76.6339 56.414 68.7699 47.6474 58.5514 46.2168C59.1304 46.1742 59.718 46.1572 60.3098 46.1615C71.8269 46.2679 81.13 55.6306 81.13 67.1605Z" fill="#B1D6A1"/>
<path d="M72.6401 101.252V107.315C72.6401 108.963 71.3032 110.3 69.6555 110.3H50.615C48.963 110.3 47.6261 108.963 47.6261 107.315V101.252H72.6401Z" fill="#85A576"/>
<path d="M72.6401 101.252V107.315C72.6401 108.963 71.3032 110.3 69.6555 110.3H50.615C48.963 110.3 47.6261 108.963 47.6261 107.315V107.055H66.492C68.144 107.055 69.4809 105.718 69.4809 104.07V101.252H72.6401Z" fill="#679156"/>
<path d="M68.4378 59.8329C66.062 59.8329 64.129 61.7616 64.129 64.1374V65.849H55.9585V64.1076C55.9585 61.7361 54.0255 59.8031 51.6497 59.8031C49.2739 59.8031 47.3409 61.7318 47.3409 64.1076C47.3409 66.4834 49.2739 68.4122 51.6497 68.4122H53.3953V91.0206H55.9585V68.4122H64.129V91.0206H66.6922V68.4122H68.425C70.8051 68.4122 72.7423 66.4962 72.7423 64.1374C72.7423 61.7659 70.8093 59.8329 68.4378 59.8329ZM51.6497 65.849C50.6874 65.849 49.904 65.0656 49.904 64.1076C49.904 63.1497 50.6874 62.3662 51.6497 62.3662C52.6119 62.3662 53.3953 63.1454 53.3953 64.1076V65.849H51.6497ZM68.425 65.849H66.6922V64.1374C66.6922 63.1795 67.4756 62.396 68.4378 62.396C69.4 62.396 70.1835 63.1752 70.1835 64.1374C70.1792 65.0827 69.3915 65.849 68.425 65.849Z" fill="#96BC84"/>
<path d="M75.5737 101.005C75.5737 102.086 74.6966 102.959 73.6152 102.959H46.4765C45.9358 102.959 45.4462 102.742 45.0928 102.389C44.7394 102.035 44.518 101.546 44.518 101.005C44.518 100.796 44.5393 100.596 44.5776 100.4C44.8586 98.9399 46.1444 97.8414 47.6857 97.8414L60.131 96.1341L72.4017 97.8414C72.721 97.8414 73.0318 97.8883 73.3214 97.9777C73.8238 98.131 74.2794 98.4034 74.6413 98.7654C75.2161 99.3444 75.5737 100.132 75.5737 101.005Z" fill="#96BC84"/>
<path d="M75.5737 101.005C75.5737 102.086 74.6966 102.959 73.6152 102.959H46.4765C45.9358 102.959 45.4462 102.742 45.0928 102.389C44.7394 102.035 44.518 101.546 44.518 101.005C44.518 100.796 44.5393 100.596 44.5776 100.4H71.4054C72.4869 100.4 73.3597 99.5275 73.3597 98.4461C73.3597 98.2885 73.3469 98.131 73.3256 97.9777C73.828 98.131 74.2836 98.4035 74.6455 98.7654C75.216 99.3444 75.5737 100.132 75.5737 101.005Z" fill="#85A576"/>
<path d="M75.6589 95.8872C75.6589 96.9686 74.7818 97.8414 73.7003 97.8414H46.5617C46.021 97.8414 45.5313 97.6243 45.178 97.2709C44.8246 96.9175 44.6032 96.4279 44.6032 95.8872C44.6032 95.6785 44.6245 95.4784 44.6628 95.2826C44.9438 93.8222 46.2296 92.7237 47.7709 92.7237L60.0459 91.0164L72.4911 92.7237C72.8105 92.7237 73.1213 92.7705 73.4108 92.8599C73.9132 93.0132 74.3688 93.2857 74.7307 93.6476C75.3055 94.2224 75.6589 95.0101 75.6589 95.8872Z" fill="#96BC84"/>
<path d="M75.6589 95.8872C75.6589 96.9687 74.7818 97.8415 73.7003 97.8415H46.5617C46.021 97.8415 45.5313 97.6244 45.178 97.271C44.8246 96.9176 44.6032 96.428 44.6032 95.8872C44.6032 95.6786 44.6245 95.4785 44.6628 95.2826H71.4906C72.572 95.2826 73.4449 94.4098 73.4449 93.3283C73.4449 93.1708 73.4321 93.0133 73.4108 92.86C73.9132 93.0133 74.3688 93.2858 74.7307 93.6477C75.3055 94.2225 75.6589 95.0101 75.6589 95.8872Z" fill="#85A576"/>
<path d="M75.6078 90.7652C75.6078 91.8466 74.7307 92.7195 73.6492 92.7195H46.5064C45.9656 92.7195 45.476 92.5023 45.1226 92.1489C44.7692 91.7955 44.5478 91.3059 44.5478 90.7652C44.5478 90.5565 44.5691 90.3564 44.6074 90.1606C44.8884 88.7002 46.1742 87.6017 47.7155 87.6017H72.4358C72.7551 87.6017 73.0659 87.6485 73.3554 87.7379C73.8578 87.8912 74.3134 88.1637 74.6753 88.5256C75.2544 89.1004 75.6078 89.8923 75.6078 90.7652Z" fill="#96BC84"/>
<path d="M75.6078 90.7651C75.6078 91.8466 74.7307 92.7194 73.6492 92.7194H46.5064C45.9656 92.7194 45.476 92.5023 45.1226 92.1489C44.7692 91.7955 44.5478 91.3059 44.5478 90.7651C44.5478 90.5565 44.5691 90.3564 44.6074 90.1605H71.4352C72.5167 90.1605 73.3895 89.2877 73.3895 88.2063C73.3895 88.0487 73.3767 87.8912 73.3554 87.7379C73.8578 87.8912 74.3134 88.1637 74.6753 88.5256C75.2544 89.1004 75.6078 89.8923 75.6078 90.7651Z" fill="#85A576"/>
</svg>
