<svg width="130" height="115" viewBox="0 0 130 115" fill="none" xmlns="http://www.w3.org/2000/svg">
<path d="M111.181 103.224C111.045 103.224 110.93 103.113 110.93 102.973V69.5453C110.93 69.4091 111.04 69.2941 111.181 69.2941C111.321 69.2941 111.432 69.4048 111.432 69.5453V102.973C111.432 103.113 111.321 103.224 111.181 103.224Z" fill="#996014" stroke="#996014" stroke-miterlimit="10" stroke-linecap="round" stroke-linejoin="round"/>
<path d="M120.859 87.7343H117.133C115.511 87.7343 114.191 86.4144 114.191 84.7922V70.8525C114.191 70.7162 114.302 70.6013 114.442 70.6013C114.583 70.6013 114.693 70.712 114.693 70.8525V84.7922C114.693 86.1376 115.788 87.2318 117.133 87.2318H120.859C120.995 87.2318 121.11 87.3426 121.11 87.4831C121.11 87.6236 120.995 87.7343 120.859 87.7343Z" fill="#996014" stroke="#996014" stroke-miterlimit="10" stroke-linecap="round" stroke-linejoin="round"/>
<path d="M105.667 97.7867H93.2474C93.1112 97.7867 92.9962 97.676 92.9962 97.5355C92.9962 97.395 93.1069 97.2843 93.2474 97.2843H105.667C107.013 97.2843 108.107 96.1901 108.107 94.8446V72.0957C108.107 71.9595 108.218 71.8445 108.358 71.8445C108.499 71.8445 108.609 71.9552 108.609 72.0957V94.8446C108.605 96.4711 107.285 97.7867 105.667 97.7867Z" fill="#996014" stroke="#996014" stroke-miterlimit="10" stroke-linecap="round" stroke-linejoin="round"/>
<path d="M101.291 99.2778C102.596 99.2778 103.654 98.4505 103.654 97.43C103.654 96.4094 102.596 95.5822 101.291 95.5822C99.986 95.5822 98.928 96.4094 98.928 97.43C98.928 98.4505 99.986 99.2778 101.291 99.2778Z" fill="#FFCB70"/>
<path d="M101.29 99.5281C99.8469 99.5281 98.676 98.5872 98.676 97.4291C98.676 96.271 99.8469 95.33 101.29 95.33C102.734 95.33 103.904 96.271 103.904 97.4291C103.904 98.5872 102.734 99.5281 101.29 99.5281ZM101.29 95.8324C100.124 95.8324 99.1741 96.5477 99.1741 97.4291C99.1741 98.3104 100.124 99.0257 101.29 99.0257C102.457 99.0257 103.406 98.3104 103.406 97.4291C103.406 96.5477 102.457 95.8324 101.29 95.8324Z" fill="#996014" stroke="#996014" stroke-miterlimit="10" stroke-linecap="round" stroke-linejoin="round"/>
<path d="M114.553 82.2887C115.574 82.2887 116.401 81.2307 116.401 79.9256C116.401 78.6206 115.574 77.5626 114.553 77.5626C113.532 77.5626 112.705 78.6206 112.705 79.9256C112.705 81.2307 113.532 82.2887 114.553 82.2887Z" fill="#FFCB70"/>
<path d="M114.553 82.5399C113.395 82.5399 112.454 81.369 112.454 79.9256C112.454 78.4823 113.395 77.3114 114.553 77.3114C115.711 77.3114 116.652 78.4823 116.652 79.9256C116.652 81.369 115.711 82.5399 114.553 82.5399ZM114.553 77.8138C113.672 77.8138 112.956 78.7633 112.956 79.9299C112.956 81.0965 113.672 82.046 114.553 82.046C115.434 82.046 116.15 81.0965 116.15 79.9299C116.15 78.7633 115.434 77.8138 114.553 77.8138Z" fill="#996014" stroke="#996014" stroke-miterlimit="10" stroke-linecap="round" stroke-linejoin="round"/>
<path d="M24.2982 47.6991H1.2512C1.11496 47.6991 1 47.5883 1 47.4478C1 47.3073 1.1107 47.1967 1.2512 47.1967H24.2982C24.4344 47.1967 24.5494 47.3073 24.5494 47.4478C24.5494 47.5883 24.4344 47.6991 24.2982 47.6991Z" fill="#996014" stroke="#996014" stroke-miterlimit="10" stroke-linecap="round" stroke-linejoin="round"/>
<path d="M24.1875 44.7655H9.15776C7.53557 44.7655 6.21568 43.4456 6.21568 41.8234V34.6236C6.21568 34.4874 6.32638 34.3724 6.46689 34.3724C6.60739 34.3724 6.71809 34.4831 6.71809 34.6236V41.8234C6.71809 43.1689 7.81232 44.2631 9.15776 44.2631H24.1875C24.3237 44.2631 24.4387 44.3738 24.4387 44.5143C24.4387 44.6548 24.328 44.7655 24.1875 44.7655Z" fill="#996014" stroke="#996014" stroke-miterlimit="10" stroke-linecap="round" stroke-linejoin="round"/>
<path d="M10.0571 49.3009C11.3621 49.3009 12.4201 48.4736 12.4201 47.4531C12.4201 46.4325 11.3621 45.6052 10.0571 45.6052C8.75199 45.6052 7.69403 46.4325 7.69403 47.4531C7.69403 48.4736 8.75199 49.3009 10.0571 49.3009Z" fill="#FFCB70"/>
<path d="M10.0561 49.5469C8.61275 49.5469 7.44188 48.606 7.44188 47.4479C7.44188 46.2898 8.61275 45.3488 10.0561 45.3488C11.4995 45.3488 12.6703 46.2898 12.6703 47.4479C12.6703 48.6102 11.4995 49.5469 10.0561 49.5469ZM10.0561 45.8512C8.8895 45.8512 7.94003 46.5665 7.94003 47.4479C7.94003 48.3292 8.8895 49.0445 10.0561 49.0445C11.2227 49.0445 12.1722 48.3292 12.1722 47.4479C12.1722 46.5665 11.2227 45.8512 10.0561 45.8512Z" fill="#996014" stroke="#996014" stroke-miterlimit="10" stroke-linecap="round" stroke-linejoin="round"/>
<path d="M41.8015 27.045C41.6653 27.045 41.5503 26.9343 41.5503 26.7938V3.75107C41.5503 3.61482 41.661 3.49988 41.8015 3.49988C41.942 3.49988 42.0527 3.61056 42.0527 3.75107V26.798C42.0485 26.9343 41.9378 27.045 41.8015 27.045Z" fill="#996014" stroke="#996014" stroke-miterlimit="10" stroke-linecap="round" stroke-linejoin="round"/>
<path d="M44.7351 26.9385C44.5989 26.9385 44.4839 26.8278 44.4839 26.6873V11.6576C44.4839 10.0354 45.8038 8.71552 47.426 8.71552H54.6258C54.762 8.71552 54.877 8.8262 54.877 8.96671C54.877 9.10721 54.7663 9.21792 54.6258 9.21792H47.426C46.0806 9.21792 44.9863 10.3121 44.9863 11.6576V26.6873C44.9863 26.8278 44.8714 26.9385 44.7351 26.9385Z" fill="#996014" stroke="#996014" stroke-miterlimit="10" stroke-linecap="round" stroke-linejoin="round"/>
<path d="M41.8015 14.919C42.8221 14.919 43.6494 13.861 43.6494 12.556C43.6494 11.2509 42.8221 10.1929 41.8015 10.1929C40.781 10.1929 39.9537 11.2509 39.9537 12.556C39.9537 13.861 40.781 14.919 41.8015 14.919Z" fill="#FFCB70"/>
<path d="M41.8016 15.1702C40.6435 15.1702 39.7025 13.9994 39.7025 12.556C39.7025 11.1126 40.6435 9.94177 41.8016 9.94177C42.9597 9.94177 43.9006 11.1126 43.9006 12.556C43.9006 13.9994 42.9554 15.1702 41.8016 15.1702ZM41.8016 10.4399C40.9202 10.4399 40.2049 11.3894 40.2049 12.556C40.2049 13.7226 40.9202 14.6721 41.8016 14.6721C42.6829 14.6721 43.3982 13.7226 43.3982 12.556C43.3982 11.3894 42.6829 10.4399 41.8016 10.4399Z" fill="#996014" stroke="#996014" stroke-miterlimit="10" stroke-linecap="round" stroke-linejoin="round"/>
<path d="M59.8117 17.827C45.4079 17.827 31.3872 25.2397 23.9405 38.7579C17.7669 49.9684 16.7748 64.1764 29.4117 80.9475C37.6376 91.8642 48.0434 95.9942 59.0751 95.9942C78.222 95.9942 99.2551 83.566 114.042 72.6407C124.014 65.2749 123.383 50.1558 112.88 43.5734L82.0369 24.2264C75.1394 19.8963 67.4202 17.827 59.8117 17.827Z" fill="#FFEEC0"/>
<path d="M73.3639 15.0936H67.02V26.6873H73.3639V15.0936Z" fill="#996014"/>
<path d="M81.8239 3.75104H75.4799V33.1037H81.8239V3.75104Z" fill="#996014"/>
<path d="M90.0712 4.90912H83.7272V34.2617H90.0712V4.90912Z" fill="#FDCC70"/>
<path d="M98.7441 3.11664H92.4001V32.4693H98.7441V3.11664Z" fill="#FDCC70"/>
<path d="M107.46 0H101.116V29.3526H107.46V0Z" fill="#996014"/>
<path d="M84.0082 60.4296V82.8464C84.0082 83.5447 84.7405 83.996 85.3622 83.6852L92.3363 80.1981C92.9707 79.8788 93.3709 79.2316 93.3709 78.5206V60.4296C93.3709 59.7824 93.5923 59.1565 94.0011 58.6541L113.344 34.9132C113.753 34.4108 113.974 33.7849 113.974 33.1377V27.5814C113.974 26.5468 113.135 25.708 112.101 25.708H65.2658C64.2312 25.708 63.3924 26.5468 63.3924 27.5814V33.1377C63.3924 33.7849 63.6138 34.4108 64.0226 34.9132L83.3653 58.6541C83.7868 59.1565 84.0082 59.7824 84.0082 60.4296Z" fill="#FBB23E"/>
<path d="M105.518 33.2016H82.1348C81.6153 33.2016 81.1981 32.7843 81.1981 32.2649V25.708H65.2743C64.2397 25.708 63.4009 26.5468 63.4009 27.5814V33.1377C63.4009 33.7849 63.6223 34.4108 64.031 34.9132L83.3738 58.6541C83.7825 59.1565 84.0039 59.7824 84.0039 60.4296V82.8464C84.0039 83.5447 84.7362 83.996 85.3579 83.6852L87.2994 82.7144V60.3657C87.2994 59.8463 87.7166 59.429 88.2361 59.429H89.5687C90.1904 59.429 90.7694 59.1225 91.1185 58.6073L106.761 35.5561C107.443 34.5555 106.727 33.2016 105.518 33.2016Z" fill="#DD9C3E"/>
<path d="M73.662 33.2016H63.4052C63.418 33.8275 63.6351 34.4278 64.0311 34.9132L83.3738 58.6541C83.5654 58.8883 83.7102 59.1523 83.8166 59.429H84.5064C85.1663 59.429 85.6176 58.7648 85.3792 58.1517L76.2805 34.9856C75.8547 33.9084 74.8201 33.2016 73.662 33.2016Z" fill="#BC7A19"/>
<path d="M87.5294 79.5084H73.0532V72.9302H82.2668C82.9949 72.9302 83.5825 72.3427 83.5825 71.6146C83.5825 70.8865 82.9949 70.299 82.2668 70.299H73.0532V67.6677C73.0532 65.4877 71.2862 63.7208 69.1063 63.7208H67.7907V60.3104L72.6742 55.4396C72.9212 55.1926 73.0574 54.8563 73.0574 54.5071V49.2446C73.0574 48.5166 72.4699 47.929 71.7418 47.929C71.0137 47.929 70.4262 48.5166 70.4262 49.2446V53.9707L65.5426 58.8415C65.2956 59.0884 65.1594 59.4248 65.1594 59.7739V63.7208H57.2656V54.5071C57.2656 53.7791 56.6781 53.1915 55.95 53.1915C55.2219 53.1915 54.6344 53.7791 54.6344 54.5071V63.7208H46.7406V59.7739C46.7406 59.4248 46.6043 59.0884 46.3574 58.8415L41.4738 53.9707V40.7292C41.4738 40.0011 40.8862 39.4136 40.1582 39.4136C39.4301 39.4136 38.8425 40.0011 38.8425 40.7292V54.5071C38.8425 54.8563 38.9788 55.1926 39.2257 55.4396L44.1093 60.3104V63.7208H42.7937C40.6137 63.7208 38.8468 65.4877 38.8468 67.6677V70.299H29.6289C28.9008 70.299 28.3132 70.8865 28.3132 71.6146C28.3132 72.3427 28.9008 72.9302 29.6289 72.9302H38.8425V79.5084H24.3663C23.6383 79.5084 23.0507 80.0959 23.0507 80.824C23.0507 81.5521 23.6383 82.1396 24.3663 82.1396H38.8425V88.7178H29.6289C28.9008 88.7178 28.3132 89.3054 28.3132 90.0334C28.3132 90.7615 28.9008 91.3491 29.6289 91.3491H38.8425V93.9803C38.8425 96.1603 40.6095 97.9272 42.7894 97.9272H44.105V101.338L39.2215 106.208C38.9745 106.455 38.8383 106.792 38.8383 107.141V112.403C38.8383 113.131 39.4258 113.719 40.1539 113.719C40.882 113.719 41.4695 113.131 41.4695 112.403V107.677L46.3531 102.807C46.6001 102.56 46.7363 102.223 46.7363 101.874V97.9272H54.6301V107.141C54.6301 107.869 55.2177 108.457 55.9457 108.457C56.6738 108.457 57.2614 107.869 57.2614 107.141V97.9315H65.1551V101.878C65.1551 102.227 65.2914 102.564 65.5383 102.811L70.4219 107.682V112.408C70.4219 113.136 71.0095 113.723 71.7375 113.723C72.4656 113.723 73.0532 113.136 73.0532 112.408V107.145C73.0532 106.796 72.9169 106.46 72.67 106.213L67.7864 101.342V97.9315H69.102C71.282 97.9315 73.0489 96.1645 73.0489 93.9846V91.3533H82.2626C82.9907 91.3533 83.5782 90.7658 83.5782 90.0377C83.5782 89.3096 82.9907 88.722 82.2626 88.722H73.0489V82.1439H87.5251C88.2532 82.1439 88.8407 81.5563 88.8407 80.8283C88.8407 80.1002 88.2574 79.5084 87.5294 79.5084ZM53.3145 90.0377C53.3145 90.7658 52.7269 91.3533 51.9988 91.3533H46.7363C46.0082 91.3533 45.4207 90.7658 45.4207 90.0377V84.7752C45.4207 84.0471 46.0082 83.4595 46.7363 83.4595H51.9988C52.7269 83.4595 53.3145 84.0471 53.3145 84.7752V90.0377ZM53.3145 76.8771C53.3145 77.6052 52.7269 78.1927 51.9988 78.1927H46.7363C46.0082 78.1927 45.4207 77.6052 45.4207 76.8771V71.6146C45.4207 70.8865 46.0082 70.299 46.7363 70.299H51.9988C52.7269 70.299 53.3145 70.8865 53.3145 71.6146V76.8771ZM66.475 90.0377C66.475 90.7658 65.8875 91.3533 65.1594 91.3533H59.8969C59.1688 91.3533 58.5812 90.7658 58.5812 90.0377V84.7752C58.5812 84.0471 59.1688 83.4595 59.8969 83.4595H65.1594C65.8875 83.4595 66.475 84.0471 66.475 84.7752V90.0377ZM66.475 76.8771C66.475 77.6052 65.8875 78.1927 65.1594 78.1927H59.8969C59.1688 78.1927 58.5812 77.6052 58.5812 76.8771V71.6146C58.5812 70.8865 59.1688 70.299 59.8969 70.299H65.1594C65.8875 70.299 66.475 70.8865 66.475 71.6146V76.8771Z" fill="#DD9C3E"/>
<path d="M85.9838 96.9777C83.5739 96.9777 81.6111 95.0149 81.6111 92.6051C81.6111 90.1952 83.5739 88.2324 85.9838 88.2324C88.3936 88.2324 90.3564 90.1952 90.3564 92.6051C90.3564 95.0149 88.3936 96.9777 85.9838 96.9777Z" fill="#BC7A19"/>
<path d="M91.8637 85.2009C89.4538 85.2009 87.491 83.2381 87.491 80.8282C87.491 78.4184 89.4538 76.4556 91.8637 76.4556C94.2736 76.4556 96.2363 78.4184 96.2363 80.8282C96.2363 83.2381 94.2736 85.2009 91.8637 85.2009Z" fill="#EDA337"/>
<path d="M91.5017 86.9977C89.0919 86.9977 87.1291 85.0349 87.1291 82.625C87.1291 80.2152 89.0919 78.2524 91.5017 78.2524C93.9116 78.2524 95.8744 80.2152 95.8744 82.625C95.8787 85.0349 93.9159 86.9977 91.5017 86.9977Z" fill="#DD9C3E"/>
<path d="M84.1913 96.9777C81.7815 96.9777 79.8186 95.0149 79.8186 92.6051C79.8186 90.1952 81.7815 88.2324 84.1913 88.2324C86.6012 88.2324 88.564 90.1952 88.564 92.6051C88.564 95.0149 86.6012 96.9777 84.1913 96.9777Z" fill="#FBB23E"/>
<path d="M86.6012 76.941C84.1913 76.941 82.2285 74.9782 82.2285 72.5683C82.2285 70.1585 84.1913 68.1957 86.6012 68.1957C89.011 68.1957 90.9738 70.1585 90.9738 72.5683C90.9738 74.9782 89.011 76.941 86.6012 76.941Z" fill="#EDA337"/>
<path d="M86.7799 74.2501C84.3701 74.2501 82.4072 72.2873 82.4072 69.8774C82.4072 67.4675 84.3701 65.5048 86.7799 65.5048C89.1898 65.5048 91.1526 67.4675 91.1526 69.8774C91.1526 72.2873 89.1898 74.2501 86.7799 74.2501Z" fill="#BC7A19"/>
<path d="M19.9085 87.2276C17.4986 87.2276 15.5358 85.2648 15.5358 82.855C15.5358 80.4451 17.4986 78.4823 19.9085 78.4823C22.3183 78.4823 24.2811 80.4451 24.2811 82.855C24.2811 85.2648 22.3183 87.2276 19.9085 87.2276Z" fill="#BC7A19"/>
<path d="M22.6802 86.095C20.0234 86.1759 17.7967 84.0769 17.7158 81.4201C17.6349 78.7633 19.7339 76.5365 22.3907 76.4556C25.0475 76.3747 27.2743 78.4737 27.3552 81.1305C27.4361 83.7874 25.337 86.0141 22.6802 86.095Z" fill="#FBB23E"/>
<path d="M29.8162 73.769C27.4063 73.769 25.4435 71.8062 25.4435 69.3964C25.4435 66.9865 27.4063 65.0237 29.8162 65.0237C32.226 65.0237 34.1888 66.9865 34.1888 69.3964C34.1888 71.8062 32.226 73.769 29.8162 73.769Z" fill="#DD9C3E"/>
<path d="M27.3041 74.8462C24.8943 74.8462 22.9315 72.8834 22.9315 70.4735C22.9315 68.0636 24.8943 66.1008 27.3041 66.1008C29.714 66.1008 31.6768 68.0636 31.6768 70.4735C31.6768 72.8834 29.714 74.8462 27.3041 74.8462Z" fill="#FBB23E"/>
<path d="M29.0966 97.6376C26.6867 97.6376 24.7239 95.6749 24.7239 93.265C24.7239 90.8551 26.6867 88.8923 29.0966 88.8923C31.5064 88.8923 33.4692 90.8551 33.4692 93.265C33.4735 95.6749 31.5107 97.6376 29.0966 97.6376Z" fill="#DD9C3E"/>
<path d="M30.5314 97.1012C28.1215 97.1012 26.1587 95.1384 26.1587 92.7286C26.1587 90.3187 28.1215 88.3559 30.5314 88.3559C32.9413 88.3559 34.9041 90.3187 34.9041 92.7286C34.9041 95.1384 32.9455 97.1012 30.5314 97.1012Z" fill="#FBB23E"/>
<path d="M128.48 38.247H124.891C124.772 38.247 124.678 38.1533 124.678 38.0341C124.678 37.9149 124.772 37.8212 124.891 37.8212H128.48C128.599 37.8212 128.693 37.9149 128.693 38.0341C128.693 38.1533 128.599 38.247 128.48 38.247Z" fill="#996014" stroke="#996014" stroke-miterlimit="10" stroke-linecap="round" stroke-linejoin="round"/>
<path d="M122.204 38.247H118.619C118.5 38.247 118.406 38.1533 118.406 38.0341C118.406 37.9149 118.5 37.8212 118.619 37.8212H122.204C122.323 37.8212 122.417 37.9149 122.417 38.0341C122.417 38.1533 122.319 38.247 122.204 38.247Z" fill="#996014" stroke="#996014" stroke-miterlimit="10" stroke-linecap="round" stroke-linejoin="round"/>
<path d="M123.549 36.9015C123.43 36.9015 123.337 36.8079 123.337 36.6887V33.0994C123.337 32.9802 123.43 32.8865 123.549 32.8865C123.669 32.8865 123.762 32.9802 123.762 33.0994V36.6887C123.762 36.8079 123.664 36.9015 123.549 36.9015Z" fill="#996014" stroke="#996014" stroke-miterlimit="10" stroke-linecap="round" stroke-linejoin="round"/>
<path d="M123.549 43.1817C123.43 43.1817 123.337 43.088 123.337 42.9688V39.3796C123.337 39.2604 123.43 39.1667 123.549 39.1667C123.669 39.1667 123.762 39.2604 123.762 39.3796V42.9688C123.762 43.0838 123.664 43.1817 123.549 43.1817Z" fill="#996014" stroke="#996014" stroke-miterlimit="10" stroke-linecap="round" stroke-linejoin="round"/>
<path d="M21.1219 33.1207H17.5326C17.4134 33.1207 17.3197 33.027 17.3197 32.9078C17.3197 32.7886 17.4134 32.6949 17.5326 32.6949H21.1219C21.2411 32.6949 21.3347 32.7886 21.3347 32.9078C21.3347 33.027 21.2411 33.1207 21.1219 33.1207Z" fill="#996014" stroke="#996014" stroke-miterlimit="10" stroke-linecap="round" stroke-linejoin="round"/>
<path d="M14.846 33.1207H11.261C11.1418 33.1207 11.0481 33.027 11.0481 32.9078C11.0481 32.7886 11.1418 32.6949 11.261 32.6949H14.846C14.9652 32.6949 15.0589 32.7886 15.0589 32.9078C15.0589 33.027 14.9652 33.1207 14.846 33.1207Z" fill="#996014" stroke="#996014" stroke-miterlimit="10" stroke-linecap="round" stroke-linejoin="round"/>
<path d="M16.1915 31.7753C16.0723 31.7753 15.9786 31.6816 15.9786 31.5624V27.9731C15.9786 27.8539 16.0723 27.7603 16.1915 27.7603C16.3107 27.7603 16.4044 27.8539 16.4044 27.9731V31.5624C16.4044 31.6773 16.3107 31.7753 16.1915 31.7753Z" fill="#996014" stroke="#996014" stroke-miterlimit="10" stroke-linecap="round" stroke-linejoin="round"/>
<path d="M16.1915 38.0511C16.0723 38.0511 15.9786 37.9575 15.9786 37.8383V34.249C15.9786 34.1298 16.0723 34.0361 16.1915 34.0361C16.3107 34.0361 16.4044 34.1298 16.4044 34.249V37.8383C16.4044 37.9575 16.3107 38.0511 16.1915 38.0511Z" fill="#996014" stroke="#996014" stroke-miterlimit="10" stroke-linecap="round" stroke-linejoin="round"/>
<path d="M35.4747 109.108H31.8854C31.7662 109.108 31.6725 109.014 31.6725 108.895C31.6725 108.776 31.7662 108.682 31.8854 108.682H35.4747C35.5939 108.682 35.6875 108.776 35.6875 108.895C35.6875 109.014 35.5896 109.108 35.4747 109.108Z" fill="#996014" stroke="#996014" stroke-miterlimit="10" stroke-linecap="round" stroke-linejoin="round"/>
<path d="M29.1946 109.108H25.6096C25.4904 109.108 25.3967 109.014 25.3967 108.895C25.3967 108.776 25.4904 108.682 25.6096 108.682H29.1946C29.3138 108.682 29.4075 108.776 29.4075 108.895C29.4075 109.014 29.3138 109.108 29.1946 109.108Z" fill="#996014" stroke="#996014" stroke-miterlimit="10" stroke-linecap="round" stroke-linejoin="round"/>
<path d="M30.5399 107.763C30.4207 107.763 30.3271 107.669 30.3271 107.55V103.96C30.3271 103.841 30.4207 103.747 30.5399 103.747C30.6592 103.747 30.7528 103.841 30.7528 103.96V107.55C30.7528 107.665 30.6592 107.763 30.5399 107.763Z" fill="#996014" stroke="#996014" stroke-miterlimit="10" stroke-linecap="round" stroke-linejoin="round"/>
<path d="M30.5399 114.038C30.4207 114.038 30.327 113.945 30.327 113.826V110.236C30.327 110.117 30.4207 110.023 30.5399 110.023C30.6591 110.023 30.7528 110.117 30.7528 110.236V113.826C30.7528 113.945 30.6591 114.038 30.5399 114.038Z" fill="#996014" stroke="#996014" stroke-miterlimit="10" stroke-linecap="round" stroke-linejoin="round"/>
</svg>
