<svg id="Layer_1" data-name="Layer 1" xmlns="http://www.w3.org/2000/svg" viewBox="0 0 432 432"><defs><style>.cls-1{fill:#b0d0be;opacity:0.35;}</style></defs><title>WeCount website background_distribution</title><path class="cls-1" d="M328.1,335.23C294.68,251.8,286.49,47.29,218,47.29c-.69,0-1.34.14-2,.18s-1.33-.18-2-.18c-68.47,0-76.66,204.51-110.08,287.94S6.05,432,6.05,432H426S361.51,418.65,328.1,335.23Z"/><path class="cls-1" d="M328.1,399.61c-33.42-27.92-41.61-96.36-110.08-96.36-.69,0-1.34.05-2,.06s-1.33-.06-2-.06c-68.47,0-76.66,68.44-110.08,96.36S6.05,432,6.05,432H426S361.51,427.53,328.1,399.61Z"/><path class="cls-1" d="M328.1,377.33C294.68,330.19,286.49,214.65,218,214.65c-.69,0-1.34.08-2,.1s-1.33-.1-2-.1c-68.47,0-76.66,115.54-110.08,162.68S6.05,432,6.05,432H426S361.51,424.46,328.1,377.33Z"/><path class="cls-1" d="M328.1,411.1c-33.42-18-41.61-62.21-110.08-62.21-.69,0-1.34,0-2,0s-1.33,0-2,0c-68.47,0-76.66,44.18-110.08,62.21S6.05,432,6.05,432H426S361.51,429.12,328.1,411.1Z"/><path class="cls-1" d="M328.1,421.9c-33.42-8.7-41.61-30-110.08-30l-2,0-2,0c-68.47,0-76.66,21.35-110.08,30S6.05,432,6.05,432H426S361.51,430.61,328.1,421.9Z"/></svg>