<svg width="346" height="93" viewBox="0 0 346 93" fill="none" xmlns="http://www.w3.org/2000/svg">
<path opacity="0.35" d="M265.37 68.8805C237.827 48.9241 231.083 0 174.665 0C174.099 0 173.566 0.0338408 173 0.0435096C172.434 0.0338408 171.901 0 171.335 0C114.917 0 108.156 48.9241 80.6301 68.8805C53.104 88.8368 0 92.0324 0 92.0324H173H346C346 92.0324 292.896 88.8368 265.37 68.8805Z" fill="#ACDDE9"/>
<path opacity="0.35" d="M265.37 78.9506C237.844 67.6768 231.083 40.0337 174.665 40.0337C174.099 40.0337 173.566 40.053 173 40.0579C172.434 40.053 171.901 40.0337 171.335 40.0337C114.917 40.0337 108.173 67.6719 80.6301 78.9506C53.1039 90.2244 0 92.0324 0 92.0324H173H346C346 92.0324 292.896 90.2244 265.37 78.9506Z" fill="#ACDDE9"/>
<path opacity="0.35" d="M265.37 84.2828C237.844 77.6017 231.083 61.2324 174.665 61.2324C174.099 61.2324 173.566 61.2421 173 61.2469C172.434 61.2421 171.901 61.2324 171.335 61.2324C114.917 61.2324 108.173 77.6065 80.6301 84.2828C53.104 90.9639 0 92.0324 0 92.0324H173H346C346 92.0324 292.896 90.9639 265.37 84.2828Z" fill="#ACDDE9"/>
<path opacity="0.35" d="M265.37 87.0287C237.844 82.7164 231.083 72.1484 174.665 72.1484C174.099 72.1484 173.566 72.1581 173 72.1581C172.434 72.1581 171.901 72.1484 171.335 72.1484C114.917 72.1484 108.173 82.7164 80.6301 87.0287C53.1039 91.341 0 92.0323 0 92.0323H173H346C346 92.0323 292.896 91.341 265.37 87.0287Z" fill="#ACDDE9"/>
<path opacity="0.35" d="M265.37 89.6151C237.844 87.5315 231.083 82.4264 174.665 82.4264C174.099 82.4264 173.566 82.4312 173 82.4312C172.434 82.4312 171.901 82.4264 171.335 82.4264C114.917 82.4264 108.173 87.5315 80.6301 89.6151C53.104 91.6988 0 92.0323 0 92.0323H173H346C346 92.0323 292.896 91.6988 265.37 89.6151Z" fill="#ACDDE9"/>
</svg>
