<svg width="227" height="209" viewBox="0 0 227 209" fill="none" xmlns="http://www.w3.org/2000/svg">
<path opacity="0.35" d="M174.101 155.699C156.031 110.589 151.606 0 114.592 0C114.221 0 113.871 0.0764945 113.5 0.0983501C113.129 0.0764945 112.779 0 112.407 0C75.3935 0 70.958 110.589 52.8989 155.699C34.8399 200.809 0 208.032 0 208.032H113.5H227C227 208.032 192.16 200.809 174.101 155.699Z" fill="#CEE6C5"/>
<path opacity="0.35" d="M174.101 178.462C156.042 152.978 151.606 90.493 114.593 90.493C114.221 90.493 113.871 90.5368 113.5 90.5477C113.129 90.5368 112.779 90.493 112.407 90.493C75.3935 90.493 70.9689 152.967 52.8989 178.462C34.8399 203.945 0 208.032 0 208.032H113.5H227C227 208.032 192.16 203.945 174.101 178.462Z" fill="#CEE6C5"/>
<path opacity="0.35" d="M174.101 190.515C156.042 175.413 151.606 138.411 114.592 138.411C114.221 138.411 113.871 138.433 113.5 138.444C113.129 138.433 112.779 138.411 112.407 138.411C75.3935 138.411 70.9689 175.424 52.8989 190.515C34.8399 205.617 0 208.032 0 208.032H113.5H227C227 208.032 192.16 205.617 174.101 190.515Z" fill="#CEE6C5"/>
<path opacity="0.35" d="M174.101 196.722C156.042 186.974 151.606 163.086 114.593 163.086C114.221 163.086 113.871 163.108 113.5 163.108C113.129 163.108 112.779 163.086 112.407 163.086C75.3935 163.086 70.9689 186.974 52.8989 196.722C34.8399 206.47 0 208.032 0 208.032H113.5H227C227 208.032 192.16 206.47 174.101 196.722Z" fill="#CEE6C5"/>
<path opacity="0.35" d="M174.101 202.568C156.042 197.859 151.606 186.319 114.592 186.319C114.221 186.319 113.871 186.33 113.5 186.33C113.129 186.33 112.779 186.319 112.407 186.319C75.3935 186.319 70.9689 197.859 52.8989 202.568C34.8399 207.278 0 208.032 0 208.032H113.5H227C227 208.032 192.16 207.278 174.101 202.568Z" fill="#CEE6C5"/>
</svg>
