<svg width="501" height="221" viewBox="0 0 501 221" fill="none" xmlns="http://www.w3.org/2000/svg">
<g filter="url(#filter0_d)">
<rect x="4" width="253" height="213" fill="white"/>
</g>
<mask id="mask0" mask-type="alpha" maskUnits="userSpaceOnUse" x="4" y="1" width="497" height="213">
<path opacity="0.35" d="M385.182 160.133C345.619 114.028 335.931 1 254.892 1C254.079 1 253.313 1.07818 252.5 1.10052C251.687 1.07818 250.921 1 250.108 1C169.069 1 159.357 114.028 119.818 160.133C80.2794 206.238 4 213.621 4 213.621H252.5H501C501 213.621 424.721 206.238 385.182 160.133Z" fill="#FDCC70"/>
<path opacity="0.35" d="M385.182 183.398C345.643 157.352 335.931 93.4889 254.892 93.4889C254.079 93.4889 253.313 93.5336 252.5 93.5447C251.687 93.5336 250.921 93.4889 250.108 93.4889C169.069 93.4889 159.381 157.341 119.818 183.398C80.2794 209.443 4 213.621 4 213.621H252.5H501C501 213.621 424.721 209.443 385.182 183.398Z" fill="#FDCC70"/>
<path opacity="0.35" d="M385.182 195.717C345.643 180.282 335.931 142.464 254.892 142.464C254.079 142.464 253.313 142.486 252.5 142.498C251.687 142.486 250.921 142.464 250.108 142.464C169.069 142.464 159.381 180.293 119.818 195.717C80.2794 211.152 4 213.621 4 213.621H252.5H501C501 213.621 424.721 211.152 385.182 195.717Z" fill="#FDCC70"/>
<path opacity="0.35" d="M385.182 202.061C345.643 192.098 335.931 167.683 254.892 167.683C254.079 167.683 253.313 167.706 252.5 167.706C251.687 167.706 250.921 167.683 250.108 167.683C169.069 167.683 159.381 192.098 119.818 202.061C80.2794 212.023 4 213.62 4 213.62H252.5H501C501 213.62 424.721 212.023 385.182 202.061Z" fill="#FDCC70"/>
<path opacity="0.35" d="M385.182 208.036C345.643 203.222 335.931 191.428 254.892 191.428C254.079 191.428 253.313 191.439 252.5 191.439C251.687 191.439 250.921 191.428 250.108 191.428C169.069 191.428 159.381 203.222 119.818 208.036C80.2794 212.85 4 213.621 4 213.621H252.5H501C501 213.621 424.721 212.85 385.182 208.036Z" fill="#FDCC70"/>
</mask>
<g mask="url(#mask0)">
<rect x="4" y="0.620483" width="253" height="213" fill="#FDCC70"/>
</g>
<defs>
<filter id="filter0_d" x="0" y="0" width="261" height="221" filterUnits="userSpaceOnUse" color-interpolation-filters="sRGB">
<feFlood flood-opacity="0" result="BackgroundImageFix"/>
<feColorMatrix in="SourceAlpha" type="matrix" values="0 0 0 0 0 0 0 0 0 0 0 0 0 0 0 0 0 0 127 0"/>
<feOffset dy="4"/>
<feGaussianBlur stdDeviation="2"/>
<feColorMatrix type="matrix" values="0 0 0 0 0 0 0 0 0 0 0 0 0 0 0 0 0 0 0.25 0"/>
<feBlend mode="normal" in2="BackgroundImageFix" result="effect1_dropShadow"/>
<feBlend mode="normal" in="SourceGraphic" in2="effect1_dropShadow" result="shape"/>
</filter>
</defs>
</svg>
