<svg width="336" height="221" viewBox="0 0 336 221" fill="none" xmlns="http://www.w3.org/2000/svg">
<g filter="url(#filter0_d)">
<rect x="80" width="252" height="213" fill="white"/>
</g>
<mask id="mask0" mask-type="alpha" maskUnits="userSpaceOnUse" x="0" y="6" width="227" height="209">
<path opacity="0.35" d="M174.101 161.699C156.031 116.589 151.606 6 114.592 6C114.221 6 113.871 6.07649 113.5 6.09835C113.129 6.07649 112.779 6 112.407 6C75.3935 6 70.958 116.589 52.8989 161.699C34.8399 206.809 0 214.032 0 214.032H113.5H227C227 214.032 192.16 206.809 174.101 161.699Z" fill="#CEE6C5"/>
<path opacity="0.35" d="M174.101 184.462C156.042 158.978 151.606 96.4931 114.592 96.4931C114.221 96.4931 113.871 96.5368 113.5 96.5477C113.129 96.5368 112.779 96.4931 112.407 96.4931C75.3935 96.4931 70.9689 158.967 52.8989 184.462C34.8399 209.945 0 214.032 0 214.032H113.5H227C227 214.032 192.16 209.945 174.101 184.462Z" fill="#CEE6C5"/>
<path opacity="0.35" d="M174.101 196.515C156.042 181.413 151.606 144.411 114.592 144.411C114.221 144.411 113.871 144.433 113.5 144.444C113.129 144.433 112.779 144.411 112.407 144.411C75.3935 144.411 70.9689 181.424 52.8989 196.515C34.8399 211.617 0 214.032 0 214.032H113.5H227C227 214.032 192.16 211.617 174.101 196.515Z" fill="#CEE6C5"/>
<path opacity="0.35" d="M174.101 202.722C156.042 192.974 151.606 169.086 114.592 169.086C114.221 169.086 113.871 169.108 113.5 169.108C113.129 169.108 112.779 169.086 112.407 169.086C75.3935 169.086 70.9689 192.974 52.8989 202.722C34.8399 212.47 0 214.032 0 214.032H113.5H227C227 214.032 192.16 212.47 174.101 202.722Z" fill="#CEE6C5"/>
<path opacity="0.35" d="M174.101 208.568C156.042 203.859 151.606 192.319 114.592 192.319C114.221 192.319 113.871 192.33 113.5 192.33C113.129 192.33 112.779 192.319 112.407 192.319C75.3935 192.319 70.9689 203.859 52.8989 208.568C34.8399 213.278 0 214.032 0 214.032H113.5H227C227 214.032 192.16 213.278 174.101 208.568Z" fill="#CEE6C5"/>
</mask>
<g mask="url(#mask0)">
<rect x="80" width="252" height="213" fill="#CEE6C5"/>
</g>
<defs>
<filter id="filter0_d" x="76" y="0" width="260" height="221" filterUnits="userSpaceOnUse" color-interpolation-filters="sRGB">
<feFlood flood-opacity="0" result="BackgroundImageFix"/>
<feColorMatrix in="SourceAlpha" type="matrix" values="0 0 0 0 0 0 0 0 0 0 0 0 0 0 0 0 0 0 127 0"/>
<feOffset dy="4"/>
<feGaussianBlur stdDeviation="2"/>
<feColorMatrix type="matrix" values="0 0 0 0 0 0 0 0 0 0 0 0 0 0 0 0 0 0 0.25 0"/>
<feBlend mode="normal" in2="BackgroundImageFix" result="effect1_dropShadow"/>
<feBlend mode="normal" in="SourceGraphic" in2="effect1_dropShadow" result="shape"/>
</filter>
</defs>
</svg>
