<svg width="346" height="221" viewBox="0 0 346 221" fill="none" xmlns="http://www.w3.org/2000/svg">
<g filter="url(#filter0_d)">
<rect x="89" width="252" height="213" fill="white"/>
</g>
<mask id="mask0" mask-type="alpha" maskUnits="userSpaceOnUse" x="0" y="121" width="346" height="93">
<path opacity="0.35" d="M265.37 189.88C237.827 169.924 231.083 121 174.665 121C174.099 121 173.566 121.034 173 121.044C172.434 121.034 171.901 121 171.335 121C114.917 121 108.156 169.924 80.6301 189.88C53.104 209.837 0 213.032 0 213.032H173H346C346 213.032 292.896 209.837 265.37 189.88Z" fill="#ACDDE9"/>
<path opacity="0.35" d="M265.37 199.951C237.844 188.677 231.083 161.034 174.665 161.034C174.099 161.034 173.566 161.053 173 161.058C172.434 161.053 171.901 161.034 171.335 161.034C114.917 161.034 108.173 188.672 80.6301 199.951C53.104 211.224 0 213.032 0 213.032H173H346C346 213.032 292.896 211.224 265.37 199.951Z" fill="#ACDDE9"/>
<path opacity="0.35" d="M265.37 205.283C237.844 198.602 231.083 182.232 174.665 182.232C174.099 182.232 173.566 182.242 173 182.247C172.434 182.242 171.901 182.232 171.335 182.232C114.917 182.232 108.173 198.607 80.6301 205.283C53.104 211.964 0 213.032 0 213.032H173H346C346 213.032 292.896 211.964 265.37 205.283Z" fill="#ACDDE9"/>
<path opacity="0.35" d="M265.37 208.029C237.844 203.716 231.083 193.148 174.665 193.148C174.099 193.148 173.566 193.158 173 193.158C172.434 193.158 171.901 193.148 171.335 193.148C114.917 193.148 108.173 203.716 80.6301 208.029C53.104 212.341 0 213.032 0 213.032H173H346C346 213.032 292.896 212.341 265.37 208.029Z" fill="#ACDDE9"/>
<path opacity="0.35" d="M265.37 210.615C237.844 208.532 231.083 203.426 174.665 203.426C174.099 203.426 173.566 203.431 173 203.431C172.434 203.431 171.901 203.426 171.335 203.426C114.917 203.426 108.173 208.532 80.6301 210.615C53.104 212.699 0 213.032 0 213.032H173H346C346 213.032 292.896 212.699 265.37 210.615Z" fill="#ACDDE9"/>
</mask>
<g mask="url(#mask0)">
<rect x="89" y="14" width="252" height="213" fill="#ACDDE9"/>
</g>
<defs>
<filter id="filter0_d" x="85" y="0" width="260" height="221" filterUnits="userSpaceOnUse" color-interpolation-filters="sRGB">
<feFlood flood-opacity="0" result="BackgroundImageFix"/>
<feColorMatrix in="SourceAlpha" type="matrix" values="0 0 0 0 0 0 0 0 0 0 0 0 0 0 0 0 0 0 127 0"/>
<feOffset dy="4"/>
<feGaussianBlur stdDeviation="2"/>
<feColorMatrix type="matrix" values="0 0 0 0 0 0 0 0 0 0 0 0 0 0 0 0 0 0 0.25 0"/>
<feBlend mode="normal" in2="BackgroundImageFix" result="effect1_dropShadow"/>
<feBlend mode="normal" in="SourceGraphic" in2="effect1_dropShadow" result="shape"/>
</filter>
</defs>
</svg>
