<svg width="78" height="78" viewBox="0 0 78 78" fill="none" xmlns="http://www.w3.org/2000/svg">
<path fill-rule="evenodd" clip-rule="evenodd" d="M39 0C17.4609 0 0 17.4609 0 39C0 60.5391 17.4609 78 39 78C60.5391 78 78 60.5391 78 39C78 17.4609 60.5391 0 39 0ZM30.4253 18.3257C32.6436 18.2247 33.3527 18.2 38.9987 18.2C44.6464 18.2 45.3529 18.2247 47.5712 18.3257C49.7855 18.4271 51.2979 18.7776 52.6239 19.292C53.9932 19.8229 55.1502 20.5335 56.3073 21.6905C57.4643 22.8467 58.175 24.0072 58.708 25.3752C59.2193 26.6978 59.5703 28.2092 59.6743 30.4236C59.774 32.6423 59.8 33.3512 59.8 39.0002C59.8 44.6492 59.774 45.3564 59.6743 47.5751C59.5703 49.7886 59.2193 51.3005 58.708 52.6235C58.175 53.9911 57.4643 55.1516 56.3073 56.3077C55.1516 57.4647 53.9928 58.1772 52.6252 58.7084C51.3018 59.2228 49.7886 59.5734 47.5742 59.6748C45.3555 59.7757 44.6487 59.8004 38.9993 59.8004C33.3508 59.8004 32.6423 59.7757 30.4236 59.6748C28.2096 59.5734 26.6977 59.2228 25.3743 58.7084C24.0071 58.1772 22.8467 57.4647 21.6909 56.3077C20.5344 55.1516 19.8237 53.9911 19.292 52.6231C18.778 51.3005 18.4275 49.789 18.3256 47.5747C18.2251 45.356 18.2 44.6492 18.2 39.0002C18.2 33.3512 18.226 32.6419 18.3252 30.4232C18.4249 28.2097 18.7759 26.6978 19.2915 25.3748C19.8246 24.0072 20.5352 22.8467 21.6922 21.6905C22.8484 20.534 24.0089 19.8233 25.3769 19.292C26.6995 18.7776 28.2109 18.4271 30.4253 18.3257ZM38.9987 18.2C38.9998 18.2 39.0008 18.2 39.0019 18.2H38.9954C38.9965 18.2 38.9976 18.2 38.9987 18.2Z" fill="white"/>
<path fill-rule="evenodd" clip-rule="evenodd" d="M37.1361 21.9484C37.4984 21.9478 37.8882 21.948 38.3088 21.9482L39.002 21.9484C44.5557 21.9484 45.2139 21.9683 47.4071 22.068C49.4351 22.1607 50.5358 22.4996 51.269 22.7843C52.2396 23.1613 52.9317 23.612 53.6593 24.34C54.3873 25.068 54.8379 25.7613 55.2158 26.732C55.5005 27.4643 55.8398 28.565 55.9321 30.593C56.0318 32.7857 56.0534 33.4444 56.0534 38.9955C56.0534 44.5465 56.0318 45.2052 55.9321 47.3979C55.8394 49.4259 55.5005 50.5266 55.2158 51.2589C54.8388 52.2296 54.3873 52.9208 53.6593 53.6483C52.9312 54.3764 52.2401 54.827 51.269 55.204C50.5366 55.49 49.4351 55.828 47.4071 55.9208C45.2144 56.0204 44.5557 56.0421 39.002 56.0421C33.4479 56.0421 32.7897 56.0204 30.597 55.9208C28.569 55.8272 27.4683 55.4883 26.7347 55.2036C25.764 54.8266 25.0707 54.3759 24.3427 53.6479C23.6146 52.9199 23.164 52.2283 22.7861 51.2572C22.5014 50.5248 22.1621 49.4242 22.0698 47.3961C21.9701 45.2035 21.9502 44.5448 21.9502 38.9903C21.9502 33.4357 21.9701 32.7805 22.0698 30.5878C22.1625 28.5598 22.5014 27.4591 22.7861 26.7259C23.1631 25.7552 23.6146 25.0619 24.3427 24.3339C25.0707 23.6059 25.764 23.1552 26.7347 22.7774C27.4679 22.4913 28.569 22.1533 30.597 22.0602C32.5158 21.9735 33.2594 21.9475 37.1361 21.9432V21.9484ZM50.105 25.4021C48.727 25.4021 47.609 26.5188 47.609 27.8973C47.609 29.2753 48.727 30.3933 50.105 30.3933C51.483 30.3933 52.6011 29.2753 52.6011 27.8973C52.6011 26.5192 51.483 25.4012 50.105 25.4012V25.4021ZM28.3203 39.0002C28.3203 33.1013 33.1028 28.3187 39.0016 28.3184C44.9006 28.3184 49.6821 33.1012 49.6821 39.0002C49.6821 44.8992 44.9011 49.6798 39.002 49.6798C33.103 49.6798 28.3203 44.8992 28.3203 39.0002Z" fill="white"/>
<path d="M39.002 32.0668C42.831 32.0668 45.9354 35.1708 45.9354 39.0002C45.9354 42.8292 42.831 45.9336 39.002 45.9336C35.1726 45.9336 32.0686 42.8292 32.0686 39.0002C32.0686 35.1708 35.1726 32.0668 39.002 32.0668Z" fill="white"/>
</svg>
