<svg viewBox="0 0 93 78" xmlns="http://www.w3.org/2000/svg"><path d="m59.12 77.23v-20.55h33.52v-56.68h-56.64v18.14h-36v38.54h36v20.55zm-56.58-56.5h33.46v33.36h-33.46zm54.05 53.91h-18.08v-18h18.08zm33.41-20.55h-51.49v-51.49h51.49z"/><path d="m12.19 34.87a5 5 0 0 1 -2-.38 4.4 4.4 0 0 1 -1.56-1 4.53 4.53 0 0 1 -1-1.51 4.65 4.65 0 0 1 -.38-1.86 4.72 4.72 0 0 1 1.43-3.4 5 5 0 0 1 1.58-1 5.1 5.1 0 0 1 2-.38 5.16 5.16 0 0 1 2 .38 4.69 4.69 0 0 1 1.56 1 4.53 4.53 0 0 1 1 1.51 4.68 4.68 0 0 1 .37 1.86 4.64 4.64 0 0 1 -.37 1.86 4.75 4.75 0 0 1 -1 1.53 4.83 4.83 0 0 1 -1.58 1 4.91 4.91 0 0 1 -2.05.39zm0-2.3a2.32 2.32 0 0 0 1-.2 2.22 2.22 0 0 0 .74-.53 2.58 2.58 0 0 0 .65-1.74 2.71 2.71 0 0 0 -.17-.95 2.44 2.44 0 0 0 -1.24-1.34 2.4 2.4 0 0 0 -1-.2 2.17 2.17 0 0 0 -1 .2 2.29 2.29 0 0 0 -.74.53 2.2 2.2 0 0 0 -.47.78 2.75 2.75 0 0 0 -.17.95 2.75 2.75 0 0 0 .21.93 2.51 2.51 0 0 0 .49.78 2.26 2.26 0 0 0 1.71.76z"/><path d="m26.74 34.87a5 5 0 0 1 -1.86-.35 4.58 4.58 0 0 1 -1.51-1 4.87 4.87 0 0 1 -1-1.52 4.58 4.58 0 0 1 -.37-1.9 4.74 4.74 0 0 1 .37-1.88 4.83 4.83 0 0 1 1-1.53 4.77 4.77 0 0 1 1.53-1 5.12 5.12 0 0 1 1.94-.37 5.67 5.67 0 0 1 1.29.14 4 4 0 0 1 1.07.4 4.45 4.45 0 0 1 .86.61 5.07 5.07 0 0 1 .69.78l-1.92 1.45a3.07 3.07 0 0 0 -.87-.79 2.18 2.18 0 0 0 -1.15-.3 2.11 2.11 0 0 0 -1.57.72 2.54 2.54 0 0 0 -.46.77 2.75 2.75 0 0 0 -.16.95 2.86 2.86 0 0 0 .16 1 2.72 2.72 0 0 0 .46.78 2.1 2.1 0 0 0 .69.52 2 2 0 0 0 .88.19 2.71 2.71 0 0 0 .66-.08 2 2 0 0 0 .54-.23 3.73 3.73 0 0 0 .46-.35 4.76 4.76 0 0 0 .43-.46l1.92 1.37a6.4 6.4 0 0 1 -.72.83 4.5 4.5 0 0 1 -.88.66 4.58 4.58 0 0 1 -1.11.43 5.26 5.26 0 0 1 -1.37.16z"/><path d="m22.45 39.9h3.55a6.78 6.78 0 0 1 2.2.33 4.72 4.72 0 0 1 1.64 1 4.08 4.08 0 0 1 1 1.44 4.79 4.79 0 0 1 .35 1.84 4.74 4.74 0 0 1 -.36 1.86 4 4 0 0 1 -1 1.46 4.62 4.62 0 0 1 -1.65 1 6.63 6.63 0 0 1 -2.22.35h-3.5zm3.6 7a2.77 2.77 0 0 0 1.85-.61 2.15 2.15 0 0 0 .7-1.73 2.15 2.15 0 0 0 -.7-1.72 2.72 2.72 0 0 0 -1.85-.61h-1.05v4.69z"/><path d="m47.53 70.29a5.73 5.73 0 0 1 -1.68-.23 3.19 3.19 0 0 1 -1.27-.73 3.23 3.23 0 0 1 -.81-1.25 5.22 5.22 0 0 1 -.28-1.77v-4.89h2.51v4.84a2 2 0 0 0 .43 1.4 1.72 1.72 0 0 0 2.32 0 1.85 1.85 0 0 0 .44-1.36v-4.9h2.46v4.83a5.22 5.22 0 0 1 -.29 1.82 3.3 3.3 0 0 1 -.83 1.26 3.23 3.23 0 0 1 -1.28.73 5.83 5.83 0 0 1 -1.72.25z"/><path d="m45.56 11.91a2.56 2.56 0 0 1 -1-.18 2.33 2.33 0 0 1 -.74-.49 2.25 2.25 0 0 1 -.68-1.62 2.26 2.26 0 0 1 .18-.9 2.43 2.43 0 0 1 .5-.73 2.61 2.61 0 0 1 .76-.49 2.51 2.51 0 0 1 1-.18 2.47 2.47 0 0 1 1 .18 2.27 2.27 0 0 1 .75.49 2.13 2.13 0 0 1 .49.73 2 2 0 0 1 .18.88 2.09 2.09 0 0 1 -.19.89 2.06 2.06 0 0 1 -.5.74 2.27 2.27 0 0 1 -.75.49 2.51 2.51 0 0 1 -1 .19zm0-1.11a1.14 1.14 0 0 0 .46-.09 1 1 0 0 0 .36-.26 1.25 1.25 0 0 0 .22-.37 1.21 1.21 0 0 0 .08-.46 1.21 1.21 0 0 0 -.08-.46 1.14 1.14 0 0 0 -.23-.38 1.12 1.12 0 0 0 -.83-.36 1.1 1.1 0 0 0 -.45.1 1 1 0 0 0 -.36.26 1 1 0 0 0 -.23.37 1.39 1.39 0 0 0 -.08.46 1.33 1.33 0 0 0 .08.45 1.23 1.23 0 0 0 .24.38 1.22 1.22 0 0 0 .36.27 1.11 1.11 0 0 0 .47.09z"/><path d="m51 11.91a2.43 2.43 0 0 1 -.89-.17 2.27 2.27 0 0 1 -.72-.48 2.09 2.09 0 0 1 -.49-.73 2.24 2.24 0 0 1 -.18-.91 2.44 2.44 0 0 1 .17-.9 2.34 2.34 0 0 1 .46-.72 2.25 2.25 0 0 1 .74-.5 2.54 2.54 0 0 1 .91-.19 2.37 2.37 0 0 1 .61.07 1.92 1.92 0 0 1 .51.18 2.13 2.13 0 0 1 .42.3 2.91 2.91 0 0 1 .33.37l-.87.71a1.67 1.67 0 0 0 -.42-.38 1 1 0 0 0 -.58-.13 1 1 0 0 0 -.43.09 1.12 1.12 0 0 0 -.33.24 1.57 1.57 0 0 0 -.22.38 1.33 1.33 0 0 0 -.08.45 1.39 1.39 0 0 0 .08.46 1.4 1.4 0 0 0 .22.38 1.15 1.15 0 0 0 .33.25 1 1 0 0 0 .43.09 1 1 0 0 0 .31 0 .76.76 0 0 0 .26-.11 1.18 1.18 0 0 0 .22-.17 2.23 2.23 0 0 0 .21-.22l.92.66a2.64 2.64 0 0 1 -.35.4 1.77 1.77 0 0 1 -.41.31 2.17 2.17 0 0 1 -.54.21 2.65 2.65 0 0 1 -.62.06z"/><path d="m55.21 7.36h1.19l1.88 4.46h-1.28l-.36-.82h-1.71l-.31.79h-1.29zm1.08 2.72-.5-1.26-.5 1.26z"/><path d="m59 7.4h1.71a3.19 3.19 0 0 1 1.06.16 2.29 2.29 0 0 1 .78.45 2.07 2.07 0 0 1 .45.69 2.3 2.3 0 0 1 .17.88 2.34 2.34 0 0 1 -.17.88 2.1 2.1 0 0 1 -.49.71 2.24 2.24 0 0 1 -.8.46 3 3 0 0 1 -1.06.17h-1.65zm1.73 3.34a1.28 1.28 0 0 0 .89-.3 1 1 0 0 0 .34-.83 1 1 0 0 0 -.34-.82 1.28 1.28 0 0 0 -.89-.3h-.5v2.26z"/><path d="m45.33 18.89a2.84 2.84 0 0 1 -.86-.12 1.57 1.57 0 0 1 -.64-.37 1.64 1.64 0 0 1 -.41-.63 2.5 2.5 0 0 1 -.15-.9v-2.49h1.26v2.46a1 1 0 0 0 .22.72.77.77 0 0 0 .59.22.78.78 0 0 0 .59-.22.94.94 0 0 0 .22-.68v-2.5h1.24v2.45a2.57 2.57 0 0 1 -.14.93 1.7 1.7 0 0 1 -.42.64 1.67 1.67 0 0 1 -.65.37 2.82 2.82 0 0 1 -.85.12z"/><path d="m48.51 14.38h1.14l1.83 2.34v-2.34h1.21v4.43h-1.08l-1.89-2.43v2.43h-1.21z"/><path d="m55.09 14.38h-1.23v4.43h1.23z"/><path d="m55.79 14.38h1.37l1 2.81 1-2.81h1.35l-1.79 4.46h-1.13z"/><path d="m61.21 14.38h3.55v1h-2.34v.67h2.12v1h-2.12v.71h2.38v1h-3.59z"/><path d="m65.83 14.38h2.09a2.49 2.49 0 0 1 .87.13 1.27 1.27 0 0 1 .57.36 1.36 1.36 0 0 1 .4 1 1.4 1.4 0 0 1 -.25.84 1.49 1.49 0 0 1 -.67.51l1.06 1.55h-1.42l-.89-1.34h-.53v1.34h-1.23zm2 2.13a.75.75 0 0 0 .49-.14.51.51 0 0 0 .17-.39.46.46 0 0 0 -.17-.39.81.81 0 0 0 -.49-.13h-.8v1.06z"/><path d="m72.44 18.88a3.52 3.52 0 0 1 -1.13-.18 2.56 2.56 0 0 1 -.94-.56l.68-.81a2.27 2.27 0 0 0 1.44.53.75.75 0 0 0 .37-.08.23.23 0 0 0 .13-.22.28.28 0 0 0 0-.13.32.32 0 0 0 -.12-.1.83.83 0 0 0 -.23-.1l-.36-.1a5.23 5.23 0 0 1 -.66-.18 2.17 2.17 0 0 1 -.53-.25 1.3 1.3 0 0 1 -.36-.38 1.28 1.28 0 0 1 -.12-.58 1.26 1.26 0 0 1 .45-1 1.74 1.74 0 0 1 .54-.29 2.27 2.27 0 0 1 .72-.11 3.41 3.41 0 0 1 1 .15 2.67 2.67 0 0 1 .81.45l-.61.87a2.39 2.39 0 0 0 -.63-.33 2 2 0 0 0 -.61-.11.57.57 0 0 0 -.33.08.23.23 0 0 0 -.11.2.28.28 0 0 0 0 .13.25.25 0 0 0 .12.1 1.3 1.3 0 0 0 .23.1l.38.1a4.32 4.32 0 0 1 .69.19 1.82 1.82 0 0 1 .52.27 1 1 0 0 1 .32.38 1.12 1.12 0 0 1 .12.53 1.33 1.33 0 0 1 -.13.61 1.22 1.22 0 0 1 -.36.45 1.52 1.52 0 0 1 -.57.28 2.34 2.34 0 0 1 -.72.09z"/><path d="m76.42 14.38h-1.23v4.43h1.23z"/><path d="m78.5 15.46h-1.33v-1.08h3.88v1.08h-1.32v3.35h-1.23z"/><path d="m83.28 17.15-1.68-2.77h1.4l.91 1.62.91-1.62h1.38l-1.69 2.75v1.68h-1.23z"/><path d="m13.43 39.87h-2.43l-4 9.28h2.73l.59-1.48h3.68l.61 1.48h2.73zm-2.36 5.83 1.11-2.79 1.1 2.79z"/></svg>
