<svg xmlns="http://www.w3.org/2000/svg" viewBox="-4 -4 224 224" class="logo">
<g>
	<path class="logo-element" fill="#fadc90" d="M176.4,24c-28.9,27.3-40.6,85.5-58.8,123.6c2.9,5.3,6.1,10.3,9.5,15.3l0,0c19.4-30.1,35.8-68.9,86.3-68.9
		c0.6,0,1.2,0,1.8,0C211.7,66.6,197.8,41.5,176.4,24"/>
	<path class="logo-element" fill="#fdcc70" d="M213.3,93.9c-50.5,0-66.9,38.7-86.3,68.9c2.7,3.9,5.5,7.5,8.3,10.8l0,0c16.3-17.3,34.3-35.3,76.4-35.8l0,0
		c2.9-9.8,4.3-20,4.3-30.2c0-4.5-0.3-9.1-0.9-13.6l0,0c-0.6,0-1.2,0-1.8,0"/>
	<path class="logo-element" fill="#fcb33e" d="M211.8,137.8c-42.1,0.5-60.1,18.5-76.4,35.8c4.6,5.6,9.7,10.8,15.1,15.7l0,0c12-4.8,24.6-7.8,37.4-9l0,0
		C199,168.2,207.1,153.7,211.8,137.8"/>
	<path class="logo-element" fill="#f49822" d="M187.9,180.3c-12.8,1.1-25.5,4.2-37.4,9c4.3,3.9,8.8,7.4,13.6,10.7l0,0C172.9,194.7,181,188,187.9,180.3"/>
	<path class="logo-element" fill="#cee6c5" d="M107.1,125.7c-3,7.5-6.6,14.8-10.5,21.9c2.9,6.1,6.2,12,10,17.6c0.1,0.2,0.3,0.4,0.4,0.6l0,0
		c0.1-0.2,0.3-0.4,0.4-0.6c3.8-5.6,7.2-11.4,10-17.6C113.6,140.5,110.1,133.2,107.1,125.7"/>
	<path class="logo-element" fill="#c0d8ca" d="M117.6,147.6L117.6,147.6c-2.9,6.1-6.2,12-10,17.6c-0.1,0.2-0.3,0.4-0.4,0.6c2.9,4.1,6.1,7.9,9.6,11.5l0,0
		c3.7-4.6,7.2-9.4,10.4-14.5c-3.4-4.9-6.6-10-9.5-15.3l0,0"/>
	<path class="logo-element" fill="#c1c6c1" d="M127.1,162.7c-3.2,5-6.6,9.8-10.4,14.4c2.5,2.6,5.2,5.1,7.9,7.4l0,0c3.6-3.5,7.2-7.2,10.7-11
		C132.6,170.2,129.8,166.6,127.1,162.7L127.1,162.7"/>
	<path class="logo-element" fill="#a0b9c1" d="M135.4,173.6c-3.6,3.8-7.1,7.5-10.7,11c4.4,3.7,9,7.1,13.8,10.2l0,0c3.8-1.9,7.7-3.8,12-5.5
		C145.1,184.4,140,179.2,135.4,173.6L135.4,173.6"/>
	<path class="logo-element" fill="#8cb6c6" d="M150.5,189.3c-4.3,1.7-8.2,3.6-12,5.5c5.7,3.6,11.5,6.8,17.6,9.5l0,0c2.7-1.3,5.3-2.8,7.9-4.3
		C159.3,196.7,154.7,193.2,150.5,189.3L150.5,189.3"/>
	<path class="logo-element" fill="#acdde9" d="M38.7,24.8C17.8,42.3,4.3,67,0.9,93.9c50.4,0,66.8,38.7,86.2,68.9l0,0c3.4-4.9,6.6-10,9.5-15.3
		C78.5,109.7,66.8,52.4,38.7,24.8"/>
	<path class="logo-element" fill="#aedbd5" d="M96.6,147.6L96.6,147.6c-2.9,5.3-6.1,10.4-9.5,15.3c3.2,5,6.6,9.8,10.4,14.4l0,0c3.5-3.6,6.7-7.4,9.6-11.5
		c-0.2-0.2-0.3-0.4-0.4-0.6C102.8,159.7,99.4,153.8,96.6,147.6L96.6,147.6"/>
	<path class="logo-element" fill="#b0d0be" d="M107.1,165.7c-2.9,4-6.1,7.9-9.6,11.5c2.8,3.4,5.8,6.5,9.2,9.4l0.4,0.4l0,0l0.4-0.4c3.3-2.8,6.4-6,9.2-9.4
		C113.2,173.6,110,169.8,107.1,165.7L107.1,165.7"/>
	<path class="logo-element" fill="#b2bcb1" d="M116.7,177.2c-2.8,3.4-5.8,6.5-9.2,9.4l-0.4,0.4c2.6,2.1,5.3,4,8.1,5.8l0,0c3.3-2.5,6.5-5.2,9.5-8.1
		C121.9,182.3,119.2,179.8,116.7,177.2L116.7,177.2"/>
	<path class="logo-element" fill="#8eabb8" d="M124.6,184.6c-3,2.9-6.1,5.6-9.5,8.1c4.3,2.7,8.7,5.1,13.3,7.2l0,0c3.4-1.7,6.7-3.4,10.1-5.1
		C133.6,191.8,129,188.4,124.6,184.6L124.6,184.6"/>
	<path class="logo-element" fill="#77a5bb" d="M138.5,194.8c-3.4,1.7-6.8,3.4-10.1,5.1c6.6,3,13.4,5.6,20.4,7.7l0,0c2.5-1,4.9-2.1,7.3-3.3
		C150,201.6,144.1,198.4,138.5,194.8L138.5,194.8"/>
	<path class="logo-element" fill="#84bcde" d="M0.9,93.9c-1.9,14.7-0.8,29.7,3.4,43.9l0,0c40.7,1,58.4,18.7,74.4,35.7l0,0c2.8-3.4,5.6-7,8.3-10.8
		C67.7,132.6,51.3,94,0.9,93.9L0.9,93.9"/>
	<path class="logo-element" fill="#85bbd1" d="M87.1,162.7c-2.7,3.9-5.5,7.5-8.3,10.8c3.6,3.8,7.1,7.5,10.7,11l0,0c2.8-2.3,5.4-4.8,8-7.4
		C93.7,172.6,90.2,167.8,87.1,162.7L87.1,162.7"/>
	<path class="logo-element" fill="#88b5c4" d="M97.5,177.2c-2.5,2.6-5.2,5.1-8,7.4c3,2.9,6.2,5.6,9.5,8.1l0,0c2.8-1.8,5.5-3.7,8.1-5.8l-0.4-0.4
		C103.3,183.8,100.2,180.6,97.5,177.2L97.5,177.2"/>
	<path class="logo-element" fill="#8caabb" d="M107.1,186.9c-2.6,2.1-5.3,4-8.1,5.8c2.4,1.8,5,3.4,7.6,4.9l0.4,0.2l0,0l0.4-0.2c2.6-1.4,5.2-3.1,7.6-4.9
		C112.3,191,109.6,189,107.1,186.9L107.1,186.9"/>
	<path class="logo-element" fill="#74a0bf" d="M115.1,192.8c-2.4,1.8-5,3.4-7.6,4.9l-0.4,0.2c4.3,2.2,8.7,4.2,13.3,5.8l0,0c2.8-1.2,5.4-2.4,8-3.7
		C123.8,197.9,119.4,195.5,115.1,192.8L115.1,192.8"/>
	<path class="logo-element" fill="#639cc0" d="M128.4,200c-2.6,1.3-5.2,2.5-8,3.7c7.3,2.6,14.7,4.7,22.3,6.3l0,0c2.1-0.7,4.1-1.4,6.1-2.3
		C141.8,205.6,135,203,128.4,200L128.4,200"/>
	<path class="logo-element" fill="#6895c6" d="M4.3,137.9c4.6,15.9,12.9,30.5,24.1,42.7l0,0c12.1,1.2,24,4.2,35.3,8.7l0,0c5.4-4.9,10.4-10.1,15.1-15.7
		C62.7,156.6,45,138.9,4.3,137.9"/>
	<path class="logo-element" fill="#6995bf" d="M78.8,173.6c-4.6,5.6-9.7,10.8-15.1,15.7c4.3,1.7,8.2,3.6,12,5.5l0,0c4.8-3.1,9.5-6.5,13.8-10.2
		C85.9,181.1,82.4,177.4,78.8,173.6L78.8,173.6"/>
	<path class="logo-element" fill="#6b91b7" d="M89.5,184.6c-4.4,3.7-9,7.1-13.8,10.2c3.4,1.7,6.8,3.4,10.1,5.1l0,0c4.6-2.1,9-4.5,13.3-7.2
		C95.7,190.2,92.5,187.5,89.5,184.6L89.5,184.6"/>
	<path class="logo-element" fill="#6f8ab1" d="M99,192.8c-4.3,2.7-8.7,5.1-13.3,7.2c2.6,1.3,5.2,2.5,8,3.7l0,0c4.6-1.6,9-3.5,13.3-5.8l-0.4-0.2
		C104,196.2,101.4,194.6,99,192.8L99,192.8"/>
	<path class="logo-element" fill="#6085b3" d="M107.1,197.8c-4.3,2.2-8.7,4.2-13.3,5.8c4.2,1.8,8.5,3.2,12.9,4.4l0.4,0.1l0,0l0.4-0.1
		c4.4-1.2,8.7-2.6,12.9-4.4C115.8,202,111.4,200.1,107.1,197.8L107.1,197.8"/>
	<path class="logo-element" fill="#5482b3" d="M120.4,203.6c-4.2,1.8-8.5,3.2-12.9,4.4l-0.4,0.1c8.5,2.1,17,3.6,25.7,4.7l0,0c3.4-0.8,6.7-1.7,9.9-2.8
		C135.1,208.3,127.7,206.2,120.4,203.6L120.4,203.6"/>
	<path class="logo-element" fill="#556da2" d="M28.4,180.6c6.7,7.3,14.3,13.6,22.7,18.8l0,0c4.4-3.1,8.6-6.5,12.6-10.1C52.4,184.8,40.5,181.8,28.4,180.6"/>
	<path class="logo-element" fill="#566d9e" d="M63.7,189.3c-4,3.6-8.2,7-12.6,10.1c2.6,1.7,5.3,3.1,8,4.5l0,0c5.7-2.7,11.3-5.7,16.6-9.1
		C71.9,193,68,191.1,63.7,189.3L63.7,189.3"/>
	<path class="logo-element" fill="#566a9a" d="M75.7,194.8c-5.3,3.4-10.9,6.4-16.6,9.1c2.4,1.2,4.9,2.4,7.4,3.4l0,0c6.6-2.1,13-4.5,19.3-7.4
		C82.4,198.2,79.1,196.5,75.7,194.8L75.7,194.8"/>
	<path class="logo-element" fill="#586697" d="M85.8,200c-6.3,2.9-12.7,5.3-19.3,7.4c2,0.8,4.1,1.7,6.2,2.3l0,0c7.2-1.6,14.2-3.6,21.1-6.1
		C91,202.5,88.3,201.2,85.8,200L85.8,200"/>
	<path class="logo-element" fill="#506499" d="M93.8,203.6c-6.9,2.4-14,4.5-21.1,6.1c3.3,1.1,6.6,2.1,9.9,2.9l0,0c8.2-1,16.4-2.5,24.4-4.5l-0.4-0.1
		C102.2,206.9,97.9,205.4,93.8,203.6L93.8,203.6"/>
	<path class="logo-element" fill="#486399" d="M107.1,208.1c-8.1,2-16.3,3.5-24.5,4.5c16.5,4,33.6,4.1,50.1,0.2C124,211.7,115.5,210.2,107.1,208.1
		L107.1,208.1"/>
	<circle class="logo-element" fill="#6895c6" cx="106.1" cy="17.3" r="16.9"/>
</g>
</svg>
