<svg id="Layer_1" data-name="Layer 1" xmlns="http://www.w3.org/2000/svg" viewBox="0 0 289 74"><title>Artboard 1</title><path d="M73,14.18a2.5,2.5,0,0,1,.19-1,1.83,1.83,0,0,1,.52-.67,2,2,0,0,1,.78-.36,4.47,4.47,0,0,1,1.88,0,2,2,0,0,1,.77.36,1.81,1.81,0,0,1,.53.68,2.42,2.42,0,0,1,.19,1,2.48,2.48,0,0,1-.19,1,1.85,1.85,0,0,1-.53.69,2,2,0,0,1-.77.36,4.07,4.07,0,0,1-1.88,0,2,2,0,0,1-.78-.36,1.83,1.83,0,0,1-.52-.69A2.48,2.48,0,0,1,73,14.18Zm4.66,20.61H73.19V18.42h4.47Z"/><path d="M96,34.79H91.5V25.23A5.21,5.21,0,0,0,91,22.57a1.85,1.85,0,0,0-1.71-.89,2.84,2.84,0,0,0-1.46.35,2.52,2.52,0,0,0-.93,1,5.55,5.55,0,0,0-.49,1.69,16,16,0,0,0-.15,2.32v7.7H81.75V18.42h3.42l.6,2.09H86a4.15,4.15,0,0,1,.85-1.08A4.82,4.82,0,0,1,88,18.68a5.14,5.14,0,0,1,1.27-.43,6.34,6.34,0,0,1,1.38-.14,6.52,6.52,0,0,1,2.18.34,4.23,4.23,0,0,1,1.69,1.08,4.83,4.83,0,0,1,1.08,1.87A8.36,8.36,0,0,1,96,24.11Z"/><path d="M106.85,35.09a9.81,9.81,0,0,1-3.17-.49,6.11,6.11,0,0,1-2.42-1.5,6.59,6.59,0,0,1-1.53-2.61,11.84,11.84,0,0,1-.54-3.8,13.26,13.26,0,0,1,.55-4.09A6.67,6.67,0,0,1,101.29,20a5.84,5.84,0,0,1,2.42-1.42,11,11,0,0,1,3.14-.42,10.21,10.21,0,0,1,2.51.31,10.71,10.71,0,0,1,2.34.86l-1.29,3.4a14.82,14.82,0,0,0-1.86-.7,5.84,5.84,0,0,0-1.7-.27A2.51,2.51,0,0,0,104.5,23a7.4,7.4,0,0,0-.74,3.71,7,7,0,0,0,.74,3.63,2.49,2.49,0,0,0,2.3,1.18,7.58,7.58,0,0,0,2.31-.33,15.89,15.89,0,0,0,2.12-.85V34c-.36.17-.71.33-1,.47a10.24,10.24,0,0,1-1,.33,7.51,7.51,0,0,1-1.09.2A11.43,11.43,0,0,1,106.85,35.09Z"/><path d="M119,34.79h-4.47V12H119Z"/><path d="M133.81,34.79l-.6-2.09H133a4.42,4.42,0,0,1-.87,1.07,4.78,4.78,0,0,1-1.11.74,5.62,5.62,0,0,1-1.27.44,7,7,0,0,1-1.38.14,6.52,6.52,0,0,1-2.18-.35,4.23,4.23,0,0,1-1.69-1.08,4.71,4.71,0,0,1-1.08-1.86,8.32,8.32,0,0,1-.38-2.71V18.42h4.46V28a5.21,5.21,0,0,0,.54,2.66,1.83,1.83,0,0,0,1.7.89,2.76,2.76,0,0,0,1.47-.36,2.43,2.43,0,0,0,.93-1,5.62,5.62,0,0,0,.49-1.7,15.8,15.8,0,0,0,.15-2.31v-7.7h4.46V34.79Z"/><path d="M152.5,29.93a5.18,5.18,0,0,1-.47,2.26,4.41,4.41,0,0,1-1.33,1.61,6,6,0,0,1-2.1,1,10.63,10.63,0,0,1-2.75.33q-.81,0-1.5-.06a12.48,12.48,0,0,1-1.3-.16,10.89,10.89,0,0,1-1.19-.3,8.3,8.3,0,0,1-1.16-.44V30.44A12.71,12.71,0,0,0,142,31a14.23,14.23,0,0,0,1.36.43,12.87,12.87,0,0,0,1.31.29,7.14,7.14,0,0,0,1.18.1,4.24,4.24,0,0,0,1-.11,2.06,2.06,0,0,0,.7-.31,1.16,1.16,0,0,0,.39-.47,1.4,1.4,0,0,0,.13-.57,1.35,1.35,0,0,0-.1-.55,1.37,1.37,0,0,0-.43-.52,7.13,7.13,0,0,0-1-.61c-.44-.23-1-.51-1.75-.84a20.69,20.69,0,0,1-1.85-1,5.18,5.18,0,0,1-1.29-1.07,3.86,3.86,0,0,1-.76-1.34,5.9,5.9,0,0,1-.25-1.79,4.37,4.37,0,0,1,.44-2,4,4,0,0,1,1.25-1.43,5.47,5.47,0,0,1,1.94-.85,9.86,9.86,0,0,1,2.52-.29,11,11,0,0,1,2.79.34,14.1,14.1,0,0,1,2.71,1L151,22.62a18.52,18.52,0,0,0-2.12-.86,6.27,6.27,0,0,0-2-.34,2.15,2.15,0,0,0-1.31.32,1.07,1.07,0,0,0-.4.88,1.21,1.21,0,0,0,.1.52,1.42,1.42,0,0,0,.41.47,5.94,5.94,0,0,0,.87.53c.37.19.85.42,1.45.69s1.32.61,1.87.9a6.6,6.6,0,0,1,1.44,1,3.87,3.87,0,0,1,.92,1.34A4.59,4.59,0,0,1,152.5,29.93Z"/><path d="M155.35,14.18a2.66,2.66,0,0,1,.19-1,2,2,0,0,1,.52-.67,2.07,2.07,0,0,1,.78-.36,4.13,4.13,0,0,1,.95-.1,4,4,0,0,1,.93.1,2,2,0,0,1,.77.36,1.86,1.86,0,0,1,.53.67,2.83,2.83,0,0,1,0,2.09,1.74,1.74,0,0,1-.53.68,2,2,0,0,1-.77.37,4,4,0,0,1-.93.11,4.12,4.12,0,0,1-.95-.11,1.88,1.88,0,0,1-.78-.37,1.81,1.81,0,0,1-.52-.68A2.65,2.65,0,0,1,155.35,14.18ZM160,34.79h-4.47V18.42H160Z"/><path d="M168,34.79l-5.78-16.37h4.67l2.71,9.33a17.49,17.49,0,0,1,.43,1.73,12.32,12.32,0,0,1,.23,1.62h.09a10.35,10.35,0,0,1,.23-1.65c.12-.58.26-1.15.43-1.7l2.69-9.33h4.69l-5.79,16.37Z"/><path d="M187.21,35.09a9.92,9.92,0,0,1-3.24-.52,6.64,6.64,0,0,1-4.21-4.15,10.6,10.6,0,0,1-.59-3.7,11.84,11.84,0,0,1,.54-3.76,7.48,7.48,0,0,1,1.52-2.69,6.09,6.09,0,0,1,2.34-1.62,8.22,8.22,0,0,1,3-.54,8.32,8.32,0,0,1,2.94.49A6,6,0,0,1,191.77,20a6.46,6.46,0,0,1,1.41,2.34,9.38,9.38,0,0,1,.49,3.17v2.17h-10a5.53,5.53,0,0,0,.3,1.69,3.64,3.64,0,0,0,.76,1.27,3.25,3.25,0,0,0,1.19.8,4.14,4.14,0,0,0,1.59.28,12.47,12.47,0,0,0,1.41-.08,10.67,10.67,0,0,0,1.3-.24,9.47,9.47,0,0,0,1.24-.41,13.57,13.57,0,0,0,1.26-.56v3.46a9.41,9.41,0,0,1-1.18.52,10.79,10.79,0,0,1-1.25.36,11.5,11.5,0,0,1-1.42.21C188.37,35.06,187.81,35.09,187.21,35.09Zm-.57-13.8a2.57,2.57,0,0,0-2,.83,4.12,4.12,0,0,0-.9,2.62h5.7a5.88,5.88,0,0,0-.19-1.37,3.26,3.26,0,0,0-.53-1.09,2.59,2.59,0,0,0-.88-.73A2.65,2.65,0,0,0,186.64,21.29Z"/><path d="M206.06,35.09A4.83,4.83,0,0,1,202,32.94a8.24,8.24,0,0,1-1.17-2.64,14.41,14.41,0,0,1-.42-3.67,14.47,14.47,0,0,1,.42-3.69A8.12,8.12,0,0,1,202,20.27a5,5,0,0,1,1.84-1.62,5.15,5.15,0,0,1,2.36-.54,5.54,5.54,0,0,1,1.45.18,4.19,4.19,0,0,1,1.18.52,4.67,4.67,0,0,1,.95.76,6.26,6.26,0,0,1,.74.94h.14c-.06-.38-.11-.77-.16-1.16s-.09-.68-.12-1.06a9.62,9.62,0,0,1,0-1V12h4.46V34.79h-3.41l-.86-2.12h-.19a6.44,6.44,0,0,1-.71.94,4,4,0,0,1-.91.77,4.78,4.78,0,0,1-1.17.52A5.59,5.59,0,0,1,206.06,35.09Zm1.63-3.56a3.07,3.07,0,0,0,1.35-.27,2.29,2.29,0,0,0,.9-.82,4.16,4.16,0,0,0,.51-1.37,10.63,10.63,0,0,0,.18-1.92v-.49a13.4,13.4,0,0,0-.14-2.11A5,5,0,0,0,210,23a2.38,2.38,0,0,0-.91-1,3,3,0,0,0-1.44-.32A2.17,2.17,0,0,0,205.6,23a8.15,8.15,0,0,0-.66,3.68,7.8,7.8,0,0,0,.66,3.63A2.24,2.24,0,0,0,207.69,31.53Z"/><path d="M226.15,35.09a9.81,9.81,0,0,1-3.23-.52A6.74,6.74,0,0,1,220.37,33a7,7,0,0,1-1.66-2.61,10.36,10.36,0,0,1-.6-3.7,11.55,11.55,0,0,1,.55-3.76,7.46,7.46,0,0,1,1.51-2.69,6.12,6.12,0,0,1,2.35-1.62,8.91,8.91,0,0,1,6,0A6,6,0,0,1,230.72,20a6.46,6.46,0,0,1,1.41,2.34,9.64,9.64,0,0,1,.49,3.17v2.17h-10a5.24,5.24,0,0,0,.3,1.69,3.5,3.5,0,0,0,.76,1.27,3.13,3.13,0,0,0,1.18.8,4.21,4.21,0,0,0,1.59.28,12.79,12.79,0,0,0,1.42-.08,10.88,10.88,0,0,0,1.29-.24,9.6,9.6,0,0,0,1.25-.41,13.57,13.57,0,0,0,1.26-.56v3.46a9.41,9.41,0,0,1-1.18.52,10.25,10.25,0,0,1-2.67.57C227.32,35.06,226.76,35.09,226.15,35.09Zm-.57-13.8a2.58,2.58,0,0,0-2,.83,4.18,4.18,0,0,0-.9,2.62h5.7a5.4,5.4,0,0,0-.19-1.37,3.08,3.08,0,0,0-.53-1.09,2.47,2.47,0,0,0-.87-.73A2.72,2.72,0,0,0,225.58,21.29Z"/><path d="M247,29.93a5.18,5.18,0,0,1-.46,2.26,4.44,4.44,0,0,1-1.34,1.61,5.84,5.84,0,0,1-2.09,1,10.66,10.66,0,0,1-2.76.33c-.53,0-1,0-1.49-.06a12.48,12.48,0,0,1-1.3-.16,10.89,10.89,0,0,1-1.19-.3,8.3,8.3,0,0,1-1.16-.44V30.44a11.82,11.82,0,0,0,1.3.56,14.05,14.05,0,0,0,1.35.43c.45.12.89.22,1.32.29a7.11,7.11,0,0,0,1.17.1,4.33,4.33,0,0,0,1-.11,2.15,2.15,0,0,0,.7-.31,1.25,1.25,0,0,0,.39-.47,1.39,1.39,0,0,0,.12-.57,1.55,1.55,0,0,0-.09-.55,1.37,1.37,0,0,0-.43-.52,7.13,7.13,0,0,0-1-.61c-.44-.23-1-.51-1.75-.84s-1.33-.65-1.86-1a5.31,5.31,0,0,1-1.28-1.07,3.86,3.86,0,0,1-.76-1.34,5.6,5.6,0,0,1-.25-1.79,4.37,4.37,0,0,1,.44-2,3.9,3.9,0,0,1,1.25-1.43,5.47,5.47,0,0,1,1.94-.85,9.86,9.86,0,0,1,2.52-.29,11,11,0,0,1,2.79.34,14.35,14.35,0,0,1,2.71,1l-1.35,3.16a17.93,17.93,0,0,0-2.13-.86,6.16,6.16,0,0,0-2-.34,2.15,2.15,0,0,0-1.31.32,1.07,1.07,0,0,0-.4.88,1.21,1.21,0,0,0,.1.52,1.42,1.42,0,0,0,.41.47,5.44,5.44,0,0,0,.87.53c.37.19.85.42,1.45.69s1.31.61,1.87.9a6.6,6.6,0,0,1,1.44,1,4,4,0,0,1,.92,1.34A4.77,4.77,0,0,1,247,29.93Z"/><path d="M249.88,14.18a2.66,2.66,0,0,1,.19-1,1.83,1.83,0,0,1,.52-.67,2,2,0,0,1,.78-.36,4.11,4.11,0,0,1,.94-.1,4,4,0,0,1,.94.1,2,2,0,0,1,.77.36,1.86,1.86,0,0,1,.53.67,2.83,2.83,0,0,1,0,2.09,1.74,1.74,0,0,1-.53.68,2,2,0,0,1-.77.37,4,4,0,0,1-.94.11,4.1,4.1,0,0,1-.94-.11,1.88,1.88,0,0,1-.78-.37,1.72,1.72,0,0,1-.52-.68A2.65,2.65,0,0,1,249.88,14.18Zm4.66,20.61h-4.47V18.42h4.47Z"/><path d="M272.29,18.44v2.44l-2.39.74a3.82,3.82,0,0,1,.41,1,5.2,5.2,0,0,1,.12,1.15,6.32,6.32,0,0,1-.4,2.27,4.65,4.65,0,0,1-1.17,1.77A5.2,5.2,0,0,1,266.91,29a8.34,8.34,0,0,1-2.73.41c-.22,0-.46,0-.73,0a3.82,3.82,0,0,1-.58-.08,2.18,2.18,0,0,0-.46.52,1.15,1.15,0,0,0-.17.65.63.63,0,0,0,.19.49,1.46,1.46,0,0,0,.49.3,3,3,0,0,0,.72.14,7.94,7.94,0,0,0,.85,0H267a7.75,7.75,0,0,1,2.13.27,4.3,4.3,0,0,1,1.59.83,3.73,3.73,0,0,1,1,1.41,5.44,5.44,0,0,1,.35,2,5.62,5.62,0,0,1-.56,2.52,5.09,5.09,0,0,1-1.66,1.9,8.29,8.29,0,0,1-2.75,1.2,15.3,15.3,0,0,1-3.79.42,12,12,0,0,1-2.92-.32,6.31,6.31,0,0,1-2.08-.9,4,4,0,0,1-1.25-1.43,4.17,4.17,0,0,1-.42-1.89A3.74,3.74,0,0,1,257,35.9a3.57,3.57,0,0,1,.82-1.12A4.24,4.24,0,0,1,259,34a7.82,7.82,0,0,1,1.34-.45,2.62,2.62,0,0,1-.61-.37,2.76,2.76,0,0,1-.54-.54,3,3,0,0,1-.4-.68,2.08,2.08,0,0,1-.15-.78,2.52,2.52,0,0,1,.14-.85,2.49,2.49,0,0,1,.4-.71,4,4,0,0,1,.66-.63c.26-.19.56-.39.89-.6a4.4,4.4,0,0,1-2-1.78,5.47,5.47,0,0,1-.75-2.9,6.25,6.25,0,0,1,.41-2.36,4.72,4.72,0,0,1,1.2-1.77,5.19,5.19,0,0,1,2-1.1,8.55,8.55,0,0,1,2.7-.38l.65,0,.73.09.67.11.48.1ZM260.57,37.11a1.78,1.78,0,0,0,.15.71,1.45,1.45,0,0,0,.51.6,2.53,2.53,0,0,0,.92.42,5.59,5.59,0,0,0,1.41.16,7.24,7.24,0,0,0,3.44-.65,1.94,1.94,0,0,0,1.15-1.73,1.2,1.2,0,0,0-.71-1.23,6.12,6.12,0,0,0-2.23-.31h-2.07a3.84,3.84,0,0,0-.85.1,2.41,2.41,0,0,0-.83.33,2,2,0,0,0-.64.62A1.76,1.76,0,0,0,260.57,37.11Zm1.61-13.33a3.57,3.57,0,0,0,.5,2.06,1.69,1.69,0,0,0,1.51.73,1.66,1.66,0,0,0,1.52-.73,3.83,3.83,0,0,0,.47-2.06,4.19,4.19,0,0,0-.46-2.1,1.63,1.63,0,0,0-1.53-.77C262.85,20.91,262.18,21.86,262.18,23.78Z"/><path d="M289,34.79h-4.47V25.23a5.33,5.33,0,0,0-.53-2.66,1.86,1.86,0,0,0-1.71-.89,2.84,2.84,0,0,0-1.46.35,2.52,2.52,0,0,0-.93,1,5.28,5.28,0,0,0-.49,1.69,16,16,0,0,0-.15,2.32v7.7h-4.47V18.42h3.41l.61,2.09h.24a4.4,4.4,0,0,1,.86-1.08,4.82,4.82,0,0,1,1.11-.75,5,5,0,0,1,1.27-.43,6.34,6.34,0,0,1,1.38-.14,6.52,6.52,0,0,1,2.18.34,4.3,4.3,0,0,1,1.69,1.08,5,5,0,0,1,1.08,1.87,8.64,8.64,0,0,1,.38,2.71V34.79Z"/><path d="M80.11,52.33c.28,0,.6,0,1,0a6.87,6.87,0,0,1,.91.11l-.35,2.46-.85-.13a8,8,0,0,0-.81-.05,3.71,3.71,0,0,0-3,1.44,5.26,5.26,0,0,0-.85,1.67,7.32,7.32,0,0,0-.3,2.16v8.68H73.15V52.62h2.17l.32,3h.11c.25-.42.51-.83.79-1.22a6.14,6.14,0,0,1,.93-1,4.39,4.39,0,0,1,1.17-.72A3.78,3.78,0,0,1,80.11,52.33Z"/><path d="M90.73,69a7.73,7.73,0,0,1-2.94-.54,6.35,6.35,0,0,1-2.3-1.58A7.25,7.25,0,0,1,84,64.3a10.9,10.9,0,0,1-.53-3.52A12.17,12.17,0,0,1,84,57.22a8.06,8.06,0,0,1,1.37-2.66,5.83,5.83,0,0,1,2.1-1.66,6.74,6.74,0,0,1,5.31,0,5.69,5.69,0,0,1,2,1.46,6.68,6.68,0,0,1,1.24,2.28,9.34,9.34,0,0,1,.43,2.93v1.66H86.23a6.67,6.67,0,0,0,1.2,4.16,4.08,4.08,0,0,0,3.33,1.33,11.78,11.78,0,0,0,1.38-.07,11.25,11.25,0,0,0,1.23-.21A8.55,8.55,0,0,0,94.52,66c.37-.14.75-.3,1.13-.47v2.37a10.05,10.05,0,0,1-1.15.48,9,9,0,0,1-1.15.34,9.85,9.85,0,0,1-1.23.19C91.69,69,91.23,69,90.73,69Zm-.66-14.46a3.29,3.29,0,0,0-2.64,1.14A5.73,5.73,0,0,0,86.29,59H93.5a7.93,7.93,0,0,0-.2-1.82,4.09,4.09,0,0,0-.61-1.42,2.94,2.94,0,0,0-1.07-.91A3.48,3.48,0,0,0,90.07,54.54Z"/><path d="M109.6,64.3a4.72,4.72,0,0,1-.42,2A3.89,3.89,0,0,1,108,67.82a5.49,5.49,0,0,1-1.92.89,10.43,10.43,0,0,1-2.54.29,12.74,12.74,0,0,1-2.74-.26,7.05,7.05,0,0,1-2-.75V65.56c.3.15.64.31,1,.46a12.11,12.11,0,0,0,2.44.69,8,8,0,0,0,1.29.11,7.38,7.38,0,0,0,1.62-.16,3.14,3.14,0,0,0,1.09-.47,1.75,1.75,0,0,0,.6-.73,2.32,2.32,0,0,0,.19-1,2.39,2.39,0,0,0-.14-.82,2.12,2.12,0,0,0-.54-.72,5.52,5.52,0,0,0-1.06-.73c-.45-.24-1-.52-1.73-.82s-1.33-.6-1.89-.89a6.64,6.64,0,0,1-1.43-1,3.74,3.74,0,0,1-.9-1.26,4.47,4.47,0,0,1,.08-3.51,3.77,3.77,0,0,1,1.14-1.34,5.11,5.11,0,0,1,1.76-.82,8.48,8.48,0,0,1,2.28-.28,10,10,0,0,1,2.6.31,12.66,12.66,0,0,1,2.24.8l-.93,2.16a16.31,16.31,0,0,0-2-.74,6.79,6.79,0,0,0-2-.32,4.06,4.06,0,0,0-2.22.49,1.6,1.6,0,0,0-.71,1.4,2.29,2.29,0,0,0,.16.9,2.09,2.09,0,0,0,.58.71,5.85,5.85,0,0,0,1.1.69c.46.23,1,.48,1.72.77s1.33.58,1.88.87a7,7,0,0,1,1.41,1,4,4,0,0,1,.9,1.25A4.29,4.29,0,0,1,109.6,64.3Z"/><path d="M119.42,69a7.77,7.77,0,0,1-2.94-.54,6.35,6.35,0,0,1-2.3-1.58,7.25,7.25,0,0,1-1.48-2.58,10.9,10.9,0,0,1-.53-3.52,12.17,12.17,0,0,1,.48-3.56A8.06,8.06,0,0,1,114,54.56a5.83,5.83,0,0,1,2.1-1.66,6.31,6.31,0,0,1,2.7-.57,6.24,6.24,0,0,1,2.61.52,5.69,5.69,0,0,1,2,1.46,6.68,6.68,0,0,1,1.24,2.28,9.34,9.34,0,0,1,.43,2.93v1.66H114.92a6.67,6.67,0,0,0,1.2,4.16,4.08,4.08,0,0,0,3.33,1.33,11.78,11.78,0,0,0,1.38-.07,11.25,11.25,0,0,0,1.23-.21,8.55,8.55,0,0,0,1.15-.36c.37-.14.75-.3,1.13-.47v2.37a10.05,10.05,0,0,1-1.15.48,9,9,0,0,1-1.15.34,9.85,9.85,0,0,1-1.23.19C120.38,69,119.92,69,119.42,69Zm-.66-14.46a3.29,3.29,0,0,0-2.64,1.14A5.73,5.73,0,0,0,115,59h7.21a7.93,7.93,0,0,0-.2-1.82,4.09,4.09,0,0,0-.61-1.42,2.94,2.94,0,0,0-1.07-.91A3.48,3.48,0,0,0,118.76,54.54Z"/><path d="M137.53,68.71,137,66.48h-.12a8.75,8.75,0,0,1-1,1.14,4.94,4.94,0,0,1-1.05.78,4.66,4.66,0,0,1-1.27.45A7.87,7.87,0,0,1,132,69a5.85,5.85,0,0,1-1.86-.29,3.88,3.88,0,0,1-1.47-.87,4.16,4.16,0,0,1-1-1.5,5.94,5.94,0,0,1-.35-2.13A4.36,4.36,0,0,1,129,60.52a9,9,0,0,1,5.15-1.41l2.7-.1V58a5.42,5.42,0,0,0-.22-1.64A2.49,2.49,0,0,0,136,55.3a2.22,2.22,0,0,0-1-.58,4.64,4.64,0,0,0-1.35-.18,7.25,7.25,0,0,0-2.27.35,15,15,0,0,0-2,.85l-.94-2a12.37,12.37,0,0,1,2.42-1,9.58,9.58,0,0,1,2.8-.41,9.83,9.83,0,0,1,2.58.3,4.3,4.3,0,0,1,1.8.95,4,4,0,0,1,1.07,1.66,7.65,7.65,0,0,1,.35,2.45v11Zm-4.89-1.86a4.84,4.84,0,0,0,1.65-.28,3.64,3.64,0,0,0,1.32-.84,4,4,0,0,0,.87-1.42,5.86,5.86,0,0,0,.32-2V60.84l-2.1.1a10.54,10.54,0,0,0-2.21.3,3.8,3.8,0,0,0-1.43.65,2.44,2.44,0,0,0-.77,1,3.76,3.76,0,0,0-.23,1.34,2.49,2.49,0,0,0,.71,2A2.71,2.71,0,0,0,132.64,66.85Z"/><path d="M150.7,52.33c.28,0,.6,0,1,0a6.67,6.67,0,0,1,.91.11l-.35,2.46-.84-.13a8,8,0,0,0-.82-.05,3.9,3.9,0,0,0-1.68.37,3.75,3.75,0,0,0-1.31,1.07,5.06,5.06,0,0,0-.85,1.67A7,7,0,0,0,146.4,60v8.68h-2.66V52.62h2.17l.32,3h.12a14,14,0,0,1,.78-1.22,5.79,5.79,0,0,1,.94-1,4.19,4.19,0,0,1,1.16-.72A3.78,3.78,0,0,1,150.7,52.33Z"/><path d="M161.15,69a8.09,8.09,0,0,1-2.77-.46,5.68,5.68,0,0,1-2.24-1.47,7,7,0,0,1-1.49-2.56,11.52,11.52,0,0,1-.55-3.76,12,12,0,0,1,.56-3.9,6.94,6.94,0,0,1,1.53-2.61,5.74,5.74,0,0,1,2.28-1.45,8.27,8.27,0,0,1,2.8-.46,9.77,9.77,0,0,1,2.23.25,8.39,8.39,0,0,1,1.82.61l-.79,2.26c-.22-.1-.47-.19-.74-.29s-.56-.17-.85-.24a7.49,7.49,0,0,0-.87-.18,5.77,5.77,0,0,0-.8-.07,3.83,3.83,0,0,0-3.36,1.48,7.93,7.93,0,0,0-1,4.57,7.6,7.6,0,0,0,1.06,4.52,3.74,3.74,0,0,0,3.23,1.43,7.88,7.88,0,0,0,2.14-.27,10.83,10.83,0,0,0,1.75-.64v2.38a7.29,7.29,0,0,1-1.69.64A9.22,9.22,0,0,1,161.15,69Z"/><path d="M178.33,68.71V58.35a4.46,4.46,0,0,0-.77-2.86,2.92,2.92,0,0,0-2.41-1,4.71,4.71,0,0,0-2,.38,3.13,3.13,0,0,0-1.29,1.13,5,5,0,0,0-.71,1.83,13.3,13.3,0,0,0-.21,2.49v8.34h-2.67V45.91H171v6.77l-.12,2.11H171a4.44,4.44,0,0,1,.87-1.09,5.25,5.25,0,0,1,1.11-.77,4.69,4.69,0,0,1,1.27-.45,6.34,6.34,0,0,1,1.38-.15,5.38,5.38,0,0,1,4,1.4A6.21,6.21,0,0,1,181,58.2V68.71Z"/><path d="M197.4,69.07a8.34,8.34,0,0,1-2.77-.46,5.68,5.68,0,0,1-2.24-1.47,7.05,7.05,0,0,1-1.5-2.56,11.54,11.54,0,0,1-.54-3.76,12,12,0,0,1,.56-3.9,6.94,6.94,0,0,1,1.53-2.61,5.87,5.87,0,0,1,2.28-1.46,8.5,8.5,0,0,1,2.79-.45,9.8,9.8,0,0,1,2.24.25,8.05,8.05,0,0,1,1.82.61l-.79,2.26c-.22-.1-.47-.19-.75-.29s-.55-.17-.85-.25-.58-.13-.86-.17a4.59,4.59,0,0,0-.81-.07,3.82,3.82,0,0,0-3.35,1.48,7.92,7.92,0,0,0-1.06,4.57,7.62,7.62,0,0,0,1.07,4.52,3.75,3.75,0,0,0,3.23,1.43,7.88,7.88,0,0,0,2.14-.27,10.83,10.83,0,0,0,1.75-.64V68.2a6.89,6.89,0,0,1-1.69.65A9.22,9.22,0,0,1,197.4,69.07Z"/><path d="M210.68,69.07a7.79,7.79,0,0,1-3-.54,6.22,6.22,0,0,1-2.29-1.59A7.13,7.13,0,0,1,204,64.37a10.91,10.91,0,0,1-.52-3.52,12.12,12.12,0,0,1,.48-3.56,7.86,7.86,0,0,1,1.36-2.66,5.89,5.89,0,0,1,2.1-1.66,6.34,6.34,0,0,1,2.7-.57,6.24,6.24,0,0,1,2.61.52,5.48,5.48,0,0,1,2,1.46,6.63,6.63,0,0,1,1.24,2.27,9.45,9.45,0,0,1,.43,2.94v1.66H206.18a6.67,6.67,0,0,0,1.19,4.16,4.14,4.14,0,0,0,3.33,1.33c.5,0,1,0,1.39-.07a9.88,9.88,0,0,0,1.23-.22,9,9,0,0,0,1.15-.35c.37-.14.74-.3,1.13-.48V68c-.4.18-.78.35-1.15.48a9.6,9.6,0,0,1-1.16.34,9.85,9.85,0,0,1-1.23.19Q211.42,69.07,210.68,69.07ZM210,54.61a3.3,3.3,0,0,0-2.65,1.14,5.61,5.61,0,0,0-1.13,3.33h7.2a8,8,0,0,0-.19-1.83,4.14,4.14,0,0,0-.62-1.41,2.91,2.91,0,0,0-1.06-.91A3.51,3.51,0,0,0,210,54.61Z"/><path d="M229.89,68.78V58.42a4.52,4.52,0,0,0-.77-2.86,2.94,2.94,0,0,0-2.41-1,4.68,4.68,0,0,0-2,.38,3.16,3.16,0,0,0-1.3,1.13,5,5,0,0,0-.7,1.83,12.33,12.33,0,0,0-.22,2.49v8.34h-2.66V52.69H222l.38,2.17h.14a5,5,0,0,1,.87-1.09,4.91,4.91,0,0,1,1.11-.77,5.07,5.07,0,0,1,1.27-.46,7,7,0,0,1,1.38-.14,5.36,5.36,0,0,1,4,1.4,6.26,6.26,0,0,1,1.35,4.47v10.5Z"/><path d="M241.86,66.89l.59,0,.64-.08a4,4,0,0,0,.56-.1l.39-.1v2a3.54,3.54,0,0,1-.48.18,5.21,5.21,0,0,1-.65.15c-.23,0-.47.08-.73.1a6.23,6.23,0,0,1-.74,0,5.7,5.7,0,0,1-1.69-.24,3.07,3.07,0,0,1-1.34-.8,3.93,3.93,0,0,1-.89-1.55A8,8,0,0,1,237.2,64V54.7h-2.27V53.51l2.27-1.14L238.35,49h1.53v3.69h4.05v2h-4.05V64a4,4,0,0,0,.47,2.14A1.65,1.65,0,0,0,241.86,66.89Z"/><path d="M253.74,52.4c.28,0,.6,0,.95,0s.65.06.91.1L255.24,55l-.84-.13a8,8,0,0,0-.81-.05,3.77,3.77,0,0,0-1.69.37,3.94,3.94,0,0,0-1.31,1.07,5.26,5.26,0,0,0-.85,1.67,7.32,7.32,0,0,0-.3,2.16v8.67h-2.66V52.69h2.16l.33,3h.11c.25-.42.51-.83.79-1.22a5.42,5.42,0,0,1,.93-1,4.39,4.39,0,0,1,1.17-.72A3.78,3.78,0,0,1,253.74,52.4Z"/><path d="M264.36,69.07a7.73,7.73,0,0,1-2.94-.54,6.26,6.26,0,0,1-2.3-1.59,7.12,7.12,0,0,1-1.48-2.57,10.9,10.9,0,0,1-.53-3.52,12.12,12.12,0,0,1,.48-3.56A8,8,0,0,1,259,54.63,5.84,5.84,0,0,1,261.06,53a6.74,6.74,0,0,1,5.31,0,5.57,5.57,0,0,1,2,1.46,6.63,6.63,0,0,1,1.24,2.27,9.75,9.75,0,0,1,.43,2.94v1.66H259.86a6.67,6.67,0,0,0,1.2,4.16,4.11,4.11,0,0,0,3.33,1.33c.5,0,1,0,1.38-.07a9.26,9.26,0,0,0,1.23-.22,8.52,8.52,0,0,0,1.15-.35c.37-.14.75-.3,1.13-.48V68a12.24,12.24,0,0,1-1.15.48,9,9,0,0,1-1.15.34,9.73,9.73,0,0,1-1.24.19Q265.11,69.07,264.36,69.07Zm-.66-14.46a3.29,3.29,0,0,0-2.64,1.14,5.68,5.68,0,0,0-1.14,3.33h7.21a8,8,0,0,0-.2-1.83,4.13,4.13,0,0,0-.61-1.41,2.94,2.94,0,0,0-1.07-.91A3.48,3.48,0,0,0,263.7,54.61Z"/><path d="M20.31,11.65c6.37,10.43,14.35,23.5,19.24,34.62C42.18,43.2,46.33,38.63,50,34.93V9H18.7Z"/><path d="M40.86,49.37a45.07,45.07,0,0,1,3,10.45c.46,3.45-.19,6.47-1.78,8.28a4.7,4.7,0,0,1-3.6,1.68A5,5,0,0,1,34.92,68a9.65,9.65,0,0,1-2.3-7.33,22.91,22.91,0,0,1,4.8-11.8C32.72,37.74,24.36,24,17.75,13.21L15.19,9H0V74H50V39.23C46.46,42.93,42.85,47,40.86,49.37Z"/><path d="M37.11,66a2.24,2.24,0,0,0,1.38.83,1.76,1.76,0,0,0,1.35-.67c1-1.12,1.39-3.39,1.06-5.91a38.45,38.45,0,0,0-2.16-8,18.91,18.91,0,0,0-3.13,8.68A6.8,6.8,0,0,0,37.11,66Z"/><circle cx="55.5" cy="34.5" r="2.5"/><path d="M18,3a3,3,0,1,1-3-3A3,3,0,0,1,18,3Z"/></svg>