<svg width="78" height="78" viewBox="0 0 78 78" fill="none" xmlns="http://www.w3.org/2000/svg">
<path fill-rule="evenodd" clip-rule="evenodd" d="M39 0C17.4609 0 0 17.4609 0 39C0 60.5391 17.4609 78 39 78C60.5391 78 78 60.5391 78 39C78 17.4609 60.5391 0 39 0ZM37.9138 33.0492L37.832 31.6997C37.5864 28.202 39.7415 25.0073 43.1515 23.768C44.4064 23.3274 46.5342 23.2723 47.9254 23.6579C48.471 23.8231 49.5077 24.3739 50.2442 24.8696L51.5809 25.7785L53.054 25.3103C53.8724 25.0624 54.9636 24.6493 55.4546 24.3739C55.9184 24.126 56.3276 23.9883 56.3276 24.071C56.3276 24.5392 55.3182 26.1365 54.4726 27.0178C53.3268 28.2571 53.6542 28.3673 55.9729 27.5411C57.3642 27.0729 57.3915 27.0729 57.1187 27.5962C56.955 27.8716 56.1093 28.8355 55.2091 29.7168C53.6815 31.2315 53.5996 31.3968 53.5996 32.6636C53.5996 34.619 52.6721 38.695 51.7446 40.9258C50.026 45.112 46.3432 49.4358 42.6605 51.6115C37.4773 54.6685 30.5756 55.4397 24.765 53.6495C22.8281 53.0436 19.5 51.5014 19.5 51.226C19.5 51.1433 20.5093 51.0332 21.7369 51.0056C24.3012 50.9506 26.8655 50.2345 29.0479 48.9676L30.521 48.0863L28.8297 47.508C26.429 46.6818 24.2739 44.7815 23.7284 42.9913C23.5647 42.413 23.6192 42.3854 25.1469 42.3854L26.7291 42.3579L25.3924 41.7245C23.8102 40.9258 22.3644 39.5763 21.6551 38.1993C21.1368 37.2078 20.4821 34.7016 20.673 34.5088C20.7276 34.4262 21.3005 34.5915 21.9552 34.8118C23.8375 35.5003 24.083 35.3351 22.9918 34.1784C20.9458 32.0853 20.3184 28.9732 21.3005 26.0263L21.7642 24.7044L23.5647 26.4945C27.2474 30.1024 31.5849 32.2505 36.5498 32.8839L37.9138 33.0492Z" fill="white"/>
</svg>
