<svg width="78" height="78" viewBox="0 0 78 78" fill="none" xmlns="http://www.w3.org/2000/svg">
<path fill-rule="evenodd" clip-rule="evenodd" d="M39 0C17.4609 0 0 17.4609 0 39C0 60.5391 17.4609 78 39 78C60.5391 78 78 60.5391 78 39C78 17.4609 60.5391 0 39 0ZM55.2526 25.5927C57.0425 26.0838 58.4522 27.5311 58.9306 29.369C59.8 32.6999 59.8 39.65 59.8 39.65C59.8 39.65 59.8 46.5998 58.9306 49.931C58.4522 51.7689 57.0425 53.2162 55.2526 53.7076C52.0087 54.6 39 54.6 39 54.6C39 54.6 25.9912 54.6 22.7471 53.7076C20.9572 53.2162 19.5475 51.7689 19.0691 49.931C18.2 46.5998 18.2 39.65 18.2 39.65C18.2 39.65 18.2 32.6999 19.0691 29.369C19.5475 27.5311 20.9572 26.0838 22.7471 25.5927C25.9912 24.7 39 24.7 39 24.7C39 24.7 52.0087 24.7 55.2526 25.5927Z" fill="white"/>
<path d="M35.1 46.8V33.8L45.5 40.3002L35.1 46.8Z" fill="white"/>
</svg>
