<svg width="118" height="111" viewBox="0 0 118 111" fill="none" xmlns="http://www.w3.org/2000/svg">
<path d="M23.3283 72.1436H11.0721C9.47239 72.1436 8.17078 70.844 8.17078 69.2468V51.2371C8.17078 51.1029 8.27994 50.9897 8.4185 50.9897C8.55706 50.9897 8.66623 51.0987 8.66623 51.2371V69.2468C8.66623 70.5715 9.74531 71.6489 11.0721 71.6489H23.3283C23.4627 71.6489 23.5761 71.7579 23.5761 71.8962C23.5761 72.0346 23.4669 72.1436 23.3283 72.1436Z" fill="#AED5FF"/>
<path d="M23.6139 74.9272H0.247727C0.113367 74.9272 0 74.8182 0 74.6799C0 74.5415 0.109168 74.4326 0.247727 74.4326H23.6181C23.7524 74.4326 23.8658 74.5415 23.8658 74.6799C23.8658 74.8182 23.7524 74.9272 23.6139 74.9272Z" fill="#AED5FF"/>
<path d="M8.50244 55.3706C9.50885 55.3706 10.3247 54.329 10.3247 53.044C10.3247 51.759 9.50885 50.7173 8.50244 50.7173C7.49603 50.7173 6.68018 51.759 6.68018 53.044C6.68018 54.329 7.49603 55.3706 8.50244 55.3706Z" fill="white"/>
<path d="M8.50249 55.618C7.36042 55.618 6.4325 54.4652 6.4325 53.044C6.4325 51.6228 7.36042 50.47 8.50249 50.47C9.64455 50.47 10.5725 51.6228 10.5725 53.044C10.5725 54.4652 9.64455 55.618 8.50249 55.618ZM8.50249 50.9605C7.63334 50.9605 6.92795 51.8953 6.92795 53.044C6.92795 54.1927 7.63334 55.1275 8.50249 55.1275C9.37163 55.1275 10.077 54.1927 10.077 53.044C10.077 51.8953 9.37163 50.9605 8.50249 50.9605Z" fill="#AED5FF"/>
<path d="M75.6114 110.142C75.477 110.142 75.3636 110.033 75.3636 109.894V92.7189C75.3636 92.5847 75.4728 92.4715 75.6114 92.4715C75.7499 92.4715 75.8591 92.5805 75.8591 92.7189V109.894C75.8549 110.033 75.7457 110.142 75.6114 110.142Z" fill="#5480D6"/>
<path d="M98.6584 101.984H80.6205C79.0207 101.984 77.7191 100.684 77.7191 99.0868V92.7189C77.7191 92.5847 77.8283 92.4715 77.9668 92.4715C78.1054 92.4715 78.2146 92.5805 78.2146 92.7189V99.0868C78.2146 100.412 79.2937 101.489 80.6205 101.489H98.6584C98.7927 101.489 98.9061 101.598 98.9061 101.736C98.9061 101.875 98.7927 101.984 98.6584 101.984Z" fill="#AED5FF"/>
<path d="M75.7164 107.337C76.7228 107.337 77.5387 106.295 77.5387 105.01C77.5387 103.725 76.7228 102.684 75.7164 102.684C74.71 102.684 73.8942 103.725 73.8942 105.01C73.8942 106.295 74.71 107.337 75.7164 107.337Z" fill="white"/>
<path d="M75.7164 107.584C74.5743 107.584 73.6464 106.432 73.6464 105.01C73.6464 103.589 74.5743 102.436 75.7164 102.436C76.8584 102.436 77.7863 103.589 77.7863 105.01C77.7863 106.432 76.8584 107.584 75.7164 107.584ZM75.7164 102.927C74.8472 102.927 74.1418 103.862 74.1418 105.01C74.1418 106.159 74.8472 107.094 75.7164 107.094C76.5855 107.094 77.2909 106.159 77.2909 105.01C77.2909 103.862 76.5855 102.927 75.7164 102.927Z" fill="#5480D6"/>
<path d="M78.349 33.4076C78.2147 33.4076 78.1013 33.2986 78.1013 33.1603V0.247351C78.1013 0.113201 78.2105 0 78.349 0C78.4876 0 78.5968 0.109008 78.5968 0.247351V33.1603C78.5968 33.2986 78.4834 33.4076 78.349 33.4076Z" fill="#5480D6"/>
<path d="M84.9706 10.011H97.2184C97.3527 10.011 97.4661 10.12 97.4661 10.2583C97.4661 10.3967 97.3569 10.5057 97.2184 10.5057H84.9706C83.6438 10.5057 82.5647 11.5831 82.5647 12.9078V35.3067C82.5647 35.4409 82.4555 35.5541 82.3169 35.5541C82.1784 35.5541 82.0692 35.4451 82.0692 35.3067V12.9078C82.0692 11.3106 83.3708 10.011 84.9706 10.011Z" fill="#AED5FF"/>
<path d="M54.6469 10.5476C47.5468 10.5476 40.8792 14.6014 36.8525 24.8723C32.9183 34.9168 27.2542 50.122 23.0932 61.3864C18.6509 73.4097 24.0295 86.9966 35.6811 92.3751C42.3151 95.4355 49.8519 97.0327 57.5063 97.0327C74.3643 97.0327 91.7766 89.2855 101.249 72.3742C119.963 38.9623 88.6275 58.4183 84.2986 37.21C81.519 23.5937 67.386 10.5476 54.6469 10.5476Z" fill="#C2E3F9"/>
<path d="M89.2826 12.1826C90.5696 12.1826 91.6129 11.368 91.6129 10.3631C91.6129 9.35827 90.5696 8.5437 89.2826 8.5437C87.9956 8.5437 86.9523 9.35827 86.9523 10.3631C86.9523 11.368 87.9956 12.1826 89.2826 12.1826Z" fill="white"/>
<path d="M89.2826 8.29639C90.706 8.29639 91.8607 9.22284 91.8607 10.3631C91.8607 11.5034 90.706 12.4299 89.2826 12.4299C87.8592 12.4299 86.7046 11.5034 86.7046 10.3631C86.7046 9.22284 87.8634 8.29639 89.2826 8.29639ZM89.2826 11.9352C90.4331 11.9352 91.3694 11.2309 91.3694 10.3631C91.3694 9.49534 90.4331 8.79104 89.2826 8.79104C88.1322 8.79104 87.1958 9.49534 87.1958 10.3631C87.1958 11.2309 88.1322 11.9352 89.2826 11.9352Z" fill="#AED5FF"/>
<path d="M34.4509 33.3322V43.9049L43.621 49.1913L52.7911 43.9049V33.3322L43.621 28.0458L34.4509 33.3322Z" fill="#7EB1ED"/>
<path d="M33.6783 12.8282L41.1689 17.1461V25.7821L33.6783 30.1L26.1877 25.7821V17.1461L33.6783 12.8282ZM33.6783 10.8914L24.5082 16.1777V26.7505L33.6783 32.0368L42.8484 26.7505V16.1777L33.6783 10.8914Z" fill="#5480D6"/>
<path d="M44.2676 16.3077V26.8804L53.4377 32.1668L62.6078 26.8804V16.3077L53.4377 11.0214L44.2676 16.3077Z" fill="#8BB9FC"/>
<path d="M26.2632 37.8807H22.7236C22.606 37.8807 22.5137 37.7885 22.5137 37.6711C22.5137 37.5537 22.606 37.4615 22.7236 37.4615H26.2632C26.3807 37.4615 26.4731 37.5537 26.4731 37.6711C26.4731 37.7885 26.3765 37.8807 26.2632 37.8807Z" fill="#5480D6"/>
<path d="M20.0701 37.8807H16.5305C16.4129 37.8807 16.3206 37.7885 16.3206 37.6711C16.3206 37.5537 16.4129 37.4615 16.5305 37.4615H20.0701C20.1876 37.4615 20.28 37.5537 20.28 37.6711C20.28 37.7885 20.1876 37.8807 20.0701 37.8807Z" fill="#5480D6"/>
<path d="M21.3967 36.556C21.2791 36.556 21.1868 36.4638 21.1868 36.3464V32.8166C21.1868 32.6992 21.2791 32.607 21.3967 32.607C21.5143 32.607 21.6066 32.6992 21.6066 32.8166V36.3464C21.6066 36.4638 21.5143 36.556 21.3967 36.556Z" fill="#5480D6"/>
<path d="M21.3967 42.7353C21.2791 42.7353 21.1868 42.643 21.1868 42.5256V38.9917C21.1868 38.8743 21.2791 38.782 21.3967 38.782C21.5143 38.782 21.6066 38.8743 21.6066 38.9917V42.5256C21.6066 42.643 21.5143 42.7353 21.3967 42.7353Z" fill="#5480D6"/>
<path d="M117.7 51.2874H114.16C114.043 51.2874 113.95 51.1952 113.95 51.0778C113.95 50.9604 114.043 50.8682 114.16 50.8682H117.7C117.817 50.8682 117.91 50.9604 117.91 51.0778C117.91 51.1952 117.817 51.2874 117.7 51.2874Z" fill="#5480D6"/>
<path d="M111.511 51.2874H107.971C107.854 51.2874 107.761 51.1952 107.761 51.0778C107.761 50.9604 107.854 50.8682 107.971 50.8682H111.511C111.628 50.8682 111.721 50.9604 111.721 51.0778C111.721 51.1952 111.628 51.2874 111.511 51.2874Z" fill="#5480D6"/>
<path d="M112.838 49.9626C112.72 49.9626 112.628 49.8704 112.628 49.753V46.219C112.628 46.1016 112.72 46.0094 112.838 46.0094C112.955 46.0094 113.048 46.1016 113.048 46.219V49.753C113.048 49.8662 112.951 49.9626 112.838 49.9626Z" fill="#5480D6"/>
<path d="M112.838 56.142C112.72 56.142 112.628 56.0498 112.628 55.9324V52.3983C112.628 52.2809 112.72 52.1887 112.838 52.1887C112.955 52.1887 113.048 52.2809 113.048 52.3983V55.9324C113.048 56.0498 112.951 56.142 112.838 56.142Z" fill="#5480D6"/>
<path d="M51.817 72.8982C51.0696 72.8982 50.4608 72.2945 50.4608 71.5441V34.3803C50.4608 33.634 51.0654 33.0262 51.817 33.0262H86.818H98.3058C99.0532 33.0262 99.662 33.6299 99.662 34.3803V71.5441C99.662 72.2903 99.0574 72.8982 98.3058 72.8982H51.817Z" fill="#9DC7F9"/>
<path d="M92.0538 69.4899H58.0732C58.0732 67.1758 56.1921 65.2977 53.8744 65.2977V40.6266C56.1921 40.6266 58.0732 38.7485 58.0732 36.4344H92.0538C92.0538 38.7485 93.9348 40.6266 96.2526 40.6266V65.2977C93.9306 65.2977 92.0538 67.1758 92.0538 69.4899Z" fill="#AED5FF"/>
<path d="M83.207 54.6663L83.1902 67.574L86.0328 64.7485L88.8669 67.5866L88.8837 54.6747L83.207 54.6663Z" fill="#8BB9FC"/>
<path d="M88.5521 58.2842L88.5395 66.7943L86.037 64.2874L83.522 66.786L83.5346 58.28H83.8747L83.8621 65.9685L86.037 63.8053L88.2036 65.9769L88.212 58.2842H88.5521Z" fill="#4A7ECC"/>
<path d="M80.0747 52.4151V59.2526L86.0034 62.6692L91.932 59.2526V52.4151L86.0034 48.9943L80.0747 52.4151Z" fill="#5A8FED"/>
<path d="M88.5521 52.5829C88.7285 52.5494 88.8671 52.4445 88.9552 52.302C88.8251 52.2013 88.6529 52.1552 88.4766 52.1888C88.3002 52.2223 88.1617 52.3271 88.0735 52.4697C88.2078 52.5703 88.3758 52.6165 88.5521 52.5829Z" fill="#BDE0FF"/>
<path d="M88.6739 51.8995C88.7075 52.0756 88.8125 52.2139 88.9553 52.3019C89.056 52.172 89.1022 52.0001 89.0686 51.824C89.035 51.6479 88.9301 51.5054 88.7873 51.4216C88.6865 51.5557 88.6404 51.7234 88.6739 51.8995Z" fill="#BDE0FF"/>
<path d="M83.186 60.0072C83.1524 59.8311 83.1986 59.6634 83.2994 59.5292C83.4422 59.6131 83.5471 59.7556 83.5807 59.9317C83.6143 60.1078 83.5681 60.2755 83.4674 60.4096C83.3288 60.3216 83.2196 60.179 83.186 60.0072Z" fill="#BDE0FF"/>
<path d="M83.777 59.6382C83.6006 59.6718 83.4327 59.6256 83.2983 59.525C83.3823 59.3825 83.5251 59.2777 83.7014 59.2442C83.8778 59.2106 84.0457 59.2568 84.1801 59.3574C84.0961 59.4999 83.9533 59.6047 83.777 59.6382Z" fill="#BDE0FF"/>
<path d="M89.0938 53.0523C89.2701 53.0481 89.4297 52.9684 89.5389 52.8427C89.4255 52.7211 89.2659 52.6456 89.0896 52.6498C88.9133 52.654 88.7537 52.7336 88.6445 52.8594C88.7537 52.981 88.9132 53.0565 89.0938 53.0523Z" fill="#BDE0FF"/>
<path d="M89.3331 52.3983C89.3373 52.5744 89.417 52.7337 89.543 52.8427C89.6648 52.7295 89.7403 52.5702 89.7361 52.3941C89.7319 52.218 89.6522 52.0588 89.5262 51.9498C89.4044 52.063 89.3289 52.2222 89.3331 52.3983Z" fill="#BDE0FF"/>
<path d="M82.5227 59.437C82.5186 59.2609 82.5941 59.0974 82.7159 58.9884C82.8418 59.0974 82.9216 59.2525 82.9258 59.4328C82.93 59.6089 82.8544 59.7723 82.7327 59.8813C82.6067 59.7723 82.5269 59.6131 82.5227 59.437Z" fill="#BDE0FF"/>
<path d="M83.1694 59.177C82.993 59.1812 82.8293 59.1057 82.7201 58.9842C82.8293 58.8584 82.9846 58.7788 83.1652 58.7746C83.3415 58.7704 83.5053 58.8459 83.6144 58.9674C83.5053 59.0932 83.3457 59.177 83.1694 59.177Z" fill="#BDE0FF"/>
<path d="M89.5429 53.61C89.7193 53.6393 89.8872 53.5848 90.0174 53.4842C89.9292 53.3458 89.7823 53.2452 89.6059 53.2158C89.4296 53.1865 89.2616 53.241 89.1315 53.3416C89.2238 53.48 89.3666 53.5806 89.5429 53.61Z" fill="#BDE0FF"/>
<path d="M89.8915 53.0062C89.8621 53.1822 89.9167 53.3499 90.0174 53.4799C90.156 53.3918 90.2568 53.2451 90.2861 53.069C90.3155 52.893 90.261 52.7253 90.1602 52.5953C90.0216 52.6876 89.9209 52.8301 89.8915 53.0062Z" fill="#BDE0FF"/>
<path d="M81.9684 58.7578C81.9978 58.5817 82.0985 58.435 82.2371 58.347C82.3421 58.4728 82.3924 58.6446 82.3631 58.8207C82.3337 58.9968 82.2329 59.1435 82.0943 59.2315C81.9894 59.1058 81.939 58.9339 81.9684 58.7578Z" fill="#BDE0FF"/>
<path d="M82.6487 58.6153C82.4723 58.586 82.3254 58.4854 82.2372 58.347C82.3631 58.2422 82.5353 58.1919 82.7116 58.2212C82.888 58.2506 83.035 58.3512 83.1231 58.4896C82.993 58.5944 82.825 58.6447 82.6487 58.6153Z" fill="#BDE0FF"/>
<path d="M89.8916 54.2345C90.0595 54.2932 90.2359 54.2722 90.3786 54.1926C90.3156 54.0417 90.1897 53.9159 90.0217 53.8572C89.8538 53.7985 89.6774 53.8194 89.5347 53.8991C89.5976 54.05 89.7236 54.1758 89.8916 54.2345Z" fill="#BDE0FF"/>
<path d="M90.3407 53.7021C90.282 53.8698 90.303 54.0459 90.3827 54.1884C90.5339 54.1255 90.6599 53.9998 90.7186 53.8321C90.7774 53.6644 90.7564 53.4883 90.6767 53.3458C90.5213 53.4086 90.3953 53.5344 90.3407 53.7021Z" fill="#BDE0FF"/>
<path d="M81.5359 57.9942C81.5947 57.8265 81.7207 57.7008 81.8719 57.6379C81.9516 57.7804 81.9726 57.9565 81.9138 58.1242C81.8551 58.2919 81.7291 58.4176 81.5779 58.4805C81.4982 58.338 81.4772 58.1619 81.5359 57.9942Z" fill="#BDE0FF"/>
<path d="M82.2329 57.9739C82.0649 57.9152 81.939 57.7894 81.876 57.6385C82.0187 57.5588 82.1951 57.5379 82.363 57.5966C82.531 57.6553 82.657 57.781 82.7199 57.9319C82.5772 58.0116 82.4008 58.0326 82.2329 57.9739Z" fill="#BDE0FF"/>
<path d="M90.1267 54.9136C90.282 55.0016 90.4584 55.01 90.6137 54.9555C90.5759 54.7962 90.4752 54.6495 90.3198 54.5615C90.1645 54.4735 89.9881 54.4651 89.8328 54.5196C89.8664 54.6831 89.9713 54.8297 90.1267 54.9136Z" fill="#BDE0FF"/>
<path d="M90.6598 54.4693C90.5716 54.6244 90.5633 54.8004 90.6178 54.9555C90.7774 54.9178 90.9244 54.8172 91.0125 54.6621C91.1007 54.507 91.1091 54.3309 91.0545 54.1758C90.8908 54.2093 90.7438 54.3142 90.6598 54.4693Z" fill="#BDE0FF"/>
<path d="M81.2462 57.1674C81.3344 57.0123 81.4772 56.9117 81.6409 56.874C81.6955 57.0291 81.6871 57.2051 81.5989 57.3602C81.5108 57.5153 81.368 57.616 81.2043 57.6537C81.1497 57.4986 81.1581 57.3225 81.2462 57.1674Z" fill="#BDE0FF"/>
<path d="M81.9349 57.2654C81.7796 57.1774 81.6788 57.0349 81.641 56.8714C81.7963 56.8169 81.9727 56.8253 82.1281 56.9133C82.2834 57.0013 82.3842 57.1438 82.422 57.3073C82.2666 57.3618 82.0903 57.3534 81.9349 57.2654Z" fill="#BDE0FF"/>
<path d="M90.2357 55.6221C90.3743 55.7353 90.5464 55.773 90.7102 55.7479C90.7018 55.5844 90.6262 55.4208 90.4876 55.3118C90.3491 55.1986 90.1769 55.1609 90.0132 55.1861C90.0258 55.3496 90.0972 55.5131 90.2357 55.6221Z" fill="#BDE0FF"/>
<path d="M90.8405 55.2784C90.7271 55.4167 90.6893 55.5886 90.7145 55.7521C90.8782 55.7437 91.042 55.6682 91.1512 55.5299C91.2645 55.3915 91.3023 55.2196 91.2771 55.0562C91.1134 55.0645 90.9538 55.14 90.8405 55.2784Z" fill="#BDE0FF"/>
<path d="M81.1035 56.2997C81.2169 56.1614 81.3765 56.0859 81.5402 56.0775C81.5654 56.241 81.5276 56.4129 81.4142 56.5512C81.3009 56.6896 81.1413 56.7651 80.9776 56.7734C80.9524 56.6099 80.9902 56.4381 81.1035 56.2997Z" fill="#BDE0FF"/>
<path d="M81.767 56.515C81.6284 56.4018 81.5528 56.2425 81.5444 56.079C81.7082 56.0539 81.8803 56.0916 82.0189 56.2048C82.1575 56.318 82.233 56.4773 82.2414 56.6408C82.0777 56.6701 81.9013 56.6282 81.767 56.515Z" fill="#BDE0FF"/>
<path d="M90.2233 56.3432C90.3408 56.4774 90.5046 56.5486 90.6683 56.5486C90.6893 56.3852 90.6431 56.2133 90.5256 56.0791C90.408 55.945 90.2442 55.8737 90.0805 55.8737C90.0637 56.0372 90.1099 56.2091 90.2233 56.3432Z" fill="#BDE0FF"/>
<path d="M90.8782 56.1042C90.7439 56.2216 90.6725 56.3851 90.6725 56.5486C90.8362 56.5695 91.0084 56.5234 91.1427 56.4061C91.2771 56.2887 91.3485 56.1252 91.3485 55.9617C91.1847 55.9408 91.0126 55.9869 90.8782 56.1042Z" fill="#BDE0FF"/>
<path d="M81.1119 55.4209C81.2462 55.3035 81.4184 55.2574 81.5821 55.2783C81.5779 55.4418 81.5108 55.6054 81.3764 55.7228C81.242 55.8402 81.0699 55.8863 80.9061 55.8653C80.9103 55.7018 80.9775 55.5383 81.1119 55.4209Z" fill="#BDE0FF"/>
<path d="M81.7291 55.7478C81.6115 55.6137 81.5653 55.4418 81.5863 55.2783C81.7501 55.2825 81.9138 55.3496 82.0314 55.4837C82.149 55.6179 82.1952 55.7898 82.1742 55.9532C82.0062 55.9532 81.8425 55.882 81.7291 55.7478Z" fill="#BDE0FF"/>
<path d="M90.0889 57.0475C90.1813 57.1984 90.3282 57.299 90.492 57.3284C90.5424 57.1691 90.5256 56.993 90.4332 56.8421C90.3408 56.6911 90.1939 56.5906 90.0301 56.5612C89.9797 56.7205 89.9965 56.8966 90.0889 57.0475Z" fill="#BDE0FF"/>
<path d="M90.7733 56.9301C90.6221 57.0224 90.5213 57.1691 90.4919 57.3326C90.6515 57.3829 90.8278 57.3661 90.979 57.2739C91.1302 57.1816 91.2309 57.0349 91.2603 56.8714C91.1008 56.8211 90.9244 56.8379 90.7733 56.9301Z" fill="#BDE0FF"/>
<path d="M81.2756 54.5573C81.4267 54.4651 81.6073 54.4525 81.7626 54.4986C81.7332 54.6621 81.6325 54.8088 81.4813 54.9011C81.3302 54.9933 81.1496 55.0059 80.9943 54.9598C81.0279 54.7963 81.1244 54.6495 81.2756 54.5573Z" fill="#BDE0FF"/>
<path d="M81.8214 54.985C81.729 54.834 81.7164 54.6538 81.7626 54.4987C81.9264 54.528 82.0733 54.6286 82.1657 54.7795C82.2581 54.9305 82.2707 55.1107 82.2245 55.2658C82.0649 55.2364 81.9138 55.1401 81.8214 54.985Z" fill="#BDE0FF"/>
<path d="M89.8328 57.7224C89.8958 57.8901 90.0259 58.0117 90.1813 58.0704C90.2568 57.9237 90.2736 57.7476 90.2107 57.5799C90.1477 57.4122 90.0175 57.2907 89.8622 57.232C89.7824 57.3787 89.7656 57.5548 89.8328 57.7224Z" fill="#BDE0FF"/>
<path d="M90.5256 57.7224C90.3577 57.7853 90.2359 57.9153 90.1771 58.0704C90.3241 58.1459 90.5004 58.1627 90.6684 58.0998C90.8363 58.0369 90.9581 57.9069 91.0169 57.7518C90.8699 57.6721 90.6936 57.6595 90.5256 57.7224Z" fill="#BDE0FF"/>
<path d="M81.5863 53.7315C81.7542 53.6686 81.9306 53.6853 82.0775 53.7608C82.0188 53.9159 81.897 54.0459 81.729 54.1088C81.5611 54.1717 81.3847 54.1549 81.2378 54.0794C81.2966 53.9243 81.4183 53.7943 81.5863 53.7315Z" fill="#BDE0FF"/>
<path d="M82.0482 54.2513C81.9852 54.0836 82.002 53.9075 82.0776 53.7608C82.233 53.8195 82.3631 53.9411 82.4261 54.1087C82.4891 54.2764 82.4723 54.4525 82.3967 54.5993C82.2414 54.5364 82.1112 54.4148 82.0482 54.2513Z" fill="#BDE0FF"/>
<path d="M89.4632 58.3344C89.4968 58.5105 89.6018 58.653 89.7446 58.7368C89.8453 58.6069 89.8915 58.435 89.8579 58.2589C89.8243 58.0829 89.7194 57.9445 89.5766 57.8565C89.4758 57.9907 89.4297 58.1625 89.4632 58.3344Z" fill="#BDE0FF"/>
<path d="M90.1477 58.456C89.9714 58.4895 89.8328 58.5943 89.7446 58.7369C89.8748 58.8375 90.0469 58.8836 90.2233 58.85C90.3996 58.8165 90.5382 58.7117 90.6264 58.5692C90.4962 58.4686 90.3241 58.4224 90.1477 58.456Z" fill="#BDE0FF"/>
<path d="M82.0314 52.981C82.2077 52.9475 82.3757 52.9936 82.51 53.0942C82.4261 53.2367 82.2833 53.3415 82.107 53.375C81.9306 53.4085 81.7627 53.3625 81.6283 53.2619C81.7123 53.1193 81.855 53.0145 82.0314 52.981Z" fill="#BDE0FF"/>
<path d="M82.3967 53.568C82.3631 53.3919 82.4093 53.2242 82.5101 53.09C82.6528 53.1739 82.7578 53.3164 82.7914 53.4925C82.825 53.6685 82.7788 53.8362 82.678 53.9704C82.5395 53.8866 82.4303 53.744 82.3967 53.568Z" fill="#BDE0FF"/>
<path d="M88.993 58.8752C88.9972 59.0513 89.077 59.2106 89.203 59.3196C89.3247 59.2064 89.4003 59.0471 89.3961 58.871C89.3919 58.695 89.3121 58.5356 89.1862 58.4266C89.0686 58.5356 88.993 58.6991 88.993 58.8752Z" fill="#BDE0FF"/>
<path d="M89.6479 59.1142C89.4716 59.1184 89.312 59.198 89.2029 59.3238C89.3162 59.4453 89.4758 59.5208 89.6521 59.5166C89.8285 59.5124 89.988 59.4327 90.0972 59.307C89.988 59.1854 89.8243 59.11 89.6479 59.1142Z" fill="#BDE0FF"/>
<path d="M82.6024 52.3146C82.7788 52.3104 82.9425 52.3858 83.0517 52.5073C82.9425 52.6331 82.7872 52.7127 82.6066 52.7169C82.4303 52.7211 82.2665 52.6457 82.1573 52.5241C82.2623 52.3984 82.4219 52.3187 82.6024 52.3146Z" fill="#BDE0FF"/>
<path d="M82.8584 52.96C82.8542 52.7839 82.9298 52.6205 83.0516 52.5115C83.1776 52.6205 83.2573 52.7756 83.2615 52.9558C83.2657 53.1319 83.1902 53.2954 83.0684 53.4044C82.9424 53.2954 82.8626 53.1361 82.8584 52.96Z" fill="#BDE0FF"/>
<path d="M88.4387 59.3281C88.4093 59.5041 88.4639 59.6718 88.5647 59.8018C88.7032 59.7137 88.804 59.567 88.8334 59.3909C88.8628 59.2149 88.8082 59.0472 88.7074 58.9172C88.5689 59.0053 88.4639 59.152 88.4387 59.3281Z" fill="#BDE0FF"/>
<path d="M89.0393 59.6717C88.8629 59.6424 88.695 59.6969 88.5648 59.7975C88.653 59.9359 88.8 60.0366 88.9763 60.0659C89.1527 60.0953 89.3206 60.0407 89.4508 59.9401C89.3626 59.8017 89.2156 59.7011 89.0393 59.6717Z" fill="#BDE0FF"/>
<path d="M83.2784 51.761C83.4548 51.7904 83.6017 51.891 83.6899 52.0293C83.564 52.1341 83.3918 52.1845 83.2154 52.1551C83.0391 52.1258 82.8921 52.0252 82.804 51.8868C82.9341 51.782 83.1021 51.7317 83.2784 51.761Z" fill="#BDE0FF"/>
<path d="M83.4211 52.4403C83.4505 52.2642 83.5513 52.1175 83.6899 52.0294C83.7948 52.1552 83.8452 52.3271 83.8158 52.5031C83.7864 52.6792 83.6857 52.8259 83.5471 52.914C83.4463 52.784 83.3917 52.6163 83.4211 52.4403Z" fill="#BDE0FF"/>
<path d="M87.809 59.6717C87.7502 59.8394 87.7712 60.0155 87.851 60.158C88.0022 60.0951 88.1281 59.9694 88.1869 59.8017C88.2457 59.634 88.2247 59.4579 88.1449 59.3154C87.9938 59.3783 87.8678 59.504 87.809 59.6717Z" fill="#BDE0FF"/>
<path d="M88.3423 60.1203C88.1743 60.0616 87.998 60.0826 87.8552 60.1622C87.9182 60.3131 88.0442 60.4389 88.2121 60.4976C88.3801 60.5563 88.5564 60.5353 88.6992 60.4556C88.6362 60.3047 88.5102 60.179 88.3423 60.1203Z" fill="#BDE0FF"/>
<path d="M84.0427 51.3293C84.2107 51.3881 84.3366 51.5139 84.3996 51.6648C84.2569 51.7445 84.0805 51.7654 83.9126 51.7067C83.7446 51.648 83.6186 51.5223 83.5557 51.3713C83.6984 51.2958 83.8748 51.2748 84.0427 51.3293Z" fill="#BDE0FF"/>
<path d="M84.0678 52.0253C84.1266 51.8576 84.2525 51.7318 84.4037 51.6689C84.4835 51.8115 84.5045 51.9876 84.4457 52.1552C84.3869 52.3229 84.2609 52.4487 84.1098 52.5116C84.03 52.369 84.009 52.1929 84.0678 52.0253Z" fill="#BDE0FF"/>
<path d="M87.1288 59.9066C87.0406 60.0617 87.0322 60.2378 87.0868 60.3929C87.2464 60.3552 87.3933 60.2545 87.4815 60.0994C87.5697 59.9443 87.5781 59.7682 87.5235 59.6131C87.364 59.6508 87.217 59.7515 87.1288 59.9066Z" fill="#BDE0FF"/>
<path d="M87.5781 60.439C87.4228 60.351 87.2464 60.3426 87.0911 60.3971C87.1289 60.5564 87.2296 60.7031 87.385 60.7912C87.5403 60.8792 87.7167 60.8876 87.872 60.8331C87.8343 60.6696 87.7335 60.5229 87.5781 60.439Z" fill="#BDE0FF"/>
<path d="M84.874 51.04C85.0294 51.128 85.1301 51.2706 85.1679 51.4341C85.0126 51.4886 84.8362 51.4802 84.6809 51.3922C84.5255 51.3041 84.4248 51.1616 84.387 50.9981C84.5423 50.9436 84.7187 50.9562 84.874 51.04Z" fill="#BDE0FF"/>
<path d="M84.7733 51.7275C84.8615 51.5724 85.0043 51.4718 85.168 51.434C85.2226 51.5891 85.2142 51.7652 85.126 51.9203C85.0379 52.0754 84.8951 52.1761 84.7313 52.2138C84.6768 52.0629 84.6894 51.8826 84.7733 51.7275Z" fill="#BDE0FF"/>
<path d="M86.4192 60.0197C86.3058 60.1581 86.268 60.33 86.2932 60.4935C86.457 60.4851 86.6207 60.4096 86.7299 60.2713C86.8391 60.1329 86.881 59.961 86.8559 59.7975C86.6921 59.8059 86.5326 59.8814 86.4192 60.0197Z" fill="#BDE0FF"/>
<path d="M86.7676 60.6192C86.629 60.506 86.4568 60.4683 86.2931 60.4935C86.3015 60.657 86.3771 60.8204 86.5156 60.9294C86.6542 61.0426 86.8263 61.0804 86.9901 61.0552C86.9817 60.8917 86.9061 60.7324 86.7676 60.6192Z" fill="#BDE0FF"/>
<path d="M85.7431 50.8975C85.8817 51.0107 85.9573 51.1699 85.9657 51.3334C85.8019 51.3586 85.6298 51.3209 85.4912 51.2077C85.3527 51.0945 85.2771 50.9352 85.2687 50.7717C85.4282 50.7466 85.6046 50.7885 85.7431 50.8975Z" fill="#BDE0FF"/>
<path d="M85.5249 51.5598C85.6383 51.4215 85.7978 51.346 85.9616 51.3376C85.9868 51.5011 85.949 51.673 85.8356 51.8114C85.7223 51.9497 85.5627 52.0252 85.3989 52.0336C85.3737 51.8701 85.4115 51.6982 85.5249 51.5598Z" fill="#BDE0FF"/>
<path d="M85.6956 60.0072C85.5612 60.1246 85.4899 60.2881 85.4899 60.4516C85.6536 60.4725 85.8258 60.4264 85.9601 60.309C86.0945 60.1916 86.1658 60.0282 86.1658 59.8646C86.0021 59.8437 85.83 59.8898 85.6956 60.0072Z" fill="#BDE0FF"/>
<path d="M85.9363 60.6569C85.8187 60.5227 85.655 60.4515 85.4912 60.4515C85.4702 60.615 85.5164 60.7869 85.634 60.921C85.7516 61.0552 85.9153 61.1265 86.0791 61.1265C86.1001 60.963 86.0539 60.791 85.9363 60.6569Z" fill="#BDE0FF"/>
<path d="M86.62 50.9101C86.7376 51.0442 86.7838 51.2161 86.7628 51.3796C86.599 51.3754 86.4353 51.3083 86.3177 51.1742C86.2001 51.04 86.154 50.8681 86.1749 50.7047C86.3429 50.7047 86.5024 50.7759 86.62 50.9101Z" fill="#BDE0FF"/>
<path d="M86.2931 51.5222C86.4275 51.4048 86.5997 51.3587 86.7634 51.3797C86.7592 51.5431 86.692 51.7066 86.5577 51.824C86.4233 51.9413 86.2512 51.9874 86.0874 51.9665C86.0874 51.7988 86.1588 51.6395 86.2931 51.5222Z" fill="#BDE0FF"/>
<path d="M84.9909 59.8688C84.8398 59.9611 84.739 60.1078 84.7096 60.2713C84.8691 60.3216 85.0455 60.3048 85.1967 60.2126C85.3478 60.1203 85.4486 59.9736 85.478 59.8101C85.3184 59.764 85.1421 59.7766 84.9909 59.8688Z" fill="#BDE0FF"/>
<path d="M85.1133 60.5521C85.0209 60.4012 84.8739 60.3006 84.7102 60.2712C84.6598 60.4305 84.6766 60.6066 84.7689 60.7576C84.8613 60.9085 85.0083 61.0091 85.172 61.0384C85.2182 60.8833 85.2014 60.7072 85.1133 60.5521Z" fill="#BDE0FF"/>
<path d="M87.4857 51.0694C87.578 51.2203 87.5906 51.4006 87.5444 51.5557C87.3807 51.5264 87.2337 51.4258 87.1414 51.2749C87.049 51.124 87.0364 50.9437 87.0826 50.7886C87.2463 50.8221 87.3975 50.9185 87.4857 51.0694Z" fill="#BDE0FF"/>
<path d="M87.0575 51.6186C87.2086 51.5264 87.3892 51.5138 87.5445 51.56C87.5151 51.7234 87.4143 51.8702 87.2632 51.9624C87.112 52.0546 86.9315 52.0672 86.7761 52.0211C86.8097 51.8576 86.9063 51.7067 87.0575 51.6186Z" fill="#BDE0FF"/>
<path d="M84.3149 59.613C84.147 59.6759 84.0252 59.8059 83.9664 59.9611C84.1134 60.0365 84.2897 60.0533 84.4577 59.9904C84.6256 59.9275 84.7474 59.7975 84.8062 59.6424C84.6592 59.5628 84.4829 59.5502 84.3149 59.613Z" fill="#BDE0FF"/>
<path d="M84.3155 60.3089C84.2525 60.1412 84.1224 60.0197 83.967 59.961C83.8914 60.1077 83.8746 60.2838 83.9376 60.4514C84.0006 60.6191 84.1308 60.7407 84.2861 60.7994C84.3659 60.6485 84.3827 60.4724 84.3155 60.3089Z" fill="#BDE0FF"/>
<path d="M88.3128 51.3796C88.3758 51.5473 88.359 51.7233 88.2834 51.8701C88.1281 51.8114 87.9979 51.6898 87.9349 51.5221C87.872 51.3544 87.8887 51.1783 87.9643 51.0316C88.1197 51.0903 88.2499 51.2119 88.3128 51.3796Z" fill="#BDE0FF"/>
<path d="M87.7964 51.8408C87.9643 51.7779 88.1407 51.7947 88.2876 51.8701C88.2288 52.0253 88.1071 52.1552 87.9391 52.2181C87.7712 52.281 87.5948 52.2642 87.4479 52.1888C87.5067 52.0336 87.6284 51.9079 87.7964 51.8408Z" fill="#BDE0FF"/>
<path d="M84.4332 54.2303C84.8447 54.0291 85.168 53.9159 85.6929 53.287H86.9735V57.3535H87.6411V58.3093H84.7607V57.3535H85.4787V54.6872L84.7607 55.0268L84.4332 54.2303Z" fill="#BDE0FF"/>
<path d="M35.0723 73.2252L24.6257 96.6554L32.0702 93.8089L34.9295 101.242L45.3802 77.8073L35.0723 73.2252Z" fill="#5A8FED"/>
<path d="M41.8575 84.0955L34.9716 99.5395L32.4439 92.9662L25.8602 95.4857L32.7462 80.0417L33.3634 80.3183L27.1409 94.2742L32.8302 92.0943L35.0135 97.7788L41.2403 83.8188L41.8575 84.0955Z" fill="#4A7ECC"/>
<path d="M37.6041 77.8073L48.0507 101.237L50.9142 93.8089L58.3586 96.6596L47.9079 73.2252L37.6041 77.8073Z" fill="#5A8FED"/>
<path d="M50.234 80.0417L57.12 95.4857L50.5363 92.9662L48.0087 99.5354L41.1227 84.0913L41.7399 83.8188L47.9625 97.7747L50.15 92.0943L55.8394 94.2784L49.6168 80.3183L50.234 80.0417Z" fill="#4A7ECC"/>
<path d="M25.2346 61.7973V80.2639L41.2529 89.4993L57.2712 80.2639V61.7973L41.2529 52.566L25.2346 61.7973Z" fill="#8BB9FC"/>
<path d="M43.7679 60.7115C44.1584 60.439 44.3893 60.0239 44.4397 59.5879C44.0114 59.4873 43.5412 59.5628 43.1507 59.8353C42.7602 60.1078 42.5293 60.5228 42.4789 60.9589C42.9114 61.0595 43.3816 60.984 43.7679 60.7115Z" fill="#5A8FED"/>
<path d="M43.3186 58.9088C43.5916 59.2987 44.0072 59.5292 44.4439 59.5795C44.5447 59.1519 44.4691 58.6824 44.1962 58.2926C43.9233 57.9027 43.5076 57.6721 43.0709 57.6218C42.9701 58.0536 43.0457 58.5231 43.3186 58.9088Z" fill="#5A8FED"/>
<path d="M38.784 84.6657C38.511 84.2758 38.4355 83.8063 38.5362 83.3787C38.9729 83.429 39.3886 83.6596 39.6615 84.0495C39.9344 84.4393 40.01 84.9089 39.9092 85.3365C39.4726 85.2862 39.0569 85.0556 38.784 84.6657Z" fill="#5A8FED"/>
<path d="M39.8243 83.1314C39.4338 83.4038 38.9636 83.4793 38.5353 83.3787C38.5857 82.9427 38.8166 82.5277 39.2071 82.2552C39.5976 81.9827 40.0678 81.9072 40.4961 82.0079C40.4457 82.4438 40.2148 82.8589 39.8243 83.1314Z" fill="#5A8FED"/>
<path d="M45.6029 61.2648C46.0353 61.0636 46.3335 60.6947 46.4594 60.2754C46.0521 60.0994 45.5777 60.0951 45.1494 60.2964C44.7169 60.4976 44.4188 60.8665 44.2928 61.2857C44.6959 61.4576 45.1704 61.466 45.6029 61.2648Z" fill="#5A8FED"/>
<path d="M45.4684 59.416C45.67 59.8478 46.0395 60.1454 46.4593 60.2712C46.6315 59.8646 46.6399 59.3908 46.4383 58.9632C46.2368 58.5315 45.8673 58.2338 45.4474 58.108C45.2753 58.5105 45.2669 58.9842 45.4684 59.416Z" fill="#5A8FED"/>
<path d="M36.5376 84.0033C36.3361 83.5715 36.3445 83.0978 36.5166 82.6953C36.9407 82.8211 37.306 83.1229 37.5076 83.5505C37.7091 83.9823 37.7007 84.4561 37.5286 84.8585C37.1087 84.7327 36.7392 84.4309 36.5376 84.0033Z" fill="#5A8FED"/>
<path d="M37.8309 82.6701C37.3984 82.8713 36.924 82.8629 36.5209 82.691C36.6468 82.2676 36.9491 81.9029 37.3774 81.7017C37.8099 81.5005 38.2844 81.5089 38.6874 81.6807C38.5615 82.0999 38.2634 82.4688 37.8309 82.6701Z" fill="#5A8FED"/>
<path d="M47.3117 62.1325C47.7693 62.011 48.1304 61.7008 48.3278 61.3067C47.9583 61.0635 47.4922 60.9755 47.0345 61.0971C46.5769 61.2187 46.2158 61.5289 46.0184 61.9229C46.3837 62.1661 46.8498 62.2541 47.3117 62.1325Z" fill="#5A8FED"/>
<path d="M47.5007 60.2839C47.6224 60.7408 47.9331 61.1013 48.3278 61.2983C48.5714 60.9294 48.6595 60.4641 48.5378 60.0072C48.416 59.5502 48.1053 59.1897 47.7106 58.9926C47.4671 59.3615 47.3789 59.8269 47.5007 60.2839Z" fill="#5A8FED"/>
<path d="M34.4424 82.9553C34.3207 82.4983 34.4089 82.0288 34.6524 81.6641C35.0471 81.8612 35.3578 82.2217 35.4795 82.6786C35.6013 83.1355 35.5131 83.6051 35.2696 83.9698C34.8749 83.7728 34.5642 83.4122 34.4424 82.9553Z" fill="#5A8FED"/>
<path d="M35.9457 81.8653C35.488 81.9869 35.0178 81.8988 34.6525 81.6557C34.8498 81.2616 35.2109 80.9514 35.6686 80.8298C36.1262 80.7082 36.5965 80.7963 36.9618 81.0394C36.7644 81.4335 36.4076 81.7437 35.9457 81.8653Z" fill="#5A8FED"/>
<path d="M48.8442 63.2855C49.3187 63.2435 49.726 63.0004 49.9905 62.6482C49.6672 62.3463 49.2263 62.1787 48.7519 62.2206C48.2774 62.2625 47.8701 62.5056 47.6056 62.8578C47.9247 63.1555 48.3698 63.3274 48.8442 63.2855Z" fill="#5A8FED"/>
<path d="M49.3523 61.4996C49.3943 61.9733 49.6378 62.38 49.9905 62.6441C50.2928 62.3213 50.4608 61.8811 50.4188 61.4073C50.3768 60.9336 50.1333 60.527 49.7806 60.2629C49.4825 60.5815 49.3103 61.0258 49.3523 61.4996Z" fill="#5A8FED"/>
<path d="M32.5572 81.5592C32.5152 81.0855 32.6831 80.6411 32.9854 80.3225C33.3381 80.5866 33.5817 80.9933 33.6236 81.467C33.6656 81.9407 33.4977 82.3851 33.1954 82.7037C32.8427 82.4396 32.5991 82.033 32.5572 81.5592Z" fill="#5A8FED"/>
<path d="M34.2325 80.7459C33.7581 80.7878 33.313 80.6201 32.9939 80.3183C33.2584 79.9662 33.6657 79.723 34.1402 79.6811C34.6146 79.6392 35.0597 79.8069 35.3788 80.1087C35.1101 80.4608 34.7028 80.704 34.2325 80.7459Z" fill="#5A8FED"/>
<path d="M50.1543 64.6857C50.6288 64.7276 51.0739 64.5599 51.393 64.2581C51.1284 63.9059 50.7212 63.6628 50.2467 63.6209C49.7722 63.5789 49.3272 63.7466 49.0081 64.0485C49.2726 64.4006 49.6799 64.6438 50.1543 64.6857Z" fill="#5A8FED"/>
<path d="M50.9647 63.0171C50.9228 63.4909 51.0907 63.9353 51.393 64.2539C51.7457 63.9898 51.9893 63.5831 52.0312 63.1094C52.0732 62.6357 51.9053 62.1913 51.603 61.8727C51.2503 62.1368 51.0067 62.5434 50.9647 63.0171Z" fill="#5A8FED"/>
<path d="M30.945 79.8529C30.987 79.3792 31.2305 78.9725 31.5832 78.7084C31.8855 79.0312 32.0534 79.4714 32.0115 79.9451C31.9695 80.4188 31.7259 80.8255 31.3732 81.0896C31.0709 80.771 30.903 80.3266 30.945 79.8529Z" fill="#5A8FED"/>
<path d="M32.7337 79.3458C32.2592 79.3039 31.8519 79.0607 31.5874 78.7085C31.9107 78.4067 32.3516 78.239 32.826 78.2809C33.3005 78.3228 33.7078 78.566 33.9723 78.9182C33.649 79.2158 33.2081 79.3877 32.7337 79.3458Z" fill="#5A8FED"/>
<path d="M51.204 66.2955C51.6616 66.417 52.1319 66.329 52.4972 66.0859C52.2998 65.6918 51.9388 65.3816 51.4811 65.26C51.0234 65.1384 50.5532 65.2264 50.1879 65.4696C50.3852 65.8637 50.7421 66.1739 51.204 66.2955Z" fill="#5A8FED"/>
<path d="M52.2914 64.7905C52.1697 65.2474 52.2579 65.7169 52.5014 66.0817C52.8961 65.8846 53.2068 65.5241 53.3285 65.0671C53.4503 64.6102 53.3621 64.1407 53.1186 63.7759C52.7281 63.9772 52.4174 64.3335 52.2914 64.7905Z" fill="#5A8FED"/>
<path d="M29.6516 77.8953C29.7733 77.4383 30.084 77.0778 30.4787 76.8807C30.7223 77.2496 30.8104 77.715 30.6887 78.1719C30.5669 78.6289 30.2562 78.9894 29.8615 79.1864C29.618 78.8175 29.5256 78.3522 29.6516 77.8953Z" fill="#5A8FED"/>
<path d="M31.499 77.7023C31.0413 77.5808 30.6803 77.2706 30.4829 76.8765C30.8524 76.6334 31.3185 76.5453 31.7761 76.6669C32.2338 76.7885 32.5949 77.0987 32.7922 77.4927C32.4269 77.7359 31.9609 77.8239 31.499 77.7023Z" fill="#5A8FED"/>
<path d="M51.9555 68.0645C52.388 68.2657 52.8625 68.2574 53.2656 68.0855C53.1396 67.6621 52.8373 67.2974 52.409 67.0962C51.9765 66.895 51.5021 66.9033 51.099 67.0752C51.225 67.4944 51.5273 67.8633 51.9555 68.0645Z" fill="#5A8FED"/>
<path d="M53.295 66.7734C53.0934 67.2052 53.1018 67.6789 53.274 68.0814C53.698 67.9556 54.0633 67.6537 54.2649 67.2261C54.4664 66.7943 54.458 66.3206 54.2859 65.9182C53.8618 66.0439 53.4965 66.3416 53.295 66.7734Z" fill="#5A8FED"/>
<path d="M28.7152 75.7363C28.9168 75.3045 29.2863 75.0068 29.7062 74.881C29.8783 75.2877 29.8867 75.7614 29.6852 76.189C29.4836 76.6208 29.1141 76.9185 28.6943 77.0442C28.5221 76.6418 28.5137 76.1681 28.7152 75.7363Z" fill="#5A8FED"/>
<path d="M30.567 75.8704C30.1345 75.6692 29.8364 75.3003 29.7104 74.881C30.1177 74.7092 30.5922 74.7008 31.0205 74.902C31.4529 75.1032 31.7511 75.4721 31.877 75.8914C31.4739 76.0632 30.9995 76.0716 30.567 75.8704Z" fill="#5A8FED"/>
<path d="M53.707 70.1945C53.8772 69.9517 53.5763 69.4481 53.0349 69.0696C52.4935 68.6911 51.9166 68.5811 51.7464 68.8239C51.5761 69.0666 51.877 69.5702 52.4184 69.9487C52.9598 70.3272 53.5367 70.4372 53.707 70.1945Z" fill="#5A8FED"/>
<path d="M53.9374 68.8988C53.6645 69.2887 53.5889 69.7582 53.6897 70.1858C54.1264 70.1355 54.542 69.9049 54.8149 69.515C55.0879 69.1251 55.1634 68.6556 55.0627 68.228C54.6218 68.2783 54.2103 68.5089 53.9374 68.8988Z" fill="#5A8FED"/>
<path d="M28.1653 73.4497C28.4382 73.0598 28.8539 72.8292 29.2906 72.7789C29.3914 73.2065 29.3158 73.6761 29.0429 74.066C28.7699 74.4559 28.3543 74.6864 27.9176 74.7367C27.8168 74.3049 27.8924 73.8396 28.1653 73.4497Z" fill="#5A8FED"/>
<path d="M29.9708 73.9043C29.5803 73.6318 29.3493 73.2167 29.299 72.7807C29.7272 72.6801 30.1975 72.7556 30.588 73.0281C30.9785 73.3006 31.2094 73.7156 31.2598 74.1516C30.8273 74.248 30.357 74.1768 29.9708 73.9043Z" fill="#5A8FED"/>
<path d="M52.5055 71.8585C52.8414 72.1939 53.2906 72.349 53.7315 72.3238C53.7567 71.8836 53.6013 71.435 53.2654 71.0997C52.9295 70.7643 52.4803 70.6092 52.0394 70.6343C52.01 71.0745 52.1654 71.5231 52.5055 71.8585Z" fill="#5A8FED"/>
<path d="M54.2019 71.1039C53.866 71.4393 53.7106 71.8878 53.7358 72.328C54.1767 72.3532 54.6259 72.1981 54.9618 71.8627C55.2977 71.5273 55.4531 71.0787 55.4279 70.6386C54.987 70.6134 54.5378 70.7685 54.2019 71.1039Z" fill="#5A8FED"/>
<path d="M28.0184 71.103C28.3543 70.7676 28.8036 70.6125 29.2444 70.6376C29.2696 71.0778 29.1143 71.5264 28.7784 71.8618C28.4425 72.1972 27.9932 72.3523 27.5523 72.3271C27.5271 71.8869 27.6825 71.4383 28.0184 71.103Z" fill="#5A8FED"/>
<path d="M29.7189 71.8585C29.383 71.5231 29.2277 71.0745 29.2529 70.6343C29.6938 70.6092 30.143 70.7643 30.4789 71.0997C30.8148 71.435 30.9702 71.8836 30.945 72.3238C30.5041 72.3531 30.0548 72.198 29.7189 71.8585Z" fill="#5A8FED"/>
<path d="M52.2788 73.7575C52.5518 74.1474 52.9674 74.378 53.4041 74.4283C53.5049 74.0007 53.4293 73.5311 53.1564 73.1413C52.8835 72.7514 52.4678 72.5208 52.0311 72.4705C51.9303 72.9023 52.0059 73.3676 52.2788 73.7575Z" fill="#5A8FED"/>
<path d="M54.0801 73.3047C53.6896 73.5772 53.4587 73.9923 53.4083 74.4282C53.8366 74.5289 54.3069 74.4534 54.6973 74.1809C55.0878 73.9084 55.3188 73.4934 55.3692 73.0574C54.9409 72.9568 54.4706 73.0322 54.0801 73.3047Z" fill="#5A8FED"/>
<path d="M28.2829 68.7814C28.6734 68.5089 29.1436 68.4335 29.5719 68.5341C29.5215 68.9701 29.2906 69.3852 28.9001 69.6577C28.5096 69.9302 28.0394 70.0056 27.6111 69.905C27.6615 69.4648 27.8924 69.0539 28.2829 68.7814Z" fill="#5A8FED"/>
<path d="M29.8239 69.8211C29.551 69.4313 29.4754 68.9617 29.5762 68.5341C30.0128 68.5844 30.4285 68.815 30.7014 69.2049C30.9743 69.5947 31.0499 70.0643 30.9491 70.4919C30.5125 70.4416 30.0968 70.211 29.8239 69.8211Z" fill="#5A8FED"/>
<path d="M51.7205 75.5854C51.922 76.0172 52.2915 76.3148 52.7114 76.4406C52.8836 76.0339 52.8919 75.5602 52.6904 75.1326C52.4889 74.705 52.1194 74.4032 51.6995 74.2774C51.5274 74.6841 51.519 75.1578 51.7205 75.5854Z" fill="#5A8FED"/>
<path d="M53.5763 75.4554C53.1438 75.6566 52.8457 76.0255 52.7197 76.4448C53.127 76.6166 53.6015 76.6251 54.0297 76.4238C54.4622 76.2226 54.7603 75.8536 54.8863 75.4344C54.4832 75.2625 54.0088 75.2541 53.5763 75.4554Z" fill="#5A8FED"/>
<path d="M28.9505 66.5385C29.383 66.3373 29.8575 66.3457 30.2606 66.5176C30.1346 66.941 29.8323 67.3057 29.404 67.5069C28.9715 67.7082 28.4971 67.6997 28.094 67.5279C28.22 67.1045 28.5181 66.7398 28.9505 66.5385Z" fill="#5A8FED"/>
<path d="M30.2858 67.8298C30.0843 67.398 30.0927 66.9242 30.2648 66.5218C30.6889 66.6476 31.0542 66.9494 31.2557 67.377C31.4573 67.8088 31.4489 68.2825 31.2767 68.6849C30.8568 68.5592 30.4873 68.2615 30.2858 67.8298Z" fill="#5A8FED"/>
<path d="M50.8554 77.2915C50.9772 77.7485 51.2879 78.109 51.6826 78.3061C51.9261 77.9372 52.0143 77.4718 51.8925 77.0148C51.7708 76.5579 51.4601 76.1974 51.0654 76.0004C50.8218 76.3693 50.7295 76.8346 50.8554 77.2915Z" fill="#5A8FED"/>
<path d="M52.7027 77.4844C52.2451 77.606 51.884 77.9162 51.6866 78.3103C52.0561 78.5535 52.5222 78.6415 52.9799 78.5199C53.4375 78.3984 53.7986 78.0881 53.996 77.694C53.6307 77.4509 53.1646 77.3628 52.7027 77.4844Z" fill="#5A8FED"/>
<path d="M30.0002 64.4425C30.4579 64.3209 30.9282 64.4089 31.2935 64.6521C31.0961 65.0461 30.735 65.3564 30.2774 65.4779C29.8197 65.5995 29.3494 65.5115 28.9841 65.2683C29.1815 64.8785 29.5384 64.5682 30.0002 64.4425Z" fill="#5A8FED"/>
<path d="M31.0877 65.9475C30.9659 65.4905 31.0541 65.021 31.2976 64.6562C31.6923 64.8533 32.003 65.2138 32.1248 65.6708C32.2466 66.1277 32.1584 66.5972 31.9149 66.9619C31.5244 66.7649 31.2137 66.4086 31.0877 65.9475Z" fill="#5A8FED"/>
<path d="M49.7008 78.8218C49.7428 79.2955 49.9863 79.7021 50.339 79.9662C50.6414 79.6434 50.8093 79.2033 50.7673 78.7295C50.7253 78.2558 50.4818 77.8491 50.1291 77.585C49.8268 77.9078 49.6588 78.348 49.7008 78.8218Z" fill="#5A8FED"/>
<path d="M51.4895 79.3331C51.0151 79.3751 50.6078 79.6182 50.3433 79.9703C50.6666 80.2722 51.1074 80.4399 51.5819 80.3979C52.0564 80.356 52.4636 80.1129 52.7282 79.7607C52.4049 79.4589 51.964 79.2912 51.4895 79.3331Z" fill="#5A8FED"/>
<path d="M31.3983 62.5644C31.8728 62.5225 32.3179 62.6902 32.637 62.992C32.3724 63.3441 31.9652 63.5873 31.4907 63.6292C31.0163 63.6711 30.5712 63.5034 30.2521 63.2016C30.5166 62.8495 30.9239 62.6063 31.3983 62.5644Z" fill="#5A8FED"/>
<path d="M32.2088 64.2329C32.1668 63.7592 32.3347 63.3148 32.637 62.9962C32.9897 63.2603 33.2333 63.667 33.2753 64.1407C33.3173 64.6144 33.1493 65.0587 32.847 65.3773C32.4943 65.1132 32.2508 64.7066 32.2088 64.2329Z" fill="#5A8FED"/>
<path d="M48.2941 80.1338C48.2521 80.6076 48.4201 81.0519 48.7224 81.3705C49.0751 81.1064 49.3186 80.6998 49.3606 80.2261C49.4026 79.7523 49.2346 79.308 48.9323 78.9894C48.5796 79.2535 48.3361 79.6601 48.2941 80.1338Z" fill="#5A8FED"/>
<path d="M49.9695 80.9429C49.495 80.901 49.0499 81.0687 48.7308 81.3705C48.9954 81.7227 49.4026 81.9658 49.8771 82.0077C50.3516 82.0497 50.7966 81.882 51.1157 81.5801C50.8512 81.228 50.4439 80.9849 49.9695 80.9429Z" fill="#5A8FED"/>
<path d="M33.1031 60.9504C33.5776 60.9923 33.9849 61.2355 34.2494 61.5876C33.9261 61.8894 33.4852 62.0571 33.0108 62.0152C32.5363 61.9733 32.129 61.7301 31.8645 61.378C32.1878 61.0804 32.6329 60.9127 33.1031 60.9504Z" fill="#5A8FED"/>
<path d="M33.6154 62.7363C33.6574 62.2625 33.9009 61.8559 34.2536 61.5918C34.5559 61.9146 34.7239 62.3548 34.6819 62.8285C34.6399 63.3022 34.3964 63.7089 34.0437 63.973C33.7413 63.6544 33.5734 63.21 33.6154 62.7363Z" fill="#5A8FED"/>
<path d="M46.6818 81.1777C46.5601 81.6347 46.6482 82.1042 46.8918 82.4689C47.2864 82.2719 47.5971 81.9114 47.7189 81.4545C47.8407 80.9975 47.7525 80.5279 47.509 80.1632C47.1185 80.3602 46.8078 80.7208 46.6818 81.1777Z" fill="#5A8FED"/>
<path d="M48.1892 82.2677C47.7316 82.1462 47.2613 82.2342 46.896 82.4773C47.0933 82.8714 47.4544 83.1816 47.9121 83.3032C48.3698 83.4248 48.84 83.3367 49.2053 83.0936C49.008 82.6995 48.6511 82.3893 48.1892 82.2677Z" fill="#5A8FED"/>
<path d="M35.0681 59.6592C35.5258 59.7807 35.8869 60.0909 36.0842 60.485C35.7147 60.7282 35.2487 60.8162 34.791 60.6946C34.3333 60.5731 33.9722 60.2628 33.7749 59.8688C34.1402 59.6256 34.6105 59.5376 35.0681 59.6592Z" fill="#5A8FED"/>
<path d="M35.2613 61.5079C35.3831 61.051 35.6938 60.6905 36.0885 60.4935C36.332 60.8624 36.4202 61.3277 36.2984 61.7846C36.1766 62.2416 35.8659 62.6021 35.4713 62.7992C35.2277 62.4303 35.1353 61.9649 35.2613 61.5079Z" fill="#5A8FED"/>
<path d="M44.9142 81.9323C44.7127 82.3641 44.7211 82.8379 44.8932 83.2403C45.3173 83.1146 45.6826 82.8127 45.8841 82.3851C46.0857 81.9533 46.0773 81.4796 45.9051 81.0771C45.4811 81.2029 45.1116 81.5005 44.9142 81.9323Z" fill="#5A8FED"/>
<path d="M46.2075 83.2654C45.775 83.0642 45.3005 83.0726 44.8975 83.2445C45.0234 83.6679 45.3257 84.0327 45.754 84.2339C46.1865 84.4351 46.6609 84.4267 47.064 84.2548C46.9381 83.8356 46.6358 83.4667 46.2075 83.2654Z" fill="#5A8FED"/>
<path d="M37.2263 58.7243C37.6587 58.9255 37.9569 59.2945 38.0828 59.7137C37.6755 59.8856 37.2011 59.894 36.7728 59.6928C36.3403 59.4915 36.0422 59.1226 35.9163 58.7034C36.3235 58.5315 36.798 58.523 37.2263 58.7243Z" fill="#5A8FED"/>
<path d="M37.0961 60.5773C37.2976 60.1455 37.6671 59.8478 38.087 59.722C38.2592 60.1287 38.2676 60.6024 38.066 61.03C37.8645 61.4618 37.495 61.7595 37.0751 61.8852C36.903 61.4828 36.8946 61.0091 37.0961 60.5773Z" fill="#5A8FED"/>
<path d="M43.0373 82.3684C42.7643 82.7582 42.6888 83.2278 42.7895 83.6554C43.2262 83.6051 43.6419 83.3745 43.9148 82.9846C44.1877 82.5947 44.2633 82.1252 44.1625 81.6976C43.7217 81.7521 43.3102 81.9827 43.0373 82.3684Z" fill="#5A8FED"/>
<path d="M44.0786 83.907C43.6881 83.6345 43.2178 83.559 42.7896 83.6596C42.8399 84.0956 43.0709 84.5106 43.4614 84.7831C43.8518 85.0556 44.3221 85.131 44.7504 85.0304C44.7 84.5944 44.4691 84.1794 44.0786 83.907Z" fill="#5A8FED"/>
<path d="M39.5188 58.1793C39.9092 58.4518 40.1402 58.8668 40.1906 59.3028C39.7623 59.4034 39.292 59.328 38.9015 59.0555C38.5111 58.783 38.2801 58.368 38.2297 57.932C38.658 57.8314 39.1283 57.9069 39.5188 58.1793Z" fill="#5A8FED"/>
<path d="M39.0653 59.9777C39.3383 59.5879 39.7539 59.3573 40.1906 59.307C40.2914 59.7346 40.2158 60.2042 39.9429 60.594C39.67 60.9839 39.2543 61.2145 38.8176 61.2648C38.7168 60.8372 38.7924 60.3676 39.0653 59.9777Z" fill="#5A8FED"/>
<path d="M41.1102 82.4773C40.7743 82.8127 40.6189 83.2613 40.6441 83.7014C41.085 83.7266 41.5343 83.5715 41.8702 83.2361C42.2061 82.9007 42.3614 82.4522 42.3362 82.012C41.8953 81.9868 41.4461 82.1419 41.1102 82.4773Z" fill="#5A8FED"/>
<path d="M41.8702 84.1752C41.5343 83.8398 41.085 83.6847 40.6441 83.7098C40.6189 84.15 40.7743 84.5985 41.1102 84.9339C41.4461 85.2693 41.8953 85.4244 42.3362 85.3992C42.3614 84.9591 42.2061 84.5105 41.8702 84.1752Z" fill="#5A8FED"/>
<path d="M41.8702 58.0326C42.2061 58.368 42.3614 58.8165 42.3362 59.2567C41.8953 59.2819 41.4461 59.1268 41.1102 58.7914C40.7743 58.456 40.6189 58.0074 40.6441 57.5673C41.085 57.5421 41.5343 57.6973 41.8702 58.0326Z" fill="#5A8FED"/>
<path d="M41.1102 59.7263C41.4461 59.3909 41.8953 59.2358 42.3362 59.2609C42.3614 59.7011 42.2061 60.1497 41.8702 60.4851C41.5343 60.8204 41.085 60.9756 40.6441 60.9504C40.6189 60.5102 40.7743 60.0616 41.1102 59.7263Z" fill="#5A8FED"/>
<path d="M58.8235 43.8072L91.6453 43.8188L91.6453 43.5756L58.8236 43.5641L58.8235 43.8072Z" fill="#4A7ECC"/>
<path d="M58.822 44.9671L91.6438 44.9786L91.6439 44.7355L58.8221 44.7239L58.822 44.9671Z" fill="#4A7ECC"/>
<path d="M58.6663 52.25L77.2123 52.2615L77.2124 52.0183L58.6665 52.0068L58.6663 52.25Z" fill="#4A7ECC"/>
<path d="M58.6693 53.4098L77.2152 53.4213L77.2154 53.1782L58.6694 53.1667L58.6693 53.4098Z" fill="#4A7ECC"/>
<path d="M58.6679 54.5696L77.2139 54.5811L77.214 54.338L58.6681 54.3265L58.6679 54.5696Z" fill="#4A7ECC"/>
<path d="M58.6328 55.7089L77.1787 55.7205L77.1789 55.4773L58.6329 55.4658L58.6328 55.7089Z" fill="#4A7ECC"/>
<path d="M58.6663 58.9576L77.2123 58.9691L77.2124 58.726L58.6665 58.7144L58.6663 58.9576Z" fill="#4A7ECC"/>
<path d="M58.6694 60.1173L77.2153 60.1288L77.2155 59.8856L58.6695 59.8741L58.6694 60.1173Z" fill="#4A7ECC"/>
<path d="M58.6678 61.2772L77.2137 61.2887L77.2139 61.0455L58.6679 61.034L58.6678 61.2772Z" fill="#4A7ECC"/>
<path d="M58.6328 62.4164L77.1787 62.428L77.1789 62.1848L58.6329 62.1732L58.6328 62.4164Z" fill="#4A7ECC"/>
<path d="M58.6313 63.5761L77.1772 63.5876L77.1774 63.3445L58.6314 63.333L58.6313 63.5761Z" fill="#4A7ECC"/>
<path d="M58.6299 64.7403L77.1759 64.7518L77.1761 64.5085L58.6301 64.497L58.6299 64.7403Z" fill="#4A7ECC"/>
</svg>
