<svg width="124" height="116" viewBox="0 0 124 116" fill="none" xmlns="http://www.w3.org/2000/svg">
<path d="M25.0099 75.5808H12.3595C10.7083 75.5808 9.36478 74.2374 9.36478 72.5862V53.968C9.36478 53.8293 9.47746 53.7123 9.62047 53.7123C9.76349 53.7123 9.87617 53.825 9.87617 53.968V72.5862C9.87617 73.9557 10.99 75.0695 12.3595 75.0695H25.0099C25.1486 75.0695 25.2656 75.1821 25.2656 75.3251C25.2656 75.4682 25.1529 75.5808 25.0099 75.5808Z" fill="#1A4672" stroke="#1A4672" stroke-miterlimit="10" stroke-linecap="round" stroke-linejoin="round"/>
<path d="M25.3089 78.4585H1.18685C1.04817 78.4585 0.931152 78.3458 0.931152 78.2028C0.931152 78.0598 1.04383 77.9471 1.18685 77.9471H25.3089C25.4476 77.9471 25.5646 78.0598 25.5646 78.2028C25.5646 78.3458 25.4476 78.4585 25.3089 78.4585Z" fill="#1A4672" stroke="#1A4672" stroke-miterlimit="10" stroke-linecap="round" stroke-linejoin="round"/>
<path d="M9.70721 58.2412C10.746 58.2412 11.5881 57.1644 11.5881 55.836C11.5881 54.5076 10.746 53.4307 9.70721 53.4307C8.66842 53.4307 7.82632 54.5076 7.82632 55.836C7.82632 57.1644 8.66842 58.2412 9.70721 58.2412Z" fill="#6894C5"/>
<path d="M9.70713 58.4969C8.52833 58.4969 7.57056 57.3051 7.57056 55.8359C7.57056 54.3667 8.52833 53.1749 9.70713 53.1749C10.8859 53.1749 11.8437 54.3667 11.8437 55.8359C11.8437 57.3051 10.8859 58.4969 9.70713 58.4969ZM9.70713 53.682C8.81003 53.682 8.08195 54.6484 8.08195 55.8359C8.08195 57.0234 8.81003 57.9898 9.70713 57.9898C10.6042 57.9898 11.3323 57.0234 11.3323 55.8359C11.3323 54.6484 10.6042 53.682 9.70713 53.682Z" fill="#1A4672" stroke="#1A4672" stroke-miterlimit="10" stroke-linecap="round" stroke-linejoin="round"/>
<path d="M78.9747 114.863C78.8361 114.863 78.7191 114.75 78.7191 114.607V96.8513C78.7191 96.7126 78.8317 96.5955 78.9747 96.5955C79.1178 96.5955 79.2304 96.7082 79.2304 96.8513V114.607C79.2304 114.746 79.1134 114.863 78.9747 114.863Z" fill="#1A4672" stroke="#1A4672" stroke-miterlimit="10" stroke-linecap="round" stroke-linejoin="round"/>
<path d="M102.763 106.425H84.145C82.4938 106.425 81.1503 105.081 81.1503 103.43V96.847C81.1503 96.7083 81.263 96.5912 81.406 96.5912C81.549 96.5912 81.6617 96.704 81.6617 96.847V103.43C81.6617 104.8 82.7755 105.913 84.145 105.913H102.763C102.902 105.913 103.019 106.026 103.019 106.169C103.019 106.312 102.906 106.425 102.763 106.425Z" fill="#1A4672" stroke="#1A4672" stroke-miterlimit="10" stroke-linecap="round" stroke-linejoin="round"/>
<path d="M79.0831 111.959C80.1219 111.959 80.964 110.882 80.964 109.554C80.964 108.225 80.1219 107.148 79.0831 107.148C78.0443 107.148 77.2022 108.225 77.2022 109.554C77.2022 110.882 78.0443 111.959 79.0831 111.959Z" fill="#6894C5"/>
<path d="M79.0831 112.215C77.9043 112.215 76.9465 111.023 76.9465 109.554C76.9465 108.085 77.9043 106.893 79.0831 106.893C80.2619 106.893 81.2196 108.085 81.2196 109.554C81.2196 111.023 80.2619 112.215 79.0831 112.215ZM79.0831 107.404C78.186 107.404 77.4579 108.371 77.4579 109.558C77.4579 110.745 78.186 111.712 79.0831 111.712C79.9802 111.712 80.7082 110.745 80.7082 109.558C80.7082 108.371 79.9802 107.404 79.0831 107.404Z" fill="#1A4672" stroke="#1A4672" stroke-miterlimit="10" stroke-linecap="round" stroke-linejoin="round"/>
<path d="M81.8004 35.5362C81.6617 35.5362 81.5447 35.4236 81.5447 35.2806V1.25571C81.5447 1.11702 81.6574 1 81.8004 1C81.9434 1 82.0561 1.11269 82.0561 1.25571V35.2806C82.0561 35.4193 81.9434 35.5362 81.8004 35.5362Z" fill="#1A4672" stroke="#1A4672" stroke-miterlimit="10" stroke-linecap="round" stroke-linejoin="round"/>
<path d="M88.6348 11.3492H101.277C101.415 11.3492 101.532 11.4618 101.532 11.6049C101.532 11.7479 101.42 11.8606 101.277 11.8606H88.6348C87.2653 11.8606 86.1515 12.9744 86.1515 14.3439V37.4995C86.1515 37.6382 86.0388 37.7552 85.8958 37.7552C85.7528 37.7552 85.6401 37.6425 85.6401 37.4995V14.3439C85.6401 12.6883 86.9836 11.3492 88.6348 11.3492Z" fill="#1A4672" stroke="#1A4672" stroke-miterlimit="10" stroke-linecap="round" stroke-linejoin="round"/>
<path d="M57.3359 11.9039C50.0074 11.9039 43.1253 16.0947 38.9692 26.7126C34.9084 37.0964 29.062 52.8153 24.7672 64.4603C20.182 76.8897 25.7337 90.9356 37.76 96.4959C44.6075 99.6596 52.3867 101.311 60.2873 101.311C77.6876 101.311 95.66 93.3019 105.437 75.8192C124.753 41.2786 92.4096 61.3919 87.9414 39.4671C85.0724 25.3908 70.4848 11.9039 57.3359 11.9039Z" fill="#D9EFFF"/>
<path d="M93.0856 13.5941C94.414 13.5941 95.4909 12.752 95.4909 11.7132C95.4909 10.6744 94.414 9.83234 93.0856 9.83234C91.7572 9.83234 90.6804 10.6744 90.6804 11.7132C90.6804 12.752 91.7572 13.5941 93.0856 13.5941Z" fill="#6894C5"/>
<path d="M93.0857 9.57666C94.5549 9.57666 95.7467 10.5344 95.7467 11.7132C95.7467 12.892 94.5549 13.8498 93.0857 13.8498C91.6165 13.8498 90.4247 12.892 90.4247 11.7132C90.4247 10.5344 91.6209 9.57666 93.0857 9.57666ZM93.0857 13.3384C94.2732 13.3384 95.2396 12.6103 95.2396 11.7132C95.2396 10.8161 94.2732 10.088 93.0857 10.088C91.8982 10.088 90.9318 10.8161 90.9318 11.7132C90.9318 12.6103 91.9026 13.3384 93.0857 13.3384Z" fill="#1A4672" stroke="#1A4672" stroke-miterlimit="10" stroke-linecap="round" stroke-linejoin="round"/>
<path d="M36.4902 35.4583V46.3882L45.9596 51.8531L55.4247 46.3882V35.4583L45.9596 29.9933L36.4902 35.4583Z" fill="#89B2E0"/>
<path d="M35.6928 14.2615L43.4244 18.7254V27.653L35.6928 32.1169L27.9613 27.653V18.7254L35.6928 14.2615ZM35.6928 12.2593L26.2277 17.7242V28.6542L35.6928 34.1191L45.1579 28.6542V17.7242L35.6928 12.2593Z" fill="#4F74AA"/>
<path d="M46.6227 17.8586V28.7885L56.0878 34.2535L65.5572 28.7885V17.8586L56.0878 12.3937L46.6227 17.8586Z" fill="#6894C5"/>
<path d="M28.0394 40.1605H24.3859C24.2646 40.1605 24.1693 40.0652 24.1693 39.9438C24.1693 39.8225 24.2646 39.7271 24.3859 39.7271H28.0394C28.1607 39.7271 28.2561 39.8225 28.2561 39.9438C28.2561 40.0652 28.1607 40.1605 28.0394 40.1605Z" fill="#1A4672" stroke="#1A4672" stroke-miterlimit="10" stroke-linecap="round" stroke-linejoin="round"/>
<path d="M21.6469 40.1605H17.9935C17.8721 40.1605 17.7768 40.0652 17.7768 39.9438C17.7768 39.8225 17.8721 39.7271 17.9935 39.7271H21.6469C21.7683 39.7271 21.8636 39.8225 21.8636 39.9438C21.8636 40.0652 21.7683 40.1605 21.6469 40.1605Z" fill="#1A4672" stroke="#1A4672" stroke-miterlimit="10" stroke-linecap="round" stroke-linejoin="round"/>
<path d="M23.0164 38.791C22.895 38.791 22.7997 38.6956 22.7997 38.5743V34.9252C22.7997 34.8039 22.895 34.7086 23.0164 34.7086C23.1377 34.7086 23.2331 34.8039 23.2331 34.9252V38.5743C23.2331 38.6913 23.1377 38.791 23.0164 38.791Z" fill="#1A4672" stroke="#1A4672" stroke-miterlimit="10" stroke-linecap="round" stroke-linejoin="round"/>
<path d="M23.0164 45.1791C22.8951 45.1791 22.7997 45.0837 22.7997 44.9624V41.309C22.7997 41.1876 22.8951 41.0923 23.0164 41.0923C23.1378 41.0923 23.2331 41.1876 23.2331 41.309V44.9624C23.2331 45.0837 23.1378 45.1791 23.0164 45.1791Z" fill="#1A4672" stroke="#1A4672" stroke-miterlimit="10" stroke-linecap="round" stroke-linejoin="round"/>
<path d="M27.0425 103.066H23.3891C23.2677 103.066 23.1724 102.971 23.1724 102.849C23.1724 102.728 23.2677 102.633 23.3891 102.633H27.0425C27.1638 102.633 27.2592 102.728 27.2592 102.849C27.2592 102.971 27.1638 103.066 27.0425 103.066Z" fill="#1A4672" stroke="#1A4672" stroke-miterlimit="10" stroke-linecap="round" stroke-linejoin="round"/>
<path d="M20.6544 103.066H17.001C16.8796 103.066 16.7843 102.971 16.7843 102.849C16.7843 102.728 16.8796 102.633 17.001 102.633H20.6544C20.7757 102.633 20.8711 102.728 20.8711 102.849C20.8711 102.971 20.7714 103.066 20.6544 103.066Z" fill="#1A4672" stroke="#1A4672" stroke-miterlimit="10" stroke-linecap="round" stroke-linejoin="round"/>
<path d="M22.0239 101.696C21.9025 101.696 21.8072 101.601 21.8072 101.48V97.8307C21.8072 97.7094 21.9025 97.614 22.0239 97.614C22.1452 97.614 22.2405 97.7094 22.2405 97.8307V101.48C22.2405 101.597 22.1409 101.696 22.0239 101.696Z" fill="#1A4672" stroke="#1A4672" stroke-miterlimit="10" stroke-linecap="round" stroke-linejoin="round"/>
<path d="M22.0238 108.085C21.9025 108.085 21.8071 107.989 21.8071 107.868V104.214C21.8071 104.093 21.9025 103.998 22.0238 103.998C22.1452 103.998 22.2405 104.093 22.2405 104.214V107.868C22.2405 107.989 22.1408 108.085 22.0238 108.085Z" fill="#1A4672" stroke="#1A4672" stroke-miterlimit="10" stroke-linecap="round" stroke-linejoin="round"/>
<path d="M122.421 54.0157H118.768C118.647 54.0157 118.551 53.9203 118.551 53.799C118.551 53.6776 118.647 53.5823 118.768 53.5823H122.421C122.543 53.5823 122.638 53.6776 122.638 53.799C122.638 53.9203 122.538 54.0157 122.421 54.0157Z" fill="#1A4672" stroke="#1A4672" stroke-miterlimit="10" stroke-linecap="round" stroke-linejoin="round"/>
<path d="M116.029 54.0157H112.376C112.254 54.0157 112.159 53.9203 112.159 53.799C112.159 53.6776 112.254 53.5823 112.376 53.5823H116.029C116.15 53.5823 116.246 53.6776 116.246 53.799C116.246 53.9203 116.15 54.0157 116.029 54.0157Z" fill="#1A4672" stroke="#1A4672" stroke-miterlimit="10" stroke-linecap="round" stroke-linejoin="round"/>
<path d="M117.398 52.6505C117.277 52.6505 117.182 52.5552 117.182 52.4339V48.7804C117.182 48.6591 117.277 48.5637 117.398 48.5637C117.52 48.5637 117.615 48.6591 117.615 48.7804V52.4339C117.615 52.5509 117.52 52.6505 117.398 52.6505Z" fill="#1A4672" stroke="#1A4672" stroke-miterlimit="10" stroke-linecap="round" stroke-linejoin="round"/>
<path d="M117.398 59.0387C117.277 59.0387 117.182 58.9433 117.182 58.822V55.1685C117.182 55.0472 117.277 54.9518 117.398 54.9518C117.52 54.9518 117.615 55.0472 117.615 55.1685V58.822C117.615 58.9433 117.52 59.0387 117.398 59.0387Z" fill="#1A4672" stroke="#1A4672" stroke-miterlimit="10" stroke-linecap="round" stroke-linejoin="round"/>
<path d="M54.4149 76.361C53.6435 76.361 53.015 75.7369 53.015 74.9612V36.5418C53.015 35.7704 53.6391 35.142 54.4149 35.142H90.5417H102.399C103.17 35.142 103.799 35.766 103.799 36.5418V74.9612C103.799 75.7326 103.175 76.361 102.399 76.361H54.4149Z" fill="#4F74AA"/>
<path d="M95.9461 72.8375H60.8724C60.8724 70.4452 58.9308 68.5037 56.5386 68.5037V42.9991C58.9308 42.9991 60.8724 41.0576 60.8724 38.6653H95.9461C95.9461 41.0576 97.8876 42.9991 100.28 42.9991V68.5037C97.8833 68.5037 95.9461 70.4452 95.9461 72.8375Z" fill="#89B2E0"/>
<path d="M86.819 57.5131L86.8016 70.8569L89.7356 67.9359L92.661 70.87L92.6783 57.5218L86.819 57.5131Z" fill="#4F74AA"/>
<path d="M92.3316 61.2532L92.3229 70.0508L89.7356 67.4549L87.1397 70.0422L87.1527 61.2445H87.5037L87.4907 69.1971L89.7356 66.9608L91.9719 69.2014L91.9806 61.2532H92.3316Z" fill="#6894C5"/>
<path d="M83.5815 55.1858V62.2543L89.7009 65.7864L95.8246 62.2543V55.1858L89.7009 51.6494L83.5815 55.1858Z" fill="#6894C5"/>
<path d="M92.3315 55.3592C92.5135 55.3246 92.6565 55.2162 92.7475 55.0688C92.6132 54.9648 92.4355 54.9171 92.2535 54.9518C92.0714 54.9865 91.9284 55.0949 91.8374 55.2422C91.9761 55.3462 92.1538 55.3939 92.3315 55.3592Z" fill="#BDE0FF"/>
<path d="M92.4571 54.6528C92.4918 54.8348 92.6001 54.9778 92.7475 55.0688C92.8515 54.9345 92.8992 54.7568 92.8645 54.5748C92.8298 54.3928 92.7215 54.2498 92.5741 54.1588C92.4701 54.2931 92.4225 54.4708 92.4571 54.6528Z" fill="#BDE0FF"/>
<path d="M86.7971 63.0301C86.7624 62.8481 86.8101 62.6747 86.9141 62.536C87.0615 62.6227 87.1698 62.77 87.2045 62.952C87.2391 63.1341 87.1915 63.3074 87.0875 63.4461C86.9401 63.3594 86.8318 63.2121 86.7971 63.0301Z" fill="#BDE0FF"/>
<path d="M87.4044 62.653C87.2224 62.6877 87.0491 62.64 86.9104 62.536C86.997 62.3887 87.1444 62.2803 87.3264 62.2456C87.5084 62.211 87.6818 62.2586 87.8205 62.3627C87.7338 62.51 87.5864 62.6184 87.4044 62.653Z" fill="#BDE0FF"/>
<path d="M92.8905 55.8447C93.0725 55.8404 93.2372 55.758 93.3499 55.628C93.2329 55.5023 93.0682 55.4243 92.8862 55.4286C92.7042 55.433 92.5395 55.5153 92.4268 55.6453C92.5395 55.771 92.7085 55.8447 92.8905 55.8447Z" fill="#BDE0FF"/>
<path d="M93.1376 55.1685C93.142 55.3506 93.2243 55.5153 93.3543 55.6279C93.48 55.5109 93.558 55.3462 93.5537 55.1642C93.5493 54.9822 93.467 54.8175 93.337 54.7048C93.2113 54.8175 93.1333 54.9865 93.1376 55.1685Z" fill="#BDE0FF"/>
<path d="M86.1082 62.4459C86.1039 62.2638 86.1819 62.0948 86.3076 61.9821C86.4376 62.0948 86.5199 62.2552 86.5243 62.4415C86.5286 62.6235 86.4506 62.7925 86.3249 62.9052C86.1949 62.7925 86.1125 62.6279 86.1082 62.4459Z" fill="#BDE0FF"/>
<path d="M86.7763 62.1764C86.5943 62.1807 86.4253 62.1027 86.3126 61.977C86.4253 61.847 86.5857 61.7646 86.772 61.7603C86.954 61.756 87.123 61.834 87.2357 61.9597C87.123 62.0897 86.9584 62.1721 86.7763 62.1764Z" fill="#BDE0FF"/>
<path d="M93.3586 56.4167C93.5406 56.447 93.714 56.3907 93.8483 56.2867C93.7573 56.1437 93.6056 56.0397 93.4236 56.0093C93.2416 55.979 93.0682 56.0353 92.9339 56.1393C93.0249 56.2867 93.1766 56.3907 93.3586 56.4167Z" fill="#BDE0FF"/>
<path d="M93.7139 55.797C93.6836 55.979 93.7399 56.1523 93.844 56.2867C93.987 56.1957 94.091 56.044 94.1213 55.862C94.1517 55.68 94.0953 55.5066 93.9913 55.3723C93.8483 55.4633 93.7443 55.6149 93.7139 55.797Z" fill="#BDE0FF"/>
<path d="M85.536 61.7435C85.5664 61.5615 85.6704 61.4098 85.8134 61.3188C85.9218 61.4488 85.9738 61.6265 85.9434 61.8085C85.9131 61.9905 85.8091 62.1422 85.6661 62.2332C85.5577 62.0989 85.5057 61.9255 85.536 61.7435Z" fill="#BDE0FF"/>
<path d="M86.238 61.5956C86.056 61.5653 85.9043 61.4613 85.8133 61.3183C85.9433 61.2099 86.121 61.1579 86.303 61.1882C86.4851 61.2186 86.6368 61.3226 86.7278 61.4656C86.5934 61.574 86.4201 61.6259 86.238 61.5956Z" fill="#BDE0FF"/>
<path d="M93.714 57.0668C93.8874 57.1275 94.0694 57.1058 94.2167 57.0235C94.1517 56.8674 94.0217 56.7374 93.8484 56.6767C93.675 56.6161 93.493 56.6377 93.3456 56.7201C93.4106 56.8761 93.5407 57.0061 93.714 57.0668Z" fill="#BDE0FF"/>
<path d="M94.1777 56.5164C94.1171 56.6897 94.1387 56.8718 94.2211 57.0191C94.3771 56.9541 94.5071 56.8241 94.5678 56.6507C94.6285 56.4774 94.6068 56.2954 94.5244 56.148C94.3641 56.213 94.2384 56.343 94.1777 56.5164Z" fill="#BDE0FF"/>
<path d="M85.0897 60.9545C85.1504 60.7811 85.2804 60.6511 85.4364 60.5861C85.5187 60.7335 85.5404 60.9155 85.4797 61.0889C85.4191 61.2622 85.2891 61.3922 85.133 61.4572C85.055 61.3099 85.0334 61.1278 85.0897 60.9545Z" fill="#BDE0FF"/>
<path d="M85.8091 60.9282C85.6357 60.8675 85.5057 60.7375 85.4407 60.5815C85.588 60.4991 85.77 60.4774 85.9434 60.5381C86.1168 60.5988 86.2468 60.7288 86.3118 60.8849C86.1644 60.9672 85.9824 60.9889 85.8091 60.9282Z" fill="#BDE0FF"/>
<path d="M93.9566 57.7689C94.1169 57.8599 94.299 57.8685 94.4593 57.8122C94.4203 57.6475 94.3163 57.4958 94.156 57.4048C93.9956 57.3138 93.8136 57.3052 93.6532 57.3615C93.6879 57.5305 93.7962 57.6778 93.9566 57.7689Z" fill="#BDE0FF"/>
<path d="M94.5071 57.3051C94.4161 57.4655 94.4074 57.6474 94.4637 57.8078C94.6284 57.7688 94.7801 57.6648 94.8711 57.5044C94.9621 57.3441 94.9708 57.1621 94.9144 57.0017C94.7454 57.0407 94.5937 57.1448 94.5071 57.3051Z" fill="#BDE0FF"/>
<path d="M84.7906 60.096C84.8816 59.9357 85.029 59.8317 85.198 59.7927C85.2543 59.953 85.2457 60.135 85.1547 60.2953C85.0636 60.4557 84.9163 60.5597 84.7473 60.5987C84.6909 60.4427 84.7039 60.2564 84.7906 60.096Z" fill="#BDE0FF"/>
<path d="M85.5014 60.2001C85.341 60.1091 85.237 59.9618 85.198 59.7928C85.3583 59.7364 85.5404 59.7451 85.7007 59.8361C85.8611 59.9271 85.9651 60.0744 86.0041 60.2435C85.8481 60.2998 85.6617 60.2868 85.5014 60.2001Z" fill="#BDE0FF"/>
<path d="M94.0737 58.5017C94.2167 58.6187 94.3944 58.6577 94.5634 58.6317C94.5548 58.4627 94.4768 58.2936 94.3337 58.181C94.1907 58.0639 94.013 58.025 93.844 58.051C93.8527 58.22 93.9307 58.3847 94.0737 58.5017Z" fill="#BDE0FF"/>
<path d="M94.6934 58.1415C94.5764 58.2845 94.5374 58.4622 94.5634 58.6312C94.7324 58.6226 94.9014 58.5445 95.0141 58.4015C95.1311 58.2585 95.1701 58.0808 95.1441 57.9118C94.9751 57.9205 94.8104 57.9985 94.6934 58.1415Z" fill="#BDE0FF"/>
<path d="M84.6433 59.2036C84.7604 59.0606 84.925 58.9826 85.0941 58.9739C85.1201 59.143 85.0811 59.3206 84.964 59.4637C84.847 59.6067 84.6823 59.6847 84.5133 59.6934C84.4873 59.5243 84.5307 59.3423 84.6433 59.2036Z" fill="#BDE0FF"/>
<path d="M85.328 59.4244C85.1849 59.3074 85.1069 59.1427 85.0983 58.9736C85.2673 58.9476 85.445 58.9866 85.588 59.1036C85.731 59.2206 85.809 59.3853 85.8177 59.5544C85.6487 59.5847 85.471 59.5414 85.328 59.4244Z" fill="#BDE0FF"/>
<path d="M94.0607 59.2467C94.1821 59.3854 94.3511 59.459 94.5201 59.459C94.5418 59.29 94.4941 59.1123 94.3728 58.9736C94.2514 58.835 94.0824 58.7613 93.9134 58.7613C93.8917 58.9303 93.9394 59.108 94.0607 59.2467Z" fill="#BDE0FF"/>
<path d="M94.7324 58.9996C94.5937 59.121 94.52 59.29 94.52 59.459C94.689 59.4807 94.8667 59.4331 95.0054 59.3117C95.1441 59.1904 95.2178 59.0213 95.2178 58.8523C95.0487 58.8306 94.8711 58.8783 94.7324 58.9996Z" fill="#BDE0FF"/>
<path d="M84.6563 58.2932C84.795 58.1719 84.9726 58.1242 85.1417 58.1459C85.1373 58.3149 85.068 58.4839 84.9293 58.6053C84.7906 58.7266 84.6129 58.7743 84.4439 58.7526C84.4439 58.5836 84.5176 58.4146 84.6563 58.2932Z" fill="#BDE0FF"/>
<path d="M85.289 58.6313C85.1676 58.4926 85.12 58.315 85.1416 58.1459C85.3106 58.1503 85.4797 58.2196 85.601 58.3583C85.7224 58.497 85.77 58.6747 85.7484 58.8437C85.575 58.8437 85.406 58.77 85.289 58.6313Z" fill="#BDE0FF"/>
<path d="M93.9177 59.9747C94.013 60.1307 94.1647 60.2348 94.3337 60.2651C94.3857 60.1004 94.3684 59.9184 94.273 59.7624C94.1777 59.6064 94.026 59.5024 93.857 59.472C93.805 59.6367 93.8223 59.8187 93.9177 59.9747Z" fill="#BDE0FF"/>
<path d="M94.6241 59.8491C94.4681 59.9445 94.364 60.0961 94.3337 60.2652C94.4984 60.3172 94.6804 60.2998 94.8364 60.2045C94.9924 60.1091 95.0965 59.9575 95.1268 59.7884C94.9664 59.7408 94.7844 59.7581 94.6241 59.8491Z" fill="#BDE0FF"/>
<path d="M84.821 57.4005C84.977 57.3052 85.1633 57.2922 85.3237 57.3398C85.2933 57.5088 85.1893 57.6605 85.0333 57.7559C84.8773 57.8512 84.6909 57.8642 84.5306 57.8165C84.5652 57.6475 84.6649 57.4915 84.821 57.4005Z" fill="#BDE0FF"/>
<path d="M85.3887 57.8426C85.2933 57.6866 85.2803 57.5002 85.328 57.3398C85.497 57.3702 85.6487 57.4742 85.744 57.6302C85.8394 57.7862 85.8524 57.9726 85.8047 58.1329C85.6357 58.1026 85.4797 57.9986 85.3887 57.8426Z" fill="#BDE0FF"/>
<path d="M93.6533 60.6725C93.7183 60.8458 93.8527 60.9716 94.013 61.0322C94.0911 60.8805 94.1084 60.6985 94.0434 60.5252C93.9784 60.3518 93.844 60.2261 93.6837 60.1655C93.6013 60.3172 93.5883 60.4991 93.6533 60.6725Z" fill="#BDE0FF"/>
<path d="M94.3683 60.6725C94.195 60.7375 94.0693 60.8719 94.0086 61.0322C94.1603 61.1102 94.3423 61.1276 94.5157 61.0625C94.689 60.9975 94.8147 60.8632 94.8754 60.7029C94.7237 60.6205 94.5417 60.6075 94.3683 60.6725Z" fill="#BDE0FF"/>
<path d="M85.1417 56.5467C85.315 56.4817 85.497 56.499 85.6487 56.577C85.588 56.7374 85.4624 56.8717 85.289 56.9367C85.1157 57.0017 84.9336 56.9844 84.782 56.9064C84.8426 56.7461 84.9683 56.6117 85.1417 56.5467Z" fill="#BDE0FF"/>
<path d="M85.6184 57.0841C85.5534 56.9108 85.5707 56.7287 85.6487 56.577C85.8091 56.6377 85.9434 56.7634 86.0084 56.9367C86.0735 57.1101 86.0561 57.2921 85.9781 57.4438C85.8178 57.3788 85.6877 57.2531 85.6184 57.0841Z" fill="#BDE0FF"/>
<path d="M93.2719 61.3053C93.3066 61.4873 93.415 61.6346 93.5623 61.7213C93.6663 61.587 93.714 61.4093 93.6793 61.2272C93.6447 61.0452 93.5363 60.9022 93.389 60.8112C93.2849 60.9499 93.2373 61.1233 93.2719 61.3053Z" fill="#BDE0FF"/>
<path d="M93.9783 61.4309C93.7963 61.4656 93.6533 61.574 93.5623 61.7213C93.6966 61.8253 93.8743 61.873 94.0563 61.8383C94.2383 61.8037 94.3813 61.6953 94.4724 61.548C94.338 61.444 94.1603 61.3963 93.9783 61.4309Z" fill="#BDE0FF"/>
<path d="M85.601 55.7666C85.7831 55.732 85.9564 55.7796 86.0951 55.8837C86.0084 56.031 85.8611 56.1394 85.6791 56.174C85.497 56.2087 85.3237 56.161 85.185 56.057C85.2717 55.914 85.419 55.8013 85.601 55.7666Z" fill="#BDE0FF"/>
<path d="M85.9781 56.3777C85.9434 56.1957 85.9911 56.0223 86.0951 55.8837C86.2425 55.9703 86.3508 56.1177 86.3855 56.2997C86.4201 56.4817 86.3725 56.6551 86.2685 56.7938C86.1254 56.7071 86.0128 56.5598 85.9781 56.3777Z" fill="#BDE0FF"/>
<path d="M92.7909 61.8643C92.7952 62.0463 92.8775 62.211 93.0075 62.3237C93.1332 62.2067 93.2112 62.042 93.2069 61.86C93.2026 61.678 93.1202 61.5133 92.9902 61.4006C92.8645 61.5133 92.7865 61.6779 92.7909 61.8643Z" fill="#BDE0FF"/>
<path d="M93.4626 62.1114C93.2806 62.1157 93.1159 62.1981 93.0032 62.3281C93.1202 62.4538 93.2849 62.5317 93.467 62.5274C93.649 62.5231 93.8137 62.4407 93.9263 62.3107C93.8137 62.185 93.649 62.107 93.4626 62.1114Z" fill="#BDE0FF"/>
<path d="M86.1904 55.0819C86.3725 55.0776 86.5415 55.1556 86.6542 55.2812C86.5415 55.4113 86.3811 55.4936 86.1948 55.4979C86.0128 55.5023 85.8437 55.4243 85.731 55.2986C85.8437 55.1686 86.0041 55.0862 86.1904 55.0819Z" fill="#BDE0FF"/>
<path d="M86.4548 55.7493C86.4505 55.5673 86.5285 55.3983 86.6542 55.2856C86.7842 55.3983 86.8665 55.5586 86.8708 55.7449C86.8752 55.927 86.7972 56.096 86.6715 56.2087C86.5415 56.096 86.4591 55.9313 86.4548 55.7493Z" fill="#BDE0FF"/>
<path d="M92.2145 62.328C92.1842 62.51 92.2405 62.6834 92.3445 62.8178C92.4875 62.7267 92.5916 62.5751 92.6219 62.393C92.6522 62.211 92.5959 62.0377 92.4919 61.9033C92.3489 61.9987 92.2449 62.146 92.2145 62.328Z" fill="#BDE0FF"/>
<path d="M92.8342 62.6877C92.6522 62.6574 92.4788 62.7137 92.3445 62.8177C92.4355 62.9607 92.5872 63.0648 92.7692 63.0951C92.9512 63.1254 93.1245 63.0691 93.2589 62.9651C93.1679 62.822 93.0162 62.718 92.8342 62.6877Z" fill="#BDE0FF"/>
<path d="M86.8882 54.5098C87.0702 54.5401 87.2219 54.6441 87.3129 54.7871C87.1829 54.8955 87.0052 54.9475 86.8232 54.9172C86.6412 54.8868 86.4895 54.7828 86.3985 54.6398C86.5328 54.5315 86.7062 54.4794 86.8882 54.5098Z" fill="#BDE0FF"/>
<path d="M87.0355 55.2119C87.0659 55.0299 87.1699 54.8782 87.3129 54.7872C87.4212 54.9172 87.4732 55.0949 87.4429 55.2769C87.4126 55.4589 87.3086 55.6106 87.1655 55.7016C87.0615 55.5673 87.0095 55.3939 87.0355 55.2119Z" fill="#BDE0FF"/>
<path d="M91.5644 62.6878C91.5037 62.8611 91.5254 63.0432 91.6077 63.1905C91.7637 63.1255 91.8937 62.9955 91.9544 62.8221C92.0151 62.6488 91.9934 62.4667 91.9111 62.3194C91.755 62.3844 91.625 62.5144 91.5644 62.6878Z" fill="#BDE0FF"/>
<path d="M92.1147 63.1515C91.9414 63.0908 91.7593 63.1124 91.612 63.1948C91.677 63.3508 91.807 63.4808 91.9804 63.5415C92.1537 63.6022 92.3357 63.5805 92.4831 63.4981C92.4181 63.3378 92.2881 63.2078 92.1147 63.1515Z" fill="#BDE0FF"/>
<path d="M87.6813 54.0634C87.8547 54.124 87.9847 54.2541 88.0497 54.4101C87.9024 54.4924 87.7204 54.5141 87.547 54.4534C87.3736 54.3928 87.2436 54.2628 87.1786 54.1068C87.3216 54.0244 87.5037 54.0027 87.6813 54.0634Z" fill="#BDE0FF"/>
<path d="M87.7029 54.7828C87.7636 54.6094 87.8936 54.4794 88.0496 54.4144C88.132 54.5618 88.1536 54.7438 88.093 54.9172C88.0323 55.0905 87.9023 55.2205 87.7463 55.2855C87.6639 55.1382 87.6422 54.9561 87.7029 54.7828Z" fill="#BDE0FF"/>
<path d="M90.8623 62.9304C90.7713 63.0908 90.7626 63.2728 90.819 63.4332C90.9836 63.3941 91.1353 63.2901 91.2263 63.1298C91.3173 62.9694 91.326 62.7874 91.2697 62.627C91.105 62.6617 90.9533 62.7701 90.8623 62.9304Z" fill="#BDE0FF"/>
<path d="M91.3261 63.4808C91.1657 63.3898 90.9837 63.3811 90.8234 63.4375C90.8624 63.6022 90.9664 63.7539 91.1267 63.8449C91.2871 63.9359 91.4691 63.9445 91.6295 63.8882C91.5905 63.7192 91.4864 63.5675 91.3261 63.4808Z" fill="#BDE0FF"/>
<path d="M88.5351 53.7644C88.6954 53.8554 88.7994 54.0027 88.8384 54.1717C88.6781 54.2281 88.4961 54.2194 88.3357 54.1284C88.1754 54.0374 88.0714 53.8901 88.0323 53.7211C88.1927 53.6647 88.3747 53.6734 88.5351 53.7644Z" fill="#BDE0FF"/>
<path d="M88.4353 54.4752C88.5264 54.3148 88.6737 54.2108 88.8427 54.1718C88.8991 54.3321 88.8904 54.5141 88.7994 54.6745C88.7084 54.8348 88.561 54.9389 88.392 54.9779C88.3357 54.8175 88.3443 54.6355 88.4353 54.4752Z" fill="#BDE0FF"/>
<path d="M90.1299 63.0431C90.0129 63.1861 89.9739 63.3638 89.9999 63.5328C90.1689 63.5242 90.3379 63.4462 90.4506 63.3031C90.5633 63.1601 90.6066 62.9824 90.5806 62.8134C90.4116 62.8264 90.2469 62.9001 90.1299 63.0431Z" fill="#BDE0FF"/>
<path d="M90.4897 63.6672C90.3467 63.5502 90.169 63.5112 90 63.5372C90.0086 63.7062 90.0866 63.8752 90.2297 63.9879C90.3727 64.1049 90.5504 64.1439 90.7194 64.1179C90.7107 63.9489 90.6327 63.7842 90.4897 63.6672Z" fill="#BDE0FF"/>
<path d="M89.4321 53.617C89.5751 53.7341 89.6531 53.8987 89.6618 54.0677C89.4928 54.0937 89.3151 54.0548 89.1721 53.9377C89.0291 53.8207 88.9511 53.656 88.9424 53.487C89.1114 53.461 89.2891 53.5 89.4321 53.617Z" fill="#BDE0FF"/>
<path d="M89.2068 54.3018C89.3238 54.1588 89.4885 54.0808 89.6575 54.0721C89.6835 54.2411 89.6445 54.4188 89.5275 54.5618C89.4105 54.7048 89.2458 54.7828 89.0768 54.7915C89.0508 54.6225 89.0898 54.4405 89.2068 54.3018Z" fill="#BDE0FF"/>
<path d="M89.3897 63.0301C89.251 63.1515 89.1773 63.3205 89.1773 63.4895C89.3464 63.5112 89.524 63.4635 89.6627 63.3421C89.8014 63.2208 89.8751 63.0518 89.8751 62.8828C89.7061 62.8655 89.5284 62.9131 89.3897 63.0301Z" fill="#BDE0FF"/>
<path d="M89.6314 63.7062C89.51 63.5675 89.341 63.4938 89.172 63.4938C89.1503 63.6629 89.198 63.8405 89.3193 63.9792C89.4407 64.1179 89.6097 64.1916 89.7787 64.1916C89.8004 64.0226 89.7527 63.8449 89.6314 63.7062Z" fill="#BDE0FF"/>
<path d="M90.3382 53.6257C90.4595 53.7644 90.5072 53.9421 90.4855 54.1111C90.3165 54.1068 90.1475 54.0375 90.0261 53.8988C89.9048 53.7601 89.8571 53.5823 89.8788 53.4133C90.0521 53.4177 90.2212 53.4871 90.3382 53.6257Z" fill="#BDE0FF"/>
<path d="M89.9998 54.2628C90.1385 54.1414 90.3162 54.0937 90.4852 54.1154C90.4809 54.2844 90.4115 54.4534 90.2729 54.5748C90.1342 54.6961 89.9565 54.7438 89.7875 54.7221C89.7918 54.5488 89.8612 54.3798 89.9998 54.2628Z" fill="#BDE0FF"/>
<path d="M88.6566 62.8914C88.5006 62.9868 88.3965 63.1384 88.3662 63.3075C88.5309 63.3595 88.7129 63.3421 88.8689 63.2468C89.025 63.1514 89.129 62.9998 89.1593 62.8308C88.999 62.7787 88.8126 62.7961 88.6566 62.8914Z" fill="#BDE0FF"/>
<path d="M88.7821 63.5978C88.6868 63.4417 88.5351 63.3378 88.3661 63.3074C88.3141 63.4721 88.3314 63.6542 88.4267 63.8102C88.5221 63.9662 88.6738 64.0702 88.8428 64.1005C88.8905 63.9358 88.8775 63.7538 88.7821 63.5978Z" fill="#BDE0FF"/>
<path d="M91.235 53.7947C91.3303 53.9507 91.3433 54.1371 91.2956 54.2975C91.1266 54.2671 90.9749 54.1632 90.8796 54.0071C90.7843 53.8511 90.7713 53.6647 90.8189 53.5044C90.9836 53.5391 91.1396 53.6387 91.235 53.7947Z" fill="#BDE0FF"/>
<path d="M90.7886 54.3581C90.9446 54.2628 91.131 54.2498 91.2914 54.2975C91.261 54.4665 91.157 54.6182 91.001 54.7135C90.845 54.8088 90.6586 54.8218 90.4983 54.7742C90.5329 54.6095 90.6326 54.4535 90.7886 54.3581Z" fill="#BDE0FF"/>
<path d="M87.9633 62.627C87.7899 62.692 87.6642 62.8264 87.6035 62.9868C87.7552 63.0648 87.9373 63.0821 88.1106 63.0171C88.284 62.9521 88.4096 62.8177 88.4703 62.6574C88.3143 62.575 88.1323 62.5577 87.9633 62.627Z" fill="#BDE0FF"/>
<path d="M87.963 63.3422C87.898 63.1688 87.7637 63.0432 87.6033 62.9825C87.5253 63.1342 87.508 63.3162 87.573 63.4895C87.638 63.6629 87.7723 63.7886 87.9327 63.8492C88.0107 63.6976 88.028 63.5155 87.963 63.3422Z" fill="#BDE0FF"/>
<path d="M92.0845 54.1154C92.1495 54.2888 92.1322 54.4708 92.0542 54.6224C91.8938 54.5618 91.7595 54.4361 91.6944 54.2628C91.6294 54.0894 91.6468 53.9074 91.7248 53.7557C91.8851 53.8163 92.0195 53.9421 92.0845 54.1154Z" fill="#BDE0FF"/>
<path d="M91.5514 54.5922C91.7248 54.5272 91.9068 54.5445 92.0585 54.6225C91.9978 54.7829 91.8721 54.9172 91.6988 54.9823C91.5254 55.0473 91.3434 55.0299 91.1917 54.9519C91.2524 54.7915 91.3781 54.6572 91.5514 54.5922Z" fill="#BDE0FF"/>
<path d="M88.08 57.0581C88.5047 56.85 88.8384 56.733 89.3801 56.0829H90.7019V60.2868H91.391V61.2749H88.418V60.2868H89.1591V57.5304L88.418 57.8815L88.08 57.0581Z" fill="#BDE0FF"/>
<path d="M37.1317 76.699L26.3491 100.921L34.033 97.9781L36.9843 105.662L47.7712 81.4358L37.1317 76.699Z" fill="#89B2E0"/>
<path d="M44.135 87.9322L37.0275 103.898L34.4186 97.107L27.6231 99.7116L34.735 83.7458L35.3677 84.0274L28.945 98.4591L34.8216 96.2055L37.0752 102.078L43.498 87.6505L44.135 87.9322Z" fill="#6894C5"/>
<path d="M39.7449 81.4358L50.5275 105.658L53.4832 97.9781L61.167 100.925L50.3802 76.699L39.7449 81.4358Z" fill="#89B2E0"/>
<path d="M52.781 83.7458L59.8885 99.7116L53.093 97.1026L50.4841 103.898L43.3766 87.9322L44.0137 87.6505L50.4364 102.078L52.6943 96.2012L58.5667 98.4591L52.1439 84.0318L52.781 83.7458Z" fill="#6894C5"/>
<path d="M26.9774 64.885V83.9755L43.511 93.5229L60.0445 83.9755V64.885L43.511 55.3376L26.9774 64.885Z" fill="#4F74AA"/>
<path d="M46.1112 63.7625C46.5143 63.4808 46.7527 63.0518 46.8047 62.601C46.3626 62.497 45.8772 62.575 45.4742 62.8567C45.0711 63.1384 44.8328 63.5675 44.7808 64.0182C45.2228 64.1222 45.7082 64.0442 46.1112 63.7625Z" fill="#89B2E0"/>
<path d="M45.6432 61.8989C45.9249 62.302 46.3539 62.5403 46.8047 62.5923C46.9087 62.1503 46.8307 61.6649 46.549 61.2619C46.2673 60.8588 45.8382 60.6204 45.3875 60.5684C45.2835 61.0148 45.3615 61.4959 45.6432 61.8989Z" fill="#89B2E0"/>
<path d="M40.9626 88.526C40.6809 88.1229 40.6029 87.6375 40.7069 87.1955C41.1576 87.2475 41.5866 87.4859 41.8683 87.8889C42.15 88.2919 42.228 88.7774 42.124 89.2194C41.6733 89.1674 41.2443 88.929 40.9626 88.526Z" fill="#89B2E0"/>
<path d="M42.0368 86.9355C41.6338 87.2172 41.1484 87.2952 40.7063 87.1912C40.7583 86.7405 40.9967 86.3114 41.3997 86.0297C41.8028 85.748 42.2882 85.67 42.7302 85.774C42.6782 86.2291 42.4399 86.6538 42.0368 86.9355Z" fill="#89B2E0"/>
<path d="M48.0008 64.3345C48.4472 64.1265 48.7549 63.7451 48.8849 63.3117C48.4645 63.1297 47.9748 63.1253 47.5327 63.3334C47.0864 63.5414 46.7787 63.9228 46.6487 64.3561C47.0647 64.5338 47.5544 64.5425 48.0008 64.3345Z" fill="#89B2E0"/>
<path d="M47.8621 62.419C48.0701 62.8654 48.4515 63.1731 48.8849 63.3031C49.0626 62.8827 49.0712 62.393 48.8632 61.951C48.6552 61.5046 48.2738 61.1968 47.8404 61.0668C47.6627 61.4829 47.6584 61.9769 47.8621 62.419Z" fill="#89B2E0"/>
<path d="M38.644 87.8369C38.436 87.3905 38.4446 86.9008 38.6223 86.4847C39.06 86.6148 39.4371 86.9268 39.6451 87.3689C39.8531 87.8152 39.8445 88.305 39.6668 88.721C39.2334 88.591 38.852 88.2833 38.644 87.8369Z" fill="#89B2E0"/>
<path d="M39.9794 86.4587C39.533 86.6668 39.0433 86.6581 38.6272 86.4804C38.7572 86.0427 39.0693 85.6657 39.5113 85.4577C39.9534 85.2496 40.4474 85.2583 40.8635 85.436C40.7378 85.8737 40.4258 86.2507 39.9794 86.4587Z" fill="#89B2E0"/>
<path d="M49.7647 65.2316C50.2371 65.1059 50.6098 64.7852 50.8135 64.3779C50.4322 64.1265 49.9511 64.0355 49.4787 64.1612C49.0063 64.2869 48.6336 64.6075 48.4299 65.0149C48.807 65.2663 49.288 65.3573 49.7647 65.2316Z" fill="#89B2E0"/>
<path d="M49.9597 63.3204C50.0854 63.7928 50.4061 64.1655 50.8135 64.3692C51.0648 63.9878 51.1558 63.5068 51.0302 63.0344C50.9045 62.562 50.5838 62.1893 50.1764 61.9856C49.9294 62.367 49.834 62.8481 49.9597 63.3204Z" fill="#89B2E0"/>
<path d="M36.4814 86.7578C36.3557 86.2854 36.4467 85.8 36.6981 85.423C37.1055 85.6267 37.4262 85.9993 37.5518 86.4717C37.6775 86.9441 37.5865 87.4295 37.3352 87.8066C36.9278 87.6029 36.6071 87.2302 36.4814 86.7578Z" fill="#89B2E0"/>
<path d="M38.0372 85.631C37.5648 85.7566 37.0794 85.6656 36.7024 85.4143C36.9061 85.0069 37.2788 84.6862 37.7511 84.5605C38.2235 84.4348 38.7089 84.5259 39.086 84.7772C38.8823 85.1803 38.5096 85.5053 38.0372 85.631Z" fill="#89B2E0"/>
<path d="M51.3464 66.4191C51.8362 66.3758 52.2565 66.1244 52.5296 65.7604C52.1959 65.4484 51.7408 65.275 51.2511 65.3183C50.7614 65.3617 50.341 65.6131 50.068 65.9771C50.3973 66.2891 50.8567 66.4624 51.3464 66.4191Z" fill="#89B2E0"/>
<path d="M51.8708 64.5772C51.9142 65.0669 52.1655 65.4874 52.5296 65.7604C52.8416 65.4267 53.015 64.9716 52.9716 64.4819C52.9283 63.9922 52.6769 63.5718 52.3129 63.2988C52.0052 63.6281 51.8275 64.0875 51.8708 64.5772Z" fill="#89B2E0"/>
<path d="M34.5355 85.3102C34.4922 84.8205 34.6656 84.3611 34.9776 84.0317C35.3416 84.3048 35.593 84.7251 35.6363 85.2149C35.6797 85.7046 35.5063 86.164 35.1943 86.4934C34.8302 86.2203 34.5789 85.8 34.5355 85.3102Z" fill="#89B2E0"/>
<path d="M36.2647 84.4738C35.775 84.5172 35.3156 84.3438 34.9862 84.0318C35.2593 83.6677 35.6796 83.4164 36.1694 83.373C36.6591 83.3297 37.1185 83.5031 37.4479 83.8151C37.1748 84.1791 36.7544 84.4305 36.2647 84.4738Z" fill="#89B2E0"/>
<path d="M52.6987 67.871C53.1884 67.9143 53.6478 67.741 53.9772 67.4289C53.7041 67.0649 53.2838 66.8135 52.794 66.7702C52.3043 66.7269 51.8449 66.9002 51.5156 67.2123C51.7886 67.5763 52.209 67.8277 52.6987 67.871Z" fill="#89B2E0"/>
<path d="M53.5394 66.1461C53.4961 66.6358 53.6695 67.0952 53.9815 67.4246C54.3455 67.1516 54.5969 66.7312 54.6402 66.2415C54.6836 65.7517 54.5102 65.2923 54.1982 64.963C53.8342 65.236 53.5828 65.6564 53.5394 66.1461Z" fill="#89B2E0"/>
<path d="M32.8715 83.5507C32.9149 83.061 33.1662 82.6406 33.5303 82.3676C33.8423 82.7013 34.0156 83.1564 33.9723 83.6461C33.929 84.1358 33.6776 84.5562 33.3136 84.8293C33.0059 84.4955 32.8282 84.0405 32.8715 83.5507Z" fill="#89B2E0"/>
<path d="M34.7176 83.0221C34.2279 82.9787 33.8075 82.7274 33.5345 82.3633C33.8682 82.0513 34.3233 81.8779 34.813 81.9213C35.3027 81.9646 35.7231 82.216 35.9961 82.58C35.6668 82.892 35.2074 83.0654 34.7176 83.0221Z" fill="#89B2E0"/>
<path d="M53.782 69.5351C54.2544 69.6608 54.7398 69.5698 55.1169 69.3185C54.9132 68.9111 54.5405 68.5904 54.0681 68.4647C53.5957 68.339 53.1103 68.43 52.7332 68.6814C52.9369 69.0888 53.3053 69.4095 53.782 69.5351Z" fill="#89B2E0"/>
<path d="M54.9089 67.9793C54.7832 68.4517 54.8742 68.9371 55.1255 69.3141C55.5329 69.1105 55.8536 68.7377 55.9793 68.2653C56.105 67.793 56.014 67.3076 55.7626 66.9305C55.3552 67.1342 55.0345 67.507 54.9089 67.9793Z" fill="#89B2E0"/>
<path d="M31.5365 81.5235C31.6621 81.0511 31.9828 80.6784 32.3902 80.4747C32.6416 80.8561 32.7326 81.3371 32.6069 81.8095C32.4812 82.2819 32.1605 82.6546 31.7532 82.8583C31.5018 82.4813 31.4065 82.0003 31.5365 81.5235Z" fill="#89B2E0"/>
<path d="M33.4433 81.3275C32.971 81.2018 32.5983 80.8811 32.3946 80.4737C32.7759 80.2224 33.257 80.1314 33.7294 80.2571C34.2018 80.3827 34.5745 80.7034 34.7782 81.1108C34.4011 81.3622 33.9201 81.4532 33.4433 81.3275Z" fill="#89B2E0"/>
<path d="M54.5621 71.364C55.0085 71.572 55.4982 71.5634 55.9143 71.3857C55.7842 70.948 55.4722 70.5709 55.0302 70.3629C54.5838 70.1549 54.0941 70.1635 53.678 70.3412C53.808 70.7746 54.1157 71.156 54.5621 71.364Z" fill="#89B2E0"/>
<path d="M55.9402 70.0292C55.7322 70.4756 55.7409 70.9653 55.9186 71.3814C56.3563 71.2513 56.7333 70.9393 56.9414 70.4972C57.1494 70.0508 57.1407 69.5611 56.963 69.1451C56.5296 69.2751 56.1483 69.5828 55.9402 70.0292Z" fill="#89B2E0"/>
<path d="M30.5701 79.2954C30.7782 78.849 31.1595 78.5413 31.5929 78.4113C31.7706 78.8317 31.7793 79.3214 31.5712 79.7635C31.3632 80.2099 30.9818 80.5176 30.5485 80.6476C30.3708 80.2315 30.3621 79.7418 30.5701 79.2954Z" fill="#89B2E0"/>
<path d="M32.4857 79.4336C32.0393 79.2256 31.7316 78.8442 31.6016 78.4108C32.022 78.2331 32.5117 78.2245 32.9537 78.4325C33.4001 78.6405 33.7078 79.0219 33.8378 79.4553C33.4175 79.633 32.9277 79.6373 32.4857 79.4336Z" fill="#89B2E0"/>
<path d="M56.3671 73.5661C56.5429 73.3152 56.2323 72.7945 55.6735 72.4032C55.1147 72.012 54.5192 71.8982 54.3435 72.1492C54.1678 72.4002 54.4783 72.9208 55.0371 73.3121C55.5959 73.7034 56.1914 73.8171 56.3671 73.5661Z" fill="#89B2E0"/>
<path d="M56.6034 72.2264C56.3217 72.6295 56.2437 73.1149 56.3477 73.5569C56.7984 73.5049 57.2275 73.2665 57.5092 72.8635C57.7909 72.4604 57.8689 71.9751 57.7649 71.533C57.3141 71.585 56.8851 71.8234 56.6034 72.2264Z" fill="#89B2E0"/>
<path d="M30.0023 76.9328C30.284 76.5298 30.7131 76.2914 31.1638 76.2394C31.2678 76.6815 31.1898 77.1669 30.9081 77.57C30.6264 77.973 30.1973 78.2114 29.7466 78.2634C29.6426 77.817 29.7206 77.3316 30.0023 76.9328Z" fill="#89B2E0"/>
<path d="M31.8659 77.3967C31.4629 77.115 31.2245 76.686 31.1725 76.2352C31.6146 76.1312 32.1 76.2092 32.503 76.4909C32.906 76.7726 33.1444 77.2017 33.1964 77.6524C32.75 77.7564 32.269 77.6784 31.8659 77.3967Z" fill="#89B2E0"/>
<path d="M55.1256 75.2862C55.4723 75.6329 55.936 75.7932 56.391 75.7672C56.417 75.3122 56.2567 74.8484 55.91 74.5017C55.5633 74.155 55.0996 73.9947 54.6445 74.0207C54.6185 74.4757 54.7789 74.9395 55.1256 75.2862Z" fill="#89B2E0"/>
<path d="M56.8764 74.5018C56.5297 74.8485 56.3694 75.3122 56.3954 75.7673C56.8504 75.7933 57.3141 75.6329 57.6608 75.2862C58.0075 74.9395 58.1679 74.4758 58.1419 74.0207C57.6868 73.9947 57.2231 74.1551 56.8764 74.5018Z" fill="#89B2E0"/>
<path d="M29.8551 74.5017C30.2018 74.155 30.6655 73.9947 31.1205 74.0207C31.1465 74.4757 30.9862 74.9395 30.6395 75.2862C30.2928 75.6329 29.8291 75.7932 29.374 75.7672C29.3437 75.3122 29.504 74.8528 29.8551 74.5017Z" fill="#89B2E0"/>
<path d="M31.6059 75.2862C31.2592 74.9395 31.0988 74.4758 31.1249 74.0207C31.5799 73.9947 32.0436 74.1551 32.3903 74.5018C32.737 74.8485 32.8974 75.3122 32.8714 75.7673C32.4163 75.7933 31.9526 75.6329 31.6059 75.2862Z" fill="#89B2E0"/>
<path d="M54.8916 77.2493C55.1733 77.6524 55.6023 77.8908 56.053 77.9428C56.1571 77.5008 56.079 77.0153 55.7974 76.6123C55.5157 76.2092 55.0866 75.9709 54.6359 75.9189C54.5319 76.3609 54.6099 76.8463 54.8916 77.2493Z" fill="#89B2E0"/>
<path d="M56.7508 76.7813C56.3477 77.063 56.1094 77.492 56.0574 77.9428C56.4994 78.0468 56.9848 77.9687 57.3879 77.687C57.7909 77.4053 58.0293 76.9763 58.0813 76.5256C57.6392 76.4216 57.1538 76.4996 56.7508 76.7813Z" fill="#89B2E0"/>
<path d="M30.1237 72.1008C30.5267 71.8191 31.0121 71.741 31.4542 71.845C31.4022 72.2958 31.1638 72.7248 30.7608 73.0065C30.3577 73.2882 29.8723 73.3662 29.4303 73.2622C29.4866 72.8115 29.725 72.3825 30.1237 72.1008Z" fill="#89B2E0"/>
<path d="M31.7142 73.1799C31.4325 72.7768 31.3545 72.2914 31.4585 71.8494C31.9092 71.9014 32.3382 72.1397 32.6199 72.5428C32.9016 72.9458 32.9797 73.4312 32.8756 73.8733C32.4249 73.8169 31.9959 73.5786 31.7142 73.1799Z" fill="#89B2E0"/>
<path d="M54.3195 79.1389C54.5275 79.5853 54.9089 79.8929 55.3423 80.023C55.5199 79.6026 55.5286 79.1129 55.3206 78.6708C55.1126 78.2244 54.7312 77.9168 54.2978 77.7867C54.1158 78.2028 54.1114 78.6925 54.3195 79.1389Z" fill="#89B2E0"/>
<path d="M56.2306 79.0045C55.7842 79.2126 55.4765 79.5939 55.3465 80.0273C55.7669 80.205 56.2566 80.2137 56.6987 80.0057C57.1451 79.7977 57.4528 79.4162 57.5828 78.9828C57.1667 78.8008 56.677 78.7965 56.2306 79.0045Z" fill="#89B2E0"/>
<path d="M30.8128 69.7822C31.2592 69.5742 31.7489 69.5829 32.1649 69.7606C32.0349 70.1983 31.7229 70.5753 31.2808 70.7833C30.8344 70.9914 30.3447 70.9827 29.9287 70.805C30.0587 70.3716 30.3664 69.9902 30.8128 69.7822Z" fill="#89B2E0"/>
<path d="M32.1909 71.1214C31.9829 70.675 31.9916 70.1853 32.1692 69.7692C32.607 69.8992 32.984 70.2112 33.192 70.6533C33.4001 71.0997 33.3914 71.5894 33.2137 72.0054C32.7803 71.8754 32.3989 71.5634 32.1909 71.1214Z" fill="#89B2E0"/>
<path d="M53.4224 80.9028C53.548 81.3752 53.8687 81.7479 54.2761 81.9516C54.5275 81.5702 54.6185 81.0891 54.4928 80.6167C54.3671 80.1444 54.0464 79.7717 53.6391 79.568C53.3877 79.945 53.2923 80.4304 53.4224 80.9028Z" fill="#89B2E0"/>
<path d="M55.3293 81.1022C54.8569 81.2279 54.4842 81.5486 54.2805 81.956C54.6619 82.2073 55.1429 82.2983 55.6153 82.1727C56.0877 82.047 56.4604 81.7262 56.6641 81.3189C56.2871 81.0675 55.806 80.9722 55.3293 81.1022Z" fill="#89B2E0"/>
<path d="M31.8962 67.6196C32.3686 67.4939 32.854 67.5849 33.231 67.8363C33.0274 68.2437 32.6546 68.5644 32.1823 68.69C31.7099 68.8157 31.2245 68.7247 30.8474 68.4734C31.0511 68.0703 31.4195 67.7453 31.8962 67.6196Z" fill="#89B2E0"/>
<path d="M33.0231 69.1755C32.8974 68.7031 32.9884 68.2177 33.2398 67.8406C33.6472 68.0443 33.9679 68.4171 34.0935 68.8894C34.2192 69.3618 34.1282 69.8472 33.8768 70.2242C33.4695 70.0206 33.1488 69.6479 33.0231 69.1755Z" fill="#89B2E0"/>
<path d="M52.2306 82.4846C52.274 82.9743 52.5253 83.3947 52.8894 83.6678C53.2014 83.334 53.3747 82.879 53.3314 82.3893C53.2881 81.8996 53.0367 81.4791 52.6727 81.2061C52.365 81.5398 52.1873 81.9949 52.2306 82.4846Z" fill="#89B2E0"/>
<path d="M54.0768 83.0134C53.5871 83.0567 53.1667 83.3081 52.8937 83.6721C53.2274 83.9841 53.6824 84.1575 54.1722 84.1142C54.6619 84.0708 55.0823 83.8195 55.3553 83.4554C55.0259 83.1434 54.5665 82.97 54.0768 83.0134Z" fill="#89B2E0"/>
<path d="M33.3394 65.6781C33.8292 65.6348 34.2886 65.8081 34.6179 66.1201C34.3449 66.4842 33.9245 66.7356 33.4348 66.7789C32.9451 66.8222 32.4857 66.6489 32.1563 66.3368C32.4293 65.9728 32.8497 65.7171 33.3394 65.6781Z" fill="#89B2E0"/>
<path d="M34.1801 67.4029C34.1368 66.9132 34.3101 66.4538 34.6222 66.1245C34.9862 66.3975 35.2376 66.8179 35.2809 67.3076C35.3243 67.7973 35.1509 68.2567 34.8389 68.586C34.4748 68.313 34.2235 67.8926 34.1801 67.4029Z" fill="#89B2E0"/>
<path d="M50.7831 83.8368C50.7397 84.3265 50.9131 84.7859 51.2251 85.1153C51.5892 84.8422 51.8405 84.4219 51.8839 83.9321C51.9272 83.4424 51.7538 82.9831 51.4418 82.6537C51.0778 82.9267 50.8264 83.3471 50.7831 83.8368Z" fill="#89B2E0"/>
<path d="M52.508 84.6775C52.0183 84.6342 51.5589 84.8076 51.2296 85.1196C51.5026 85.4836 51.923 85.735 52.4127 85.7783C52.9024 85.8217 53.3618 85.6483 53.6912 85.3363C53.4181 84.9722 52.9978 84.7209 52.508 84.6775Z" fill="#89B2E0"/>
<path d="M35.1033 64.0095C35.593 64.0529 36.0134 64.3042 36.2864 64.6683C35.9527 64.9803 35.4977 65.1537 35.0079 65.1103C34.5182 65.067 34.0978 64.8156 33.8248 64.4516C34.1542 64.1439 34.6136 63.9662 35.1033 64.0095Z" fill="#89B2E0"/>
<path d="M35.6277 65.8557C35.671 65.366 35.9224 64.9456 36.2865 64.6726C36.5985 65.0063 36.7718 65.4613 36.7285 65.9511C36.6852 66.4408 36.4338 66.8612 36.0698 67.1342C35.7621 66.8048 35.5844 66.3455 35.6277 65.8557Z" fill="#89B2E0"/>
<path d="M49.1189 84.9202C48.9933 85.3926 49.0843 85.878 49.3356 86.255C49.743 86.0513 50.0637 85.6786 50.1894 85.2063C50.3151 84.7339 50.2241 84.2484 49.9727 83.8714C49.5653 84.0751 49.2446 84.4478 49.1189 84.9202Z" fill="#89B2E0"/>
<path d="M50.6705 86.047C50.1981 85.9213 49.7127 86.0123 49.3356 86.2637C49.5393 86.671 49.912 86.9917 50.3844 87.1174C50.8568 87.2431 51.3422 87.1521 51.7192 86.9007C51.5155 86.4933 51.1472 86.1727 50.6705 86.047Z" fill="#89B2E0"/>
<path d="M37.1272 62.6747C37.5996 62.8004 37.9723 63.1211 38.176 63.5285C37.7946 63.7798 37.3136 63.8708 36.8412 63.7452C36.3688 63.6195 35.9961 63.2988 35.7924 62.8914C36.1738 62.6401 36.6548 62.549 37.1272 62.6747Z" fill="#89B2E0"/>
<path d="M37.3265 64.5815C37.4522 64.1091 37.7729 63.7365 38.1802 63.5328C38.4316 63.9142 38.5226 64.3952 38.3969 64.8676C38.2713 65.34 37.9506 65.7127 37.5432 65.9164C37.2918 65.5393 37.2008 65.0582 37.3265 64.5815Z" fill="#89B2E0"/>
<path d="M47.29 85.7003C47.082 86.1467 47.0907 86.6364 47.2684 87.0525C47.7061 86.9225 48.0831 86.6104 48.2912 86.1684C48.4992 85.722 48.4905 85.2323 48.3128 84.8162C47.8751 84.9462 47.4981 85.2539 47.29 85.7003Z" fill="#89B2E0"/>
<path d="M48.6249 87.0784C48.1785 86.8704 47.6888 86.8791 47.2727 87.0568C47.4028 87.4945 47.7148 87.8716 48.1568 88.0796C48.6032 88.2876 49.0929 88.2789 49.509 88.1012C49.379 87.6678 49.0713 87.2865 48.6249 87.0784Z" fill="#89B2E0"/>
<path d="M39.3591 61.7082C39.8055 61.9163 40.1132 62.2976 40.2432 62.731C39.8229 62.9087 39.3331 62.9174 38.8911 62.7094C38.4447 62.5014 38.137 62.12 38.007 61.6866C38.423 61.5089 38.9128 61.5002 39.3591 61.7082Z" fill="#89B2E0"/>
<path d="M39.2205 63.6238C39.4285 63.1774 39.8099 62.8697 40.2432 62.7397C40.4209 63.1601 40.4296 63.6498 40.2216 64.0918C40.0136 64.5382 39.6322 64.8459 39.1988 64.976C39.0211 64.5599 39.0124 64.0702 39.2205 63.6238Z" fill="#89B2E0"/>
<path d="M45.3528 86.151C45.0711 86.5541 44.9931 87.0395 45.0971 87.4816C45.5478 87.4296 45.9769 87.1911 46.2586 86.7881C46.5403 86.3851 46.6183 85.8997 46.5142 85.4576C46.0635 85.5096 45.6345 85.748 45.3528 86.151Z" fill="#89B2E0"/>
<path d="M46.4275 87.7416C46.0245 87.4599 45.5391 87.3819 45.097 87.4859C45.1491 87.9366 45.3874 88.3657 45.7905 88.6474C46.1935 88.9291 46.6789 89.007 47.1209 88.903C47.0689 88.4523 46.8306 88.0233 46.4275 87.7416Z" fill="#89B2E0"/>
<path d="M41.721 61.1405C42.1241 61.4222 42.3624 61.8512 42.4144 62.302C41.9724 62.406 41.487 62.328 41.0839 62.0463C40.6809 61.7646 40.4425 61.3356 40.3905 60.8848C40.8369 60.7808 41.318 60.8588 41.721 61.1405Z" fill="#89B2E0"/>
<path d="M41.253 63.004C41.5347 62.601 41.9637 62.3626 42.4144 62.3106C42.5184 62.7527 42.4404 63.2381 42.1587 63.6411C41.877 64.0442 41.448 64.2825 40.9973 64.3345C40.8933 63.8881 40.9713 63.4071 41.253 63.004Z" fill="#89B2E0"/>
<path d="M43.3636 86.2637C43.0169 86.6104 42.8565 87.0741 42.8825 87.5292C43.3376 87.5552 43.8013 87.3948 44.148 87.0481C44.4947 86.7014 44.6551 86.2377 44.6291 85.7826C44.174 85.7566 43.7103 85.917 43.3636 86.2637Z" fill="#89B2E0"/>
<path d="M44.148 88.0146C43.8013 87.6679 43.3376 87.5075 42.8825 87.5335C42.8565 87.9886 43.0169 88.4523 43.3636 88.799C43.7103 89.1457 44.174 89.306 44.6291 89.28C44.6551 88.825 44.4947 88.3613 44.148 88.0146Z" fill="#89B2E0"/>
<path d="M44.148 60.9932C44.4947 61.3399 44.6551 61.8036 44.6291 62.2587C44.174 62.2847 43.7103 62.1243 43.3636 61.7776C43.0169 61.4309 42.8565 60.9672 42.8825 60.5121C43.3376 60.4861 43.8013 60.6465 44.148 60.9932Z" fill="#89B2E0"/>
<path d="M43.3636 62.7441C43.7103 62.3974 44.174 62.237 44.6291 62.263C44.6551 62.7181 44.4947 63.1818 44.148 63.5285C43.8013 63.8752 43.3376 64.0356 42.8825 64.0096C42.8565 63.5545 43.0169 63.0908 43.3636 62.7441Z" fill="#89B2E0"/>
<path d="M61.6486 46.2852L95.5261 46.2971L95.5262 46.0457L61.6487 46.0338L61.6486 46.2852Z" fill="#6894C5"/>
<path d="M61.6471 47.4885L95.5247 47.5004L95.5247 47.249L61.6472 47.2371L61.6471 47.4885Z" fill="#6894C5"/>
<path d="M61.4865 55.0131L80.629 55.0251L80.6292 54.7737L61.4867 54.7617L61.4865 55.0131Z" fill="#6894C5"/>
<path d="M61.485 56.2121L80.6276 56.2239L80.6277 55.9725L61.4852 55.9607L61.485 56.2121Z" fill="#6894C5"/>
<path d="M61.4879 57.411L80.6305 57.4229L80.6306 57.1715L61.4881 57.1596L61.4879 57.411Z" fill="#6894C5"/>
<path d="M61.4518 58.5888L80.5943 58.6007L80.5944 58.3493L61.4519 58.3374L61.4518 58.5888Z" fill="#6894C5"/>
<path d="M61.4865 61.9472L80.629 61.9592L80.6292 61.7078L61.4867 61.6958L61.4865 61.9472Z" fill="#6894C5"/>
<path d="M61.485 63.1461L80.6276 63.158L80.6277 62.9066L61.4852 62.8947L61.485 63.1461Z" fill="#6894C5"/>
<path d="M61.4879 64.3451L80.6304 64.357L80.6306 64.1057L61.488 64.0938L61.4879 64.3451Z" fill="#6894C5"/>
<path d="M61.4518 65.5228L80.5943 65.5348L80.5944 65.2834L61.4519 65.2714L61.4518 65.5228Z" fill="#6894C5"/>
<path d="M61.4503 66.7261L80.5928 66.738L80.593 66.4866L61.4504 66.4747L61.4503 66.7261Z" fill="#6894C5"/>
<path d="M61.4487 67.9253L80.5912 67.9371L80.5914 67.6858L61.4489 67.6739L61.4487 67.9253Z" fill="#6894C5"/>
</svg>
