<svg width="143" height="111" viewBox="0 0 143 111" fill="none" xmlns="http://www.w3.org/2000/svg">
<path d="M40.5811 23.8788C40.4468 23.8788 40.3334 23.7698 40.3334 23.6314V21.1413C40.3334 19.8165 39.2543 18.7391 37.9275 18.7391H26.8595C26.7252 18.7391 26.6118 18.6301 26.6118 18.4918C26.6118 18.3534 26.721 18.2444 26.8595 18.2444H37.9275C39.5272 18.2444 40.8288 19.544 40.8288 21.1413V23.6314C40.8288 23.7698 40.7155 23.8788 40.5811 23.8788Z" fill="#ACDDE9"/>
<path d="M33.2123 57.5422H0.247727C0.109168 57.5422 0 57.4332 0 57.2948C0 57.1565 0.109168 57.0475 0.247727 57.0475H33.2123C33.3466 57.0475 33.46 57.1565 33.46 57.2948C33.46 57.4332 33.3466 57.5422 33.2123 57.5422Z" fill="#ACDDE9"/>
<path d="M15.5229 67.0668C15.3885 67.0668 15.2751 66.9578 15.2751 66.8195V63.1555C15.2751 61.5582 16.5768 60.2587 18.1765 60.2587H31.9233C32.0576 60.2587 32.171 60.3677 32.171 60.506C32.171 60.6443 32.0618 60.7533 31.9233 60.7533H18.1765C16.8497 60.7533 15.7706 61.8307 15.7706 63.1555V66.8195C15.7706 66.9578 15.6572 67.0668 15.5229 67.0668Z" fill="#ACDDE9"/>
<path d="M83.1691 110.469C83.0348 110.469 82.9214 110.36 82.9214 110.221V93.0459C82.9214 92.9117 83.0306 92.7985 83.1691 92.7985C83.3077 92.7985 83.4168 92.9075 83.4168 93.0459V110.221C83.4126 110.36 83.3035 110.469 83.1691 110.469Z" fill="#ACDDE9"/>
<path d="M106.216 100.215H88.1783C86.5786 100.215 85.277 98.915 85.277 97.3178V90.9499C85.277 90.8157 85.3861 90.7025 85.5247 90.7025C85.6633 90.7025 85.7724 90.8115 85.7724 90.9499V97.3178C85.7724 98.6425 86.8515 99.7199 88.1783 99.7199H106.216C106.351 99.7199 106.464 99.8289 106.464 99.9673C106.464 100.106 106.351 100.215 106.216 100.215Z" fill="#ACDDE9"/>
<path d="M51.1662 23.1829C51.0318 23.1829 50.9185 23.0739 50.9185 22.9355V0.24734C50.9185 0.113189 51.0276 0 51.1662 0C51.3048 0 51.4139 0.108997 51.4139 0.24734V22.9397C51.4139 23.0739 51.3048 23.1829 51.1662 23.1829Z" fill="#ACDDE9"/>
<path d="M54.0634 23.0781C53.929 23.0781 53.8157 22.9691 53.8157 22.8307V8.03225C53.8157 6.43502 55.1173 5.13544 56.717 5.13544H63.8213C63.9557 5.13544 64.0691 5.24443 64.0691 5.38278C64.0691 5.52112 63.9599 5.63012 63.8213 5.63012H56.717C55.3902 5.63012 54.3111 6.70751 54.3111 8.03225V22.8307C54.3069 22.9649 54.1978 23.0781 54.0634 23.0781Z" fill="#ACDDE9"/>
<path d="M129.721 48.5499H110.184C110.05 48.5499 109.936 48.4409 109.936 48.3025C109.936 48.1642 110.046 48.0552 110.184 48.0552H129.721C131.048 48.0552 132.127 46.9778 132.127 45.6531V41.2387C132.127 41.1045 132.236 40.9913 132.375 40.9913C132.513 40.9913 132.622 41.1003 132.622 41.2387V45.6531C132.618 47.2503 131.321 48.5499 129.721 48.5499Z" fill="#ACDDE9"/>
<path d="M140.092 51.5473H109.97C109.836 51.5473 109.722 51.4383 109.722 51.3C109.722 51.1616 109.831 51.0526 109.97 51.0526H140.092C140.226 51.0526 140.34 51.1616 140.34 51.3C140.34 51.4383 140.226 51.5473 140.092 51.5473Z" fill="#ACDDE9"/>
<path d="M30.6929 54.7585H8.25889C6.65916 54.7585 5.35754 53.459 5.35754 51.8617V39.6331C5.35754 39.4989 5.46671 39.3857 5.60527 39.3857C5.74383 39.3857 5.853 39.4947 5.853 39.6331V51.8617C5.853 53.1865 6.93208 54.2639 8.25889 54.2639H30.6929C30.8273 54.2639 30.9406 54.3729 30.9406 54.5112C30.9406 54.6495 30.8273 54.7585 30.6929 54.7585Z" fill="#556DA1"/>
<path d="M5.7146 49.883C6.72101 49.883 7.53687 48.8413 7.53687 47.5563C7.53687 46.2713 6.72101 45.2296 5.7146 45.2296C4.70819 45.2296 3.89233 46.2713 3.89233 47.5563C3.89233 48.8413 4.70819 49.883 5.7146 49.883Z" fill="white"/>
<path d="M5.71452 50.1303C4.57246 50.1303 3.64453 48.9775 3.64453 47.5563C3.64453 46.1352 4.57246 44.9823 5.71452 44.9823C6.85659 44.9823 7.78452 46.1352 7.78452 47.5563C7.78452 48.9775 6.85659 50.1303 5.71452 50.1303ZM5.71452 45.4728C4.84538 45.4728 4.13999 46.4076 4.13999 47.5563C4.13999 48.705 4.84538 49.6398 5.71452 49.6398C6.58367 49.6398 7.28906 48.705 7.28906 47.5563C7.28906 46.4076 6.58367 45.4728 5.71452 45.4728Z" fill="#C0DDED"/>
<path d="M22.9716 62.4345C24.2586 62.4345 25.3019 61.6199 25.3019 60.6151C25.3019 59.6102 24.2586 58.7957 22.9716 58.7957C21.6846 58.7957 20.6412 59.6102 20.6412 60.6151C20.6412 61.6199 21.6846 62.4345 22.9716 62.4345Z" fill="white"/>
<path d="M22.9715 62.6818C21.5481 62.6818 20.3934 61.7553 20.3934 60.615C20.3934 59.4748 21.5481 58.5483 22.9715 58.5483C24.3949 58.5483 25.5495 59.4748 25.5495 60.615C25.5495 61.7511 24.3949 62.6818 22.9715 62.6818ZM22.9715 59.0388C21.821 59.0388 20.8847 59.7431 20.8847 60.6108C20.8847 61.4786 21.821 62.1829 22.9715 62.1829C24.1219 62.1829 25.0583 61.4786 25.0583 60.6108C25.0583 59.7472 24.1219 59.0388 22.9715 59.0388Z" fill="#ACDDE9"/>
<path d="M83.2742 107.664C84.2806 107.664 85.0964 106.622 85.0964 105.337C85.0964 104.052 84.2806 103.011 83.2742 103.011C82.2678 103.011 81.4519 104.052 81.4519 105.337C81.4519 106.622 82.2678 107.664 83.2742 107.664Z" fill="white"/>
<path d="M83.2742 107.911C82.1322 107.911 81.2042 106.759 81.2042 105.337C81.2042 103.916 82.1322 102.763 83.2742 102.763C84.4163 102.763 85.3442 103.916 85.3442 105.337C85.3442 106.759 84.4163 107.911 83.2742 107.911ZM83.2742 103.254C82.4051 103.254 81.6997 104.189 81.6997 105.337C81.6997 106.486 82.4051 107.421 83.2742 107.421C84.1434 107.421 84.8488 106.486 84.8488 105.337C84.8488 104.189 84.1434 103.254 83.2742 103.254Z" fill="#ACDDE9"/>
<path d="M140.092 53.1194C141.379 53.1194 142.422 52.3048 142.422 51.2999C142.422 50.2951 141.379 49.4805 140.092 49.4805C138.805 49.4805 137.761 50.2951 137.761 51.2999C137.761 52.3048 138.805 53.1194 140.092 53.1194Z" fill="white"/>
<path d="M140.092 53.3667C138.668 53.3667 137.514 52.4403 137.514 51.3C137.514 50.1597 138.668 49.2332 140.092 49.2332C141.515 49.2332 142.67 50.1597 142.67 51.3C142.67 52.4403 141.515 53.3667 140.092 53.3667ZM140.092 49.7279C138.941 49.7279 138.005 50.4322 138.005 51.3C138.005 52.1678 138.941 52.872 140.092 52.872C141.242 52.872 142.179 52.1678 142.179 51.3C142.179 50.4322 141.242 49.7279 140.092 49.7279Z" fill="#556DA1"/>
<path d="M33.5608 20.2063C34.8478 20.2063 35.8911 19.3918 35.8911 18.3869C35.8911 17.3821 34.8478 16.5675 33.5608 16.5675C32.2738 16.5675 31.2305 17.3821 31.2305 18.3869C31.2305 19.3918 32.2738 20.2063 33.5608 20.2063Z" fill="white"/>
<path d="M33.5608 20.4537C32.1374 20.4537 30.9828 19.5272 30.9828 18.3869C30.9828 17.2467 32.1374 16.3202 33.5608 16.3202C34.9842 16.3202 36.1389 17.2467 36.1389 18.3869C36.1389 19.5272 34.98 20.4537 33.5608 20.4537ZM33.5608 16.8149C32.4104 16.8149 31.474 17.5192 31.474 18.3869C31.474 19.2547 32.4104 19.959 33.5608 19.959C34.7113 19.959 35.6476 19.2547 35.6476 18.3869C35.6476 17.5192 34.7113 16.8149 33.5608 16.8149Z" fill="#ACDDE9"/>
<path d="M51.1663 11.2434C52.1727 11.2434 52.9885 10.2017 52.9885 8.91676C52.9885 7.63177 52.1727 6.59009 51.1663 6.59009C50.1599 6.59009 49.344 7.63177 49.344 8.91676C49.344 10.2017 50.1599 11.2434 51.1663 11.2434Z" fill="white"/>
<path d="M51.1663 11.4908C50.0242 11.4908 49.0963 10.3379 49.0963 8.91678C49.0963 7.49563 50.0242 6.34277 51.1663 6.34277C52.3084 6.34277 53.2363 7.49563 53.2363 8.91678C53.2363 10.3379 52.3084 11.4908 51.1663 11.4908ZM51.1663 6.83326C50.2972 6.83326 49.5918 7.76812 49.5918 8.91678C49.5918 10.0654 50.2972 11.0003 51.1663 11.0003C52.0355 11.0003 52.7408 10.0654 52.7408 8.91678C52.7408 7.76812 52.0355 6.83326 51.1663 6.83326Z" fill="#ACDDE9"/>
<path d="M10.8877 69.385H7.34812C7.23056 69.385 7.13818 69.2928 7.13818 69.1754C7.13818 69.058 7.23056 68.9658 7.34812 68.9658H10.8835C11.0011 68.9658 11.0934 69.058 11.0934 69.1754C11.0934 69.2928 11.0011 69.385 10.8877 69.385Z" fill="#556DA1"/>
<path d="M4.6944 69.385H1.15904C1.04147 69.385 0.949097 69.2928 0.949097 69.1754C0.949097 69.058 1.04147 68.9658 1.15904 68.9658H4.6986C4.81616 68.9658 4.90853 69.058 4.90853 69.1754C4.90853 69.2928 4.81196 69.385 4.6944 69.385Z" fill="#556DA1"/>
<path d="M6.0211 68.0603C5.90353 68.0603 5.81116 67.9681 5.81116 67.8507V64.3167C5.81116 64.1993 5.90353 64.1071 6.0211 64.1071C6.13866 64.1071 6.23103 64.1993 6.23103 64.3167V67.8507C6.23103 67.9681 6.13866 68.0603 6.0211 68.0603Z" fill="#556DA1"/>
<path d="M6.02097 74.2438C5.90341 74.2438 5.81104 74.1515 5.81104 74.0341V70.5001C5.81104 70.3828 5.90341 70.2905 6.02097 70.2905C6.13854 70.2905 6.23091 70.3828 6.23091 70.5001V74.0341C6.23091 74.1473 6.13854 74.2438 6.02097 74.2438Z" fill="#556DA1"/>
<path d="M125.997 39.4151H122.457C122.339 39.4151 122.247 39.3228 122.247 39.2055C122.247 39.0881 122.339 38.9958 122.457 38.9958H125.997C126.114 38.9958 126.207 39.0881 126.207 39.2055C126.207 39.3228 126.11 39.4151 125.997 39.4151Z" fill="#556DA1"/>
<path d="M119.803 39.4151H116.268C116.15 39.4151 116.058 39.3228 116.058 39.2055C116.058 39.0881 116.15 38.9958 116.268 38.9958H119.803C119.921 38.9958 120.013 39.0881 120.013 39.2055C120.013 39.3228 119.921 39.4151 119.803 39.4151Z" fill="#556DA1"/>
<path d="M121.13 38.0903C121.013 38.0903 120.92 37.9981 120.92 37.8807V34.3467C120.92 34.2293 121.013 34.1371 121.13 34.1371C121.248 34.1371 121.34 34.2293 121.34 34.3467V37.8807C121.34 37.9981 121.248 38.0903 121.13 38.0903Z" fill="#556DA1"/>
<path d="M121.13 44.2738C121.013 44.2738 120.92 44.1816 120.92 44.0642V40.5302C120.92 40.4128 121.013 40.3206 121.13 40.3206C121.248 40.3206 121.34 40.4128 121.34 40.5302V44.0642C121.34 44.1774 121.248 44.2738 121.13 44.2738Z" fill="#556DA1"/>
<path d="M67.0544 13.7923C66.16 13.6204 65.2531 13.4947 64.3294 13.415C52.7408 12.4215 39.1662 17.2383 32.8638 41.6034C20.7378 88.489 47.866 63.9268 50.5658 91.7505C51.1326 97.586 54.097 100.571 58.4427 101.409C74.8347 104.566 110.936 77.2371 112.93 57.0181C115.168 34.3131 96.4416 50.5873 87.0951 29.9868C83.3162 21.6527 75.9096 15.4986 67.0544 13.7923Z" fill="#C9EEF2"/>
<path d="M71.1523 54.6999L83.5471 59.6718L98.8936 21.5228L88.4135 17.3222C87.3554 16.8988 86.1503 17.4103 85.7263 18.4667L71.1523 54.6999Z" fill="#6894C5"/>
<path d="M69.7005 53.2767L93.4344 57.4789L99.3521 24.1606L75.6182 19.9584L69.7005 53.2767Z" fill="#C6EAF7"/>
<path d="M81.6105 24.4366L81.568 24.676L92.1678 26.5528L92.2104 26.3134L81.6105 24.4366Z" fill="#55769F"/>
<path d="M79.4877 23.4413L79.4452 23.6807L94.4975 26.3458L94.54 26.1064L79.4877 23.4413Z" fill="#55769F"/>
<path d="M77.3344 26.2549L77.2919 26.4943L95.5522 29.7274L95.5947 29.488L77.3344 26.2549Z" fill="#55769F"/>
<path d="M77.1296 27.396L77.087 27.6354L95.3474 30.8685L95.3899 30.6291L77.1296 27.396Z" fill="#55769F"/>
<path d="M76.7267 29.6834L76.6842 29.9228L94.9446 33.1559L94.9871 32.9164L76.7267 29.6834Z" fill="#55769F"/>
<path d="M76.5214 30.8244L76.4789 31.0638L94.7392 34.2969L94.7817 34.0575L76.5214 30.8244Z" fill="#55769F"/>
<path d="M76.3205 31.9661L76.278 32.2055L94.5383 35.4386L94.5808 35.1992L76.3205 31.9661Z" fill="#55769F"/>
<path d="M75.4277 36.9942L75.3851 37.2336L93.6455 40.4667L93.688 40.2273L75.4277 36.9942Z" fill="#55769F"/>
<path d="M75.2148 38.1784L75.1722 38.4178L93.4326 41.6508L93.4751 41.4114L75.2148 38.1784Z" fill="#55769F"/>
<path d="M75.0063 39.3635L74.9637 39.6029L93.2241 42.836L93.2666 42.5966L75.0063 39.3635Z" fill="#55769F"/>
<path d="M74.797 40.5481L74.7545 40.7875L93.0149 44.0206L93.0574 43.7812L74.797 40.5481Z" fill="#55769F"/>
<path d="M74.5841 41.7321L74.5416 41.9715L92.802 45.2046L92.8445 44.9652L74.5841 41.7321Z" fill="#55769F"/>
<path d="M74.3747 42.9165L74.3322 43.1559L92.5925 46.3889L92.635 46.1495L74.3747 42.9165Z" fill="#55769F"/>
<path d="M74.1662 44.1015L74.1237 44.3409L92.384 47.574L92.4265 47.3346L74.1662 44.1015Z" fill="#55769F"/>
<path d="M70.4011 51.8534L93.7131 57.9786L102.339 25.2524L79.0267 19.1273L70.4011 51.8534Z" fill="#E6F5F8"/>
<path d="M84.5721 24.31L94.9835 27.0456L95.0455 26.8104L84.6341 24.0749L84.5721 24.31Z" fill="#6894C5"/>
<path d="M82.544 23.1443L97.3287 27.0289L97.3907 26.7938L82.606 22.9091L82.544 23.1443Z" fill="#6894C5"/>
<path d="M80.1675 25.7703L98.1033 30.4828L98.1652 30.2477L80.2295 25.5351L80.1675 25.7703Z" fill="#6894C5"/>
<path d="M79.8703 26.8909L97.8062 31.6035L97.8681 31.3683L79.9323 26.6557L79.8703 26.8909Z" fill="#6894C5"/>
<path d="M79.2783 29.1373L97.2141 33.8499L97.2761 33.6147L79.3403 28.9021L79.2783 29.1373Z" fill="#6894C5"/>
<path d="M78.9854 30.2587L96.9211 34.9713L96.9831 34.7361L79.0473 30.0235L78.9854 30.2587Z" fill="#6894C5"/>
<path d="M78.687 31.3833L96.6228 36.0959L96.6848 35.8607L78.749 31.1482L78.687 31.3833Z" fill="#6894C5"/>
<path d="M77.3865 36.3178L95.3223 41.0304L95.3842 40.7952L77.4485 36.0827L77.3865 36.3178Z" fill="#6894C5"/>
<path d="M77.0791 37.4837L95.0149 42.1963L95.0769 41.9611L77.1411 37.2486L77.0791 37.4837Z" fill="#6894C5"/>
<path d="M76.7725 38.6457L94.7083 43.3582L94.7702 43.1231L76.8344 38.4105L76.7725 38.6457Z" fill="#6894C5"/>
<path d="M76.4656 39.8081L94.4014 44.5206L94.4633 44.2855L76.5275 39.5729L76.4656 39.8081Z" fill="#6894C5"/>
<path d="M76.1582 40.9739L94.094 45.6865L94.156 45.4513L76.2202 40.7387L76.1582 40.9739Z" fill="#6894C5"/>
<path d="M75.8513 42.1367L93.7871 46.8492L93.8491 46.6141L75.9133 41.9015L75.8513 42.1367Z" fill="#6894C5"/>
<path d="M75.5439 43.3024L93.4797 48.015L93.5417 47.7798L75.6059 43.0672L75.5439 43.3024Z" fill="#6894C5"/>
<path d="M75.855 56.5863L100.812 66.5931L115.37 30.4061L94.3967 17.4899C93.2169 16.7646 91.6675 17.2719 91.1511 18.5547L75.855 56.5863Z" fill="#71A5D3"/>
<path d="M34.4383 42.2322H32.7336C33.0108 42.0436 33.3635 41.9262 33.7413 41.9262H76.4932C78.7311 41.9262 80.545 43.5318 80.545 45.5105V47.7911C80.545 49.7698 78.7311 51.3754 76.4932 51.3754L34.22 51.3629L34.4383 42.2322Z" fill="#83BBDD"/>
<path d="M76.9592 47.7911V45.5148C76.9592 43.536 75.1453 41.9304 72.9073 41.9304H73.8269C76.0648 41.9304 77.8787 43.536 77.8787 45.5148V47.7911C77.8787 49.7698 76.0648 51.3755 73.8269 51.3755H72.9199C75.1537 51.3671 76.9592 49.7656 76.9592 47.7911Z" fill="#D1EAF2"/>
<path d="M66.9451 47.7911V45.5148C66.9451 43.536 65.1313 41.9304 62.8933 41.9304H63.8128C66.0508 41.9304 67.8647 43.536 67.8647 45.5148V47.7911C67.8647 49.7698 66.0508 51.3755 63.8128 51.3755H62.9059C65.1397 51.3671 66.9451 49.7656 66.9451 47.7911Z" fill="#D1EAF2"/>
<path d="M58.7114 41.9329C60.8486 41.9329 62.5826 43.4672 62.5826 45.3621V47.9361C62.5826 49.831 60.8486 51.3653 58.7114 51.3653H32.0954V50.791H32.2046L38.9688 50.225L40.3376 45.4753C40.3376 45.4753 37.6965 42.851 37.5244 42.7839C37.3522 42.7168 32.2004 42.5114 32.2004 42.5114H32.0912V41.9371H58.7114V41.9329Z" fill="#556DA1"/>
<path d="M33.8212 46.6341C33.8212 43.8588 32.2004 42.5131 32.2004 42.5131H58.1656C60.1306 42.5131 61.722 43.9217 61.722 45.6615V47.6402C61.722 49.3799 60.1306 50.7885 58.1656 50.7885H32.2004C32.2004 50.7885 33.8212 50.1304 33.8212 46.6341Z" fill="#ABDDE9"/>
<path d="M35.1437 61.1139H33.2123C33.5272 60.875 33.9219 60.7324 34.3543 60.7324H82.7452C85.277 60.7324 87.3302 62.7405 87.3302 65.2181V68.0688C87.3302 70.5464 85.277 72.5544 82.7452 72.5544L34.896 72.5377L35.1437 61.1139Z" fill="#83BBDD"/>
<path d="M62.6163 60.7391C65.039 60.7391 66.9998 62.6591 66.9998 65.0319V68.2515C66.9998 70.6201 65.039 72.5443 62.6163 72.5443H32.4901V71.8233H32.6161L40.2746 71.1148L41.824 65.1702C41.824 65.1702 38.8387 61.8877 38.6413 61.7997C38.4482 61.7159 32.6161 61.4601 32.6161 61.4601H32.4901V60.7433H62.6163V60.7391Z" fill="#7FB7D3"/>
<path d="M34.4468 66.6224C34.4468 63.1471 32.6119 61.4619 32.6119 61.4619H61.9991C64.2245 61.4619 66.0257 63.2268 66.0257 65.4025V67.8801C66.0257 70.0559 64.2245 71.8208 61.9991 71.8208H32.6119C32.6119 71.825 34.4468 70.9991 34.4468 66.6224Z" fill="#ABDDE9"/>
<path d="M88.9215 51.6521H90.853C90.5381 51.4634 90.1434 51.3502 89.7109 51.3502H41.3033C38.7715 51.3502 36.7183 52.9433 36.7183 54.9094V57.169C36.7183 59.1351 38.7715 60.7282 41.3033 60.7282L89.1693 60.7156L88.9215 51.6521Z" fill="#83BBDD"/>
<path d="M61.4406 51.3586C59.018 51.3586 57.0571 52.8846 57.0571 54.7627V57.3199C57.0571 59.2022 59.0222 60.724 61.4406 60.724H91.5752V60.1539H91.4492L83.7865 59.5921L82.2371 54.8759C82.2371 54.8759 85.2267 52.2683 85.4198 52.2013C85.613 52.1342 91.445 51.9288 91.445 51.9288H91.571V51.3586H61.4406Z" fill="#7DB5D1"/>
<path d="M89.6187 56.0246C89.6187 53.2661 91.4536 51.9288 91.4536 51.9288H62.058C59.8326 51.9288 58.0314 53.329 58.0314 55.0562V57.0223C58.0314 58.7495 59.8368 60.1497 62.058 60.1497H91.4578C91.4536 60.1497 89.6187 59.4957 89.6187 56.0246Z" fill="#CDEFF7"/>
<path d="M45.5861 57.1732V54.9136C45.5861 52.9475 47.6392 51.3544 50.1711 51.3544H45.5735C43.0416 51.3544 40.9884 52.9475 40.9884 54.9136V57.1732C40.9884 59.1394 43.0416 60.7324 45.5735 60.7324H50.1081C47.6057 60.703 45.5861 59.1226 45.5861 57.1732Z" fill="#556DA1"/>
<path d="M92.1084 72.9192H94.5311C94.1364 72.7095 93.6409 72.5796 93.0993 72.5796H32.4145C29.2402 72.5796 26.6664 74.3613 26.6664 76.558V79.0859C26.6664 81.2826 29.2402 83.0643 32.4145 83.0643L92.4233 83.0517L92.1084 72.9192Z" fill="#83BBDD"/>
<path d="M57.6574 72.5879C54.6217 72.5879 52.1613 74.2899 52.1613 76.3902V79.2451C52.1613 81.3454 54.6217 83.0474 57.6574 83.0474H95.438V82.4102H95.2826L85.68 81.7814L83.7402 76.5118C83.7402 76.5118 87.4855 73.5982 87.7332 73.5269C87.9767 73.4515 95.2868 73.2251 95.2868 73.2251H95.4422V72.5879H57.6574Z" fill="#78AEC4"/>
<path d="M92.9859 77.8031C92.9859 74.7218 95.2868 73.2294 95.2868 73.2294H58.43C55.642 73.2294 53.3789 74.7931 53.3789 76.7215V78.9182C53.3789 80.8466 55.642 82.4103 58.43 82.4103H95.2868C95.2868 82.4145 92.9859 81.6809 92.9859 77.8031Z" fill="#ABDDE9"/>
<path d="M110.948 34.4012L93.9559 24.7004L91.6592 29.2406L109.046 38.4257L110.948 34.4012Z" fill="#556DA1"/>
</svg>
