<svg width="143" height="112" viewBox="0 0 143 112" fill="none" xmlns="http://www.w3.org/2000/svg">
<path d="M40.675 24.2098C40.5403 24.2098 40.4266 24.0993 40.4266 23.959V21.4343C40.4266 20.0912 39.3451 18.9989 38.0152 18.9989H26.9216C26.787 18.9989 26.6733 18.8884 26.6733 18.7481C26.6733 18.6079 26.7828 18.4974 26.9216 18.4974H38.0152C39.6186 18.4974 40.9233 19.815 40.9233 21.4343V23.959C40.9233 24.0993 40.8096 24.2098 40.675 24.2098Z" fill="#C0DDED"/>
<path d="M33.2891 58.3398H0.2483C0.109421 58.3398 0 58.2293 0 58.089C0 57.9488 0.109421 57.8383 0.2483 57.8383H33.2891C33.4238 57.8383 33.5374 57.9488 33.5374 58.089C33.5374 58.2293 33.4238 58.3398 33.2891 58.3398Z" fill="#C0DDED"/>
<path d="M15.5587 67.9965C15.4241 67.9965 15.3104 67.886 15.3104 67.7457V64.031C15.3104 62.4116 16.6151 61.094 18.2185 61.094H31.9971C32.1317 61.094 32.2454 61.2045 32.2454 61.3448C32.2454 61.485 32.1359 61.5955 31.9971 61.5955H18.2185C16.8886 61.5955 15.807 62.6879 15.807 64.031V67.7457C15.807 67.886 15.6934 67.9965 15.5587 67.9965Z" fill="#C0DDED"/>
<path d="M83.3616 112C83.2269 112 83.1133 111.889 83.1133 111.749V94.3357C83.1133 94.1997 83.2227 94.0849 83.3616 94.0849C83.5005 94.0849 83.6099 94.1954 83.6099 94.3357V111.749C83.6057 111.889 83.4963 112 83.3616 112Z" fill="#C0DDED"/>
<path d="M106.462 103.729H88.3824C86.779 103.729 85.4744 102.411 85.4744 100.792V94.3357C85.4744 94.1997 85.5838 94.0849 85.7227 94.0849C85.8615 94.0849 85.971 94.1954 85.971 94.3357V100.792C85.971 102.135 87.0525 103.227 88.3824 103.227H106.462C106.597 103.227 106.71 103.338 106.71 103.478C106.71 103.618 106.597 103.729 106.462 103.729Z" fill="#C0DDED"/>
<path d="M51.2846 23.5042C51.1499 23.5042 51.0363 23.3937 51.0363 23.2535V0.250768C51.0363 0.114758 51.1457 0 51.2846 0C51.4234 0 51.5329 0.110508 51.5329 0.250768V23.2577C51.5329 23.3937 51.4234 23.5042 51.2846 23.5042Z" fill="#C0DDED"/>
<path d="M54.1884 23.398C54.0537 23.398 53.9401 23.2875 53.9401 23.1472V8.14363C53.9401 6.52426 55.2447 5.20667 56.8481 5.20667H63.9689C64.1035 5.20667 64.2172 5.31717 64.2172 5.45743C64.2172 5.59769 64.1078 5.7082 63.9689 5.7082H56.8481C55.5182 5.7082 54.4367 6.80053 54.4367 8.14363V23.1472C54.4325 23.2832 54.323 23.398 54.1884 23.398Z" fill="#C0DDED"/>
<path d="M130.021 49.2229H110.439C110.304 49.2229 110.191 49.1124 110.191 48.9721C110.191 48.8318 110.3 48.7213 110.439 48.7213H130.021C131.351 48.7213 132.433 47.629 132.433 46.2859V41.8103C132.433 41.6743 132.542 41.5596 132.681 41.5596C132.82 41.5596 132.929 41.6701 132.929 41.8103V46.2859C132.925 47.9053 131.624 49.2229 130.021 49.2229Z" fill="#C0DDED"/>
<path d="M140.416 52.2618H110.224C110.09 52.2618 109.976 52.1513 109.976 52.0111C109.976 51.8708 110.085 51.7603 110.224 51.7603H140.416C140.551 51.7603 140.664 51.8708 140.664 52.0111C140.664 52.1513 140.551 52.2618 140.416 52.2618Z" fill="#C0DDED"/>
<path d="M30.764 55.5176H8.27806C6.67462 55.5176 5.37 54.2 5.37 52.5806V40.1825C5.37 40.0465 5.47942 39.9317 5.6183 39.9317C5.75718 39.9317 5.8666 40.0422 5.8666 40.1825V52.5806C5.8666 53.9237 6.94818 55.0161 8.27806 55.0161H30.764C30.8986 55.0161 31.0123 55.1266 31.0123 55.2668C31.0123 55.4071 30.8986 55.5176 30.764 55.5176Z" fill="#231F20"/>
<path d="M5.72773 50.5745C6.73646 50.5745 7.55421 49.5184 7.55421 48.2156C7.55421 46.9128 6.73646 45.8566 5.72773 45.8566C4.71899 45.8566 3.90125 46.9128 3.90125 48.2156C3.90125 49.5184 4.71899 50.5745 5.72773 50.5745Z" fill="white"/>
<path d="M5.72774 50.8252C4.58303 50.8252 3.65295 49.6564 3.65295 48.2155C3.65295 46.7747 4.58303 45.6058 5.72774 45.6058C6.87244 45.6058 7.80252 46.7747 7.80252 48.2155C7.80252 49.6564 6.87244 50.8252 5.72774 50.8252ZM5.72774 46.1031C4.85658 46.1031 4.14955 47.0509 4.14955 48.2155C4.14955 49.3801 4.85658 50.3279 5.72774 50.3279C6.59889 50.3279 7.30592 49.3801 7.30592 48.2155C7.30592 47.0509 6.59889 46.1031 5.72774 46.1031Z" fill="#C0DDED"/>
<path d="M23.0247 63.2999C24.3146 63.2999 25.3604 62.4741 25.3604 61.4553C25.3604 60.4365 24.3146 59.6107 23.0247 59.6107C21.7347 59.6107 20.689 60.4365 20.689 61.4553C20.689 62.4741 21.7347 63.2999 23.0247 63.2999Z" fill="white"/>
<path d="M23.0247 63.5507C21.598 63.5507 20.4407 62.6113 20.4407 61.4553C20.4407 60.2992 21.598 59.3599 23.0247 59.3599C24.4514 59.3599 25.6087 60.2992 25.6087 61.4553C25.6087 62.6071 24.4514 63.5507 23.0247 63.5507ZM23.0247 59.8571C21.8716 59.8571 20.9331 60.5712 20.9331 61.451C20.9331 62.3308 21.8716 63.0449 23.0247 63.0449C24.1778 63.0449 25.1163 62.3308 25.1163 61.451C25.1163 60.5755 24.1778 59.8571 23.0247 59.8571Z" fill="#C0DDED"/>
<path d="M83.4667 109.157C84.4755 109.157 85.2932 108.1 85.2932 106.798C85.2932 105.495 84.4755 104.439 83.4667 104.439C82.458 104.439 81.6403 105.495 81.6403 106.798C81.6403 108.1 82.458 109.157 83.4667 109.157Z" fill="white"/>
<path d="M83.4668 109.407C82.322 109.407 81.392 108.238 81.392 106.798C81.392 105.357 82.322 104.188 83.4668 104.188C84.6115 104.188 85.5415 105.357 85.5415 106.798C85.5415 108.238 84.6115 109.407 83.4668 109.407ZM83.4668 104.685C82.5956 104.685 81.8886 105.633 81.8886 106.798C81.8886 107.962 82.5956 108.91 83.4668 108.91C84.3379 108.91 85.0449 107.962 85.0449 106.798C85.0449 105.633 84.3379 104.685 83.4668 104.685Z" fill="#C0DDED"/>
<path d="M140.416 53.8558C141.706 53.8558 142.752 53.0299 142.752 52.0111C142.752 50.9924 141.706 50.1665 140.416 50.1665C139.126 50.1665 138.08 50.9924 138.08 52.0111C138.08 53.0299 139.126 53.8558 140.416 53.8558Z" fill="white"/>
<path d="M140.416 54.1065C138.989 54.1065 137.832 53.1672 137.832 52.0111C137.832 50.855 138.989 49.9157 140.416 49.9157C141.843 49.9157 143 50.855 143 52.0111C143 53.1672 141.843 54.1065 140.416 54.1065ZM140.416 50.4172C139.263 50.4172 138.324 51.1313 138.324 52.0111C138.324 52.8909 139.263 53.605 140.416 53.605C141.569 53.605 142.508 52.8909 142.508 52.0111C142.508 51.1313 141.569 50.4172 140.416 50.4172Z" fill="#231F20"/>
<path d="M33.6383 20.4865C34.9283 20.4865 35.974 19.6606 35.974 18.6419C35.974 17.6231 34.9283 16.7972 33.6383 16.7972C32.3483 16.7972 31.3026 17.6231 31.3026 18.6419C31.3026 19.6606 32.3483 20.4865 33.6383 20.4865Z" fill="white"/>
<path d="M33.6383 20.7373C32.2117 20.7373 31.0543 19.7979 31.0543 18.6419C31.0543 17.4858 32.2117 16.5464 33.6383 16.5464C35.065 16.5464 36.2223 17.4858 36.2223 18.6419C36.2223 19.7979 35.0608 20.7373 33.6383 20.7373ZM33.6383 17.048C32.4852 17.048 31.5467 17.762 31.5467 18.6419C31.5467 19.5217 32.4852 20.2357 33.6383 20.2357C34.7914 20.2357 35.7299 19.5217 35.7299 18.6419C35.7299 17.762 34.7914 17.048 33.6383 17.048Z" fill="#C0DDED"/>
<path d="M51.2846 11.3994C52.2933 11.3994 53.1111 10.3432 53.1111 9.04044C53.1111 7.73764 52.2933 6.68152 51.2846 6.68152C50.2759 6.68152 49.4581 7.73764 49.4581 9.04044C49.4581 10.3432 50.2759 11.3994 51.2846 11.3994Z" fill="white"/>
<path d="M51.2846 11.6501C50.1399 11.6501 49.2098 10.4813 49.2098 9.04042C49.2098 7.59956 50.1399 6.43073 51.2846 6.43073C52.4293 6.43073 53.3594 7.59956 53.3594 9.04042C53.3594 10.4813 52.4293 11.6501 51.2846 11.6501ZM51.2846 6.92801C50.4135 6.92801 49.7064 7.87583 49.7064 9.04042C49.7064 10.205 50.4135 11.1528 51.2846 11.1528C52.1558 11.1528 52.8628 10.205 52.8628 9.04042C52.8628 7.87583 52.1558 6.92801 51.2846 6.92801Z" fill="#C0DDED"/>
<path d="M10.9126 70.3469H7.36484C7.24701 70.3469 7.15442 70.2534 7.15442 70.1344C7.15442 70.0154 7.24701 69.9219 7.36484 69.9219H10.9084C11.0262 69.9219 11.1188 70.0154 11.1188 70.1344C11.1188 70.2534 11.0262 70.3469 10.9126 70.3469Z" fill="#231F20"/>
<path d="M4.70502 70.3469H1.16147C1.04364 70.3469 0.95105 70.2534 0.95105 70.1344C0.95105 70.0154 1.04364 69.9219 1.16147 69.9219H4.70922C4.82706 69.9219 4.91965 70.0154 4.91965 70.1344C4.91965 70.2534 4.82285 70.3469 4.70502 70.3469Z" fill="#231F20"/>
<path d="M6.03489 69.0038C5.91705 69.0038 5.82446 68.9103 5.82446 68.7913V65.2083C5.82446 65.0893 5.91705 64.9958 6.03489 64.9958C6.15273 64.9958 6.24531 65.0893 6.24531 65.2083V68.7913C6.24531 68.9103 6.15273 69.0038 6.03489 69.0038Z" fill="#231F20"/>
<path d="M6.03489 75.2731C5.91705 75.2731 5.82446 75.1796 5.82446 75.0605V71.4775C5.82446 71.3585 5.91705 71.265 6.03489 71.265C6.15273 71.265 6.24531 71.3585 6.24531 71.4775V75.0605C6.24531 75.1753 6.15273 75.2731 6.03489 75.2731Z" fill="#231F20"/>
<path d="M126.288 39.9615H122.74C122.623 39.9615 122.53 39.868 122.53 39.749C122.53 39.6299 122.623 39.5364 122.74 39.5364H126.288C126.406 39.5364 126.499 39.6299 126.499 39.749C126.499 39.868 126.402 39.9615 126.288 39.9615Z" fill="#231F20"/>
<path d="M120.081 39.9615H116.537C116.419 39.9615 116.327 39.868 116.327 39.749C116.327 39.6299 116.419 39.5364 116.537 39.5364H120.081C120.198 39.5364 120.291 39.6299 120.291 39.749C120.291 39.868 120.198 39.9615 120.081 39.9615Z" fill="#231F20"/>
<path d="M121.41 38.6183C121.293 38.6183 121.2 38.5248 121.2 38.4058V34.8228C121.2 34.7038 121.293 34.6103 121.41 34.6103C121.528 34.6103 121.621 34.7038 121.621 34.8228V38.4058C121.621 38.5248 121.528 38.6183 121.41 38.6183Z" fill="#231F20"/>
<path d="M121.41 44.8876C121.293 44.8876 121.2 44.7941 121.2 44.675V41.092C121.2 40.973 121.293 40.8795 121.41 40.8795C121.528 40.8795 121.621 40.973 121.621 41.092V44.675C121.621 44.7898 121.528 44.8876 121.41 44.8876Z" fill="#231F20"/>
<path d="M67.2095 13.9835C66.3131 13.8093 65.4041 13.6818 64.4782 13.601C52.8628 12.5937 39.2568 17.4773 32.9398 42.1801C20.7857 89.7156 47.9767 64.813 50.6828 93.0224C51.2509 98.9388 54.2221 101.965 58.5779 102.815C75.0078 106.016 111.192 78.3078 113.191 57.8085C115.434 34.7888 96.6647 51.2885 87.2966 30.4025C83.5089 21.9529 76.0852 15.7134 67.2095 13.9835Z" fill="#E6F5F8"/>
<path d="M71.3169 55.4581L83.7403 60.4989L99.1223 21.8211L88.618 17.5623C87.5574 17.133 86.3496 17.6515 85.9245 18.7226L71.3169 55.4581Z" fill="#6894C5"/>
<path d="M69.8618 54.0153L93.6506 58.2758L99.5819 24.4956L75.7931 20.2352L69.8618 54.0153Z" fill="#C6EAF7"/>
<path d="M81.7993 24.7754L81.7567 25.0181L92.3811 26.9209L92.4237 26.6782L81.7993 24.7754Z" fill="#55769F"/>
<path d="M79.6714 23.7662L79.6288 24.009L94.7159 26.711L94.7585 26.4682L79.6714 23.7662Z" fill="#55769F"/>
<path d="M77.5132 26.6189L77.4706 26.8616L95.7732 30.1395L95.8158 29.8968L77.5132 26.6189Z" fill="#55769F"/>
<path d="M77.3078 27.7758L77.2651 28.0185L95.5677 31.2964L95.6104 31.0537L77.3078 27.7758Z" fill="#55769F"/>
<path d="M76.9039 30.0949L76.8613 30.3376L95.1639 33.6155L95.2065 33.3728L76.9039 30.0949Z" fill="#55769F"/>
<path d="M76.6984 31.2518L76.6558 31.4945L94.9583 34.7724L95.001 34.5297L76.6984 31.2518Z" fill="#55769F"/>
<path d="M76.497 32.4093L76.4543 32.652L94.7569 35.9299L94.7996 35.6871L76.497 32.4093Z" fill="#55769F"/>
<path d="M75.6023 37.5072L75.5597 37.7499L93.8623 41.0278L93.9049 40.785L75.6023 37.5072Z" fill="#55769F"/>
<path d="M75.3887 38.7076L75.3461 38.9503L93.6487 42.2282L93.6913 41.9855L75.3887 38.7076Z" fill="#55769F"/>
<path d="M75.1798 39.9092L75.1372 40.1519L93.4398 43.4298L93.4824 43.1871L75.1798 39.9092Z" fill="#55769F"/>
<path d="M74.9702 41.1102L74.9276 41.3529L93.2302 44.6308L93.2728 44.3881L74.9702 41.1102Z" fill="#55769F"/>
<path d="M74.7566 42.3106L74.714 42.5533L93.0166 45.8312L93.0592 45.5885L74.7566 42.3106Z" fill="#55769F"/>
<path d="M74.5468 43.5114L74.5042 43.7542L92.8068 47.032L92.8494 46.7893L74.5468 43.5114Z" fill="#55769F"/>
<path d="M74.3377 44.7128L74.295 44.9556L92.5976 48.2334L92.6402 47.9907L74.3377 44.7128Z" fill="#55769F"/>
<path d="M70.5639 52.5722L93.9299 58.7823L102.576 25.6025L79.2095 19.3924L70.5639 52.5722Z" fill="#E6F5F8"/>
<path d="M84.7678 24.647L95.2034 27.4205L95.2655 27.1821L84.8299 24.4086L84.7678 24.647Z" fill="#6894C5"/>
<path d="M82.7351 23.4651L97.5541 27.4036L97.6162 27.1652L82.7973 23.2267L82.7351 23.4651Z" fill="#6894C5"/>
<path d="M80.353 26.1274L98.3303 30.9053L98.3924 30.6669L80.4152 25.889L80.353 26.1274Z" fill="#6894C5"/>
<path d="M80.0551 27.2637L98.0323 32.0416L98.0945 31.8032L80.1172 27.0253L80.0551 27.2637Z" fill="#6894C5"/>
<path d="M79.4618 29.5411L97.4391 34.319L97.5012 34.0806L79.5239 29.3027L79.4618 29.5411Z" fill="#6894C5"/>
<path d="M79.1681 30.6781L97.1454 35.456L97.2075 35.2176L79.2302 30.4397L79.1681 30.6781Z" fill="#6894C5"/>
<path d="M78.869 31.8183L96.8463 36.5962L96.9084 36.3578L78.9311 31.5799L78.869 31.8183Z" fill="#6894C5"/>
<path d="M77.5657 36.8212L95.543 41.5991L95.6051 41.3607L77.6278 36.5828L77.5657 36.8212Z" fill="#6894C5"/>
<path d="M77.2574 38.0034L95.2347 42.7812L95.2969 42.5428L77.3196 37.765L77.2574 38.0034Z" fill="#6894C5"/>
<path d="M76.9502 39.1813L94.9275 43.9592L94.9896 43.7208L77.0123 38.9429L76.9502 39.1813Z" fill="#6894C5"/>
<path d="M76.6427 40.3599L94.62 45.1378L94.6821 44.8993L76.7048 40.1215L76.6427 40.3599Z" fill="#6894C5"/>
<path d="M76.3346 41.5419L94.3119 46.3198L94.374 46.0814L76.3967 41.3035L76.3346 41.5419Z" fill="#6894C5"/>
<path d="M76.0266 42.7208L94.0039 47.4987L94.066 47.2603L76.0887 42.4824L76.0266 42.7208Z" fill="#6894C5"/>
<path d="M75.7188 43.9026L93.696 48.6805L93.7582 48.4421L75.7809 43.6642L75.7188 43.9026Z" fill="#6894C5"/>
<path d="M76.0304 57.3707L101.046 67.5162L115.636 30.8275L94.6151 17.7323C93.4325 16.997 91.8795 17.5113 91.3619 18.8119L76.0304 57.3707Z" fill="#71A5D3"/>
<path d="M34.518 42.8177H32.8093C33.0871 42.6264 33.4406 42.5074 33.8194 42.5074H76.6701C78.9133 42.5074 80.7313 44.1353 80.7313 46.1414V48.4536C80.7313 50.4597 78.9133 52.0876 76.6701 52.0876L34.2991 52.0748L34.518 42.8177Z" fill="#83BBDD"/>
<path d="M77.1372 48.4535V46.1456C77.1372 44.1395 75.3192 42.5116 73.076 42.5116H73.9977C76.2408 42.5116 78.0589 44.1395 78.0589 46.1456V48.4535C78.0589 50.4597 76.2408 52.0876 73.9977 52.0876H73.0887C75.3276 52.0791 77.1372 50.4554 77.1372 48.4535Z" fill="#D1EAF2"/>
<path d="M67.1 48.4535V46.1456C67.1 44.1395 65.2819 42.5116 63.0388 42.5116H63.9605C66.2036 42.5116 68.0217 44.1395 68.0217 46.1456V48.4535C68.0217 50.4597 66.2036 52.0876 63.9605 52.0876H63.0514C65.2904 52.0791 67.1 50.4554 67.1 48.4535Z" fill="#D1EAF2"/>
<path d="M58.8472 42.5143C60.9893 42.5143 62.7274 44.07 62.7274 45.9911V48.6008C62.7274 50.5219 60.9893 52.0775 58.8472 52.0775H32.1696V51.4953H32.279L39.0589 50.9215L40.4309 46.1059C40.4309 46.1059 37.7837 43.4452 37.6112 43.3772C37.4386 43.3092 32.2748 43.1009 32.2748 43.1009H32.1654V42.5186H58.8472V42.5143Z" fill="#BDE0E5"/>
<path d="M33.8993 47.2805C33.8993 44.4668 32.2748 43.1024 32.2748 43.1024H58.3C60.2696 43.1024 61.8646 44.5305 61.8646 46.2944V48.3006C61.8646 50.0644 60.2696 51.4925 58.3 51.4925H32.2748C32.2748 51.4925 33.8993 50.8252 33.8993 47.2805Z" fill="#C6EAF3"/>
<path d="M35.225 61.9611H33.2891C33.6047 61.7188 34.0003 61.5743 34.4338 61.5743H82.9365C85.4742 61.5743 87.5322 63.6102 87.5322 66.1221V69.0123C87.5322 71.5243 85.4742 73.5602 82.9365 73.5602L34.9767 73.5432L35.225 61.9611Z" fill="#83BBDD"/>
<path d="M62.7611 61.5812C65.1893 61.5812 67.1547 63.5279 67.1547 65.9336V69.1978C67.1547 71.5992 65.1893 73.5501 62.7611 73.5501H32.5652V72.8191H32.6914L40.3677 72.1008L41.9206 66.0738C41.9206 66.0738 38.9284 62.7458 38.7306 62.6566C38.537 62.5716 32.6914 62.3123 32.6914 62.3123H32.5652V61.5855H62.7611V61.5812Z" fill="#7FB7D3"/>
<path d="M34.5264 67.546C34.5264 64.0225 32.6873 62.3138 32.6873 62.3138H62.1424C64.3729 62.3138 66.1783 64.1032 66.1783 66.3091V68.8211C66.1783 71.027 64.3729 72.8164 62.1424 72.8164H32.6873C32.6873 72.8206 34.5264 71.9833 34.5264 67.546Z" fill="#ABDDE9"/>
<path d="M89.1272 52.3681H91.0631C90.7474 52.1768 90.3518 52.0621 89.9184 52.0621H41.3988C38.8611 52.0621 36.8031 53.6772 36.8031 55.6706V57.9615C36.8031 59.9549 38.8611 61.57 41.3988 61.57L89.3755 61.5573L89.1272 52.3681Z" fill="#83BBDD"/>
<path d="M61.5826 52.0706C59.1543 52.0706 57.189 53.6177 57.189 55.5218V58.1145C57.189 60.0229 59.1585 61.5658 61.5826 61.5658H91.7869V60.9877H91.6607L83.9802 60.4182L82.4272 55.6366C82.4272 55.6366 85.4237 52.9929 85.6173 52.9249C85.8109 52.8569 91.6564 52.6486 91.6564 52.6486H91.7827V52.0706H61.5826V52.0706Z" fill="#7DB5D1"/>
<path d="M89.8257 56.8012C89.8257 54.0045 91.6648 52.6486 91.6648 52.6486H62.2012C59.9707 52.6486 58.1653 54.0682 58.1653 55.8194V57.8127C58.1653 59.5639 59.9749 60.9835 62.2012 60.9835H91.669C91.6648 60.9835 89.8257 60.3204 89.8257 56.8012Z" fill="#C6EAF3"/>
<path d="M45.6914 57.9658V55.6749C45.6914 53.6815 47.7494 52.0663 50.2871 52.0663H45.6788C43.1411 52.0663 41.0831 53.6815 41.0831 55.6749V57.9658C41.0831 59.9592 43.1411 61.5743 45.6788 61.5743H50.224C47.7157 61.5445 45.6914 59.9422 45.6914 57.9658Z" fill="#556DA1"/>
<path d="M92.3215 73.93H94.7498C94.3542 73.7175 93.8576 73.5857 93.3147 73.5857H32.4896C29.3079 73.5857 26.7281 75.3921 26.7281 77.6192V80.1822C26.7281 82.4093 29.3079 84.2157 32.4896 84.2157L92.6372 84.203L92.3215 73.93Z" fill="#83BBDD"/>
<path d="M57.7909 73.5942C54.7482 73.5942 52.282 75.3198 52.282 77.4492V80.3437C52.282 82.4731 54.7482 84.1987 57.7909 84.1987H95.6588V83.5527H95.5031L85.8783 82.9151L83.934 77.5725C83.934 77.5725 87.6879 74.6185 87.9362 74.5462C88.1803 74.4697 95.5073 74.2402 95.5073 74.2402H95.663V73.5942H57.7909V73.5942Z" fill="#78AEC4"/>
<path d="M93.201 78.8815C93.201 75.7576 95.5073 74.2444 95.5073 74.2444H58.5652C55.7708 74.2444 53.5024 75.8298 53.5024 77.785V80.0121C53.5024 81.9673 55.7708 83.5526 58.5652 83.5526H95.5073C95.5073 83.5569 93.201 82.8131 93.201 78.8815Z" fill="#ABDDE9"/>
<path d="M111.205 34.8781L94.1733 25.0428L91.8712 29.6459L109.299 38.9584L111.205 34.8781Z" fill="#556DA1"/>
</svg>
