<svg width="113" height="134" viewBox="0 0 113 134" fill="none" xmlns="http://www.w3.org/2000/svg">
<path opacity="0.25" d="M3.80957 23.827C3.93609 23.5126 3.93609 23.1983 3.80957 22.8839L0.0770307 11.8192C-0.239285 10.8762 0.456617 9.8703 1.46883 9.8703H31.6453V35.3318C31.6453 35.8347 31.3923 36.3377 30.9494 36.5891C30.6964 36.7149 30.4433 36.8406 30.127 36.8406H1.46883C0.456617 36.8406 -0.239285 35.8347 0.0770307 34.8917L3.80957 23.827Z" fill="#FDCC70"/>
<path opacity="0.4" d="M31.7089 9.8703H12.73V31.7483C12.73 33.3829 14.0585 34.766 15.7666 34.766H31.7722V9.8703H31.7089Z" fill="#FDCC70"/>
<path d="M16.4619 31.4969H31.7083V35.3947C31.7083 35.8976 31.4553 36.4006 31.0124 36.6521L17.0313 31.8112C16.8415 31.7484 16.6517 31.6226 16.4619 31.4969Z" fill="#FDCC70"/>
<path opacity="0.4" d="M41.6408 4.46368V31.434H16.4621C16.2091 31.1825 16.0193 30.8053 16.0193 30.3652V5.97251C16.0193 5.15523 16.7152 4.46368 17.5376 4.46368H41.6408Z" fill="#FDCC70"/>
<path opacity="0.7" d="M41.6411 72.2352V1.50883C41.6411 0.691546 42.337 0 43.1594 0H46.1961C47.0185 0 47.7144 0.691546 47.7144 1.50883V72.2352C47.7144 73.0525 47.0185 73.744 46.1961 73.744H43.1594C42.337 73.744 41.6411 73.0525 41.6411 72.2352Z" fill="#FDCC70"/>
<path d="M40.2491 73.6811V40.424H46.2591V73.6811C46.2591 74.4984 45.5632 75.1899 44.7408 75.1899H41.7042C40.8818 75.1899 40.2491 74.4984 40.2491 73.6811Z" fill="#FDCC70"/>
<path opacity="0.6" d="M89.7209 133.657H67.9584C66.6931 133.657 65.6809 132.651 65.6809 131.394V116.809C65.6809 115.551 66.6931 114.545 67.9584 114.545H89.7209C90.9861 114.545 91.9983 115.551 91.9983 116.809V131.394C92.0616 132.588 90.9861 133.657 89.7209 133.657Z" fill="#FDCC70"/>
<path opacity="0.3" d="M73.462 51.4888C59.9237 53.0605 49.2323 63.6223 47.6507 77.0761C46.6385 85.3746 49.2955 93.736 54.9892 99.9599C59.4176 104.738 62.5175 110.585 64.0358 116.934C64.2256 117.752 64.9215 118.317 65.7439 118.317H88.0125C88.8349 118.317 89.5941 117.752 89.7206 116.934C91.1124 110.647 94.1491 104.864 98.5775 100.211C109.522 88.3294 108.7 69.8463 96.6796 58.9701C90.4165 53.1863 81.9393 50.4829 73.462 51.4888Z" fill="#FDCC70"/>
<path opacity="0.8" d="M94.2759 48.5969C85.166 26.656 59.8608 16.2828 37.782 25.3358C15.7032 34.3888 5.26478 59.5359 14.3747 81.4768C21.0805 97.5081 36.8331 108.007 54.2937 108.007C55.2426 108.007 56.0018 107.253 56.0018 106.31C56.0018 105.367 55.2426 104.612 54.2937 104.612C32.3414 104.612 14.5645 86.9463 14.5645 65.1312C14.5645 43.316 32.3414 25.6501 54.2937 25.6501C60.9363 25.6501 67.4524 27.2847 73.2726 30.491L69.6666 36.4005C53.661 27.9762 33.7332 34.0116 25.2559 49.98C23.4846 53.2491 22.3458 56.8326 21.7764 60.4789C21.6499 61.4219 22.2825 62.3021 23.2315 62.4278C24.1804 62.5536 25.0661 61.9249 25.1927 60.9819C25.6988 57.7127 26.711 54.6322 28.2925 51.6774L34.2393 55.198C32.0883 59.4102 31.3924 64.251 32.1516 68.9661L23.6743 71.0407C22.7254 71.2922 22.156 72.1724 22.4091 73.1154C23.4846 77.2647 25.3192 81.1625 27.8497 84.6202C28.4191 85.3746 29.4945 85.5632 30.2537 84.9345C31.0129 84.3687 31.2026 83.3 30.6333 82.5456C28.7354 79.968 27.2171 77.0132 26.2681 73.9327L32.974 72.2352C37.2126 83.8029 50.1183 89.7754 61.822 85.5632C71.8175 81.9169 77.8908 71.858 76.3725 61.4219L83.0783 59.7245C83.4579 61.7363 83.6477 63.8738 83.5844 65.9484C83.5844 66.8915 84.3436 67.6459 85.2926 67.6459C86.2415 67.6459 87.0007 66.8915 87.0007 65.9484C87.1272 58.7186 84.8497 51.6146 80.5478 45.7679C79.9785 45.0134 78.903 44.8248 78.1438 45.3906C77.3847 45.9565 77.1949 47.0252 77.7643 47.7796C79.7254 50.3572 81.1805 53.2491 82.1927 56.3925L75.4868 58.09C71.7543 47.0252 60.1139 40.6755 48.7265 43.5046C47.7776 43.7561 47.2082 44.6362 47.4613 45.5792C47.7143 46.5223 48.6 47.0881 49.5489 46.8366C59.7343 44.3219 70.0462 50.4829 72.5767 60.6047C75.1072 70.7264 68.9074 80.9739 58.7221 83.4886C48.5367 86.0033 38.2248 79.8422 35.6943 69.7205C34.4923 64.8797 35.2515 59.7245 37.8453 55.3866C38.2881 54.5694 38.0351 53.5635 37.2759 53.1234L29.9374 48.6598C38.9207 35.8347 56.1915 32.0627 69.4768 39.984C70.2992 40.4869 71.3747 40.2355 71.8175 39.4182L76.2459 32.1255C92.125 42.5616 98.3247 62.7422 91.0495 80.2194C90.5434 81.4768 89.974 82.7342 89.3414 83.9286L84.7865 81.2253C82.4457 79.8422 79.4723 80.408 77.8908 82.6084C68.9074 94.6162 52.1427 97.8853 39.2371 90.0897C38.3514 89.7125 37.3392 90.0897 36.9596 90.9698C36.6433 91.7243 36.8331 92.6044 37.5289 93.0445C51.9529 101.72 70.6788 98.0739 80.7376 84.6202C81.2437 83.8658 82.2559 83.6772 83.0151 84.1173L87.57 86.8206C83.2049 93.4217 76.9418 98.514 69.6033 101.532C68.7176 101.909 68.2748 102.915 68.6544 103.795C69.034 104.675 70.0461 105.115 70.9318 104.738C81.4968 100.337 89.8475 91.9757 94.2126 81.4768C98.6411 70.915 98.6411 59.0958 94.2759 48.5969Z" fill="#FDCC70"/>
<path opacity="0.3" d="M96.6797 47.0252C87.5699 25.0844 62.2646 14.7112 40.1858 23.7641C18.107 32.8171 7.66859 57.9643 16.7785 79.9051C23.4844 95.9365 39.2369 106.435 56.6975 106.435C57.6464 106.435 58.4056 105.681 58.4056 104.738C58.4056 103.795 57.6464 103.041 56.6975 103.041C34.7452 103.041 16.9683 85.3747 16.9683 63.5595C16.9683 41.7443 34.7452 24.0785 56.6975 24.0785C63.3401 24.0785 69.8562 25.713 75.6764 28.9193L72.0704 34.8289C56.0648 26.4046 36.137 32.4399 27.6597 48.4083C25.8883 51.6775 24.7496 55.2609 24.1802 58.9073C24.0537 59.8503 24.6864 60.7304 25.6353 60.8562C26.5843 60.9819 27.4699 60.3532 27.5964 59.4102C28.1026 56.1411 29.1148 53.0606 30.6964 50.1058L36.6431 53.6264C34.4921 57.8385 33.7962 62.6793 34.5554 67.3944L26.0781 69.4691C25.1292 69.7206 24.5598 70.6007 24.8129 71.5437C25.8883 75.693 27.723 79.5908 30.2535 83.0485C30.8229 83.803 31.8983 83.9916 32.6575 83.3629C33.4166 82.7971 33.6064 81.7283 33.0371 80.9739C31.1392 78.3963 29.6209 75.4415 28.6719 72.361L35.3778 70.6636C39.6164 82.2313 52.5221 88.2037 64.2258 83.9916C74.2214 80.3452 80.2946 70.2864 78.7763 59.8503L85.4822 58.1529C85.8617 60.1646 86.0515 62.3021 85.9883 64.3768C85.9883 65.3198 86.7474 66.0742 87.6964 66.0742C88.6453 66.0742 89.4045 65.3198 89.4045 64.3768C89.531 57.147 87.2535 50.0429 82.9516 44.1962C82.3823 43.4418 81.3068 43.2532 80.5477 43.819C79.7885 44.3848 79.5987 45.4536 80.1681 46.208C82.1292 48.7855 83.5843 51.6775 84.5965 54.8209L77.8906 56.5183C74.1581 45.4536 62.5177 39.1039 51.1303 41.9329C50.1814 42.1844 49.612 43.0646 49.8651 44.0076C50.1181 44.9506 51.0038 45.5164 51.9527 45.2649C62.1381 42.7502 72.45 48.9113 74.9805 59.033C77.511 69.1547 71.3112 79.4022 61.1259 81.9169C50.9405 84.4316 40.6286 78.2706 38.0981 68.1489C36.8961 63.308 37.6553 58.1529 40.2491 53.815C40.6919 52.9977 40.4389 51.9918 39.6797 51.5517L32.3412 47.0881C41.1347 34.3259 58.3423 30.5539 71.6908 38.4752C72.5132 38.9782 73.5887 38.7267 74.0316 37.9094L78.46 30.6167C94.339 41.0528 100.539 61.2334 93.2635 78.7107C92.7574 79.968 92.1881 81.2254 91.5554 82.4199L87.0005 79.7165C84.6598 78.3335 81.6864 78.8993 80.1048 81.0996C71.1214 93.1074 54.3567 96.3765 41.4511 88.5809C40.5654 88.2037 39.5532 88.5809 39.1736 89.4611C38.8573 90.2155 39.0471 91.0956 39.743 91.5357C54.1669 100.211 72.8928 96.5651 82.9516 83.1114C83.4577 82.357 84.47 82.1684 85.2291 82.6085L89.7841 85.3118C85.4189 91.9129 79.1559 97.0052 71.8174 100.023C70.9317 100.4 70.4888 101.406 70.8684 102.286C71.248 103.166 72.2602 103.606 73.1459 103.229C83.7108 98.8284 92.0615 90.4669 96.4267 79.968C101.045 69.4062 101.045 57.5871 96.6797 47.0252Z" fill="#FDCC70"/>
<path opacity="0.2" d="M69.3503 100.337C92.9343 100.337 112.053 81.338 112.053 57.9013C112.053 34.4647 92.9343 15.4655 69.3503 15.4655C45.7663 15.4655 26.6477 34.4647 26.6477 57.9013C26.6477 81.338 45.7663 100.337 69.3503 100.337Z" fill="#FDCC70"/>
</svg>
