<svg width="168" height="163" viewBox="0 0 168 163" fill="none" xmlns="http://www.w3.org/2000/svg">
<path opacity="0.1" d="M135.875 135.026C151.131 119.865 139.267 83.4926 109.374 53.7869C79.4817 24.0812 42.8811 12.2907 27.6245 27.452C12.3679 42.6133 24.2326 78.9852 54.1251 108.691C84.0175 138.397 120.618 150.187 135.875 135.026Z" fill="#6895C6"/>
<path opacity="0.2" d="M133.685 132.834C148.273 118.337 136.931 83.5615 108.352 55.1607C79.7723 26.76 44.7783 15.4887 30.1902 29.9857C15.6021 44.4826 26.9442 79.2581 55.5235 107.659C84.1028 136.06 119.097 147.331 133.685 132.834Z" fill="#6895C6"/>
<path opacity="0.7" d="M23.9676 112.031L35.0947 100.001L19.0154 96.4775L23.9676 112.031Z" fill="#6895C6"/>
<path opacity="0.7" d="M24.5788 109.176L35.706 97.0851L19.6266 93.5612L24.5788 109.176Z" fill="#6895C6"/>
<path opacity="0.7" d="M139.519 54.2519L128.453 66.3424L144.532 69.8663L139.519 54.2519Z" fill="#6895C6"/>
<path opacity="0.7" d="M142.025 58.2618L130.959 70.3523L147.039 73.8762L142.025 58.2618Z" fill="#6895C6"/>
<path opacity="0.3" d="M56.5542 24.4812L67.5591 36.6933L72.6336 21.1396L56.5542 24.4812Z" fill="#6895C6"/>
<path opacity="0.3" d="M60.8949 24.6635L71.8998 36.8148L77.0354 21.2612L60.8949 24.6635Z" fill="#6895C6"/>
<path opacity="0.3" d="M118.243 139.128L104.731 129.833L103.386 146.115L118.243 139.128Z" fill="#6895C6"/>
<path opacity="0.3" d="M114.513 138.035L101.002 128.739L99.6569 145.022L114.513 138.035Z" fill="#6895C6"/>
<path opacity="0.3" d="M132.266 31.3955C138.749 37.8376 139.803 49.1799 135.298 62.9937C130.83 76.6922 121.046 92.2242 106.933 106.249C92.8199 120.274 77.1903 129.997 63.4056 134.436C49.5051 138.914 38.0914 137.866 31.6088 131.424C25.1262 124.982 24.0722 113.64 28.5776 99.8259C33.0454 86.1274 42.8291 70.5954 56.9421 56.5705C71.0551 42.5456 86.6848 32.8231 100.469 28.3832C114.37 23.9059 125.784 24.9533 132.266 31.3955Z" stroke="#6895C6" stroke-width="4"/>
<path opacity="0.15" d="M139.49 30.6588C145.973 37.101 147.027 48.4433 142.521 62.257C138.054 75.9556 128.27 91.4876 114.157 105.512C100.044 119.537 84.4142 129.26 70.6295 133.7C56.729 138.177 45.3153 137.13 38.8327 130.687C32.3501 124.245 31.2961 112.903 35.8014 99.0893C40.2693 85.3908 50.0529 69.8588 64.166 55.8339C78.279 41.809 93.9087 32.0864 107.693 27.6465C121.594 23.1693 133.008 24.2167 139.49 30.6588Z" stroke="#6895C6" stroke-width="4"/>
<path opacity="0.8" d="M83.2105 105.834H72.7558C71.6554 105.834 70.7383 104.923 70.7383 103.829V71.7497C70.7383 70.6561 71.6554 69.7448 72.7558 69.7448H83.2105C84.311 69.7448 85.2281 70.6561 85.2281 71.7497V103.829C85.2281 104.923 84.311 105.834 83.2105 105.834Z" fill="#6895C6"/>
<path opacity="0.7" d="M57.2266 105.834H46.772C45.6715 105.834 44.7544 104.923 44.7544 103.829V60.9958C44.7544 59.9022 45.6715 58.9908 46.772 58.9908H57.2877C58.3882 58.9908 59.3053 59.9022 59.3053 60.9958V103.829C59.2442 104.923 58.3271 105.834 57.2266 105.834Z" fill="#6895C6"/>
<path opacity="0.5" d="M69.6377 105.834H59.1219C58.0214 105.834 57.1044 104.923 57.1044 103.829V69.0157C57.1044 67.9221 58.0214 67.0107 59.1219 67.0107H69.6377C70.7382 67.0107 71.6553 67.9221 71.6553 69.0157V103.89C71.6553 104.923 70.7382 105.834 69.6377 105.834Z" fill="#6895C6"/>
<path d="M51.0517 80.1948C52.605 80.1948 53.8641 78.9435 53.8641 77.4C53.8641 75.8565 52.605 74.6052 51.0517 74.6052C49.4985 74.6052 48.2394 75.8565 48.2394 77.4C48.2394 78.9435 49.4985 80.1948 51.0517 80.1948Z" fill="#6895C6"/>
<path d="M64.9912 87.4856C66.5444 87.4856 67.8036 86.2343 67.8036 84.6908C67.8036 83.1473 66.5444 81.896 64.9912 81.896C63.438 81.896 62.1788 83.1473 62.1788 84.6908C62.1788 86.2343 63.438 87.4856 64.9912 87.4856Z" fill="#6895C6"/>
<path d="M77.6467 92.7106C79.1999 92.7106 80.4591 91.4594 80.4591 89.9158C80.4591 88.3723 79.1999 87.121 77.6467 87.121C76.0935 87.121 74.8344 88.3723 74.8344 89.9158C74.8344 91.4594 76.0935 92.7106 77.6467 92.7106Z" fill="#6895C6"/>
<path opacity="0.45" d="M87.5511 49.5737C81.1316 49.5737 76.424 52.1862 74.1007 53.5228V88.397C76.424 87.0603 81.1316 84.4478 87.5511 84.4478C95.1323 84.4478 100.023 87.1211 102.408 88.397V53.5228C100.023 52.2469 95.1323 49.5737 87.5511 49.5737Z" fill="#6895C6"/>
<path opacity="0.45" d="M87.1233 60.0237C82.4156 60.0237 78.9919 61.9072 77.28 62.8793V64.3374C78.9919 63.3653 82.4156 61.4819 87.1233 61.4819C92.6869 61.4819 96.2329 63.4261 98.0059 64.3374V62.8793C96.2329 61.9679 92.6869 60.0237 87.1233 60.0237Z" fill="#6895C6"/>
<path opacity="0.45" d="M87.1233 63.3046C82.4156 63.3046 78.9919 65.188 77.28 66.1601V67.6183C78.9919 66.6462 82.4156 64.7627 87.1233 64.7627C92.6869 64.7627 96.2329 66.7069 98.0059 67.6183V66.1601C96.2329 65.2488 92.6869 63.3046 87.1233 63.3046Z" fill="#6895C6"/>
<path opacity="0.45" d="M87.1233 66.5854C82.4156 66.5854 78.9919 68.4689 77.28 69.441V70.8992C78.9919 69.927 82.4156 68.0436 87.1233 68.0436C92.6869 68.0436 96.2329 69.9878 98.0059 70.8992V69.441C96.2329 68.5297 92.6869 66.5854 87.1233 66.5854Z" fill="#6895C6"/>
<path opacity="0.45" d="M87.1233 69.8663C82.4156 69.8663 78.9919 71.7497 77.28 72.7218V74.18C78.9919 73.2079 82.4156 71.3244 87.1233 71.3244C92.6869 71.3244 96.2329 73.2686 98.0059 74.18V72.7826C96.2329 71.8105 92.6869 69.8663 87.1233 69.8663Z" fill="#6895C6"/>
<path opacity="0.45" d="M111.456 52.9153C106.749 52.9153 103.325 54.7987 101.613 55.7708V57.229C103.325 56.2569 106.749 54.3734 111.456 54.3734C117.02 54.3734 120.566 56.3176 122.339 57.229V55.7708C120.566 54.9202 116.959 52.9153 111.456 52.9153Z" fill="#6895C6"/>
<path opacity="0.45" d="M111.456 56.2568C106.749 56.2568 103.325 58.1403 101.613 59.1124V60.5705C103.325 59.5984 106.749 57.715 111.456 57.715C117.02 57.715 120.566 59.6592 122.339 60.5705V59.1124C120.566 58.201 116.959 56.1961 111.456 56.2568Z" fill="#6895C6"/>
<path opacity="0.45" d="M111.456 59.5377C106.749 59.5377 103.325 61.4211 101.613 62.3932V63.8514C103.325 62.8793 106.749 60.9958 111.456 60.9958C117.02 60.9958 120.566 62.94 122.339 63.8514V62.3932C120.566 61.4819 116.959 59.5377 111.456 59.5377Z" fill="#6895C6"/>
<path opacity="0.45" d="M111.456 62.8185C106.749 62.8185 103.325 64.702 101.613 65.6741V67.1322C103.325 66.1601 106.749 64.2767 111.456 64.2767C117.02 64.2767 120.566 66.2209 122.339 67.1322V65.6741C120.566 64.7627 116.959 62.8185 111.456 62.8185Z" fill="#6895C6"/>
<path opacity="0.2" d="M111.028 48.6016C104.609 48.6016 99.9013 51.2141 97.578 52.5507V87.3641C99.9013 86.0275 104.609 83.415 111.028 83.415C118.61 83.415 123.501 86.0882 125.885 87.3641V52.5507C123.501 51.2748 118.61 48.6016 111.028 48.6016Z" fill="#6895C6"/>
<path d="M59.611 83.7795H46.4663V85.1161H59.611V83.7795Z" fill="#6895C6"/>
<path d="M59.978 85.9667H46.8333V87.3033H59.978V85.9667Z" fill="#6895C6"/>
<path d="M59.1832 88.2147H46.0385V89.5513H59.1832V88.2147Z" fill="#6895C6"/>
<path d="M93.4204 94.5941H61.8119V95.9308H93.4204V94.5941Z" fill="#6895C6"/>
<path d="M93.4204 96.4167H61.8119V97.7534H93.4204V96.4167Z" fill="#6895C6"/>
<path d="M93.4204 98.2395H61.8119V99.5761H93.4204V98.2395Z" fill="#6895C6"/>
</svg>
