<svg width="497" height="213" viewBox="0 0 497 213" fill="none" xmlns="http://www.w3.org/2000/svg">
<path opacity="0.35" d="M381.182 159.133C341.619 113.028 331.931 0 250.892 0C250.079 0 249.313 0.0781816 248.5 0.100519C247.687 0.0781816 246.921 0 246.108 0C165.069 0 155.357 113.028 115.818 159.133C76.2794 205.238 0 212.621 0 212.621H248.5H497C497 212.621 420.721 205.238 381.182 159.133Z" fill="#FDCC70"/>
<path opacity="0.35" d="M381.182 182.398C341.643 156.352 331.931 92.4888 250.892 92.4888C250.079 92.4888 249.313 92.5334 248.5 92.5446C247.687 92.5334 246.921 92.4888 246.108 92.4888C165.069 92.4888 155.381 156.341 115.818 182.398C76.2794 208.443 0 212.62 0 212.62H248.5H497C497 212.62 420.721 208.443 381.182 182.398Z" fill="#FDCC70"/>
<path opacity="0.35" d="M381.182 194.717C341.643 179.282 331.931 141.464 250.892 141.464C250.079 141.464 249.313 141.486 248.5 141.498C247.687 141.486 246.921 141.464 246.108 141.464C165.069 141.464 155.381 179.293 115.818 194.717C76.2794 210.152 0 212.621 0 212.621H248.5H497C497 212.621 420.721 210.152 381.182 194.717Z" fill="#FDCC70"/>
<path opacity="0.35" d="M381.182 201.061C341.643 191.098 331.931 166.683 250.892 166.683C250.079 166.683 249.313 166.705 248.5 166.705C247.687 166.705 246.921 166.683 246.108 166.683C165.069 166.683 155.381 191.098 115.818 201.061C76.2794 211.023 0 212.62 0 212.62H248.5H497C497 212.62 420.721 211.023 381.182 201.061Z" fill="#FDCC70"/>
<path opacity="0.35" d="M381.182 207.036C341.643 202.222 331.931 190.428 250.892 190.428C250.079 190.428 249.313 190.439 248.5 190.439C247.687 190.439 246.921 190.428 246.108 190.428C165.069 190.428 155.381 202.222 115.818 207.036C76.2794 211.85 0 212.621 0 212.621H248.5H497C497 212.621 420.721 211.85 381.182 207.036Z" fill="#FDCC70"/>
</svg>
