<svg width="120" height="153" viewBox="0 0 120 153" fill="none" xmlns="http://www.w3.org/2000/svg">
<path opacity="0.3" d="M107.547 26.9331C107.547 26.9331 82.3975 20.6391 47.5324 26.9331C36.833 29.2551 35.5417 32.1271 35.5417 34.1436C35.5417 37.1989 36.6486 40.1321 38.6778 42.393L67.0249 74.1073L67.5168 78.2625V103.011L87.5012 112.971V78.3236L87.9932 74.1684L116.34 42.4541C118.369 40.1932 119.476 37.2601 119.476 34.2047C119.599 32.1882 118.247 29.3162 107.547 26.9331ZM113.389 39.7654L84.6112 71.9074H75.5106V75.8794H83.5044V106.494L71.5137 100.505V73.1296L41.6293 39.7654C41.6293 39.7654 41.5678 39.7043 41.5678 39.6432C53.128 43.9818 77.1708 44.0429 77.4783 44.0429C77.7857 44.0429 101.829 43.9818 113.389 39.6432C113.45 39.7043 113.45 39.7654 113.389 39.7654Z" fill="#FDCC70"/>
<path opacity="0.5" d="M103.98 102.888H83.0737V93.4169H96.3557C97.401 93.4169 98.2619 92.5614 98.2619 91.5226C98.2619 90.4838 97.401 89.6283 96.3557 89.6283H83.0737V85.9008C83.0737 82.7843 80.4911 80.2179 77.3551 80.2179H75.4489V75.3293L82.5203 68.3632C82.8892 67.9966 83.0737 67.5077 83.0737 67.0189V59.4417C83.0737 58.4029 82.2128 57.5474 81.1675 57.5474C80.1221 57.5474 79.2613 58.4029 79.2613 59.4417V66.2245L72.1899 73.1906C71.8209 73.5573 71.6364 74.0461 71.6364 74.535V80.2179H60.2607V67.0189C60.2607 65.9801 59.3998 65.1246 58.3545 65.1246C57.3092 65.1246 56.4483 65.9801 56.4483 67.0189V80.2179H45.0725V74.535C45.0725 74.0461 44.8881 73.5573 44.5191 73.1906L37.4477 66.2245V59.4417C37.4477 58.4029 36.5868 57.5474 35.5415 57.5474C34.4961 57.5474 33.6353 58.4029 33.6353 59.4417V67.0189C33.6353 67.5077 33.8197 67.9966 34.1887 68.3632L41.2601 75.3293V80.2179H39.3539C36.2179 80.2179 33.6353 82.7843 33.6353 85.9008V89.6894H20.3533C19.3079 89.6894 18.4471 90.5449 18.4471 91.5837C18.4471 92.6225 19.3079 93.478 20.3533 93.478H33.6353V102.949H12.7285C11.6831 102.949 10.8223 103.805 10.8223 104.844C10.8223 105.883 11.6831 106.738 12.7285 106.738H33.6353V116.21H20.3533C19.3079 116.21 18.4471 117.065 18.4471 118.104C18.4471 119.143 19.3079 119.998 20.3533 119.998H33.6353V123.787C33.6353 126.903 36.2179 129.47 39.3539 129.47H41.2601V134.358L34.1887 141.324C33.8197 141.691 33.6353 142.18 33.6353 142.669V150.246C33.6353 151.285 34.4961 152.14 35.5415 152.14C36.5868 152.14 37.4477 151.285 37.4477 150.246V143.341L44.5191 136.375C44.8881 136.008 45.0725 135.519 45.0725 135.03V129.347H56.4483V142.546C56.4483 143.585 57.3092 144.441 58.3545 144.441C59.3998 144.441 60.2607 143.585 60.2607 142.546V129.347H71.6364V135.03C71.6364 135.519 71.8209 136.008 72.1899 136.375L79.2613 143.341V150.124C79.2613 151.162 80.1221 152.018 81.1675 152.018C82.2128 152.018 83.0737 151.162 83.0737 150.124V142.546C83.0737 142.058 82.8892 141.569 82.5203 141.202L75.4489 134.236V129.347H77.3551C80.4911 129.347 83.0737 126.781 83.0737 123.665V119.876H96.3557C97.401 119.876 98.2619 119.02 98.2619 117.982C98.2619 116.943 97.401 116.087 96.3557 116.087H83.0737V106.677H103.98C105.026 106.677 105.887 105.821 105.887 104.783C105.887 103.744 105.026 102.888 103.98 102.888ZM54.5421 118.043C54.5421 119.082 53.6812 119.937 52.6358 119.937H45.011C43.9657 119.937 43.1048 119.082 43.1048 118.043V110.466C43.1048 109.427 43.9657 108.571 45.011 108.571H52.6358C53.6812 108.571 54.5421 109.427 54.5421 110.466V118.043ZM54.5421 99.0998C54.5421 100.139 53.6812 100.994 52.6358 100.994H45.011C43.9657 100.994 43.1048 100.139 43.1048 99.0998V91.5226C43.1048 90.4838 43.9657 89.6283 45.011 89.6283H52.6358C53.6812 89.6283 54.5421 90.4838 54.5421 91.5226V99.0998ZM73.5426 118.043C73.5426 119.082 72.6818 119.937 71.6364 119.937H64.0116C62.9663 119.937 62.1054 119.082 62.1054 118.043V110.466C62.1054 109.427 62.9663 108.571 64.0116 108.571H71.6364C72.6818 108.571 73.5426 109.427 73.5426 110.466V118.043ZM73.5426 99.0998C73.5426 100.139 72.6818 100.994 71.6364 100.994H64.0116C62.9663 100.994 62.1054 100.139 62.1054 99.0998V91.5226C62.1054 90.4838 62.9663 89.6283 64.0116 89.6283H71.6364C72.6818 89.6283 73.5426 90.4838 73.5426 91.5226V99.0998Z" fill="#FDCC70"/>
<g opacity="0.2">
<path opacity="0.2" d="M82.7661 5.72913V43.1874L94.7568 42.8819V5.72913H82.7661Z" fill="#FDCC70"/>
</g>
<path opacity="0.4" d="M85.226 76.1849L113.573 44.4706C115.602 42.2097 116.709 39.2766 116.709 36.2213C116.709 34.2047 115.418 31.3327 104.719 29.0107V33.1048C110.437 34.4492 112.405 35.7935 112.651 36.1601C111.36 38.2989 97.5242 42.1486 74.6497 42.1486C51.7137 42.1486 37.8168 38.2378 36.6485 36.2213C37.0174 35.6713 38.9851 34.3881 44.5808 33.0437V28.9496C33.8814 31.2716 32.5901 34.1436 32.5901 36.1601C32.5901 39.2155 33.6969 42.1486 35.7261 44.4095L64.0733 76.1238L64.5652 80.279V104.966L84.5497 114.926V80.4012L85.226 76.1849Z" fill="#FDCC70"/>
<g opacity="0.5">
<g opacity="0.5">
<path opacity="0.5" d="M101.767 128.003C98.2617 128.003 95.4331 125.192 95.4331 121.709C95.4331 118.226 98.2617 115.415 101.767 115.415C105.272 115.415 108.1 118.226 108.1 121.709C108.1 125.192 105.21 128.003 101.767 128.003Z" fill="#FDCC70"/>
</g>
</g>
<g opacity="0.7">
<g opacity="0.7">
<path opacity="0.7" d="M110.253 111.077C106.748 111.077 103.919 108.266 103.919 104.783C103.919 101.3 106.748 98.4888 110.253 98.4888C113.758 98.4888 116.586 101.3 116.586 104.783C116.525 108.266 113.696 111.077 110.253 111.077Z" fill="#FDCC70"/>
</g>
</g>
<g opacity="0.5">
<g opacity="0.5">
<path opacity="0.5" d="M109.699 113.643C106.194 113.643 103.365 110.832 103.365 107.349C103.365 103.866 106.194 101.055 109.699 101.055C113.204 101.055 116.032 103.866 116.032 107.349C116.032 110.832 113.204 113.643 109.699 113.643Z" fill="#FDCC70"/>
</g>
</g>
<g opacity="0.7">
<g opacity="0.7">
<path opacity="0.7" d="M99.1228 128.003C95.6179 128.003 92.7893 125.192 92.7893 121.709C92.7893 118.226 95.6179 115.415 99.1228 115.415C102.628 115.415 105.456 118.226 105.456 121.709C105.456 125.192 102.628 128.003 99.1228 128.003Z" fill="#FDCC70"/>
</g>
</g>
<g opacity="0.7">
<g opacity="0.7">
<path opacity="0.7" d="M102.628 99.222C99.1228 99.222 96.2942 96.4111 96.2942 92.9281C96.2942 89.445 99.1228 86.6341 102.628 86.6341C106.133 86.6341 108.961 89.445 108.961 92.9281C108.961 96.4111 106.133 99.222 102.628 99.222Z" fill="#FDCC70"/>
</g>
</g>
<g opacity="0.5">
<g opacity="0.5">
<path opacity="0.5" d="M102.874 95.3724C99.3688 95.3724 96.5403 92.5615 96.5403 89.0784C96.5403 85.5953 99.3688 82.7844 102.874 82.7844C106.379 82.7844 109.207 85.5953 109.207 89.0784C109.207 92.5615 106.379 95.3724 102.874 95.3724Z" fill="#FDCC70"/>
</g>
</g>
<g opacity="0.5">
<g opacity="0.5">
<path opacity="0.5" d="M6.33353 114.01C2.82856 114.01 0 111.199 0 107.716C0 104.233 2.82856 101.422 6.33353 101.422C9.83849 101.422 12.6671 104.233 12.6671 107.716C12.6671 111.199 9.777 114.01 6.33353 114.01Z" fill="#FDCC70"/>
</g>
</g>
<g opacity="0.7">
<g opacity="0.7">
<path opacity="0.7" d="M10.0842 112.36C6.27176 112.36 3.13574 109.243 3.13574 105.455C3.13574 101.666 6.27176 98.5498 10.0842 98.5498C13.8966 98.5498 17.0327 101.666 17.0327 105.455C17.0941 109.243 13.9581 112.36 10.0842 112.36Z" fill="#FDCC70"/>
</g>
</g>
<g opacity="0.7">
<g opacity="0.7">
<path opacity="0.7" d="M20.5992 94.639C17.0942 94.639 14.2656 91.8281 14.2656 88.3451C14.2656 84.862 17.0942 82.0511 20.5992 82.0511C24.1041 82.0511 26.9327 84.862 26.9327 88.3451C26.9327 91.8281 24.1041 94.639 20.5992 94.639Z" fill="#FDCC70"/>
</g>
</g>
<g opacity="0.5">
<g opacity="0.5">
<path opacity="0.5" d="M16.9717 96.2278C13.4667 96.2278 10.6382 93.4169 10.6382 89.9339C10.6382 86.4508 13.4667 83.6399 16.9717 83.6399C20.4767 83.6399 23.3053 86.4508 23.3053 89.9339C23.3053 93.4169 20.4767 96.2278 16.9717 96.2278Z" fill="#FDCC70"/>
</g>
</g>
<g opacity="0.7">
<g opacity="0.7">
<path opacity="0.7" d="M19.6151 128.92C16.1101 128.92 13.2815 126.109 13.2815 122.626C13.2815 119.143 16.1101 116.332 19.6151 116.332C23.12 116.332 25.9486 119.143 25.9486 122.626C25.9486 126.109 23.0585 128.92 19.6151 128.92Z" fill="#FDCC70"/>
</g>
</g>
<g opacity="0.5">
<g opacity="0.5">
<path opacity="0.5" d="M21.6446 128.125C18.1396 128.125 15.311 125.315 15.311 121.831C15.311 118.348 18.1396 115.537 21.6446 115.537C25.1495 115.537 27.9781 118.348 27.9781 121.831C27.9781 125.315 25.1495 128.125 21.6446 128.125Z" fill="#FDCC70"/>
</g>
</g>
<path opacity="0.45" d="M59.5847 41.5987V10.251H47.594L47.5325 39.8877L48.0859 39.9488C49.6847 40.2543 51.3449 40.4987 53.1282 40.7432C55.3418 41.1709 57.494 41.4153 59.5847 41.5987Z" fill="#FDCC70"/>
<path opacity="0.8" d="M75.5722 14.2839H63.5815V41.7207C63.5815 41.7819 63.5815 41.843 63.5815 41.9041C65.4263 41.9652 67.271 42.0874 69.1772 42.0874C71.3293 42.1485 73.4815 42.1485 75.5722 42.2096C75.5722 42.1485 75.5722 42.0874 75.5722 42.0874V14.2839Z" fill="#FDCC70"/>
<path opacity="0.8" d="M91.5595 0.351746H79.5688V42.0264C79.5688 42.0875 79.5688 42.0875 79.5688 42.0875C81.2906 42.0264 83.1353 41.9653 84.98 41.9042C87.1322 41.7819 89.2229 41.5986 91.2521 41.4153H91.621L91.5595 0.351746Z" fill="#FDCC70"/>
<path opacity="0.45" d="M107.547 8.29559H95.5566V40.9876L95.9256 40.9265C97.0939 40.7431 98.7541 40.4987 100.722 40.1932C107.055 39.1544 107.486 38.8488 107.547 38.6655V8.29559Z" fill="#FDCC70"/>
</svg>
