<svg width="120" height="152" viewBox="0 0 120 152" fill="none" xmlns="http://www.w3.org/2000/svg">
<path opacity="0.3" d="M107.547 26.5813C107.547 26.5813 82.3975 20.2873 47.5324 26.5813C36.833 28.9034 35.5417 31.7754 35.5417 33.7919C35.5417 36.8472 36.6486 39.7803 38.6778 42.0413L67.0249 73.7555L67.5168 77.9108V102.659L87.5012 112.619V77.9719L87.9932 73.8166L116.34 42.1024C118.369 39.8414 119.476 36.9083 119.476 33.853C119.599 31.8365 118.247 28.9645 107.547 26.5813ZM113.389 39.4137L84.6112 71.5557H75.5106V75.5276H83.5044V106.142L71.5137 100.154V72.7778L41.6293 39.4137C41.6293 39.4137 41.5678 39.3526 41.5678 39.2915C53.128 43.63 77.1708 43.6911 77.4783 43.6911C77.7857 43.6911 101.829 43.63 113.389 39.2915C113.45 39.3526 113.45 39.4137 113.389 39.4137Z" fill="#CEE6C5"/>
<path d="M103.98 102.537H83.0737V93.0651H96.3557C97.401 93.0651 98.2619 92.2096 98.2619 91.1708C98.2619 90.132 97.401 89.2765 96.3557 89.2765H83.0737V85.549C83.0737 82.4326 80.4911 79.8661 77.3551 79.8661H75.4489V74.9776L82.5203 68.0115C82.8892 67.6448 83.0737 67.156 83.0737 66.6671V59.0899C83.0737 58.0511 82.2128 57.1956 81.1675 57.1956C80.1221 57.1956 79.2613 58.0511 79.2613 59.0899V65.8727L72.1899 72.8389C71.8209 73.2055 71.6364 73.6944 71.6364 74.1832V79.8661H60.2607V66.6671C60.2607 65.6283 59.3998 64.7728 58.3545 64.7728C57.3092 64.7728 56.4483 65.6283 56.4483 66.6671V79.8661H45.0725V74.1832C45.0725 73.6944 44.8881 73.2055 44.5191 72.8389L37.4477 65.8727V59.0899C37.4477 58.0511 36.5868 57.1956 35.5415 57.1956C34.4961 57.1956 33.6353 58.0511 33.6353 59.0899V66.6671C33.6353 67.156 33.8197 67.6448 34.1887 68.0115L41.2601 74.9776V79.8661H39.3539C36.2179 79.8661 33.6353 82.4326 33.6353 85.549V89.3376H20.3533C19.3079 89.3376 18.4471 90.1931 18.4471 91.2319C18.4471 92.2707 19.3079 93.1262 20.3533 93.1262H33.6353V102.598H12.7285C11.6831 102.598 10.8223 103.453 10.8223 104.492C10.8223 105.531 11.6831 106.386 12.7285 106.386H33.6353V115.858H20.3533C19.3079 115.858 18.4471 116.713 18.4471 117.752C18.4471 118.791 19.3079 119.646 20.3533 119.646H33.6353V123.435C33.6353 126.551 36.2179 129.118 39.3539 129.118H41.2601V134.006L34.1887 140.973C33.8197 141.339 33.6353 141.828 33.6353 142.317V149.894C33.6353 150.933 34.4961 151.788 35.5415 151.788C36.5868 151.788 37.4477 150.933 37.4477 149.894V142.989L44.5191 136.023C44.8881 135.656 45.0725 135.167 45.0725 134.679V128.996H56.4483V142.195C56.4483 143.234 57.3092 144.089 58.3545 144.089C59.3998 144.089 60.2607 143.234 60.2607 142.195V128.996H71.6364V134.679C71.6364 135.167 71.8209 135.656 72.1899 136.023L79.2613 142.989V149.772C79.2613 150.811 80.1221 151.666 81.1675 151.666C82.2128 151.666 83.0737 150.811 83.0737 149.772V142.195C83.0737 141.706 82.8892 141.217 82.5203 140.85L75.4489 133.884V128.996H77.3551C80.4911 128.996 83.0737 126.429 83.0737 123.313V119.524H96.3557C97.401 119.524 98.2619 118.669 98.2619 117.63C98.2619 116.591 97.401 115.736 96.3557 115.736H83.0737V106.325H103.98C105.026 106.325 105.887 105.47 105.887 104.431C105.887 103.392 105.026 102.537 103.98 102.537ZM54.5421 117.691C54.5421 118.73 53.6812 119.585 52.6358 119.585H45.011C43.9657 119.585 43.1048 118.73 43.1048 117.691V110.114C43.1048 109.075 43.9657 108.22 45.011 108.22H52.6358C53.6812 108.22 54.5421 109.075 54.5421 110.114V117.691ZM54.5421 98.748C54.5421 99.7868 53.6812 100.642 52.6358 100.642H45.011C43.9657 100.642 43.1048 99.7868 43.1048 98.748V91.1708C43.1048 90.132 43.9657 89.2765 45.011 89.2765H52.6358C53.6812 89.2765 54.5421 90.132 54.5421 91.1708V98.748ZM73.5426 117.691C73.5426 118.73 72.6818 119.585 71.6364 119.585H64.0116C62.9663 119.585 62.1054 118.73 62.1054 117.691V110.114C62.1054 109.075 62.9663 108.22 64.0116 108.22H71.6364C72.6818 108.22 73.5426 109.075 73.5426 110.114V117.691ZM73.5426 98.748C73.5426 99.7868 72.6818 100.642 71.6364 100.642H64.0116C62.9663 100.642 62.1054 99.7868 62.1054 98.748V91.1708C62.1054 90.132 62.9663 89.2765 64.0116 89.2765H71.6364C72.6818 89.2765 73.5426 90.132 73.5426 91.1708V98.748Z" fill="#CEE6C5"/>
<g opacity="0.2">
<path opacity="0.2" d="M82.7662 5.37738V42.8357L94.7569 42.5301V5.37738H82.7662Z" fill="#CEE6C5"/>
</g>
<path opacity="0.4" d="M85.2259 75.8331L113.573 44.1189C115.602 41.8579 116.709 38.9248 116.709 35.8695C116.709 33.853 115.418 30.981 104.718 28.6589V32.7531C110.437 34.0974 112.405 35.4418 112.651 35.8084C111.359 37.9471 97.5241 41.7968 74.6496 41.7968C51.7136 41.7968 37.8167 37.886 36.6483 35.8695C37.0173 35.3196 38.985 34.0363 44.5806 32.692V28.5978C33.8813 30.9199 32.59 33.7919 32.59 35.8084C32.59 38.8637 33.6968 41.7968 35.726 44.0578L64.0732 75.772L64.5651 79.9273V104.614L84.5495 114.575V80.0495L85.2259 75.8331Z" fill="#CEE6C5"/>
<g opacity="0.8">
<g opacity="0.5">
<path opacity="0.5" d="M101.767 127.651C98.2618 127.651 95.4332 124.841 95.4332 121.357C95.4332 117.874 98.2618 115.063 101.767 115.063C105.272 115.063 108.1 117.874 108.1 121.357C108.1 124.841 105.21 127.651 101.767 127.651Z" fill="#CEE6C5"/>
</g>
</g>
<g opacity="0.7">
<g opacity="0.7">
<path opacity="0.7" d="M110.253 110.725C106.748 110.725 103.919 107.914 103.919 104.431C103.919 100.948 106.748 98.137 110.253 98.137C113.758 98.137 116.586 100.948 116.586 104.431C116.525 107.914 113.696 110.725 110.253 110.725Z" fill="#CEE6C5"/>
</g>
</g>
<g opacity="0.5">
<g opacity="0.5">
<path opacity="0.5" d="M109.699 113.291C106.194 113.291 103.365 110.48 103.365 106.997C103.365 103.514 106.194 100.703 109.699 100.703C113.204 100.703 116.032 103.514 116.032 106.997C116.032 110.48 113.204 113.291 109.699 113.291Z" fill="#CEE6C5"/>
</g>
</g>
<g opacity="0.7">
<g opacity="0.7">
<path opacity="0.7" d="M99.1228 127.651C95.6179 127.651 92.7893 124.841 92.7893 121.357C92.7893 117.874 95.6179 115.063 99.1228 115.063C102.628 115.063 105.456 117.874 105.456 121.357C105.456 124.841 102.628 127.651 99.1228 127.651Z" fill="#CEE6C5"/>
</g>
</g>
<g opacity="0.7">
<g opacity="0.7">
<path opacity="0.7" d="M102.628 98.8703C99.1228 98.8703 96.2942 96.0594 96.2942 92.5763C96.2942 89.0932 99.1228 86.2823 102.628 86.2823C106.133 86.2823 108.961 89.0932 108.961 92.5763C108.961 96.0594 106.133 98.8703 102.628 98.8703Z" fill="#CEE6C5"/>
</g>
</g>
<g opacity="0.8">
<g opacity="0.5">
<path opacity="0.5" d="M102.874 95.0205C99.3688 95.0205 96.5403 92.2096 96.5403 88.7266C96.5403 85.2435 99.3688 82.4326 102.874 82.4326C106.379 82.4326 109.207 85.2435 109.207 88.7266C109.207 92.2096 106.379 95.0205 102.874 95.0205Z" fill="#CEE6C5"/>
</g>
</g>
<g opacity="0.8">
<g opacity="0.5">
<path opacity="0.5" d="M6.33353 113.658C2.82856 113.658 0 110.847 0 107.364C0 103.881 2.82856 101.07 6.33353 101.07C9.83849 101.07 12.6671 103.881 12.6671 107.364C12.6671 110.847 9.777 113.658 6.33353 113.658Z" fill="#CEE6C5"/>
</g>
</g>
<g opacity="0.7">
<g opacity="0.7">
<path opacity="0.7" d="M10.0842 112.008C6.27176 112.008 3.13574 108.892 3.13574 105.103C3.13574 101.314 6.27176 98.1981 10.0842 98.1981C13.8966 98.1981 17.0327 101.314 17.0327 105.103C17.0941 108.892 13.9581 112.008 10.0842 112.008Z" fill="#CEE6C5"/>
</g>
</g>
<g opacity="0.7">
<g opacity="0.7">
<path opacity="0.7" d="M20.5992 94.2873C17.0942 94.2873 14.2656 91.4764 14.2656 87.9933C14.2656 84.5102 17.0942 81.6993 20.5992 81.6993C24.1041 81.6993 26.9327 84.5102 26.9327 87.9933C26.9327 91.4764 24.1041 94.2873 20.5992 94.2873Z" fill="#CEE6C5"/>
</g>
</g>
<g opacity="0.8">
<g opacity="0.5">
<path opacity="0.5" d="M16.9717 95.8761C13.4667 95.8761 10.6382 93.0653 10.6382 89.5822C10.6382 86.0991 13.4667 83.2882 16.9717 83.2882C20.4767 83.2882 23.3053 86.0991 23.3053 89.5822C23.3053 93.0653 20.4767 95.8761 16.9717 95.8761Z" fill="#CEE6C5"/>
</g>
</g>
<g opacity="0.7">
<g opacity="0.7">
<path opacity="0.7" d="M19.6152 128.568C16.1102 128.568 13.2816 125.757 13.2816 122.274C13.2816 118.791 16.1102 115.98 19.6152 115.98C23.1202 115.98 25.9487 118.791 25.9487 122.274C25.9487 125.757 23.0587 128.568 19.6152 128.568Z" fill="#CEE6C5"/>
</g>
</g>
<g opacity="0.8">
<g opacity="0.5">
<path opacity="0.5" d="M21.6447 127.774C18.1397 127.774 15.3112 124.963 15.3112 121.48C15.3112 117.997 18.1397 115.186 21.6447 115.186C25.1497 115.186 27.9782 117.997 27.9782 121.48C27.9782 124.963 25.1497 127.774 21.6447 127.774Z" fill="#CEE6C5"/>
</g>
</g>
<path opacity="0.45" d="M59.5848 41.2469V9.89929H47.5941L47.5326 39.5359L48.086 39.597C49.6848 39.9026 51.345 40.147 53.1283 40.3914C55.3419 40.8192 57.4941 41.0636 59.5848 41.2469Z" fill="#CEE6C5"/>
<path opacity="0.8" d="M75.5723 13.9322H63.5817V41.369C63.5817 41.4301 63.5817 41.4912 63.5817 41.5523C65.4264 41.6134 67.2711 41.7356 69.1773 41.7356C71.3295 41.7968 73.4816 41.7968 75.5723 41.8579C75.5723 41.7968 75.5723 41.7356 75.5723 41.7356V13.9322Z" fill="#CEE6C5"/>
<path opacity="0.8" d="M91.5596 0H79.569V41.6746C79.569 41.7357 79.569 41.7357 79.569 41.7357C81.2907 41.6746 83.1354 41.6135 84.9801 41.5524C87.1323 41.4302 89.223 41.2469 91.2522 41.0636H91.6211L91.5596 0Z" fill="#CEE6C5"/>
<path opacity="0.45" d="M107.547 7.94385H95.5568V40.6358L95.9257 40.5747C97.094 40.3914 98.7542 40.147 100.722 39.8414C107.055 38.8026 107.486 38.4971 107.547 38.3138V7.94385Z" fill="#CEE6C5"/>
</svg>
