<svg id="Layer_1" data-name="Layer 1" xmlns="http://www.w3.org/2000/svg" viewBox="0 0 1440 1024"><title>WeCount website background_distribution</title><path d="M1159.53,786.71c81.93-204.56,102-706,269.9-706,1.7,0,3.29.35,5,.44,1.67-.09,3.27-.44,5-.44h.64V0H0V1023.64a488.14,488.14,0,0,0,41.24-81c81.93-204.56,102-706,269.9-706,1.7,0,3.29.35,5,.45,1.67-.1,3.27-.45,5-.45,167.87,0,188,501.47,269.89,706A487.08,487.08,0,0,0,632.44,1024H919.6S1077.6,991.27,1159.53,786.71Z" fill="none"/><path d="M1159.53,889.94c81.93-115.57,102-398.89,269.9-398.89,1.7,0,3.29.2,5,.26s3.27-.26,5-.26h.64V80.7h-.64c-1.7,0-3.3.35-5,.44-1.67-.09-3.26-.44-5-.44-167.88,0-188,501.46-269.9,706S919.6,1024,919.6,1024,1077.6,1005.51,1159.53,889.94Z" fill="#cee6c5" opacity="0.35"/><path d="M1429.43,708.31c1.7,0,3.29.11,5,.15s3.27-.15,5-.15h.64V491.06h-.64c-1.7,0-3.3.2-5,.26s-3.26-.26-5-.26c-167.88,0-188,283.32-269.9,398.89S919.6,1024,919.6,1024s158-11,239.93-79.41S1261.55,708.31,1429.43,708.31Z" fill="#cee6c5" opacity="0.35"/><path d="M1429.43,708.31c1.7,0,3.29.11,5,.15s3.27-.15,5-.15h.64V491.06h-.64c-1.7,0-3.3.2-5,.26s-3.26-.26-5-.26c-167.88,0-188,283.32-269.9,398.89S919.6,1024,919.6,1024s158-11,239.93-79.41S1261.55,708.31,1429.43,708.31Z" fill="#cee6c5" opacity="0.35"/><path d="M1429.43,820.23c1.7,0,3.29.07,5,.09s3.27-.09,5-.09h.64V708.31h-.64c-1.7,0-3.3.11-5,.15s-3.26-.15-5-.15c-167.88,0-188,167.82-269.9,236.28S919.6,1024,919.6,1024s158-7.07,239.93-51.26S1261.55,820.23,1429.43,820.23Z" fill="#cee6c5" opacity="0.35"/><path d="M1429.43,820.23c1.7,0,3.29.07,5,.09s3.27-.09,5-.09h.64V708.31h-.64c-1.7,0-3.3.11-5,.15s-3.26-.15-5-.15c-167.88,0-188,167.82-269.9,236.28S919.6,1024,919.6,1024s158-7.07,239.93-51.26S1261.55,820.23,1429.43,820.23Z" fill="#cee6c5" opacity="0.35"/><path d="M1429.43,820.23c1.7,0,3.29.07,5,.09s3.27-.09,5-.09h.64V708.31h-.64c-1.7,0-3.3.11-5,.15s-3.26-.15-5-.15c-167.88,0-188,167.82-269.9,236.28S919.6,1024,919.6,1024s158-7.07,239.93-51.26S1261.55,820.23,1429.43,820.23Z" fill="#cee6c5" opacity="0.35"/><path d="M1429.43,925.56c1.7,0,3.29,0,5,.05s3.27-.05,5-.05h.64V820.23h-.64c-1.7,0-3.3.07-5,.09s-3.26-.09-5-.09c-167.88,0-188,108.32-269.9,152.51S919.6,1024,919.6,1024s158-3.42,239.93-24.76S1261.55,925.56,1429.43,925.56Z" fill="#cee6c5" opacity="0.35"/><path d="M1429.43,925.56c1.7,0,3.29,0,5,.05s3.27-.05,5-.05h.64V820.23h-.64c-1.7,0-3.3.07-5,.09s-3.26-.09-5-.09c-167.88,0-188,108.32-269.9,152.51S919.6,1024,919.6,1024s158-3.42,239.93-24.76S1261.55,925.56,1429.43,925.56Z" fill="#cee6c5" opacity="0.35"/><path d="M1429.43,925.56c1.7,0,3.29,0,5,.05s3.27-.05,5-.05h.64V820.23h-.64c-1.7,0-3.3.07-5,.09s-3.26-.09-5-.09c-167.88,0-188,108.32-269.9,152.51S919.6,1024,919.6,1024s158-3.42,239.93-24.76S1261.55,925.56,1429.43,925.56Z" fill="#cee6c5" opacity="0.35"/><path d="M1429.43,925.56c1.7,0,3.29,0,5,.05s3.27-.05,5-.05h.64V820.23h-.64c-1.7,0-3.3.07-5,.09s-3.26-.09-5-.09c-167.88,0-188,108.32-269.9,152.51S919.6,1024,919.6,1024s158-3.42,239.93-24.76S1261.55,925.56,1429.43,925.56Z" fill="#cee6c5" opacity="0.35"/><path d="M1439.36,925.56c-1.7,0-3.3,0-5,.05s-3.26-.05-5-.05c-167.88,0-188,52.33-269.9,73.68S919.6,1024,919.6,1024H1440V925.56Z" fill="#cee6c5" opacity="0.35"/><path d="M1439.36,925.56c-1.7,0-3.3,0-5,.05s-3.26-.05-5-.05c-167.88,0-188,52.33-269.9,73.68S919.6,1024,919.6,1024H1440V925.56Z" fill="#cee6c5" opacity="0.35"/><path d="M1439.36,925.56c-1.7,0-3.3,0-5,.05s-3.26-.05-5-.05c-167.88,0-188,52.33-269.9,73.68S919.6,1024,919.6,1024H1440V925.56Z" fill="#cee6c5" opacity="0.35"/><path d="M1439.36,925.56c-1.7,0-3.3,0-5,.05s-3.26-.05-5-.05c-167.88,0-188,52.33-269.9,73.68S919.6,1024,919.6,1024H1440V925.56Z" fill="#cee6c5" opacity="0.35"/><path d="M1439.36,925.56c-1.7,0-3.3,0-5,.05s-3.26-.05-5-.05c-167.88,0-188,52.33-269.9,73.68S919.6,1024,919.6,1024H1440V925.56Z" fill="#cee6c5" opacity="0.35"/><path d="M321.07,236.65c-1.7,0-3.3.35-5,.45-1.67-.1-3.26-.45-5-.45-167.88,0-188,501.47-269.9,706a488.14,488.14,0,0,1-41.24,81v.36H55c71-125.83,98.06-377,256.13-377,1.7,0,3.29.2,5,.25s3.27-.25,5-.25c158.06,0,185.12,251.15,256.12,377h55.25A487.08,487.08,0,0,1,591,942.68C509,738.12,488.94,236.65,321.07,236.65Z" fill="#cee6c5" opacity="0.35"/><path d="M311.14,864.27c1.7,0,3.29.12,5,.15s3.27-.15,5-.15c120,0,164.51,85.8,210.07,159.73h46.05c-71-125.83-98.06-377-256.12-377-1.7,0-3.3.2-5,.25s-3.26-.25-5-.25C153.07,647,126,898.17,55,1024h46.06C146.62,950.07,191.1,864.27,311.14,864.27Z" fill="#cee6c5" opacity="0.35"/><path d="M311.14,864.27c1.7,0,3.29.12,5,.15s3.27-.15,5-.15c120,0,164.51,85.8,210.07,159.73h46.05c-71-125.83-98.06-377-256.12-377-1.7,0-3.3.2-5,.25s-3.26-.25-5-.25C153.07,647,126,898.17,55,1024h46.06C146.62,950.07,191.1,864.27,311.14,864.27Z" fill="#cee6c5" opacity="0.35"/><path d="M321.07,864.27c-1.7,0-3.3.12-5,.15s-3.26-.15-5-.15c-120,0-164.52,85.8-210.07,159.73h57c34.43-27,79.6-47.81,153.09-47.81,1.7,0,3.29.08,5,.1s3.27-.1,5-.1c73.49,0,118.65,20.76,153.09,47.81h57C485.58,950.07,441.1,864.27,321.07,864.27Z" fill="#cee6c5" opacity="0.35"/><path d="M321.07,864.27c-1.7,0-3.3.12-5,.15s-3.26-.15-5-.15c-120,0-164.52,85.8-210.07,159.73h57c34.43-27,79.6-47.81,153.09-47.81,1.7,0,3.29.08,5,.1s3.27-.1,5-.1c73.49,0,118.65,20.76,153.09,47.81h57C485.58,950.07,441.1,864.27,321.07,864.27Z" fill="#cee6c5" opacity="0.35"/><path d="M321.07,864.27c-1.7,0-3.3.12-5,.15s-3.26-.15-5-.15c-120,0-164.52,85.8-210.07,159.73h57c34.43-27,79.6-47.81,153.09-47.81,1.7,0,3.29.08,5,.1s3.27-.1,5-.1c73.49,0,118.65,20.76,153.09,47.81h57C485.58,950.07,441.1,864.27,321.07,864.27Z" fill="#cee6c5" opacity="0.35"/><path d="M316.1,976.29c-1.67,0-3.26-.1-5-.1-73.49,0-118.66,20.76-153.09,47.81H474.16c-34.44-27-79.6-47.81-153.09-47.81C319.37,976.19,317.77,976.27,316.1,976.29Z" fill="#cee6c5" opacity="0.35"/><path d="M316.1,976.29c-1.67,0-3.26-.1-5-.1-73.49,0-118.66,20.76-153.09,47.81H474.16c-34.44-27-79.6-47.81-153.09-47.81C319.37,976.19,317.77,976.27,316.1,976.29Z" fill="#cee6c5" opacity="0.35"/><path d="M316.1,976.29c-1.67,0-3.26-.1-5-.1-73.49,0-118.66,20.76-153.09,47.81H474.16c-34.44-27-79.6-47.81-153.09-47.81C319.37,976.19,317.77,976.27,316.1,976.29Z" fill="#cee6c5" opacity="0.35"/><path d="M316.1,976.29c-1.67,0-3.26-.1-5-.1-73.49,0-118.66,20.76-153.09,47.81H474.16c-34.44-27-79.6-47.81-153.09-47.81C319.37,976.19,317.77,976.27,316.1,976.29Z" fill="#cee6c5" opacity="0.35"/></svg>