<svg width="113" height="135" viewBox="0 0 113 135" fill="none" xmlns="http://www.w3.org/2000/svg">
<path opacity="0.25" d="M3.80957 24.2126C3.93609 23.8982 3.93609 23.5839 3.80957 23.2696L0.0770307 12.2048C-0.239285 11.2618 0.456617 10.2559 1.46883 10.2559H31.6453V35.7174C31.6453 36.2203 31.3923 36.7233 30.9494 36.9748C30.6964 37.1005 30.4433 37.2262 30.127 37.2262H1.46883C0.456617 37.2262 -0.239285 36.2203 0.0770307 35.2773L3.80957 24.2126Z" fill="#CEE6C5"/>
<path opacity="0.4" d="M31.7089 10.2559H12.73V32.1339C12.73 33.7685 14.0585 35.1516 15.7666 35.1516H31.7722V10.2559H31.7089Z" fill="#CEE6C5"/>
<path d="M16.4619 31.8825H31.7083V35.7803C31.7083 36.2833 31.4553 36.7862 31.0124 37.0377L17.0313 32.1968C16.8415 32.134 16.6517 32.0082 16.4619 31.8825Z" fill="#CEE6C5"/>
<path opacity="0.4" d="M41.6408 4.8493V31.8196H16.4621C16.2091 31.5682 16.0193 31.1909 16.0193 30.7509V6.35813C16.0193 5.54085 16.7152 4.8493 17.5376 4.8493H41.6408Z" fill="#CEE6C5"/>
<path opacity="0.7" d="M41.6411 72.6208V1.89445C41.6411 1.07717 42.337 0.38562 43.1594 0.38562H46.1961C47.0185 0.38562 47.7144 1.07717 47.7144 1.89445V72.6208C47.7144 73.4381 47.0185 74.1296 46.1961 74.1296H43.1594C42.337 74.1296 41.6411 73.4381 41.6411 72.6208Z" fill="#CEE6C5"/>
<path d="M40.249 74.0667V40.8096H46.259V74.0667C46.259 74.884 45.5631 75.5756 44.7407 75.5756H41.7041C40.8817 75.5756 40.249 74.884 40.249 74.0667Z" fill="#CEE6C5"/>
<path opacity="0.6" d="M89.7209 134.043H67.9584C66.6931 134.043 65.6809 133.037 65.6809 131.779V117.194C65.6809 115.937 66.6931 114.931 67.9584 114.931H89.7209C90.9861 114.931 91.9983 115.937 91.9983 117.194V131.779C92.0616 132.974 90.9861 134.043 89.7209 134.043Z" fill="#CEE6C5"/>
<path opacity="0.3" d="M73.4619 51.8745C59.9236 53.4462 49.2321 64.008 47.6506 77.4617C46.6384 85.7602 49.2954 94.1217 54.9891 100.346C59.4175 105.124 62.5174 110.97 64.0357 117.32C64.2255 118.137 64.9214 118.703 65.7438 118.703H88.0124C88.8348 118.703 89.594 118.137 89.7205 117.32C91.1123 111.033 94.1489 105.249 98.5773 100.597C109.522 88.715 108.699 70.2319 96.6795 59.3557C90.4164 53.5719 81.9391 50.8686 73.4619 51.8745Z" fill="#CEE6C5"/>
<path opacity="0.8" d="M94.2759 48.9825C85.166 27.0416 59.8608 16.6684 37.782 25.7214C15.7032 34.7744 5.26478 59.9215 14.3747 81.8624C21.0805 97.8937 36.8331 108.393 54.2937 108.393C55.2426 108.393 56.0018 107.638 56.0018 106.695C56.0018 105.752 55.2426 104.998 54.2937 104.998C32.3414 104.998 14.5645 87.3319 14.5645 65.5168C14.5645 43.7016 32.3414 26.0357 54.2937 26.0357C60.9363 26.0357 67.4524 27.6703 73.2726 30.8766L69.6666 36.7862C53.661 28.3619 33.7332 34.3972 25.2559 50.3656C23.4846 53.6347 22.3458 57.2182 21.7764 60.8645C21.6499 61.8076 22.2825 62.6877 23.2315 62.8135C24.1804 62.9392 25.0661 62.3105 25.1927 61.3675C25.6988 58.0984 26.711 55.0178 28.2925 52.063L34.2393 55.5837C32.0883 59.7958 31.3924 64.6366 32.1516 69.3517L23.6743 71.4264C22.7254 71.6778 22.156 72.558 22.4091 73.501C23.4846 77.6503 25.3192 81.5481 27.8497 85.0058C28.4191 85.7602 29.4945 85.9488 30.2537 85.3202C31.0129 84.7543 31.2026 83.6856 30.6333 82.9312C28.7354 80.3536 27.2171 77.3988 26.2681 74.3183L32.974 72.6208C37.2126 84.1885 50.1183 90.161 61.822 85.9488C71.8175 82.3025 77.8908 72.2436 76.3725 61.8076L83.0783 60.1101C83.4579 62.1219 83.6477 64.2594 83.5844 66.3341C83.5844 67.2771 84.3436 68.0315 85.2926 68.0315C86.2415 68.0315 87.0007 67.2771 87.0007 66.3341C87.1272 59.1043 84.8497 52.0002 80.5478 46.1535C79.9785 45.3991 78.903 45.2104 78.1438 45.7763C77.3847 46.3421 77.1949 47.4108 77.7643 48.1652C79.7254 50.7428 81.1805 53.6347 82.1927 56.7781L75.4868 58.4756C71.7543 47.4108 60.1139 41.0612 48.7265 43.8902C47.7776 44.1417 47.2082 45.0218 47.4613 45.9649C47.7143 46.9079 48.6 47.4737 49.5489 47.2222C59.7343 44.7075 70.0462 50.8686 72.5767 60.9903C75.1072 71.112 68.9074 81.3595 58.7221 83.8742C48.5367 86.3889 38.2248 80.2279 35.6943 70.1061C34.4923 65.2653 35.2515 60.1101 37.8453 55.7723C38.2881 54.955 38.0351 53.9491 37.2759 53.509L29.9374 49.0454C38.9207 36.2203 56.1915 32.4483 69.4768 40.3696C70.2992 40.8726 71.3747 40.6211 71.8175 39.8038L76.2459 32.5111C92.125 42.9472 98.3247 63.1278 91.0495 80.6051C90.5434 81.8624 89.974 83.1198 89.3414 84.3143L84.7865 81.6109C82.4457 80.2279 79.4723 80.7937 77.8908 82.994C68.9074 95.0018 52.1427 98.2709 39.2371 90.4753C38.3514 90.0981 37.3392 90.4753 36.9596 91.3555C36.6433 92.1099 36.8331 92.99 37.5289 93.4301C51.9529 102.106 70.6788 98.4595 80.7376 85.0058C81.2437 84.2514 82.2559 84.0628 83.0151 84.5029L87.57 87.2062C83.2049 93.8073 76.9418 98.8996 69.6033 101.917C68.7176 102.294 68.2748 103.3 68.6544 104.181C69.034 105.061 70.0461 105.501 70.9318 105.124C81.4968 100.723 89.8475 92.3614 94.2126 81.8624C98.6411 71.3006 98.6411 59.4815 94.2759 48.9825Z" fill="#CEE6C5"/>
<path opacity="0.3" d="M96.6797 47.4109C87.5699 25.47 62.2646 15.0968 40.1858 24.1498C18.107 33.2027 7.66859 58.3499 16.7785 80.2908C23.4844 96.3221 39.2369 106.821 56.6975 106.821C57.6464 106.821 58.4056 106.067 58.4056 105.124C58.4056 104.181 57.6464 103.426 56.6975 103.426C34.7452 103.426 16.9683 85.7603 16.9683 63.9451C16.9683 42.13 34.7452 24.4641 56.6975 24.4641C63.3401 24.4641 69.8562 26.0987 75.6764 29.3049L72.0704 35.2145C56.0648 26.7902 36.137 32.8255 27.6597 48.794C25.8883 52.0631 24.7496 55.6466 24.1802 59.2929C24.0537 60.2359 24.6864 61.1161 25.6353 61.2418C26.5843 61.3675 27.4699 60.7389 27.5964 59.7958C28.1026 56.5267 29.1148 53.4462 30.6964 50.4914L36.6431 54.012C34.4921 58.2241 33.7962 63.065 34.5554 67.7801L26.0781 69.8547C25.1292 70.1062 24.5598 70.9863 24.8129 71.9293C25.8883 76.0786 27.723 79.9764 30.2535 83.4342C30.8229 84.1886 31.8983 84.3772 32.6575 83.7485C33.4166 83.1827 33.6064 82.1139 33.0371 81.3595C31.1392 78.7819 29.6209 75.8271 28.6719 72.7466L35.3778 71.0492C39.6164 82.6169 52.5221 88.5893 64.2258 84.3772C74.2214 80.7308 80.2946 70.672 78.7763 60.2359L85.4822 58.5385C85.8617 60.5503 86.0515 62.6878 85.9883 64.7624C85.9883 65.7054 86.7474 66.4598 87.6964 66.4598C88.6453 66.4598 89.4045 65.7054 89.4045 64.7624C89.531 57.5326 87.2535 50.4285 82.9516 44.5818C82.3823 43.8274 81.3068 43.6388 80.5477 44.2046C79.7885 44.7704 79.5987 45.8392 80.1681 46.5936C82.1292 49.1712 83.5843 52.0631 84.5965 55.2065L77.8906 56.9039C74.1581 45.8392 62.5177 39.4895 51.1303 42.3186C50.1814 42.57 49.612 43.4502 49.8651 44.3932C50.1181 45.3362 51.0038 45.902 51.9527 45.6506C62.1381 43.1359 72.45 49.2969 74.9805 59.4186C77.511 69.5404 71.3112 79.7878 61.1259 82.3025C50.9405 84.8173 40.6286 78.6562 38.0981 68.5345C36.8961 63.6936 37.6553 58.5385 40.2491 54.2006C40.6919 53.3833 40.4389 52.3774 39.6797 51.9374L32.3412 47.4737C41.1347 34.7116 58.3423 30.9395 71.6908 38.8608C72.5132 39.3638 73.5887 39.1123 74.0316 38.295L78.46 31.0024C94.339 41.4384 100.539 61.619 93.2635 79.0963C92.7574 80.3536 92.1881 81.611 91.5554 82.8055L87.0005 80.1022C84.6598 78.7191 81.6864 79.2849 80.1048 81.4853C71.1214 93.493 54.3567 96.7621 41.4511 88.9665C40.5654 88.5893 39.5532 88.9665 39.1736 89.8467C38.8573 90.6011 39.0471 91.4813 39.743 91.9213C54.1669 100.597 72.8928 96.9508 82.9516 83.497C83.4577 82.7426 84.47 82.554 85.2291 82.9941L89.7841 85.6974C85.4189 92.2985 79.1559 97.3908 71.8174 100.408C70.9317 100.786 70.4888 101.792 70.8684 102.672C71.248 103.552 72.2602 103.992 73.1459 103.615C83.7108 99.214 92.0615 90.8526 96.4267 80.3536C101.045 69.7918 101.045 57.9727 96.6797 47.4109Z" fill="#CEE6C5"/>
<path opacity="0.2" d="M69.3503 100.723C92.9343 100.723 112.053 81.7236 112.053 58.2869C112.053 34.8503 92.9343 15.8511 69.3503 15.8511C45.7663 15.8511 26.6477 34.8503 26.6477 58.2869C26.6477 81.7236 45.7663 100.723 69.3503 100.723Z" fill="#CEE6C5"/>
</svg>
