<svg width="119" height="114" viewBox="0 0 119 114" fill="none" xmlns="http://www.w3.org/2000/svg">
<path d="M118.708 81.7353H85.7431C85.6087 81.7353 85.4954 81.6263 85.4954 81.4879C85.4954 81.3496 85.6045 81.2406 85.7431 81.2406H118.708C118.842 81.2406 118.955 81.3496 118.955 81.4879C118.955 81.6263 118.842 81.7353 118.708 81.7353Z" fill="#C4E0B8"/>
<path d="M100.775 78.5241H87.0279C86.8935 78.5241 86.7802 78.4151 86.7802 78.2768C86.7802 78.1384 86.8893 78.0294 87.0279 78.0294H100.775C102.101 78.0294 103.181 76.952 103.181 75.6273V71.9591C103.181 71.825 103.29 71.7118 103.428 71.7118C103.567 71.7118 103.676 71.8208 103.676 71.9591V75.6273C103.676 77.2245 102.374 78.5241 100.775 78.5241Z" fill="#C4E0B8"/>
<path d="M113.346 99.3971C113.211 99.3971 113.098 99.2881 113.098 99.1497V86.9211C113.098 85.5964 112.019 84.519 110.692 84.519H88.2623C88.1279 84.519 88.0145 84.41 88.0145 84.2716C88.0145 84.1333 88.1237 84.0243 88.2623 84.0243H110.696C112.296 84.0243 113.598 85.3239 113.598 86.9211V99.1497C113.593 99.2881 113.484 99.3971 113.346 99.3971Z" fill="#C4E0B8"/>
<path d="M113.241 93.5573C114.247 93.5573 115.063 92.5156 115.063 91.2306C115.063 89.9456 114.247 88.9039 113.241 88.9039C112.234 88.9039 111.418 89.9456 111.418 91.2306C111.418 92.5156 112.234 93.5573 113.241 93.5573Z" fill="white"/>
<path d="M113.241 93.8047C112.099 93.8047 111.171 92.6518 111.171 91.2306C111.171 89.8095 112.099 88.6566 113.241 88.6566C114.383 88.6566 115.311 89.8095 115.311 91.2306C115.311 92.6518 114.379 93.8047 113.241 93.8047ZM113.241 89.1471C112.372 89.1471 111.666 90.082 111.666 91.2306C111.666 92.3793 112.372 93.3142 113.241 93.3142C114.11 93.3142 114.815 92.3793 114.815 91.2306C114.815 90.082 114.11 89.1471 113.241 89.1471Z" fill="#79A86F"/>
<path d="M95.9797 79.9914C97.2667 79.9914 98.31 79.1768 98.31 78.172C98.31 77.1671 97.2667 76.3525 95.9797 76.3525C94.6927 76.3525 93.6494 77.1671 93.6494 78.172C93.6494 79.1768 94.6927 79.9914 95.9797 79.9914Z" fill="white"/>
<path d="M95.9797 80.2387C94.5563 80.2387 93.4016 79.3123 93.4016 78.172C93.4016 77.0317 94.5563 76.1052 95.9797 76.1052C97.403 76.1052 98.5577 77.0317 98.5577 78.172C98.5577 79.3123 97.403 80.2387 95.9797 80.2387ZM95.9797 76.5999C94.8292 76.5999 93.8929 77.3042 93.8929 78.172C93.8929 79.0398 94.8292 79.7441 95.9797 79.7441C97.1301 79.7441 98.0665 79.0398 98.0665 78.172C98.0665 77.3042 97.1301 76.5999 95.9797 76.5999Z" fill="#C4E0B8"/>
<path d="M23.3283 83.7602H11.0721C9.47239 83.7602 8.17078 82.4607 8.17078 80.8634V62.8537C8.17078 62.7196 8.27994 62.6064 8.4185 62.6064C8.55706 62.6064 8.66623 62.7154 8.66623 62.8537V80.8634C8.66623 82.1882 9.74531 83.2656 11.0721 83.2656H23.3283C23.4627 83.2656 23.5761 83.3746 23.5761 83.5129C23.5761 83.6513 23.4669 83.7602 23.3283 83.7602Z" fill="#C4E0B8"/>
<path d="M23.6181 86.5438H0.247727C0.113367 86.5438 0 86.4348 0 86.2965C0 86.1581 0.109168 86.0491 0.247727 86.0491H23.6181C23.7524 86.0491 23.8658 86.1581 23.8658 86.2965C23.8658 86.4348 23.7524 86.5438 23.6181 86.5438Z" fill="#C4E0B8"/>
<path d="M8.50244 66.9872C9.50885 66.9872 10.3247 65.9455 10.3247 64.6605C10.3247 63.3756 9.50885 62.3339 8.50244 62.3339C7.49603 62.3339 6.68018 63.3756 6.68018 64.6605C6.68018 65.9455 7.49603 66.9872 8.50244 66.9872Z" fill="white"/>
<path d="M8.50249 67.2345C7.36042 67.2345 6.4325 66.0817 6.4325 64.6606C6.4325 63.2394 7.36042 62.0865 8.50249 62.0865C9.64455 62.0865 10.5725 63.2394 10.5725 64.6606C10.5725 66.0817 9.64455 67.2345 8.50249 67.2345ZM8.50249 62.577C7.63334 62.577 6.92795 63.5119 6.92795 64.6606C6.92795 65.8092 7.63334 66.7441 8.50249 66.7441C9.37163 66.7441 10.077 65.8092 10.077 64.6606C10.077 63.5119 9.37163 62.577 8.50249 62.577Z" fill="#C4E0B8"/>
<path d="M37.5538 23.187C37.4194 23.187 37.306 23.0781 37.306 22.9397V0.247338C37.306 0.113188 37.4152 0 37.5538 0C37.6923 0 37.8015 0.108996 37.8015 0.247338V22.9397C37.8015 23.0781 37.6881 23.187 37.5538 23.187Z" fill="#C4E0B8"/>
<path d="M40.4467 23.0822C40.3123 23.0822 40.199 22.9732 40.199 22.8349V8.03645C40.199 6.43923 41.5006 5.13965 43.1003 5.13965H50.2046C50.339 5.13965 50.4524 5.24864 50.4524 5.38699C50.4524 5.52533 50.3432 5.63432 50.2046 5.63432H43.1003C41.7735 5.63432 40.6944 6.71172 40.6944 8.03645V22.8349C40.6944 22.969 40.5853 23.0822 40.4467 23.0822Z" fill="#79A86F"/>
<path d="M37.5537 11.2477C38.5601 11.2477 39.376 10.206 39.376 8.92103C39.376 7.63604 38.5601 6.59436 37.5537 6.59436C36.5473 6.59436 35.7314 7.63604 35.7314 8.92103C35.7314 10.206 36.5473 11.2477 37.5537 11.2477Z" fill="white"/>
<path d="M37.5538 11.495C36.4117 11.495 35.4838 10.3422 35.4838 8.92099C35.4838 7.49984 36.4117 6.34698 37.5538 6.34698C38.6958 6.34698 39.6238 7.49984 39.6238 8.92099C39.6238 10.3422 38.6958 11.495 37.5538 11.495ZM37.5538 6.83747C36.6846 6.83747 35.9792 7.77233 35.9792 8.92099C35.9792 10.0697 36.6846 11.0045 37.5538 11.0045C38.4229 11.0045 39.1283 10.0697 39.1283 8.92099C39.1283 7.77233 38.4229 6.83747 37.5538 6.83747Z" fill="#79A86F"/>
<path d="M117.565 33.6802H114.03C113.912 33.6802 113.82 33.5879 113.82 33.4706C113.82 33.3532 113.912 33.261 114.03 33.261H117.565C117.683 33.261 117.775 33.3532 117.775 33.4706C117.775 33.5879 117.683 33.6802 117.565 33.6802Z" fill="#79A86F"/>
<path d="M111.376 33.6802H107.837C107.719 33.6802 107.627 33.5879 107.627 33.4706C107.627 33.3532 107.719 33.261 107.837 33.261H111.376C111.494 33.261 111.586 33.3532 111.586 33.4706C111.586 33.5879 111.494 33.6802 111.376 33.6802Z" fill="#79A86F"/>
<path d="M112.703 32.3554C112.586 32.3554 112.493 32.2632 112.493 32.1458V28.6118C112.493 28.4944 112.586 28.4022 112.703 28.4022C112.821 28.4022 112.913 28.4944 112.913 28.6118V32.1458C112.913 32.2632 112.821 32.3554 112.703 32.3554Z" fill="#79A86F"/>
<path d="M112.703 38.5389C112.586 38.5389 112.493 38.4467 112.493 38.3293V34.7952C112.493 34.6779 112.586 34.5856 112.703 34.5856C112.821 34.5856 112.913 34.6779 112.913 34.7952V38.3293C112.913 38.4425 112.821 38.5389 112.703 38.5389Z" fill="#79A86F"/>
<path d="M41.6685 105.287H38.1289C38.0113 105.287 37.9189 105.195 37.9189 105.077C37.9189 104.96 38.0113 104.868 38.1289 104.868H41.6685C41.786 104.868 41.8784 104.96 41.8784 105.077C41.8784 105.195 41.7818 105.287 41.6685 105.287Z" fill="#79A86F"/>
<path d="M35.4753 105.287H31.9358C31.8182 105.287 31.7258 105.195 31.7258 105.077C31.7258 104.96 31.8182 104.868 31.9358 104.868H35.4753C35.5929 104.868 35.6853 104.96 35.6853 105.077C35.6853 105.195 35.5929 105.287 35.4753 105.287Z" fill="#79A86F"/>
<path d="M36.8022 103.962C36.6847 103.962 36.5923 103.87 36.5923 103.753V100.219C36.5923 100.101 36.6847 100.009 36.8022 100.009C36.9198 100.009 37.0122 100.101 37.0122 100.219V103.753C37.0122 103.87 36.9198 103.962 36.8022 103.962Z" fill="#79A86F"/>
<path d="M36.8022 110.146C36.6847 110.146 36.5923 110.054 36.5923 109.936V106.402C36.5923 106.285 36.6847 106.193 36.8022 106.193C36.9198 106.193 37.0122 106.285 37.0122 106.402V109.936C37.0122 110.049 36.9198 110.146 36.8022 110.146Z" fill="#79A86F"/>
<path d="M55.6295 14.1654C51.3509 14.1654 46.9422 14.941 42.4957 16.7771C13.9273 28.574 51.9681 47.7659 22.7741 69.7623C5.79846 82.5527 31.159 100.491 56.4398 100.491C74.6331 100.491 92.7844 91.2012 95.0811 64.0148C95.2196 62.4008 95.3624 60.812 95.5094 59.2693C97.4996 38.476 83.7444 19.1541 63.2502 14.9619C60.7729 14.4505 58.2243 14.1654 55.6295 14.1654Z" fill="#E0EECB"/>
<path d="M13.3814 44.9906C13.2261 45.3763 13.2723 45.8165 13.5074 46.1603C13.7425 46.504 14.1288 46.7094 14.5487 46.7094H34.644C35.3368 46.7094 35.8994 46.1477 35.8994 45.456V41.2764C35.8994 40.5846 35.3368 40.0229 34.644 40.0229H31.7133V28.7375C31.7133 28.0458 31.1506 27.484 30.4578 27.484H14.5487C14.133 27.484 13.7425 27.6894 13.5074 28.0332C13.2723 28.3769 13.2261 28.8171 13.3814 29.2028L16.5431 37.0967L13.3814 44.9906Z" fill="#C4E0B8"/>
<path d="M33.7539 46.3406L29.5677 42.161C29.2066 41.8005 29.1016 41.2639 29.2948 40.7943C29.4879 40.3248 29.9456 40.0188 30.4537 40.0188H34.6398C35.3326 40.0188 35.8953 40.5805 35.8953 41.2723V45.4519C35.8953 45.9591 35.5887 46.4161 35.1185 46.6089C34.9631 46.6718 34.7994 46.7054 34.6398 46.7054C34.3165 46.7095 33.9974 46.5838 33.7539 46.3406Z" fill="#79A86F"/>
<path d="M29.2025 24.5579V41.2764C29.2025 41.9681 29.7652 42.5299 30.4579 42.5299H47.2026C47.8954 42.5299 48.4581 41.9681 48.4581 41.2764V24.5579C48.4581 23.8662 47.8954 23.3044 47.2026 23.3044H30.4579C29.7652 23.3044 29.2025 23.8662 29.2025 24.5579Z" fill="#A8D39F"/>
<path d="M45.9471 61.4199V21.1287C45.9471 20.4369 46.5098 19.8752 47.2026 19.8752C47.8954 19.8752 48.458 20.4369 48.458 21.1287V61.4199C48.458 62.1116 47.8954 62.6734 47.2026 62.6734C46.5098 62.6734 45.9471 62.1158 45.9471 61.4199Z" fill="#97C18F"/>
<path d="M100.006 30.8169C95.2406 26.0587 88.9047 23.4386 82.1657 23.4386C75.4266 23.4386 69.0949 26.0629 64.3293 30.8169C59.5637 35.575 56.9395 41.901 56.9395 48.6295C56.9395 55.358 59.5637 61.684 64.3293 66.4422C69.0949 71.2003 75.4308 73.8204 82.1699 73.8204C85.4995 73.8204 88.7493 73.1748 91.8228 71.9046C94.9005 70.6302 97.6549 68.794 100.006 66.4464C100.393 66.0607 100.393 65.4402 100.006 65.0546C99.6199 64.6689 98.9985 64.6689 98.6122 65.0546C94.2203 69.4396 88.3798 71.8543 82.1657 71.8543C78.286 71.8543 74.6247 70.8985 71.4042 69.2132L73.3608 65.8259C73.4448 65.6792 73.4868 65.5199 73.491 65.3606C73.4994 65.0126 73.3231 64.6689 72.9997 64.4802C72.9997 64.4802 72.9997 64.4802 72.9956 64.4802C67.6295 61.3864 64.1949 55.7563 63.8632 49.6147H67.7765C68.3223 49.6147 68.7632 49.1745 68.7632 48.6295C68.7632 48.0845 68.3223 47.6444 67.7765 47.6444H63.8632C63.9304 46.3783 64.1277 45.1165 64.4595 43.8923C64.6022 43.3683 64.2873 42.8275 63.7625 42.6892C63.2376 42.5466 62.696 42.8611 62.5574 43.3851C62.0997 45.0955 61.8646 46.8604 61.8646 48.6295C61.8646 55.5173 65.4084 61.9607 71.1733 65.6708L69.6953 68.2239C63.2124 64.0987 58.9045 56.8588 58.9045 48.6295C58.9045 44.7559 59.8618 41.1003 61.5497 37.8849L64.9423 39.8385C65.0977 39.9265 65.2656 39.9684 65.4336 39.9684C65.7737 39.9684 66.1054 39.7924 66.2859 39.478C67.0879 38.0945 68.0662 36.8201 69.1999 35.6882C69.5862 35.3025 69.5862 34.6821 69.1999 34.2964C68.8136 33.9107 68.1922 33.9107 67.8059 34.2964C66.7856 35.3151 65.8786 36.4428 65.0935 37.6543L62.5322 36.1787C66.6638 29.7059 73.9151 25.4047 82.1573 25.4047C86.0369 25.4047 89.6983 26.3606 92.9187 28.0458L90.9621 31.4331C90.6892 31.9027 90.8529 32.5063 91.3232 32.7788C91.4785 32.8669 91.6465 32.9088 91.8144 32.9088C92.1545 32.9088 92.4862 32.7327 92.6668 32.4183L94.6234 29.0352C97.4996 30.8672 99.9475 33.3112 101.778 36.1787L99.2169 37.6543C98.4359 36.447 97.5332 35.3193 96.5087 34.2964C96.1224 33.9107 95.501 33.9107 95.1147 34.2964C94.7284 34.6821 94.7284 35.3025 95.1147 35.6882C97.3862 37.9562 99.0279 40.7943 99.8593 43.8923C99.9768 44.3325 100.376 44.6218 100.812 44.6218C100.896 44.6218 100.985 44.6092 101.069 44.5882C101.593 44.4457 101.908 43.9091 101.766 43.3851C101.392 41.9891 100.863 40.6392 100.208 39.3606L102.769 37.8849C104.457 41.1003 105.414 44.7559 105.414 48.6295C105.414 52.3732 104.503 56.0665 102.773 59.3783L100.208 57.8985C101.644 55.119 102.458 51.9665 102.458 48.6295C102.458 48.0845 102.017 47.6444 101.472 47.6444H97.4996C97.4786 47.3341 97.4492 47.0197 97.4114 46.7137C97.3442 46.1729 96.8488 45.7914 96.3113 45.8585C95.7697 45.9256 95.3876 46.4202 95.4548 46.9568C95.5261 47.5102 95.5597 48.072 95.5597 48.6295C95.5597 50.6544 95.0937 52.6456 94.2245 54.4483L91.6549 52.9684C92.2763 51.6102 92.6038 50.1303 92.6038 48.6295C92.6038 48.0845 92.1629 47.6444 91.6171 47.6444H86.6961H86.6919C86.1461 47.6444 85.7052 48.0845 85.7052 48.6295C85.7052 50.5831 84.1139 52.1719 82.1573 52.1719C80.2006 52.1719 78.6093 50.5831 78.6093 48.6295C78.6093 46.676 80.2006 45.0871 82.1573 45.0871C82.7031 45.0871 83.144 44.6469 83.144 44.1019C83.144 43.557 82.7031 43.1168 82.1573 43.1168C79.4491 43.1168 77.1943 45.0745 76.7283 47.6444H73.7429C74.2342 43.4396 77.8199 40.1655 82.1573 40.1655C85.1762 40.1655 87.9894 41.7879 89.4967 44.3954C89.7696 44.8649 90.3701 45.0284 90.8445 44.7559C91.3148 44.4834 91.4785 43.884 91.2056 43.4102C90.4456 42.0939 89.4169 40.9829 88.2119 40.1277L89.6983 37.5579C91.3568 38.6814 92.7508 40.1739 93.7669 41.9346C93.9474 42.249 94.2791 42.4251 94.6192 42.4251C94.7872 42.4251 94.9551 42.3831 95.1105 42.2951C95.5807 42.0226 95.7445 41.4231 95.4716 40.9494C94.1112 38.5976 92.1671 36.6692 89.8452 35.3319C88.9635 34.8246 88.0313 34.4012 87.053 34.0742C86.5366 33.9023 85.9781 34.179 85.806 34.6947C85.6338 35.2103 85.911 35.7679 86.4274 35.9397C86.9649 36.12 87.4855 36.3338 87.9894 36.5769L86.503 39.1468C85.1594 38.5305 83.6814 38.1951 82.1573 38.1951C78.6513 38.1951 75.5442 39.9307 73.6464 42.5844L71.0767 41.1003C72.71 38.6982 75.0991 36.8704 77.9039 35.9355C78.4204 35.7637 78.6975 35.2061 78.5253 34.6905C78.3532 34.1748 77.7947 33.8981 77.2783 34.07C76.6107 34.2922 75.9641 34.5605 75.3427 34.8665L73.8647 32.3093C76.1362 31.1564 78.6303 30.4899 81.1747 30.3515V34.2587C81.1747 34.8036 81.6156 35.2438 82.1615 35.2438C82.7073 35.2438 83.1482 34.8036 83.1482 34.2587V30.3515C84.4162 30.4186 85.6758 30.6156 86.9061 30.9468C87.4309 31.0894 87.9726 30.7749 88.1111 30.2509C88.2539 29.7269 87.939 29.1861 87.4141 29.0478C85.701 28.5908 83.9333 28.3561 82.1615 28.3561C78.6009 28.3561 75.0907 29.2951 72.0088 31.0726C71.5386 31.3451 71.3748 31.9446 71.6477 32.4183L73.6338 35.8517C71.6771 37.1513 70.0396 38.8911 68.8556 40.9368C68.8514 40.941 68.8472 40.9452 68.8472 40.9536C68.843 40.962 68.8388 40.9662 68.8388 40.9746C68.5239 41.5238 68.2383 42.0939 67.9906 42.685C67.7807 43.188 68.0158 43.7624 68.5155 43.972C68.6414 44.0223 68.7716 44.0474 68.8976 44.0474C69.2838 44.0474 69.6491 43.8211 69.8045 43.4438C69.8969 43.23 69.9934 43.0162 70.0942 42.8066L72.6638 44.2864C72.055 45.6069 71.7149 47.0784 71.7149 48.6253C71.7149 50.1723 72.055 51.6437 72.6638 52.9643L70.0942 54.4441C69.964 54.1716 69.8381 53.8907 69.7247 53.6057C69.5232 53.1026 68.9479 52.8553 68.4441 53.0607C67.9402 53.2619 67.6925 53.8362 67.8982 54.3393C69.5903 58.5441 73.0291 61.7721 77.3413 63.1974C77.442 63.2309 77.547 63.2477 77.652 63.2477C78.0635 63.2477 78.4498 62.9878 78.5883 62.5728C78.7605 62.0571 78.4791 61.4996 77.9627 61.3277C75.1285 60.3928 72.731 58.5608 71.0851 56.1461L73.659 54.6621C75.5526 57.3158 78.6639 59.0513 82.1699 59.0513C84.0005 59.0513 85.806 58.5692 87.3931 57.6553C87.8634 57.3828 88.0271 56.7833 87.7542 56.3096C87.4813 55.8401 86.8809 55.6766 86.4064 55.9491C85.4071 56.5276 84.2986 56.8923 83.1524 57.0223V54.0375C85.4071 53.6308 87.1874 51.8533 87.5947 49.6021H90.58C90.4456 50.7424 90.0803 51.8491 89.5051 52.8469C89.5051 52.8469 89.5051 52.8469 89.5051 52.8511C89.2322 53.3206 89.3959 53.9243 89.8662 54.1968L93.2462 56.1461C92.9943 56.5192 92.7214 56.8756 92.4316 57.2235C92.0832 57.6386 92.1377 58.259 92.5534 58.6111C92.7382 58.7663 92.9607 58.8417 93.1874 58.8417C93.4687 58.8417 93.7501 58.7201 93.9432 58.4896C94.5184 57.8062 95.0265 57.0768 95.4716 56.3096C95.4758 56.3054 95.4758 56.3012 95.48 56.2971C95.4842 56.2929 95.4842 56.2845 95.4884 56.2803C96.6598 54.2471 97.3568 51.9581 97.508 49.6063H100.468C100.149 55.6053 96.9201 60.8498 92.1671 63.952L90.2147 60.5731C89.9418 60.1036 89.3414 59.9401 88.8669 60.2126C88.3966 60.4851 88.2329 61.0845 88.5058 61.5583L90.4624 64.9414C88.2455 66.0691 85.7724 66.7608 83.1524 66.8991V63.9394C83.799 63.8975 84.4414 63.8179 85.0754 63.6963C85.6087 63.5915 85.9614 63.0758 85.8564 62.5434C85.7514 62.011 85.235 61.6589 84.7017 61.7637C83.8662 61.923 83.0138 62.0068 82.1657 62.0068C81.6198 62.0068 81.179 62.447 81.179 62.992V66.8991C79.9109 66.8321 78.6513 66.635 77.421 66.3038C76.8962 66.1613 76.3546 66.4757 76.216 66.9997C76.0732 67.5238 76.3882 68.0646 76.913 68.2029C78.6261 68.6598 80.3938 68.8946 82.1657 68.8946C85.8396 68.8946 89.2868 67.9136 92.2637 66.2032C92.2805 66.1948 92.3015 66.1865 92.3183 66.1781C92.3477 66.1613 92.3771 66.1403 92.4065 66.1194C95.1609 64.5054 97.4996 62.2667 99.2295 59.5963L102.664 61.5792C102.664 61.5792 102.668 61.5792 102.668 61.5834C102.706 61.6044 102.74 61.6211 102.777 61.6379C102.786 61.6421 102.794 61.6463 102.803 61.6463C102.832 61.6589 102.861 61.6673 102.895 61.6756C102.903 61.6798 102.912 61.6798 102.92 61.684C102.996 61.705 103.076 61.7134 103.151 61.7134C103.155 61.7134 103.155 61.7134 103.16 61.7134C103.164 61.7134 103.168 61.7134 103.176 61.7134C103.21 61.7134 103.243 61.7092 103.273 61.705C103.281 61.705 103.29 61.705 103.298 61.7008C103.378 61.6882 103.453 61.6715 103.525 61.6421C103.533 61.6379 103.537 61.6379 103.546 61.6337C103.575 61.6212 103.605 61.6086 103.634 61.5918C103.642 61.5876 103.651 61.5834 103.655 61.5792C103.722 61.5415 103.785 61.4912 103.844 61.4367C103.852 61.4325 103.857 61.4241 103.861 61.4199C103.882 61.399 103.903 61.3738 103.924 61.3486C103.928 61.3403 103.936 61.3319 103.94 61.3235C103.966 61.29 103.987 61.2564 104.008 61.2229C106.22 57.3996 107.388 53.0439 107.388 48.6295C107.396 41.901 104.772 35.575 100.006 30.8169ZM81.1831 57.0349C77.2951 56.5821 74.2048 53.4967 73.7513 49.6147H76.7367C77.1439 51.8659 78.9242 53.6434 81.179 54.05V57.0349H81.1831Z" fill="#9BC187"/>
<path d="M65.0516 104.256V112.33C65.0516 113.21 64.3378 113.923 63.4602 113.923H53.169C52.2915 113.923 51.5735 113.21 51.5735 112.33V104.256H65.0516Z" fill="#A8D39F"/>
<path d="M61.344 104.256H65.0515V112.33C65.0515 113.21 64.3377 113.923 63.4602 113.923H59.7527C60.6302 113.923 61.344 113.21 61.344 112.33V104.256Z" fill="#97C18F"/>
<path d="M79.0208 65.1426C79.0208 70.7895 76.7535 75.9082 73.0754 79.6351C71.5386 81.1946 70.7828 83.232 70.8038 85.2694L58.2243 88.6315L45.712 85.2694C45.7246 83.8692 45.3719 82.4481 44.6539 81.1862C44.3264 80.6119 43.9233 80.0711 43.4447 79.5764C39.8043 75.8495 37.558 70.7602 37.558 65.1426C37.558 54.2806 46.0773 45.3135 56.7548 44.5212C57.3258 44.4793 57.9052 44.4625 58.4888 44.4667C69.8465 44.5715 79.0208 53.7902 79.0208 65.1426Z" fill="#BADBAB"/>
<path d="M79.0209 65.1426C79.0209 70.7895 76.7535 75.9082 73.0754 79.6351C71.5386 81.1946 70.7829 83.232 70.8039 85.2694L58.2244 88.6315L45.712 85.2694C45.7246 83.8692 45.3719 82.4481 44.6539 81.1862H67.3693C67.7094 80.5825 68.1292 80.0124 68.6415 79.4925C72.3196 75.7615 74.5869 70.6428 74.5869 65.0001C74.5869 54.5615 66.8318 45.9298 56.7548 44.5212C57.3258 44.4793 57.9052 44.4625 58.4889 44.4667C69.8465 44.5715 79.0209 53.7902 79.0209 65.1426Z" fill="#A8D39F"/>
<path d="M70.6443 98.7096V104.679C70.6443 106.302 69.3259 107.618 67.701 107.618H48.9241C47.295 107.618 45.9766 106.302 45.9766 104.679V98.7096H70.6443Z" fill="#A8D39F"/>
<path d="M70.6443 98.7096V104.679C70.6443 106.302 69.3259 107.618 67.701 107.618H48.9241C47.295 107.618 45.9766 106.302 45.9766 104.679V104.424H64.5813C66.2104 104.424 67.5288 103.107 67.5288 101.485V98.7096H70.6443Z" fill="#97C18F"/>
<path d="M66.5001 57.9278C64.1572 57.9278 62.2509 59.8269 62.2509 62.1662V63.8514H54.1935V62.1368C54.1935 59.8018 52.2873 57.8985 49.9443 57.8985C47.6014 57.8985 45.6952 59.7976 45.6952 62.1368C45.6952 64.4761 47.6014 66.3751 49.9443 66.3751H51.6658V88.6358H54.1935V66.3751H62.2509V88.6358H64.7786V66.3751H66.4875C68.8346 66.3751 70.7451 64.4886 70.7451 62.1662C70.7493 59.8311 68.843 57.9278 66.5001 57.9278ZM49.9485 63.8514C48.9996 63.8514 48.227 63.0801 48.227 62.1368C48.227 61.1936 48.9996 60.4222 49.9485 60.4222C50.8975 60.4222 51.67 61.1894 51.67 62.1368V63.8514H49.9485ZM66.4917 63.8514H64.7828V62.1662C64.7828 61.2229 65.5554 60.4516 66.5043 60.4516C67.4532 60.4516 68.2258 61.2187 68.2258 62.1662C68.2216 63.0926 67.4448 63.8514 66.4917 63.8514Z" fill="#79A86F"/>
<path d="M73.5414 98.4664C73.5414 99.5312 72.6764 100.391 71.61 100.391H44.8428C44.3096 100.391 43.8267 100.177 43.4782 99.8289C43.1297 99.4809 42.9114 98.9988 42.9114 98.4664C42.9114 98.261 42.9324 98.064 42.9702 97.8711C43.2473 96.4332 44.5153 95.3516 46.0353 95.3516L58.3083 93.6705L70.4091 95.3516C70.724 95.3516 71.0305 95.3977 71.316 95.4858C71.8115 95.6367 72.2608 95.905 72.6177 96.2613C73.1887 96.8273 73.5414 97.607 73.5414 98.4664Z" fill="#BADBAB"/>
<path d="M73.5414 98.4664C73.5414 99.5312 72.6764 100.391 71.61 100.391H44.8428C44.3096 100.391 43.8267 100.177 43.4782 99.8289C43.1297 99.4809 42.9114 98.9988 42.9114 98.4664C42.9114 98.261 42.9324 98.064 42.9702 97.8711H69.4266C70.4931 97.8711 71.3538 97.0117 71.3538 95.9469C71.3538 95.7918 71.3412 95.6367 71.3202 95.4858C71.8157 95.6367 72.265 95.905 72.6219 96.2613C73.1887 96.8273 73.5414 97.607 73.5414 98.4664Z" fill="#97C18F"/>
<path d="M73.6254 93.4274C73.6254 94.4922 72.7604 95.3516 71.6939 95.3516H44.9268C44.3935 95.3516 43.9107 95.1378 43.5622 94.7899C43.2137 94.4419 42.9954 93.9598 42.9954 93.4274C42.9954 93.222 43.0164 93.025 43.0541 92.8321C43.3313 91.3942 44.5993 90.3126 46.1192 90.3126L58.2243 88.6315L70.4973 90.3126C70.8122 90.3126 71.1187 90.3587 71.4042 90.4468C71.8997 90.5977 72.349 90.866 72.7058 91.2223C73.2727 91.7883 73.6254 92.5638 73.6254 93.4274Z" fill="#BADBAB"/>
<path d="M73.6254 93.4273C73.6254 94.4921 72.7604 95.3516 71.6939 95.3516H44.9268C44.3935 95.3516 43.9107 95.1377 43.5622 94.7898C43.2137 94.4418 42.9954 93.9597 42.9954 93.4273C42.9954 93.2219 43.0164 93.0249 43.0541 92.832H69.5106C70.5771 92.832 71.4378 91.9726 71.4378 90.9078C71.4378 90.7527 71.4252 90.5976 71.4042 90.4467C71.8997 90.5976 72.349 90.8659 72.7058 91.2222C73.2727 91.7882 73.6254 92.5637 73.6254 93.4273Z" fill="#97C18F"/>
<path d="M73.575 88.3842C73.575 89.449 72.71 90.3084 71.6435 90.3084H44.8764C44.3431 90.3084 43.8603 90.0946 43.5118 89.7466C43.1633 89.3987 42.9449 88.9166 42.9449 88.3842C42.9449 88.1787 42.9659 87.9817 43.0037 87.7889C43.2808 86.3509 44.5489 85.2693 46.0688 85.2693H70.4469C70.7618 85.2693 71.0683 85.3155 71.3538 85.4035C71.8493 85.5544 72.2985 85.8227 72.6554 86.179C73.2223 86.745 73.575 87.5248 73.575 88.3842Z" fill="#BADBAB"/>
<path d="M73.575 88.3842C73.575 89.449 72.71 90.3084 71.6435 90.3084H44.8764C44.3431 90.3084 43.8603 90.0946 43.5118 89.7467C43.1633 89.3987 42.9449 88.9166 42.9449 88.3842C42.9449 88.1788 42.9659 87.9818 43.0037 87.7889H69.4602C70.5266 87.7889 71.3874 86.9295 71.3874 85.8647C71.3874 85.7096 71.3748 85.5545 71.3538 85.4036C71.8493 85.5545 72.2985 85.8228 72.6554 86.1791C73.2223 86.7451 73.575 87.5248 73.575 88.3842Z" fill="#97C18F"/>
</svg>
