<svg width="112" height="108" viewBox="0 0 112 108" fill="none" xmlns="http://www.w3.org/2000/svg">
<path d="M111.767 77.4847H80.7286C80.6021 77.4847 80.4954 77.3813 80.4954 77.2502C80.4954 77.119 80.5981 77.0157 80.7286 77.0157H111.767C111.893 77.0157 112 77.119 112 77.2502C112 77.3813 111.897 77.4847 111.767 77.4847Z" fill="#DBE8D2"/>
<path d="M94.8857 74.4403H81.9422C81.8157 74.4403 81.709 74.3369 81.709 74.2058C81.709 74.0746 81.8118 73.9713 81.9422 73.9713H94.8857C96.135 73.9713 97.151 72.9499 97.151 71.694V68.2164C97.151 68.0892 97.2538 67.9819 97.3843 67.9819C97.5147 67.9819 97.6175 68.0852 97.6175 68.2164V71.694C97.6175 73.2082 96.3919 74.4403 94.8857 74.4403Z" fill="#DBE8D2"/>
<path d="M106.722 94.2287C106.596 94.2287 106.489 94.1254 106.489 93.9942V82.401C106.489 81.1451 105.473 80.1236 104.224 80.1236H83.1007C82.9742 80.1236 82.8674 80.0203 82.8674 79.8892C82.8674 79.758 82.9702 79.6547 83.1007 79.6547H104.224C105.73 79.6547 106.956 80.8867 106.956 82.401V93.9942C106.956 94.1254 106.849 94.2287 106.722 94.2287Z" fill="#DBE8D2"/>
<path d="M106.619 88.6925C107.567 88.6925 108.335 87.7049 108.335 86.4867C108.335 85.2685 107.567 84.2809 106.619 84.2809C105.672 84.2809 104.904 85.2685 104.904 86.4867C104.904 87.7049 105.672 88.6925 106.619 88.6925Z" fill="white"/>
<path d="M106.619 88.9269C105.544 88.9269 104.67 87.834 104.67 86.4867C104.67 85.1393 105.544 84.0464 106.619 84.0464C107.695 84.0464 108.568 85.1393 108.568 86.4867C108.568 87.834 107.695 88.9269 106.619 88.9269ZM106.619 84.5114C105.801 84.5114 105.137 85.3977 105.137 86.4867C105.137 87.5756 105.801 88.4619 106.619 88.4619C107.438 88.4619 108.102 87.5756 108.102 86.4867C108.102 85.3977 107.438 84.5114 106.619 84.5114Z" fill="#231F20"/>
<path d="M90.371 75.8313C91.5828 75.8313 92.5652 75.0591 92.5652 74.1064C92.5652 73.1538 91.5828 72.3815 90.371 72.3815C89.1592 72.3815 88.1769 73.1538 88.1769 74.1064C88.1769 75.0591 89.1592 75.8313 90.371 75.8313Z" fill="white"/>
<path d="M90.371 76.0658C89.0308 76.0658 87.9436 75.1874 87.9436 74.1064C87.9436 73.0254 89.0308 72.147 90.371 72.147C91.7112 72.147 92.7984 73.0254 92.7984 74.1064C92.7984 75.1874 91.7072 76.0658 90.371 76.0658ZM90.371 72.616C89.2878 72.616 88.4062 73.2837 88.4062 74.1064C88.4062 74.9291 89.2878 75.5968 90.371 75.5968C91.4542 75.5968 92.3358 74.9291 92.3358 74.1064C92.3358 73.2837 91.4542 72.616 90.371 72.616Z" fill="#DBE8D2"/>
<path d="M21.9652 79.4043H10.4252C8.91892 79.4043 7.69336 78.1722 7.69336 76.658V59.584C7.69336 59.4569 7.79615 59.3495 7.92661 59.3495C8.05707 59.3495 8.15986 59.4529 8.15986 59.584V76.658C8.15986 77.9139 9.17589 78.9353 10.4252 78.9353H21.9652C22.0917 78.9353 22.1984 79.0387 22.1984 79.1698C22.1984 79.301 22.0917 79.4043 21.9652 79.4043Z" fill="#DBE8D2"/>
<path d="M22.234 82.0432H0.233251C0.106742 82.0432 0 81.9399 0 81.8088C0 81.6776 0.102789 81.5743 0.233251 81.5743H22.2379C22.3644 81.5743 22.4712 81.6776 22.4712 81.8088C22.4712 81.9399 22.3644 82.0432 22.234 82.0432Z" fill="#DBE8D2"/>
<path d="M8.0057 63.5028C8.95329 63.5028 9.72147 62.5152 9.72147 61.297C9.72147 60.0788 8.95329 59.0912 8.0057 59.0912C7.0581 59.0912 6.28992 60.0788 6.28992 61.297C6.28992 62.5152 7.0581 63.5028 8.0057 63.5028Z" fill="white"/>
<path d="M8.00567 63.7372C6.93034 63.7372 6.05664 62.6443 6.05664 61.297C6.05664 59.9496 6.93034 58.8567 8.00567 58.8567C9.081 58.8567 9.9547 59.9496 9.9547 61.297C9.9547 62.6443 9.07704 63.7372 8.00567 63.7372ZM8.00567 59.3217C7.18731 59.3217 6.52314 60.208 6.52314 61.297C6.52314 62.3859 7.18731 63.2722 8.00567 63.2722C8.82403 63.2722 9.4882 62.3859 9.4882 61.297C9.4882 60.208 8.82403 59.3217 8.00567 59.3217Z" fill="#DBE8D2"/>
<path d="M35.3592 21.9784C35.2327 21.9784 35.126 21.875 35.126 21.7439V0.234489C35.126 0.107308 35.2288 0 35.3592 0C35.4897 0 35.5925 0.103334 35.5925 0.234489V21.7478C35.5885 21.875 35.4857 21.9784 35.3592 21.9784Z" fill="#DBE8D2"/>
<path d="M38.0831 21.879C37.9566 21.879 37.8499 21.7756 37.8499 21.6445V7.61489C37.8499 6.10065 39.0754 4.86859 40.5817 4.86859H47.2708C47.3973 4.86859 47.5041 4.97193 47.5041 5.10308C47.5041 5.23423 47.4013 5.33757 47.2708 5.33757H40.5817C39.3324 5.33757 38.3164 6.35899 38.3164 7.61489V21.6445C38.3164 21.7717 38.2136 21.879 38.0831 21.879Z" fill="#231F20"/>
<path d="M35.3593 10.6593C36.3069 10.6593 37.0751 9.67175 37.0751 8.45353C37.0751 7.23531 36.3069 6.24774 35.3593 6.24774C34.4117 6.24774 33.6436 7.23531 33.6436 8.45353C33.6436 9.67175 34.4117 10.6593 35.3593 10.6593Z" fill="white"/>
<path d="M35.3593 10.8938C34.284 10.8938 33.4103 9.80084 33.4103 8.45352C33.4103 7.1062 34.284 6.01324 35.3593 6.01324C36.4346 6.01324 37.3083 7.1062 37.3083 8.45352C37.3083 9.80084 36.4346 10.8938 35.3593 10.8938ZM35.3593 6.47825C34.541 6.47825 33.8768 7.36454 33.8768 8.45352C33.8768 9.5425 34.541 10.4288 35.3593 10.4288C36.1777 10.4288 36.8418 9.5425 36.8418 8.45352C36.8418 7.36454 36.1777 6.47825 35.3593 6.47825Z" fill="#231F20"/>
<path d="M110.695 31.9262H107.367C107.256 31.9262 107.169 31.8388 107.169 31.7275C107.169 31.6162 107.256 31.5288 107.367 31.5288H110.695C110.806 31.5288 110.893 31.6162 110.893 31.7275C110.893 31.8388 110.806 31.9262 110.695 31.9262Z" fill="#231F20"/>
<path d="M104.868 31.9262H101.535C101.425 31.9262 101.338 31.8388 101.338 31.7275C101.338 31.6162 101.425 31.5288 101.535 31.5288H104.868C104.979 31.5288 105.066 31.6162 105.066 31.7275C105.066 31.8388 104.975 31.9262 104.868 31.9262Z" fill="#231F20"/>
<path d="M106.117 30.6703C106.007 30.6703 105.92 30.5829 105.92 30.4716V27.1212C105.92 27.0099 106.007 26.9225 106.117 26.9225C106.228 26.9225 106.315 27.0099 106.315 27.1212V30.4716C106.315 30.5829 106.224 30.6703 106.117 30.6703Z" fill="#231F20"/>
<path d="M106.117 36.5326C106.007 36.5326 105.92 36.4451 105.92 36.3339V32.9834C105.92 32.8722 106.007 32.7847 106.117 32.7847C106.228 32.7847 106.315 32.8722 106.315 32.9834V36.3339C106.315 36.4412 106.224 36.5326 106.117 36.5326Z" fill="#231F20"/>
<path d="M39.2336 99.8127H35.9009C35.7902 99.8127 35.7032 99.7253 35.7032 99.614C35.7032 99.5027 35.7902 99.4153 35.9009 99.4153H39.2336C39.3443 99.4153 39.4313 99.5027 39.4313 99.614C39.4313 99.7253 39.3404 99.8127 39.2336 99.8127Z" fill="#231F20"/>
<path d="M33.4023 99.8127H30.0696C29.9589 99.8127 29.8719 99.7253 29.8719 99.614C29.8719 99.5027 29.9589 99.4153 30.0696 99.4153H33.4023C33.513 99.4153 33.6 99.5027 33.6 99.614C33.6 99.7253 33.513 99.8127 33.4023 99.8127Z" fill="#231F20"/>
<path d="M34.6517 98.5569C34.541 98.5569 34.454 98.4694 34.454 98.3581V95.0077C34.454 94.8965 34.541 94.809 34.6517 94.809C34.7623 94.809 34.8493 94.8965 34.8493 95.0077V98.3581C34.8493 98.4694 34.7623 98.5569 34.6517 98.5569Z" fill="#231F20"/>
<path d="M34.6517 104.419C34.541 104.419 34.454 104.332 34.454 104.22V100.87C34.454 100.759 34.541 100.671 34.6517 100.671C34.7623 100.671 34.8493 100.759 34.8493 100.87V104.22C34.8493 104.328 34.7623 104.419 34.6517 104.419Z" fill="#231F20"/>
<path d="M52.3787 13.4255C48.3502 13.4255 44.1991 14.1607 40.0125 15.9015C13.1135 27.0854 48.9313 45.2802 21.4433 66.1338C5.45969 78.2597 29.3383 95.2661 53.1417 95.2661C70.2718 95.2661 87.3624 86.4588 89.5249 60.6849C89.6554 59.1548 89.7898 57.6485 89.9282 56.1859C91.8021 36.4729 78.8507 18.155 59.5541 14.1806C57.2177 13.6957 54.8219 13.4255 52.3787 13.4255Z" fill="#F1F6ED"/>
<path d="M12.5995 42.6492C12.4533 43.0148 12.4968 43.4321 12.7181 43.758C12.9395 44.0839 13.3032 44.2787 13.6986 44.2787H32.6196C33.2719 44.2787 33.8017 43.7461 33.8017 43.0903V39.1279C33.8017 38.4721 33.2719 37.9395 32.6196 37.9395H29.8601V27.2405C29.8601 26.5847 29.3304 26.0521 28.678 26.0521H13.6986C13.3072 26.0521 12.9395 26.2469 12.7181 26.5728C12.4968 26.8987 12.4533 27.316 12.5995 27.6816L15.5765 35.1654L12.5995 42.6492Z" fill="#C4E0B8"/>
<path d="M31.7814 43.9289L27.8399 39.9665C27.4999 39.6247 27.4011 39.1159 27.5829 38.6708C27.7648 38.2257 28.1957 37.9355 28.6741 37.9355H32.6156C33.2679 37.9355 33.7977 38.4681 33.7977 39.1239V43.0864C33.7977 43.5673 33.5091 44.0005 33.0663 44.1833C32.92 44.2429 32.7658 44.2747 32.6156 44.2747C32.3112 44.2787 32.0068 44.1555 31.7814 43.9289Z" fill="#97C18F"/>
<path d="M27.4919 23.278V39.1279C27.4919 39.7836 28.0217 40.3162 28.674 40.3162H44.4402C45.0925 40.3162 45.6223 39.7836 45.6223 39.1279V23.278C45.6223 22.6222 45.0925 22.0897 44.4402 22.0897H28.678C28.0217 22.0897 27.4919 22.6183 27.4919 23.278Z" fill="#DBE8D2"/>
<path d="M43.2621 58.2248V20.027C43.2621 19.3712 43.7918 18.8386 44.4442 18.8386C45.0965 18.8386 45.6262 19.3712 45.6262 20.027V58.2248C45.6262 58.8806 45.0965 59.4132 44.4442 59.4132C43.7879 59.4132 43.2621 58.8846 43.2621 58.2248Z" fill="#97C18F"/>
<path d="M94.1622 29.2117C89.6751 24.7008 83.7094 22.2168 77.3642 22.2168C71.019 22.2168 65.0533 24.7008 60.5661 29.2117C56.079 33.7226 53.6082 39.72 53.6082 46.0989C53.6082 52.4778 56.079 58.4751 60.5661 62.9861C65.0533 67.497 71.019 69.981 77.3642 69.981C80.4992 69.981 83.5592 69.3689 86.453 68.1647C89.3509 66.9565 91.9443 65.2157 94.1582 62.99C94.522 62.6244 94.522 62.0362 94.1582 61.6705C93.7945 61.3049 93.2094 61.3049 92.8457 61.6705C88.7104 65.8277 83.2113 68.117 77.3602 68.117C73.7073 68.117 70.2599 67.2108 67.2276 65.6131L69.0699 62.4018C69.149 62.2627 69.1885 62.1117 69.1925 61.9607C69.2004 61.6308 69.0343 61.3049 68.7299 61.126C68.7299 61.126 68.7299 61.126 68.726 61.126C63.6735 58.1929 60.4396 52.8553 60.1273 47.0329H63.8119C64.3258 47.0329 64.7409 46.6156 64.7409 46.0989C64.7409 45.5822 64.3258 45.1649 63.8119 45.1649H60.1273C60.1906 43.9646 60.3764 42.7683 60.6887 41.6078C60.8231 41.111 60.5266 40.5983 60.0324 40.4672C59.5383 40.332 59.0283 40.6301 58.8978 41.1269C58.4669 42.7485 58.2455 44.4217 58.2455 46.0989C58.2455 52.6288 61.5822 58.7374 67.0102 62.2548L65.6186 64.6752C59.5145 60.7644 55.4583 53.9006 55.4583 46.0989C55.4583 42.4266 56.3597 38.9609 57.949 35.9125L61.1433 37.7646C61.2896 37.8481 61.4478 37.8878 61.6059 37.8878C61.9261 37.8878 62.2384 37.7209 62.4084 37.4228C63.1635 36.1113 64.0847 34.903 65.1521 33.83C65.5158 33.4643 65.5158 32.8761 65.1521 32.5105C64.7884 32.1448 64.2033 32.1448 63.8396 32.5105C62.8789 33.4762 62.025 34.5453 61.2857 35.6939L58.8741 34.295C62.7642 28.1585 69.5918 24.0808 77.3523 24.0808C81.0053 24.0808 84.4526 24.9869 87.4849 26.5846L85.6426 29.796C85.3856 30.2411 85.5398 30.8134 85.9826 31.0717C86.1289 31.1552 86.287 31.1949 86.4451 31.1949C86.7654 31.1949 87.0777 31.028 87.2477 30.7299L89.09 27.5226C91.7981 29.2594 94.1029 31.5765 95.8266 34.295L93.415 35.6939C92.6797 34.5493 91.8297 33.4802 90.8651 32.5105C90.5013 32.1448 89.9162 32.1448 89.5525 32.5105C89.1888 32.8761 89.1888 33.4643 89.5525 33.83C91.6913 35.9801 93.2371 38.6708 94.0199 41.6078C94.1306 42.0251 94.5061 42.2994 94.9173 42.2994C94.9964 42.2994 95.0794 42.2874 95.1584 42.2676C95.6526 42.1324 95.9491 41.6237 95.8147 41.1269C95.4629 39.8035 94.9647 38.5237 94.348 37.3115L96.7596 35.9125C98.3489 38.9609 99.2502 42.4266 99.2502 46.0989C99.2502 49.648 98.3923 53.1494 96.7635 56.2892L94.348 54.8863C95.7001 52.2512 96.467 49.2625 96.467 46.0989C96.467 45.5822 96.0519 45.1649 95.538 45.1649H91.7981C91.7783 44.8708 91.7506 44.5727 91.715 44.2826C91.6518 43.7699 91.1853 43.4082 90.6792 43.4718C90.1693 43.5354 89.8095 44.0044 89.8727 44.5131C89.94 45.0377 89.9716 45.5703 89.9716 46.0989C89.9716 48.0185 89.5328 49.9063 88.7144 51.6153L86.2949 50.2124C86.88 48.9247 87.1884 47.5217 87.1884 46.0989C87.1884 45.5822 86.7733 45.1649 86.2593 45.1649H81.6378H81.6339C81.1199 45.1649 80.7048 45.5822 80.7048 46.0989C80.7048 47.9509 79.2065 49.4572 77.3642 49.4572C75.5219 49.4572 74.0235 47.9509 74.0235 46.0989C74.0235 44.2468 75.5219 42.7405 77.3642 42.7405C77.8781 42.7405 78.2932 42.3232 78.2932 41.8065C78.2932 41.2899 77.8781 40.8726 77.3642 40.8726C74.8142 40.8726 72.6912 42.7286 72.2524 45.1649H69.4415C69.9041 41.1786 73.2803 38.0746 77.3642 38.0746C80.2067 38.0746 82.8555 39.6127 84.2747 42.0848C84.5317 42.5299 85.097 42.6849 85.5438 42.4266C85.9866 42.1682 86.1407 41.5999 85.8838 41.1508C85.1682 39.9028 84.1996 38.8496 83.065 38.0388L84.4645 35.6025C86.0261 36.6677 87.3386 38.0825 88.2953 39.7518C88.4653 40.0499 88.7777 40.2168 89.0979 40.2168C89.256 40.2168 89.4141 40.177 89.5604 40.0936C90.0032 39.8353 90.1574 39.2669 89.9004 38.8178C88.6195 36.5882 86.7891 34.76 84.6029 33.4921C83.7726 33.0112 82.895 32.6098 81.9738 32.2998C81.4876 32.1369 80.9618 32.3992 80.7997 32.888C80.6376 33.3769 80.8985 33.9055 81.3848 34.0684C81.8908 34.2393 82.381 34.442 82.8555 34.6725L81.4559 37.1088C80.1909 36.5246 78.7993 36.2066 77.3642 36.2066C74.0631 36.2066 71.1376 37.852 69.3506 40.3678L66.9311 38.9609C68.469 36.6836 70.7185 34.9507 73.3594 34.0644C73.8456 33.9015 74.1066 33.3729 73.9445 32.884C73.7824 32.3952 73.2566 32.1329 72.7703 32.2958C72.1417 32.5065 71.5329 32.7608 70.9478 33.051L69.5562 30.6266C71.695 29.5336 74.0433 28.9017 76.4391 28.7706V32.4747C76.4391 32.9914 76.8542 33.4087 77.3681 33.4087C77.8821 33.4087 78.2972 32.9914 78.2972 32.4747V28.7745C79.4911 28.8381 80.6771 29.0249 81.8355 29.3389C82.3296 29.474 82.8396 29.1759 82.9701 28.6792C83.1045 28.1824 82.808 27.6697 82.3138 27.5385C80.7008 27.1053 79.0365 26.8827 77.3681 26.8827C74.0156 26.8827 70.7106 27.773 67.8088 29.4581C67.366 29.7165 67.2118 30.2848 67.4688 30.7339L69.3388 33.9889C67.4965 35.221 65.9546 36.8704 64.8398 38.8099C64.8358 38.8138 64.8319 38.8178 64.8319 38.8258C64.8279 38.8337 64.824 38.8377 64.824 38.8456C64.5275 39.3663 64.2586 39.9068 64.0254 40.4672C63.8277 40.9441 64.0491 41.4886 64.5196 41.6873C64.6382 41.735 64.7607 41.7589 64.8793 41.7589C65.243 41.7589 65.587 41.5442 65.7333 41.1865C65.8202 40.9838 65.9112 40.7812 66.006 40.5824L68.4255 41.9854C67.8523 43.2373 67.5321 44.6323 67.5321 46.0989C67.5321 47.5654 67.8523 48.9604 68.4255 50.2124L66.006 51.6153C65.8835 51.357 65.7649 51.0907 65.6581 50.8205C65.4684 50.3435 64.9268 50.109 64.4523 50.3038C63.9779 50.4946 63.7447 51.039 63.9384 51.516C65.5316 55.5023 68.7695 58.5626 72.8296 59.9139C72.9245 59.9456 73.0233 59.9615 73.1222 59.9615C73.5096 59.9615 73.8733 59.7151 74.0038 59.3217C74.1659 58.8328 73.901 58.3042 73.4147 58.1413C70.7462 57.255 68.4888 55.5182 66.939 53.2289L69.3625 51.822C71.1455 54.3378 74.0749 55.9832 77.376 55.9832C79.0997 55.9832 80.7997 55.5261 82.2941 54.6597C82.7369 54.4014 82.891 53.833 82.6341 53.3839C82.3771 52.9388 81.8118 52.7838 81.365 53.0421C80.4241 53.5906 79.3804 53.9364 78.3011 54.0596V51.2298C80.4241 50.8443 82.1004 49.1592 82.4838 47.0249H85.2947C85.1682 48.1059 84.8242 49.1552 84.2826 50.1011C84.2826 50.1011 84.2826 50.1011 84.2826 50.1051C84.0257 50.5502 84.1798 51.1225 84.6226 51.3808L87.8051 53.2289C87.5679 53.5827 87.3109 53.9205 87.0382 54.2504C86.71 54.6438 86.7614 55.232 87.1528 55.5659C87.3268 55.7129 87.5363 55.7845 87.7498 55.7845C88.0146 55.7845 88.2795 55.6692 88.4614 55.4506C89.003 54.8028 89.4814 54.1113 89.9004 53.3839C89.9044 53.38 89.9044 53.376 89.9083 53.372C89.9123 53.368 89.9123 53.3601 89.9162 53.3561C91.0192 51.4285 91.6755 49.2585 91.8178 47.0289H94.605C94.3045 52.7162 91.2643 57.6882 86.7891 60.6292L84.9508 57.4259C84.6938 56.9808 84.1284 56.8258 83.6817 57.0841C83.2389 57.3424 83.0847 57.9108 83.3417 58.3599L85.184 61.5672C83.0966 62.6363 80.7681 63.2921 78.3011 63.4232V60.6173C78.91 60.5776 79.5148 60.5021 80.1118 60.3868C80.6139 60.2874 80.946 59.7986 80.8471 59.2938C80.7483 58.7891 80.262 58.4553 79.7599 58.5546C78.9732 58.7056 78.1707 58.7851 77.3721 58.7851C76.8581 58.7851 76.443 59.2024 76.443 59.7191V63.4232C75.2491 63.3596 74.0631 63.1729 72.9047 62.8589C72.4106 62.7237 71.9006 63.0218 71.7701 63.5186C71.6357 64.0154 71.9322 64.5281 72.4264 64.6593C74.0394 65.0925 75.7037 65.315 77.3721 65.315C80.8313 65.315 84.0771 64.385 86.88 62.7635C86.8958 62.7555 86.9156 62.7476 86.9314 62.7396C86.9591 62.7237 86.9868 62.7039 87.0144 62.684C89.6079 61.1539 91.8099 59.0315 93.4387 56.4999L96.6726 58.3797C96.6726 58.3797 96.6766 58.3797 96.6766 58.3837C96.7121 58.4036 96.7438 58.4195 96.7793 58.4354C96.7873 58.4394 96.7952 58.4433 96.8031 58.4433C96.8307 58.4553 96.8584 58.4632 96.89 58.4711C96.898 58.4751 96.9059 58.4751 96.9138 58.4791C96.9849 58.499 97.06 58.5069 97.1312 58.5069C97.1352 58.5069 97.1352 58.5069 97.1391 58.5069C97.1431 58.5069 97.147 58.5069 97.1549 58.5069C97.1865 58.5069 97.2182 58.5029 97.2458 58.499C97.2538 58.499 97.2617 58.499 97.2696 58.495C97.3447 58.4831 97.4158 58.4672 97.4831 58.4394C97.491 58.4354 97.4949 58.4354 97.5028 58.4314C97.5305 58.4195 97.5582 58.4076 97.5858 58.3917C97.5937 58.3877 97.6017 58.3837 97.6056 58.3797C97.6689 58.344 97.7282 58.2963 97.7835 58.2446C97.7914 58.2406 97.7954 58.2327 97.7993 58.2287C97.8191 58.2088 97.8389 58.185 97.8586 58.1611C97.8626 58.1532 97.8705 58.1452 97.8744 58.1373C97.8982 58.1055 97.9179 58.0737 97.9377 58.0419C100.021 54.4173 101.12 50.2879 101.12 46.1029C101.12 39.72 98.6493 33.7226 94.1622 29.2117ZM76.4391 54.0675C72.7782 53.6383 69.8685 50.7131 69.4415 47.0329H72.2524C72.6359 49.1671 74.3121 50.8522 76.4351 51.2378V54.0675H76.4391Z" fill="#C4E0B8"/>
<path d="M61.2501 98.8351V106.49C61.2501 107.324 60.578 108 59.7518 108H50.062C49.2357 108 48.5597 107.324 48.5597 106.49V98.8351H61.2501Z" fill="#A8D39F"/>
<path d="M57.7592 98.8351H61.2501V106.49C61.2501 107.324 60.578 108 59.7517 108H56.2609C57.0871 108 57.7592 107.324 57.7592 106.49V98.8351Z" fill="#97C18F"/>
<path d="M74.4032 61.754C74.4032 67.1075 72.2683 71.9602 68.8051 75.4935C67.3582 76.9719 66.6466 78.9035 66.6664 80.835L54.8219 84.0225L43.0408 80.835C43.0527 79.5076 42.7206 78.1603 42.0445 76.964C41.7362 76.4195 41.3566 75.9068 40.906 75.4378C37.4784 71.9046 35.3633 67.0797 35.3633 61.754C35.3633 51.4564 43.3847 42.9552 53.4383 42.204C53.9759 42.1643 54.5215 42.1484 55.071 42.1523C65.765 42.2517 74.4032 50.9914 74.4032 61.754Z" fill="#DBE8D2"/>
<path d="M74.4031 61.754C74.4031 67.1075 72.2682 71.9602 68.805 75.4935C67.3581 76.9719 66.6465 78.9035 66.6663 80.835L54.8218 84.0225L43.0407 80.835C43.0526 79.5076 42.7205 78.1603 42.0444 76.964H63.4324C63.7526 76.3917 64.1479 75.8512 64.6302 75.3583C68.0934 71.8211 70.2283 66.9684 70.2283 61.6189C70.2283 51.7226 62.9263 43.5394 53.4382 42.204C53.9758 42.1643 54.5214 42.1484 55.0709 42.1523C65.7649 42.2517 74.4031 50.9914 74.4031 61.754Z" fill="#C4E0B8"/>
<path d="M66.5161 93.577V99.2365C66.5161 100.775 65.2747 102.023 63.7447 102.023H46.0651C44.5312 102.023 43.2898 100.775 43.2898 99.2365V93.577H66.5161Z" fill="#A8D39F"/>
<path d="M66.5161 93.577V99.2365C66.5161 100.775 65.2747 102.023 63.7447 102.023H46.0651C44.5312 102.023 43.2898 100.775 43.2898 99.2365V98.9941H60.8073C62.3413 98.9941 63.5826 97.7461 63.5826 96.208V93.577H66.5161Z" fill="#97C18F"/>
<path d="M62.614 54.9141C60.408 54.9141 58.6132 56.7145 58.6132 58.9322V60.5299H51.0266V58.9044C51.0266 56.6907 49.2318 54.8863 47.0257 54.8863C44.8197 54.8863 43.0249 56.6867 43.0249 58.9044C43.0249 61.1221 44.8197 62.9225 47.0257 62.9225H48.6466V84.0265H51.0266V62.9225H58.6132V84.0265H60.9931V62.9225H62.6022C64.8121 62.9225 66.6109 61.134 66.6109 58.9322C66.6149 56.7185 64.82 54.9141 62.614 54.9141ZM47.0297 60.5259C46.1362 60.5259 45.4088 59.7947 45.4088 58.9004C45.4088 58.0062 46.1362 57.2749 47.0297 57.2749C47.9232 57.2749 48.6506 58.0022 48.6506 58.9004V60.5259H47.0297ZM62.6061 60.5259H60.9971V58.9282C60.9971 58.034 61.7245 57.3027 62.618 57.3027C63.5115 57.3027 64.2389 58.03 64.2389 58.9282C64.2349 59.8106 63.5036 60.5259 62.6061 60.5259Z" fill="#A8D39F"/>
<path d="M69.24 93.3464C69.24 94.3559 68.4255 95.1707 67.4214 95.1707H42.2224C41.7203 95.1707 41.2657 94.968 40.9375 94.6381C40.6094 94.3083 40.4038 93.8512 40.4038 93.3464C40.4038 93.1517 40.4236 92.9649 40.4592 92.7821C40.7201 91.4189 41.914 90.3935 43.3451 90.3935L54.9009 88.7997L66.2947 90.3935C66.5912 90.3935 66.8798 90.4372 67.1486 90.5207C67.6151 90.6637 68.0381 90.9181 68.3742 91.2559C68.9118 91.7925 69.24 92.5317 69.24 93.3464Z" fill="#DBE8D2"/>
<path d="M69.24 93.3464C69.24 94.3559 68.4255 95.1707 67.4214 95.1707H42.2224C41.7203 95.1707 41.2657 94.968 40.9375 94.6381C40.6094 94.3082 40.4038 93.8512 40.4038 93.3464C40.4038 93.1517 40.4236 92.9649 40.4592 92.7821H65.3696C66.3737 92.7821 67.1842 91.9673 67.1842 90.9578C67.1842 90.8108 67.1723 90.6637 67.1526 90.5206C67.6191 90.6637 68.0421 90.9181 68.3781 91.2559C68.9118 91.7924 69.24 92.5317 69.24 93.3464Z" fill="#C4E0B8"/>
<path d="M69.323 88.5692C69.323 89.5787 68.5086 90.3935 67.5044 90.3935H42.3015C41.7994 90.3935 41.3448 90.1908 41.0166 89.8609C40.6885 89.531 40.4829 89.074 40.4829 88.5692C40.4829 88.3745 40.5027 88.1877 40.5383 88.0049C40.7992 86.6416 41.9931 85.6163 43.4242 85.6163L54.8219 84.0225L66.3777 85.6163C66.6742 85.6163 66.9628 85.66 67.2317 85.7434C67.6982 85.8865 68.1212 86.1409 68.4572 86.4787C68.9909 87.0152 69.323 87.7505 69.323 88.5692Z" fill="#DBE8D2"/>
<path d="M69.323 88.5692C69.323 89.5787 68.5086 90.3935 67.5044 90.3935H42.3015C41.7994 90.3935 41.3448 90.1908 41.0166 89.8609C40.6885 89.531 40.4829 89.074 40.4829 88.5692C40.4829 88.3745 40.5027 88.1877 40.5383 88.0048H65.4487C66.4528 88.0048 67.2633 87.1901 67.2633 86.1806C67.2633 86.0335 67.2514 85.8865 67.2317 85.7434C67.6982 85.8865 68.1212 86.1408 68.4572 86.4787C68.9909 87.0152 69.323 87.7505 69.323 88.5692Z" fill="#C4E0B8"/>
<path d="M69.2716 83.7881C69.2716 84.7976 68.4572 85.6123 67.4531 85.6123H42.2501C41.748 85.6123 41.2934 85.4096 40.9652 85.0797C40.6371 84.7499 40.4315 84.2928 40.4315 83.7881C40.4315 83.5933 40.4513 83.4065 40.4869 83.2237C40.7478 81.8605 41.9417 80.8351 43.3729 80.8351H66.3263C66.6228 80.8351 66.9114 80.8788 67.1803 80.9623C67.6468 81.1053 68.0698 81.3597 68.4058 81.6975C68.9435 82.2341 69.2716 82.9733 69.2716 83.7881Z" fill="#DBE8D2"/>
<path d="M69.2716 83.788C69.2716 84.7975 68.4572 85.6123 67.4531 85.6123H42.2501C41.748 85.6123 41.2934 85.4096 40.9652 85.0797C40.6371 84.7498 40.4315 84.2928 40.4315 83.788C40.4315 83.5933 40.4513 83.4065 40.4869 83.2236H65.3973C66.4015 83.2236 67.2119 82.4089 67.2119 81.3994C67.2119 81.2523 67.2 81.1053 67.1803 80.9622C67.6468 81.1053 68.0698 81.3597 68.4058 81.6975C68.9435 82.234 69.2716 82.9733 69.2716 83.788Z" fill="#C4E0B8"/>
</svg>
