<svg width="117" height="110" viewBox="0 0 117 110" fill="none" xmlns="http://www.w3.org/2000/svg">
<g clip-path="url(#clip0)">
<path d="M23.1483 72.0535H10.9866C9.39924 72.0535 8.10767 70.7556 8.10767 69.1603V51.1731C8.10767 51.0391 8.21599 50.9261 8.35348 50.9261C8.49097 50.9261 8.5993 51.0349 8.5993 51.1731V69.1603C8.5993 70.4834 9.67006 71.5595 10.9866 71.5595H23.1483C23.2816 71.5595 23.3941 71.6683 23.3941 71.8065C23.3941 71.9447 23.2816 72.0535 23.1483 72.0535Z" fill="#C0DCF9"/>
<path d="M23.4317 74.8337H0.245816C0.112492 74.8337 0 74.7248 0 74.5866C0 74.4485 0.108326 74.3396 0.245816 74.3396H23.4358C23.5692 74.3396 23.6816 74.4485 23.6816 74.5866C23.6816 74.7248 23.5692 74.8337 23.4317 74.8337Z" fill="#C0DCF9"/>
<path d="M8.43687 55.2973C9.43551 55.2973 10.2451 54.2569 10.2451 52.9735C10.2451 51.6902 9.43551 50.6498 8.43687 50.6498C7.43822 50.6498 6.62866 51.6902 6.62866 52.9735C6.62866 54.2569 7.43822 55.2973 8.43687 55.2973Z" fill="white"/>
<path d="M8.43683 55.5443C7.30358 55.5443 6.38281 54.3929 6.38281 52.9735C6.38281 51.5541 7.30358 50.4027 8.43683 50.4027C9.57009 50.4027 10.4909 51.5541 10.4909 52.9735C10.4909 54.3929 9.56592 55.5443 8.43683 55.5443ZM8.43683 50.8968C7.57439 50.8968 6.87444 51.8305 6.87444 52.9777C6.87444 54.1249 7.57439 55.0586 8.43683 55.0586C9.29927 55.0586 9.99922 54.1249 9.99922 52.9777C9.99922 51.8305 9.29927 50.8968 8.43683 50.8968Z" fill="#C0DCF9"/>
<path d="M75.028 110C74.8947 110 74.7822 109.891 74.7822 109.753V92.599C74.7822 92.465 74.8906 92.3519 75.028 92.3519C75.1655 92.3519 75.2739 92.4608 75.2739 92.599V109.753C75.2697 109.891 75.1614 110 75.028 110Z" fill="#231F20"/>
<path d="M97.8971 101.852H79.9983C78.411 101.852 77.1194 100.554 77.1194 98.959V92.599C77.1194 92.465 77.2277 92.3519 77.3652 92.3519C77.5027 92.3519 77.611 92.4608 77.611 92.599V98.959C77.611 100.282 78.6818 101.358 79.9983 101.358H97.8971C98.0304 101.358 98.1429 101.467 98.1429 101.605C98.1429 101.743 98.0304 101.852 97.8971 101.852Z" fill="#C0DCF9"/>
<path d="M75.1322 107.199C76.1308 107.199 76.9404 106.159 76.9404 104.875C76.9404 103.592 76.1308 102.551 75.1322 102.551C74.1335 102.551 73.324 103.592 73.324 104.875C73.324 106.159 74.1335 107.199 75.1322 107.199Z" fill="white"/>
<path d="M75.1321 107.446C73.9989 107.446 73.0781 106.295 73.0781 104.875C73.0781 103.456 73.9989 102.304 75.1321 102.304C76.2654 102.304 77.1862 103.456 77.1862 104.875C77.1862 106.295 76.2654 107.446 75.1321 107.446ZM75.1321 102.798C74.2697 102.798 73.5698 103.732 73.5698 104.879C73.5698 106.027 74.2697 106.96 75.1321 106.96C75.9946 106.96 76.6945 106.027 76.6945 104.879C76.6945 103.732 75.9946 102.798 75.1321 102.798Z" fill="#231F20"/>
<path d="M77.7444 33.3618C77.611 33.3618 77.4985 33.2529 77.4985 33.1147V0.247031C77.4985 0.113048 77.6069 0 77.7444 0C77.8818 0 77.9902 0.108861 77.9902 0.247031V33.1189C77.9902 33.2529 77.8777 33.3618 77.7444 33.3618Z" fill="#231F20"/>
<path d="M84.3106 9.99432H96.4639C96.5972 9.99432 96.7097 10.1032 96.7097 10.2414C96.7097 10.3795 96.6014 10.4884 96.4639 10.4884H84.3106C82.994 10.4884 81.9233 11.5644 81.9233 12.8875V35.2543C81.9233 35.3883 81.8149 35.5013 81.6775 35.5013C81.54 35.5013 81.4316 35.3925 81.4316 35.2543V12.8875C81.4358 11.2923 82.7274 9.99432 84.3106 9.99432Z" fill="#C0DCF9"/>
<path d="M54.2253 10.5344C47.18 10.5344 40.5638 14.5832 36.5683 24.8413C32.6644 34.8775 27.044 50.0594 22.9151 61.3098C18.5071 73.318 23.8442 86.888 35.4059 92.2598C41.9887 95.3163 49.4674 96.9116 57.0626 96.9116C73.7906 96.9116 91.0686 89.174 100.468 72.2838C119.037 38.9137 87.9438 58.3454 83.6483 37.1635C80.8901 23.5643 66.8661 10.5344 54.2253 10.5344Z" fill="#D9ECFF"/>
<path d="M88.5936 12.1632C89.8707 12.1632 90.9059 11.3496 90.9059 10.346C90.9059 9.34243 89.8707 8.52887 88.5936 8.52887C87.3165 8.52887 86.2812 9.34243 86.2812 10.346C86.2812 11.3496 87.3165 12.1632 88.5936 12.1632Z" fill="white"/>
<path d="M88.5938 8.28601C90.0062 8.28601 91.1519 9.21133 91.1519 10.3502C91.1519 11.489 90.0062 12.4144 88.5938 12.4144C87.1814 12.4144 86.0356 11.489 86.0356 10.3502C86.0356 9.21133 87.1814 8.28601 88.5938 8.28601ZM88.5938 11.9203C89.7354 11.9203 90.6645 11.2169 90.6645 10.3502C90.6645 9.48348 89.7354 8.78007 88.5938 8.78007C87.4522 8.78007 86.5231 9.48348 86.5231 10.3502C86.5231 11.2169 87.4522 11.9203 88.5938 11.9203Z" fill="#C0DCF9"/>
<path d="M34.1851 33.2864V43.8459L43.2844 49.1257L52.3838 43.8459V33.2864L43.2844 28.0066L34.1851 33.2864Z" fill="#AED5FF"/>
<path d="M33.4185 12.8121L40.8513 17.1247V25.7499L33.4185 30.0624L25.9815 25.7499V17.1247L33.4185 12.8121ZM33.4185 10.8777L24.3149 16.1575V26.717L33.4143 31.9968L42.5136 26.717V16.1575L33.4185 10.8777Z" fill="#AED5FF"/>
<path d="M43.926 16.2873V26.8469L53.0254 32.1266L62.1247 26.8469V16.2873L53.0254 11.0076L43.926 16.2873Z" fill="#8BB9FC"/>
<path d="M26.0607 37.8292H22.5484C22.4317 37.8292 22.3401 37.7371 22.3401 37.6199C22.3401 37.5026 22.4317 37.4105 22.5484 37.4105H26.0607C26.1773 37.4105 26.269 37.5026 26.269 37.6199C26.269 37.7371 26.1731 37.8292 26.0607 37.8292Z" fill="#231F20"/>
<path d="M19.9151 37.8292H16.4029C16.2862 37.8292 16.1946 37.7371 16.1946 37.6199C16.1946 37.5026 16.2862 37.4105 16.4029 37.4105H19.9151C20.0318 37.4105 20.1235 37.5026 20.1235 37.6199C20.1235 37.7371 20.0318 37.8292 19.9151 37.8292Z" fill="#231F20"/>
<path d="M21.2318 36.5061C21.1151 36.5061 21.0234 36.414 21.0234 36.2968V32.7714C21.0234 32.6541 21.1151 32.562 21.2318 32.562C21.3484 32.562 21.4401 32.6541 21.4401 32.7714V36.2968C21.4401 36.414 21.3484 36.5061 21.2318 36.5061Z" fill="#231F20"/>
<path d="M21.2318 42.682C21.1151 42.682 21.0234 42.5898 21.0234 42.4726V38.943C21.0234 38.8258 21.1151 38.7336 21.2318 38.7336C21.3484 38.7336 21.4401 38.8258 21.4401 38.943V42.4726C21.4401 42.5857 21.3484 42.682 21.2318 42.682Z" fill="#231F20"/>
<path d="M116.792 51.2191H113.28C113.163 51.2191 113.071 51.127 113.071 51.0098C113.071 50.8925 113.163 50.8004 113.28 50.8004H116.792C116.909 50.8004 117 50.8925 117 51.0098C117 51.127 116.909 51.2191 116.792 51.2191Z" fill="#231F20"/>
<path d="M110.651 51.2191H107.138C107.022 51.2191 106.93 51.127 106.93 51.0098C106.93 50.8925 107.022 50.8004 107.138 50.8004H110.651C110.767 50.8004 110.859 50.8925 110.859 51.0098C110.859 51.127 110.763 51.2191 110.651 51.2191Z" fill="#231F20"/>
<path d="M111.967 49.8961C111.85 49.8961 111.759 49.804 111.759 49.6867V46.1571C111.759 46.0399 111.85 45.9478 111.967 45.9478C112.084 45.9478 112.175 46.0399 112.175 46.1571V49.6867C112.175 49.804 112.08 49.8961 111.967 49.8961Z" fill="#231F20"/>
<path d="M111.967 56.0719C111.85 56.0719 111.759 55.9797 111.759 55.8625V52.3329C111.759 52.2156 111.85 52.1235 111.967 52.1235C112.084 52.1235 112.175 52.2156 112.175 52.3329V55.8625C112.175 55.9755 112.08 56.0719 111.967 56.0719Z" fill="#231F20"/>
<path d="M51.4173 72.803C50.6757 72.803 50.0715 72.2 50.0715 71.4506V34.3331C50.0715 33.5878 50.6715 32.9807 51.4173 32.9807H86.1481H97.5473C98.2889 32.9807 98.8931 33.5836 98.8931 34.3331V71.4506C98.8931 72.1959 98.2931 72.803 97.5473 72.803H51.4173Z" fill="#9DC7F9"/>
<path d="M91.3394 69.4031H57.621C57.621 67.0919 55.7544 65.2162 53.4546 65.2162V40.5717C55.7544 40.5717 57.621 38.6959 57.621 36.3847H91.3394C91.3394 38.6959 93.2059 40.5717 95.5057 40.5717V65.212C93.2059 65.2162 91.3394 67.0919 91.3394 69.4031Z" fill="#AED5FF"/>
<path d="M82.565 54.598L82.5483 67.4897L85.369 64.6677L88.1813 67.5023L88.1979 54.6064L82.565 54.598Z" fill="#8BB9FC"/>
<path d="M87.8687 58.2114L87.8562 66.7109L85.3689 64.2029L82.8774 66.7025L82.8899 58.203H83.2233L83.2149 65.8819L85.3731 63.7214L87.5229 65.8903L87.5313 58.2072L87.8687 58.2114Z" fill="#4A7ECC"/>
<path d="M79.4526 52.3455V59.1744L85.3397 62.591L91.2226 59.1744V52.3455L85.3397 48.9331L79.4526 52.3455Z" fill="#5A8FED"/>
<path d="M87.8688 52.5171C88.0438 52.4836 88.1813 52.379 88.2688 52.2366C88.1396 52.1361 87.9688 52.0901 87.7938 52.1236C87.6188 52.1571 87.4813 52.2617 87.3938 52.4041C87.523 52.5046 87.6938 52.5506 87.8688 52.5171Z" fill="#BDE0FF"/>
<path d="M87.9898 51.8347C88.0231 52.0105 88.1273 52.1487 88.2689 52.2366C88.3689 52.1068 88.4147 51.9352 88.3814 51.7593C88.3481 51.5835 88.2439 51.4453 88.1023 51.3574C88.0023 51.4872 87.9564 51.6588 87.9898 51.8347Z" fill="#BDE0FF"/>
<path d="M82.5442 59.9281C82.5109 59.7522 82.5567 59.5847 82.6567 59.4507C82.7984 59.5345 82.9025 59.6768 82.9359 59.8527C82.9692 60.0285 82.9234 60.196 82.8234 60.33C82.6859 60.2463 82.5776 60.1039 82.5442 59.9281Z" fill="#BDE0FF"/>
<path d="M83.1317 59.5638C82.9567 59.5973 82.7901 59.5513 82.6567 59.4508C82.7401 59.3084 82.8817 59.2037 83.0567 59.1702C83.2317 59.1368 83.3984 59.1828 83.5317 59.2833C83.4483 59.4215 83.3067 59.5303 83.1317 59.5638Z" fill="#BDE0FF"/>
<path d="M88.4063 52.9819C88.5812 52.9778 88.7396 52.8982 88.8479 52.7726C88.7354 52.6512 88.5771 52.5758 88.4021 52.58C88.2271 52.5842 88.0688 52.6637 87.9604 52.7893C88.0688 52.9108 88.2271 52.9861 88.4063 52.9819Z" fill="#BDE0FF"/>
<path d="M88.6394 52.333C88.6436 52.5088 88.7227 52.6679 88.8477 52.7768C88.9685 52.6637 89.0435 52.5046 89.0394 52.3288C89.0352 52.1529 88.9561 51.9938 88.8311 51.8849C88.7144 51.9938 88.6394 52.1529 88.6394 52.333Z" fill="#BDE0FF"/>
<path d="M81.8857 59.3587C81.8815 59.1829 81.9565 59.0196 82.0773 58.9107C82.2023 59.0196 82.2815 59.1745 82.2856 59.3545C82.2898 59.5304 82.2148 59.6937 82.094 59.8025C81.969 59.6937 81.8898 59.5388 81.8857 59.3587Z" fill="#BDE0FF"/>
<path d="M82.5273 59.1033C82.3524 59.1075 82.1899 59.0321 82.0815 58.9107C82.1899 58.7851 82.344 58.7055 82.5232 58.7013C82.6982 58.6972 82.8607 58.7725 82.969 58.8939C82.8607 59.0195 82.7023 59.0991 82.5273 59.1033Z" fill="#BDE0FF"/>
<path d="M88.8519 53.5388C89.0269 53.5681 89.1935 53.5136 89.3227 53.4131C89.2352 53.275 89.0894 53.1745 88.9144 53.1452C88.7394 53.1159 88.5728 53.1703 88.4436 53.2708C88.5353 53.409 88.6769 53.5094 88.8519 53.5388Z" fill="#BDE0FF"/>
<path d="M89.1978 52.94C89.1686 53.1159 89.2228 53.2834 89.3228 53.4132C89.4603 53.3252 89.5603 53.1787 89.5894 53.0028C89.6186 52.827 89.5644 52.6595 89.4644 52.5297C89.327 52.6177 89.227 52.7642 89.1978 52.94Z" fill="#BDE0FF"/>
<path d="M81.3318 58.6846C81.361 58.5087 81.461 58.3622 81.5985 58.2742C81.7026 58.3998 81.7526 58.5715 81.7235 58.7474C81.6943 58.9232 81.5943 59.0698 81.4568 59.1577C81.3568 59.0279 81.3068 58.8604 81.3318 58.6846Z" fill="#BDE0FF"/>
<path d="M82.0108 58.5422C81.8359 58.5129 81.69 58.4124 81.6025 58.2743C81.7275 58.1696 81.8984 58.1193 82.0733 58.1486C82.2483 58.178 82.3941 58.2784 82.4816 58.4166C82.3525 58.5171 82.1817 58.5674 82.0108 58.5422Z" fill="#BDE0FF"/>
<path d="M89.1976 54.1668C89.3643 54.2254 89.5393 54.2045 89.6809 54.125C89.6185 53.9742 89.4935 53.8486 89.3268 53.79C89.1601 53.7314 88.9852 53.7523 88.8435 53.8319C88.906 53.9826 89.031 54.1082 89.1976 54.1668Z" fill="#BDE0FF"/>
<path d="M89.6393 53.6351C89.581 53.8025 89.6018 53.9784 89.681 54.1208C89.831 54.0579 89.956 53.9323 90.0143 53.7649C90.0726 53.5974 90.0518 53.4215 89.9726 53.2792C89.8226 53.342 89.6976 53.4676 89.6393 53.6351Z" fill="#BDE0FF"/>
<path d="M80.9067 57.9183C80.965 57.7509 81.09 57.6252 81.24 57.5624C81.3191 57.7048 81.34 57.8807 81.2816 58.0481C81.2233 58.2156 81.0983 58.3412 80.9483 58.404C80.8692 58.2659 80.8483 58.09 80.9067 57.9183Z" fill="#BDE0FF"/>
<path d="M81.5983 57.8974C81.4316 57.8388 81.3066 57.7132 81.2441 57.5625C81.3858 57.4829 81.5608 57.462 81.7274 57.5206C81.8941 57.5792 82.0191 57.7048 82.0816 57.8555C81.9399 57.9351 81.7649 57.956 81.5983 57.8974Z" fill="#BDE0FF"/>
<path d="M89.4311 54.8451C89.5852 54.933 89.7602 54.9413 89.9144 54.8869C89.8769 54.7278 89.7769 54.5813 89.6227 54.4933C89.4686 54.4054 89.2936 54.3971 89.1394 54.4515C89.1727 54.6106 89.2727 54.7571 89.4311 54.8451Z" fill="#BDE0FF"/>
<path d="M89.956 54.3971C89.8685 54.552 89.8602 54.7279 89.9143 54.8828C90.0726 54.8451 90.2185 54.7446 90.306 54.5897C90.3935 54.4348 90.4018 54.2589 90.3476 54.104C90.1893 54.1417 90.0435 54.2422 89.956 54.3971Z" fill="#BDE0FF"/>
<path d="M80.6193 57.0926C80.7068 56.9377 80.8485 56.8372 81.011 56.7995C81.0651 56.9544 81.0568 57.1303 80.9693 57.2852C80.8818 57.4401 80.7401 57.5406 80.5777 57.5783C80.5235 57.4234 80.5318 57.2475 80.6193 57.0926Z" fill="#BDE0FF"/>
<path d="M81.3026 57.194C81.1485 57.1061 81.0485 56.9637 81.011 56.8004C81.1651 56.746 81.3401 56.7544 81.4943 56.8423C81.6485 56.9302 81.7484 57.0726 81.7859 57.2359C81.6318 57.2861 81.4568 57.2777 81.3026 57.194Z" fill="#BDE0FF"/>
<path d="M89.5394 55.5527C89.6769 55.6658 89.8477 55.7035 90.0102 55.6784C90.0019 55.5151 89.9269 55.3518 89.7894 55.2429C89.6519 55.134 89.4811 55.0922 89.3186 55.1173C89.3269 55.2806 89.4019 55.4397 89.5394 55.5527Z" fill="#BDE0FF"/>
<path d="M90.1392 55.2052C90.0267 55.3434 89.9892 55.515 90.0142 55.6783C90.1767 55.6699 90.3392 55.5946 90.4475 55.4564C90.56 55.3182 90.5975 55.1466 90.5725 54.9833C90.41 54.9917 90.2476 55.067 90.1392 55.2052Z" fill="#BDE0FF"/>
<path d="M80.4776 56.2262C80.5901 56.0881 80.7484 56.0127 80.9109 56.0043C80.9359 56.1676 80.8984 56.3393 80.7859 56.4775C80.6734 56.6156 80.5151 56.691 80.3526 56.6994C80.3276 56.5361 80.3651 56.3644 80.4776 56.2262Z" fill="#BDE0FF"/>
<path d="M81.1317 56.4445C80.9942 56.3315 80.9192 56.1724 80.9109 56.0091C81.0734 55.984 81.2442 56.0216 81.3817 56.1347C81.5192 56.2477 81.5942 56.4068 81.6025 56.5701C81.44 56.5953 81.2692 56.5576 81.1317 56.4445Z" fill="#BDE0FF"/>
<path d="M89.5269 56.2687C89.6436 56.4027 89.806 56.4738 89.9685 56.4738C89.9894 56.3106 89.9435 56.1389 89.8269 56.0049C89.7102 55.8709 89.5477 55.7997 89.3852 55.7997C89.3644 55.963 89.4102 56.1347 89.5269 56.2687Z" fill="#BDE0FF"/>
<path d="M90.1768 56.0342C90.0435 56.1514 89.9727 56.3147 89.9727 56.478C90.1351 56.499 90.306 56.4529 90.4393 56.3357C90.5726 56.2184 90.6434 56.0551 90.6434 55.8919C90.4809 55.8709 90.3101 55.917 90.1768 56.0342Z" fill="#BDE0FF"/>
<path d="M80.4859 55.3517C80.6192 55.2345 80.79 55.1884 80.9525 55.2094C80.9483 55.3727 80.8817 55.5359 80.7484 55.6532C80.615 55.7704 80.4442 55.8165 80.2817 55.7955C80.2859 55.6281 80.3526 55.4648 80.4859 55.3517Z" fill="#BDE0FF"/>
<path d="M81.094 55.6783C80.9774 55.5443 80.9315 55.3726 80.9524 55.2094C81.1149 55.2135 81.2774 55.2805 81.394 55.4145C81.5107 55.5485 81.5565 55.7202 81.5357 55.8834C81.3732 55.8793 81.2107 55.8123 81.094 55.6783Z" fill="#BDE0FF"/>
<path d="M89.3936 56.9763C89.4853 57.127 89.6311 57.2275 89.7936 57.2568C89.8436 57.0977 89.827 56.9219 89.7353 56.7711C89.6436 56.6204 89.4978 56.5199 89.3353 56.4906C89.2853 56.6455 89.302 56.8256 89.3936 56.9763Z" fill="#BDE0FF"/>
<path d="M90.0728 56.8549C89.9229 56.947 89.8229 57.0935 89.7937 57.2568C89.952 57.3071 90.127 57.2903 90.277 57.1982C90.427 57.1061 90.527 56.9595 90.5562 56.7963C90.3978 56.7502 90.2228 56.7628 90.0728 56.8549Z" fill="#BDE0FF"/>
<path d="M80.6483 54.4851C80.7983 54.3929 80.9774 54.3804 81.1316 54.4264C81.1024 54.5897 81.0024 54.7363 80.8524 54.8284C80.7025 54.9205 80.5233 54.9331 80.3691 54.887C80.3983 54.7279 80.4983 54.5772 80.6483 54.4851Z" fill="#BDE0FF"/>
<path d="M81.1899 54.9163C81.0982 54.7656 81.0857 54.5855 81.1316 54.4306C81.2941 54.4599 81.4399 54.5604 81.5315 54.7111C81.6232 54.8619 81.6357 55.0419 81.5899 55.1968C81.4274 55.1633 81.2816 55.067 81.1899 54.9163Z" fill="#BDE0FF"/>
<path d="M89.1353 57.6462C89.1978 57.8137 89.327 57.9351 89.4811 57.9937C89.5561 57.8472 89.5728 57.6713 89.5103 57.5038C89.4478 57.3364 89.3186 57.2149 89.1645 57.1563C89.0895 57.307 89.0728 57.4829 89.1353 57.6462Z" fill="#BDE0FF"/>
<path d="M89.827 57.6462C89.6604 57.709 89.5395 57.8388 89.4812 57.9937C89.627 58.0691 89.802 58.0858 89.9687 58.023C90.1353 57.9602 90.2561 57.8304 90.3145 57.6755C90.1686 57.6001 89.9937 57.5834 89.827 57.6462Z" fill="#BDE0FF"/>
<path d="M80.9566 53.6644C81.1233 53.6016 81.2983 53.6183 81.4441 53.6937C81.3858 53.8486 81.265 53.9784 81.0983 54.0412C80.9316 54.104 80.7567 54.0873 80.6108 54.0119C80.6692 53.857 80.79 53.7272 80.9566 53.6644Z" fill="#BDE0FF"/>
<path d="M81.4149 54.1794C81.3524 54.0119 81.369 53.8361 81.444 53.6895C81.5982 53.7481 81.7273 53.8696 81.7898 54.037C81.8523 54.2045 81.8357 54.3804 81.7607 54.5269C81.6065 54.4683 81.4774 54.3469 81.4149 54.1794Z" fill="#BDE0FF"/>
<path d="M88.7727 58.2617C88.8061 58.4375 88.9102 58.5799 89.0519 58.6636C89.1519 58.5338 89.1977 58.3622 89.1644 58.1863C89.131 58.0105 89.0269 57.8723 88.8852 57.7844C88.7852 57.9142 88.7394 58.0858 88.7727 58.2617Z" fill="#BDE0FF"/>
<path d="M89.452 58.3789C89.277 58.4124 89.1395 58.5171 89.052 58.6595C89.1812 58.7599 89.352 58.806 89.527 58.7725C89.702 58.739 89.8394 58.6343 89.9269 58.492C89.7978 58.3915 89.627 58.3454 89.452 58.3789Z" fill="#BDE0FF"/>
<path d="M81.3983 52.9107C81.5732 52.8772 81.7399 52.9233 81.8732 53.0238C81.7899 53.1661 81.6482 53.2708 81.4732 53.3043C81.2983 53.3378 81.1316 53.2917 80.9983 53.1913C81.0816 53.0531 81.2233 52.9442 81.3983 52.9107Z" fill="#BDE0FF"/>
<path d="M81.7608 53.5011C81.7274 53.3253 81.7733 53.1578 81.8733 53.0238C82.0149 53.1075 82.1191 53.2499 82.1524 53.4258C82.1858 53.6016 82.1399 53.7691 82.0399 53.9031C81.8983 53.8151 81.7941 53.677 81.7608 53.5011Z" fill="#BDE0FF"/>
<path d="M88.3062 58.8018C88.3103 58.9776 88.3895 59.1367 88.5145 59.2456C88.6353 59.1325 88.7103 58.9734 88.7061 58.7976C88.702 58.6217 88.6228 58.4626 88.4978 58.3538C88.377 58.4626 88.3062 58.6217 88.3062 58.8018Z" fill="#BDE0FF"/>
<path d="M88.956 59.0363C88.7811 59.0404 88.6227 59.12 88.5144 59.2456C88.6269 59.367 88.7852 59.4424 88.9602 59.4382C89.1352 59.434 89.2935 59.3545 89.4018 59.2289C89.2935 59.1074 89.131 59.0363 88.956 59.0363Z" fill="#BDE0FF"/>
<path d="M81.9609 52.2492C82.1359 52.245 82.2984 52.3204 82.4067 52.4418C82.2984 52.5674 82.1442 52.6469 81.9651 52.6511C81.7901 52.6553 81.6276 52.58 81.5193 52.4585C81.6276 52.3287 81.7859 52.2492 81.9609 52.2492Z" fill="#BDE0FF"/>
<path d="M82.2192 52.8898C82.215 52.7139 82.29 52.5506 82.4108 52.4418C82.5358 52.5506 82.615 52.7056 82.6191 52.8856C82.6233 53.0614 82.5483 53.2247 82.4275 53.3336C82.3025 53.2289 82.2233 53.0698 82.2192 52.8898Z" fill="#BDE0FF"/>
<path d="M87.7562 59.2498C87.727 59.4257 87.7812 59.5931 87.8811 59.7229C88.0186 59.635 88.1186 59.4885 88.1478 59.3126C88.177 59.1368 88.1228 58.9693 88.0228 58.8395C87.8811 58.9274 87.7812 59.0739 87.7562 59.2498Z" fill="#BDE0FF"/>
<path d="M88.3519 59.5973C88.1769 59.568 88.0103 59.6224 87.8811 59.7229C87.9686 59.8611 88.1144 59.9616 88.2894 59.9909C88.4644 60.0202 88.6311 59.9658 88.7602 59.8653C88.6727 59.7271 88.5269 59.6224 88.3519 59.5973Z" fill="#BDE0FF"/>
<path d="M82.6358 51.6923C82.8108 51.7216 82.9567 51.8221 83.0442 51.9603C82.9192 52.0649 82.7483 52.1152 82.5733 52.0859C82.3984 52.0566 82.2525 51.9561 82.165 51.8179C82.2942 51.7174 82.4609 51.6672 82.6358 51.6923Z" fill="#BDE0FF"/>
<path d="M82.7775 52.3706C82.8067 52.1947 82.9067 52.0482 83.0442 51.9603C83.1483 52.0859 83.1983 52.2575 83.1692 52.4334C83.14 52.6093 83.04 52.7558 82.9025 52.8437C82.7983 52.7181 82.7483 52.5464 82.7775 52.3706Z" fill="#BDE0FF"/>
<path d="M87.1313 59.5973C87.0729 59.7648 87.0938 59.9407 87.1729 60.083C87.3229 60.0202 87.4479 59.8946 87.5062 59.7271C87.5645 59.5597 87.5437 59.3838 87.4646 59.2415C87.3146 59.3043 87.1896 59.4299 87.1313 59.5973Z" fill="#BDE0FF"/>
<path d="M87.6603 60.0412C87.4936 59.9825 87.3187 60.0035 87.177 60.083C87.2395 60.2338 87.3645 60.3594 87.5311 60.418C87.6978 60.4766 87.8728 60.4557 88.0144 60.3761C87.9519 60.2254 87.827 60.0998 87.6603 60.0412Z" fill="#BDE0FF"/>
<path d="M83.394 51.2653C83.5606 51.3239 83.6856 51.4495 83.7481 51.6002C83.6064 51.6798 83.4315 51.7007 83.2648 51.6421C83.0981 51.5835 82.9731 51.4579 82.9106 51.3071C83.0523 51.2276 83.2273 51.2067 83.394 51.2653Z" fill="#BDE0FF"/>
<path d="M83.4189 51.9603C83.4772 51.7928 83.6022 51.6672 83.7522 51.6044C83.8313 51.7468 83.8522 51.9226 83.7938 52.0901C83.7355 52.2576 83.6105 52.3832 83.4605 52.446C83.3814 52.3037 83.3605 52.1278 83.4189 51.9603Z" fill="#BDE0FF"/>
<path d="M86.4562 59.8276C86.3687 59.9825 86.3604 60.1583 86.4146 60.3133C86.5729 60.2756 86.7187 60.1751 86.8062 60.0202C86.8937 59.8653 86.902 59.6894 86.8479 59.5345C86.6854 59.5722 86.5437 59.6727 86.4562 59.8276Z" fill="#BDE0FF"/>
<path d="M86.902 60.3593C86.7478 60.2714 86.5729 60.263 86.4187 60.3174C86.4562 60.4766 86.5562 60.6231 86.7103 60.711C86.8645 60.799 87.0395 60.8073 87.1936 60.7529C87.1561 60.5896 87.0562 60.4472 86.902 60.3593Z" fill="#BDE0FF"/>
<path d="M84.2189 50.9764C84.3731 51.0643 84.4731 51.2067 84.5106 51.37C84.3564 51.4244 84.1814 51.416 84.0272 51.3281C83.8731 51.2402 83.7731 51.0978 83.7356 50.9345C83.8856 50.8801 84.0647 50.8885 84.2189 50.9764Z" fill="#BDE0FF"/>
<path d="M84.1188 51.663C84.2063 51.5081 84.348 51.4076 84.5105 51.3699C84.5646 51.5249 84.5563 51.7007 84.4688 51.8556C84.3813 52.0105 84.2397 52.111 84.0772 52.1487C84.023 51.9938 84.0355 51.8179 84.1188 51.663Z" fill="#BDE0FF"/>
<path d="M85.7523 59.9407C85.6398 60.0788 85.6023 60.2505 85.6273 60.4138C85.7898 60.4054 85.9523 60.33 86.0606 60.1919C86.1689 60.0537 86.2106 59.882 86.1856 59.7188C86.0231 59.7271 85.8648 59.8025 85.7523 59.9407Z" fill="#BDE0FF"/>
<path d="M86.098 60.5394C85.9605 60.4264 85.7897 60.3887 85.6272 60.4138C85.6355 60.5771 85.7105 60.7404 85.848 60.8493C85.9855 60.9623 86.1563 61 86.3188 60.9749C86.3105 60.8158 86.2355 60.6525 86.098 60.5394Z" fill="#BDE0FF"/>
<path d="M85.0773 50.834C85.2147 50.947 85.2897 51.1062 85.2981 51.2694C85.1356 51.2946 84.9648 51.2569 84.8273 51.1438C84.6898 51.0308 84.6148 50.8717 84.6064 50.7084C84.7689 50.6791 84.9439 50.721 85.0773 50.834Z" fill="#BDE0FF"/>
<path d="M84.8647 51.4913C84.9772 51.3532 85.1355 51.2778 85.298 51.2694C85.323 51.4327 85.2855 51.6044 85.173 51.7425C85.0605 51.8807 84.9022 51.9561 84.7397 51.9645C84.7106 51.8012 84.7522 51.6295 84.8647 51.4913Z" fill="#BDE0FF"/>
<path d="M85.0352 59.9281C84.9019 60.0453 84.8311 60.2086 84.8311 60.3719C84.9935 60.3928 85.1644 60.3468 85.2977 60.2295C85.431 60.1123 85.5019 59.949 85.5019 59.7857C85.3394 59.7648 85.1685 59.8108 85.0352 59.9281Z" fill="#BDE0FF"/>
<path d="M85.2732 60.5813C85.1565 60.4473 84.994 60.3761 84.8315 60.3761C84.8107 60.5394 84.8565 60.7111 84.9732 60.845C85.0898 60.979 85.2523 61.0502 85.4148 61.0502C85.4356 60.8869 85.3898 60.7152 85.2732 60.5813Z" fill="#BDE0FF"/>
<path d="M85.9524 50.8424C86.069 50.9764 86.1148 51.148 86.094 51.3113C85.9315 51.3071 85.769 51.2401 85.6524 51.1061C85.5357 50.9722 85.4899 50.8005 85.5107 50.6372C85.6732 50.6372 85.8357 50.7084 85.9524 50.8424Z" fill="#BDE0FF"/>
<path d="M85.6272 51.4536C85.7606 51.3364 85.9314 51.2904 86.0939 51.3113C86.0897 51.4746 86.023 51.6379 85.8897 51.7551C85.7564 51.8723 85.5856 51.9184 85.4231 51.8975C85.4231 51.7342 85.4939 51.5709 85.6272 51.4536Z" fill="#BDE0FF"/>
<path d="M84.3358 59.7899C84.1858 59.882 84.0858 60.0286 84.0566 60.1919C84.215 60.2421 84.39 60.2253 84.5399 60.1332C84.6899 60.0411 84.7899 59.8946 84.8191 59.7313C84.6608 59.6852 84.4858 59.702 84.3358 59.7899Z" fill="#BDE0FF"/>
<path d="M84.4565 60.4766C84.3648 60.3258 84.219 60.2254 84.0565 60.196C84.0065 60.3551 84.0232 60.531 84.1148 60.6817C84.2065 60.8325 84.3523 60.9329 84.5148 60.9623C84.5606 60.8032 84.544 60.6273 84.4565 60.4766Z" fill="#BDE0FF"/>
<path d="M86.8106 51.0056C86.9023 51.1564 86.9148 51.3364 86.8689 51.4913C86.7064 51.462 86.5606 51.3615 86.469 51.2108C86.3773 51.0601 86.3648 50.88 86.4106 50.7251C86.5731 50.7544 86.7231 50.8507 86.8106 51.0056Z" fill="#BDE0FF"/>
<path d="M86.3856 51.5499C86.5356 51.4578 86.7147 51.4453 86.8689 51.4913C86.8397 51.6546 86.7397 51.8012 86.5897 51.8933C86.4398 51.9854 86.2606 51.9979 86.1064 51.9519C86.1356 51.7886 86.2356 51.6421 86.3856 51.5499Z" fill="#BDE0FF"/>
<path d="M83.6649 59.5345C83.4982 59.5973 83.3774 59.7271 83.3191 59.882C83.4649 59.9574 83.6399 59.9741 83.8066 59.9113C83.9732 59.8485 84.094 59.7187 84.1524 59.5638C84.0065 59.4884 83.8316 59.4717 83.6649 59.5345Z" fill="#BDE0FF"/>
<path d="M83.6648 60.2295C83.6023 60.0621 83.4732 59.9406 83.319 59.882C83.244 60.0286 83.2274 60.2044 83.2899 60.3719C83.3524 60.5394 83.4815 60.6608 83.6357 60.7194C83.7148 60.5729 83.7273 60.397 83.6648 60.2295Z" fill="#BDE0FF"/>
<path d="M87.6311 51.3113C87.6936 51.4788 87.677 51.6547 87.602 51.8012C87.4478 51.7426 87.3187 51.6212 87.2562 51.4537C87.1937 51.2862 87.2103 51.1103 87.2853 50.9638C87.4395 51.0266 87.5686 51.148 87.6311 51.3113Z" fill="#BDE0FF"/>
<path d="M87.1146 51.7761C87.2813 51.7133 87.4563 51.73 87.6021 51.8054C87.5437 51.9603 87.4229 52.0901 87.2563 52.1529C87.0896 52.2157 86.9146 52.199 86.7688 52.1236C86.8313 51.9687 86.9521 51.8389 87.1146 51.7761Z" fill="#BDE0FF"/>
<path d="M83.7815 54.1584C84.1898 53.9575 84.5106 53.8444 85.0314 53.2164H86.3022V57.2777H86.9646V58.2324H84.1065V57.2777H84.8189V54.6148L84.1065 54.954L83.7815 54.1584Z" fill="#BDE0FF"/>
<path d="M34.8017 73.1338L24.4358 96.5347L31.8228 93.6918L34.6601 101.115L45.0302 77.7101L34.8017 73.1338Z" fill="#5A8FED"/>
<path d="M41.5345 83.9864L34.7017 99.4112L32.1935 92.846L25.6606 95.3666L32.4935 79.9418L33.1059 80.2139L26.9314 94.1523L32.5768 91.9751L34.7433 97.6526L40.9221 83.71L41.5345 83.9864Z" fill="#4A7ECC"/>
<path d="M37.314 77.7059L47.6799 101.107L50.5214 93.6875L57.9083 96.5347L47.5382 73.1295L37.314 77.7059Z" fill="#5A8FED"/>
<path d="M49.8464 79.9418L56.6793 95.3666L50.1464 92.846L47.6383 99.407L40.8054 83.9864L41.4179 83.71L47.5924 97.6526L49.7631 91.9751L55.4085 94.1565L49.2298 80.2139L49.8464 79.9418Z" fill="#4A7ECC"/>
<path d="M24.6316 61.6538V80.0974L40.5263 89.3171L56.421 80.0974V61.6538L40.5263 52.4299L24.6316 61.6538Z" fill="#8BB9FC"/>
<path d="M43.4304 60.6314C43.8179 60.3593 44.0471 59.9448 44.0971 59.5093C43.6721 59.4088 43.2055 59.4842 42.818 59.7564C42.4305 60.0285 42.2014 60.443 42.1514 60.8785C42.5805 60.9789 43.043 60.9036 43.4304 60.6314Z" fill="#5A8FED"/>
<path d="M42.9847 58.8352C43.2555 59.2246 43.668 59.4549 44.1013 59.5051C44.2013 59.078 44.1263 58.6091 43.8555 58.2197C43.5847 57.8303 43.1722 57.6 42.7389 57.5498C42.6389 57.9769 42.7097 58.4458 42.9847 58.8352Z" fill="#5A8FED"/>
<path d="M38.485 84.5599C38.2142 84.1706 38.1392 83.7016 38.2392 83.2745C38.6725 83.3248 39.0849 83.5551 39.3557 83.9445C39.6266 84.3338 39.7016 84.8028 39.6016 85.2299C39.1683 85.1796 38.7558 84.9493 38.485 84.5599Z" fill="#5A8FED"/>
<path d="M39.5181 83.0233C39.1306 83.2955 38.664 83.3709 38.239 83.2704C38.289 82.8349 38.5182 82.4204 38.9056 82.1483C39.2931 81.8761 39.7597 81.8007 40.1847 81.9012C40.1347 82.3367 39.9056 82.7512 39.5181 83.0233Z" fill="#5A8FED"/>
<path d="M45.2511 61.1884C45.6802 60.9874 45.976 60.6189 46.101 60.2002C45.6969 60.0244 45.2261 60.0202 44.8011 60.2212C44.372 60.4222 44.0762 60.7906 43.9512 61.2093C44.3511 61.381 44.8219 61.3894 45.2511 61.1884Z" fill="#5A8FED"/>
<path d="M45.1178 59.3377C45.3178 59.769 45.6844 60.0662 46.101 60.1919C46.2718 59.7857 46.2802 59.3126 46.0802 58.8855C45.8802 58.4543 45.5136 58.157 45.0969 58.0314C44.9261 58.4333 44.9178 58.9065 45.1178 59.3377Z" fill="#5A8FED"/>
<path d="M36.256 83.8942C36.056 83.463 36.0643 82.9898 36.2351 82.5879C36.6559 82.7135 37.0184 83.015 37.2184 83.442C37.4184 83.8733 37.41 84.3464 37.2392 84.7484C36.8226 84.6228 36.4559 84.3255 36.256 83.8942Z" fill="#5A8FED"/>
<path d="M37.5392 82.5627C37.11 82.7637 36.6392 82.7553 36.2393 82.5837C36.3642 82.1608 36.6642 81.7965 37.0892 81.5956C37.5183 81.3946 37.9891 81.403 38.3891 81.5746C38.2641 81.9933 37.9683 82.3618 37.5392 82.5627Z" fill="#5A8FED"/>
<path d="M46.9466 62.0508C47.4007 61.9294 47.759 61.6196 47.9548 61.226C47.5882 60.9831 47.1257 60.8952 46.6716 61.0166C46.2175 61.1381 45.8591 61.4479 45.6633 61.8415C46.0258 62.0843 46.4883 62.1764 46.9466 62.0508Z" fill="#5A8FED"/>
<path d="M47.134 60.2086C47.2549 60.665 47.5632 61.0251 47.9548 61.2218C48.1965 60.8534 48.284 60.3886 48.1631 59.9323C48.0423 59.4759 47.734 59.1158 47.3424 58.919C47.1007 59.2833 47.0132 59.748 47.134 60.2086Z" fill="#5A8FED"/>
<path d="M34.1768 82.8475C34.0559 82.3911 34.1434 81.9222 34.3851 81.5579C34.7767 81.7547 35.085 82.1148 35.2059 82.5712C35.3267 83.0275 35.2392 83.4965 34.9975 83.8607C34.6059 83.664 34.2976 83.3081 34.1768 82.8475Z" fill="#5A8FED"/>
<path d="M35.6683 81.7631C35.2141 81.8845 34.7475 81.7966 34.385 81.5538C34.5808 81.1602 34.9391 80.8503 35.3933 80.7289C35.8474 80.6075 36.314 80.6954 36.6765 80.9383C36.4807 81.3277 36.1266 81.6375 35.6683 81.7631Z" fill="#5A8FED"/>
<path d="M48.4674 63.2023C48.9382 63.1604 49.3423 62.9176 49.6048 62.5659C49.284 62.2644 48.8465 62.0969 48.3757 62.1388C47.9049 62.1807 47.5008 62.4235 47.2383 62.7752C47.5549 63.0767 47.9966 63.2442 48.4674 63.2023Z" fill="#5A8FED"/>
<path d="M48.9715 61.4186C49.0132 61.8918 49.2549 62.2979 49.6048 62.5617C49.9048 62.2393 50.0715 61.7996 50.0298 61.3265C49.9881 60.8534 49.7465 60.4473 49.3965 60.1835C49.1007 60.5059 48.9299 60.9455 48.9715 61.4186Z" fill="#5A8FED"/>
<path d="M32.3061 81.4532C32.2645 80.9801 32.4311 80.5363 32.7311 80.2181C33.0811 80.4819 33.3227 80.888 33.3644 81.3611C33.4061 81.8343 33.2394 82.2781 32.9394 82.5963C32.5894 82.3325 32.3478 81.9264 32.3061 81.4532Z" fill="#5A8FED"/>
<path d="M33.9644 80.6452C33.4936 80.687 33.052 80.5196 32.7354 80.2181C32.9978 79.8664 33.402 79.6235 33.8728 79.5817C34.3436 79.5398 34.7852 79.7073 35.1019 80.0087C34.8394 80.3604 34.4352 80.6033 33.9644 80.6452Z" fill="#5A8FED"/>
<path d="M49.7673 64.6049C50.2381 64.6468 50.6797 64.4793 50.9964 64.1778C50.7339 63.8261 50.3298 63.5833 49.859 63.5414C49.3882 63.4995 48.9465 63.667 48.6299 63.9685C48.8924 64.3202 49.2965 64.563 49.7673 64.6049Z" fill="#5A8FED"/>
<path d="M50.5715 62.9342C50.5298 63.4074 50.6965 63.8512 50.9965 64.1694C51.3465 63.9056 51.5881 63.4995 51.6298 63.0264C51.6714 62.5532 51.5048 62.1094 51.2048 61.7912C50.8548 62.055 50.6132 62.4611 50.5715 62.9342Z" fill="#5A8FED"/>
<path d="M30.7063 79.7533C30.7479 79.2802 30.9896 78.8741 31.3396 78.6103C31.6396 78.9327 31.8062 79.3723 31.7645 79.8454C31.7229 80.3186 31.4812 80.7247 31.1313 80.9885C30.8313 80.6661 30.6646 80.2223 30.7063 79.7533Z" fill="#5A8FED"/>
<path d="M32.4812 79.2425C32.0104 79.2007 31.6062 78.9578 31.3438 78.6061C31.6646 78.3046 32.102 78.1372 32.5728 78.179C33.0436 78.2209 33.4478 78.4637 33.7102 78.8155C33.3894 79.1169 32.952 79.2844 32.4812 79.2425Z" fill="#5A8FED"/>
<path d="M50.809 66.2127C51.2632 66.3341 51.7298 66.2462 52.0923 66.0033C51.8965 65.6098 51.5382 65.2999 51.084 65.1785C50.6299 65.0571 50.1633 65.145 49.8008 65.3878C49.9966 65.7772 50.3507 66.0871 50.809 66.2127Z" fill="#5A8FED"/>
<path d="M51.8882 64.7095C51.7674 65.1659 51.8549 65.6349 52.0965 65.9991C52.4881 65.8023 52.7965 65.4423 52.9173 64.9859C53.0381 64.5295 52.9506 64.0606 52.709 63.6963C52.3215 63.8931 52.0132 64.249 51.8882 64.7095Z" fill="#5A8FED"/>
<path d="M29.4189 77.7938C29.5397 77.3374 29.848 76.9774 30.2397 76.7806C30.4813 77.149 30.5688 77.6138 30.448 78.0702C30.3272 78.5265 30.0189 78.8866 29.6272 79.0834C29.3897 78.7191 29.2981 78.2502 29.4189 77.7938Z" fill="#5A8FED"/>
<path d="M31.2563 77.6012C30.8022 77.4798 30.4439 77.17 30.248 76.7764C30.6147 76.5335 31.0772 76.4456 31.5313 76.567C31.9854 76.6885 32.3437 76.9983 32.5395 77.3919C32.1771 77.6347 31.7104 77.7268 31.2563 77.6012Z" fill="#5A8FED"/>
<path d="M51.5548 67.9796C51.9839 68.1805 52.4547 68.1722 52.8547 68.0005C52.7297 67.5776 52.4297 67.2133 52.0047 67.0124C51.5756 66.8114 51.1048 66.8198 50.7048 66.9914C50.8298 67.4101 51.1298 67.7786 51.5548 67.9796Z" fill="#5A8FED"/>
<path d="M52.8797 66.6858C52.6797 67.1171 52.6881 67.5902 52.8589 67.9921C53.2797 67.8665 53.6422 67.5651 53.8422 67.138C54.0422 66.7067 54.0338 66.2336 53.863 65.8317C53.4464 65.9573 53.0797 66.2587 52.8797 66.6858Z" fill="#5A8FED"/>
<path d="M28.4939 75.6417C28.6939 75.2105 29.0605 74.9132 29.4771 74.7876C29.648 75.1937 29.6563 75.6669 29.4563 76.0939C29.2563 76.5252 28.8897 76.8225 28.473 76.9481C28.2981 76.5419 28.2939 76.0688 28.4939 75.6417Z" fill="#5A8FED"/>
<path d="M30.3311 75.7715C29.902 75.5706 29.6062 75.2021 29.4812 74.7834C29.8853 74.6118 30.3561 74.6034 30.7811 74.8044C31.2102 75.0053 31.5061 75.3738 31.6311 75.7925C31.2311 75.9641 30.7603 75.9725 30.3311 75.7715Z" fill="#5A8FED"/>
<path d="M53.2743 70.095C53.4433 69.8525 53.1447 69.3495 52.6075 68.9715C52.0703 68.5935 51.4978 68.4836 51.3288 68.7261C51.1599 68.9685 51.4585 69.4715 51.9957 69.8496C52.5329 70.2276 53.1054 70.3375 53.2743 70.095Z" fill="#5A8FED"/>
<path d="M53.5211 68.8086C53.2503 69.198 53.1753 69.6669 53.2753 70.094C53.7086 70.0437 54.1211 69.8135 54.3919 69.4241C54.6627 69.0347 54.7377 68.5657 54.6377 68.1387C54.2002 68.1889 53.7919 68.4192 53.5211 68.8086Z" fill="#5A8FED"/>
<path d="M27.9481 73.3556C28.2189 72.9663 28.6314 72.736 29.0647 72.6857C29.1647 73.1128 29.0897 73.5817 28.8189 73.9711C28.5481 74.3605 28.1356 74.5908 27.7023 74.641C27.6023 74.214 27.6773 73.745 27.9481 73.3556Z" fill="#5A8FED"/>
<path d="M29.7355 73.8078C29.348 73.5357 29.1188 73.1212 29.0688 72.6857C29.4938 72.5852 29.9605 72.6606 30.3479 72.9327C30.7354 73.2049 30.9645 73.6194 31.0145 74.0548C30.5896 74.1553 30.1229 74.08 29.7355 73.8078Z" fill="#5A8FED"/>
<path d="M52.0962 71.7688C52.4295 72.1038 52.8753 72.2587 53.3128 72.2335C53.3378 71.7939 53.1836 71.3459 52.8503 71.011C52.517 70.676 52.0712 70.5211 51.6337 70.5462C51.6087 70.9858 51.7629 71.4338 52.0962 71.7688Z" fill="#5A8FED"/>
<path d="M53.7834 71.011C53.4501 71.3459 53.296 71.7939 53.321 72.2335C53.7584 72.2587 54.2042 72.1038 54.5375 71.7688C54.8709 71.4338 55.025 70.9858 55 70.5462C54.5625 70.5211 54.1167 70.676 53.7834 71.011Z" fill="#5A8FED"/>
<path d="M27.8022 71.011C28.1356 70.676 28.5814 70.5211 29.0188 70.5462C29.0438 70.9858 28.8897 71.4338 28.5564 71.7688C28.223 72.1038 27.7772 72.2587 27.3398 72.2335C27.3148 71.7939 27.4689 71.3459 27.8022 71.011Z" fill="#5A8FED"/>
<path d="M29.4895 71.7688C29.1562 71.4338 29.002 70.9858 29.027 70.5462C29.4645 70.5211 29.9103 70.676 30.2436 71.011C30.5769 71.3459 30.7311 71.7939 30.7061 72.2335C30.2686 72.2587 29.8228 72.1038 29.4895 71.7688Z" fill="#5A8FED"/>
<path d="M51.8713 73.6613C52.1422 74.0507 52.5546 74.281 52.9879 74.3312C53.0879 73.9041 53.0129 73.4352 52.7421 73.0458C52.4713 72.6564 52.0588 72.4262 51.6255 72.3759C51.5297 72.8072 51.6005 73.2761 51.8713 73.6613Z" fill="#5A8FED"/>
<path d="M53.6627 73.2133C53.2752 73.4855 53.0461 73.9 52.9961 74.3354C53.4211 74.4359 53.8877 74.3605 54.2752 74.0884C54.6626 73.8162 54.8918 73.4017 54.9418 72.9663C54.5168 72.8658 54.0502 72.9412 53.6627 73.2133Z" fill="#5A8FED"/>
<path d="M28.0648 68.6914C28.4523 68.4192 28.9189 68.3438 29.3439 68.4443C29.2939 68.8798 29.0647 69.2943 28.6773 69.5664C28.2898 69.8386 27.8232 69.9139 27.3982 69.8135C27.4482 69.378 27.6773 68.9635 28.0648 68.6914Z" fill="#5A8FED"/>
<path d="M29.5939 69.7297C29.323 69.3404 29.2481 68.8714 29.348 68.4443C29.7813 68.4946 30.1938 68.7249 30.4646 69.1143C30.7354 69.5037 30.8104 69.9726 30.7104 70.3997C30.2771 70.3494 29.8647 70.1191 29.5939 69.7297Z" fill="#5A8FED"/>
<path d="M51.3214 75.491C51.5214 75.9223 51.888 76.2196 52.3047 76.3452C52.4755 75.939 52.4838 75.4659 52.2838 75.0388C52.0838 74.6076 51.7172 74.3103 51.3006 74.1847C51.1297 74.5866 51.1214 75.0598 51.3214 75.491Z" fill="#5A8FED"/>
<path d="M53.1629 75.357C52.7338 75.558 52.438 75.9265 52.313 76.3452C52.7171 76.5168 53.1879 76.5252 53.6129 76.3242C54.042 76.1232 54.3378 75.7548 54.4628 75.3361C54.0629 75.1644 53.5921 75.1561 53.1629 75.357Z" fill="#5A8FED"/>
<path d="M28.7271 66.4513C29.1563 66.2504 29.6271 66.2587 30.027 66.4304C29.9021 66.8533 29.6021 67.2175 29.1771 67.4185C28.748 67.6195 28.2772 67.6111 27.8772 67.4395C28.0022 67.0208 28.298 66.6523 28.7271 66.4513Z" fill="#5A8FED"/>
<path d="M30.0521 67.7409C29.8521 67.3096 29.8604 66.8365 30.0313 66.4346C30.4521 66.5602 30.8145 66.8616 31.0145 67.2887C31.2145 67.72 31.2062 68.1931 31.0354 68.595C30.6187 68.4694 30.2521 68.1722 30.0521 67.7409Z" fill="#5A8FED"/>
<path d="M50.4633 77.1951C50.5841 77.6515 50.8924 78.0116 51.284 78.2083C51.5257 77.8399 51.6132 77.3751 51.4924 76.9188C51.3715 76.4624 51.0632 76.1023 50.6716 75.9055C50.4299 76.2698 50.3383 76.7345 50.4633 77.1951Z" fill="#5A8FED"/>
<path d="M52.2963 77.3835C51.8422 77.5049 51.4839 77.8148 51.2881 78.2083C51.6547 78.4512 52.1172 78.5391 52.5713 78.4177C53.0255 78.2963 53.3838 77.9864 53.5796 77.5929C53.2171 77.35 52.7505 77.2621 52.2963 77.3835Z" fill="#5A8FED"/>
<path d="M29.7688 64.362C30.2229 64.2406 30.6895 64.3285 31.052 64.5714C30.8562 64.965 30.4979 65.2748 30.0437 65.3962C29.5896 65.5176 29.123 65.4297 28.7605 65.1869C28.9563 64.7933 29.3105 64.4835 29.7688 64.362Z" fill="#5A8FED"/>
<path d="M30.8479 65.8652C30.7271 65.4088 30.8146 64.9398 31.0562 64.5756C31.4479 64.7723 31.7562 65.1324 31.877 65.5888C31.9978 66.0452 31.9103 66.5141 31.6687 66.8784C31.2812 66.6816 30.9729 66.3215 30.8479 65.8652Z" fill="#5A8FED"/>
<path d="M49.3174 78.7233C49.359 79.1964 49.6007 79.6026 49.9506 79.8664C50.2506 79.544 50.4173 79.1043 50.3756 78.6312C50.3339 78.1581 50.0923 77.7519 49.7423 77.4882C49.4424 77.8064 49.2757 78.2502 49.3174 78.7233Z" fill="#5A8FED"/>
<path d="M51.0922 79.2299C50.6215 79.2718 50.2173 79.5147 49.9548 79.8664C50.2756 80.1678 50.7131 80.3353 51.1839 80.2934C51.6547 80.2516 52.0588 80.0087 52.3213 79.657C52.0005 79.3597 51.563 79.1881 51.0922 79.2299Z" fill="#5A8FED"/>
<path d="M31.1562 62.4821C31.627 62.4402 32.0687 62.6077 32.3853 62.9091C32.1228 63.2608 31.7187 63.5037 31.2479 63.5456C30.7771 63.5874 30.3354 63.4199 30.0188 63.1185C30.2813 62.7668 30.6854 62.5239 31.1562 62.4821Z" fill="#5A8FED"/>
<path d="M31.9604 64.1527C31.9188 63.6796 32.0854 63.2358 32.3854 62.9175C32.7354 63.1813 32.977 63.5875 33.0187 64.0606C33.0604 64.5337 32.8937 64.9775 32.5937 65.2957C32.2437 65.032 32.0021 64.6216 31.9604 64.1527Z" fill="#5A8FED"/>
<path d="M47.9216 80.0296C47.8799 80.5028 48.0466 80.9466 48.3466 81.2648C48.6966 81.001 48.9382 80.5949 48.9799 80.1218C49.0215 79.6486 48.8549 79.2048 48.5549 78.8866C48.2049 79.1504 47.9633 79.5565 47.9216 80.0296Z" fill="#5A8FED"/>
<path d="M49.5841 80.8419C49.1133 80.8001 48.6716 80.9675 48.355 81.269C48.6175 81.6207 49.0216 81.8635 49.4924 81.9054C49.9632 81.9473 50.4048 81.7798 50.7215 81.4783C50.459 81.1225 50.0549 80.8796 49.5841 80.8419Z" fill="#5A8FED"/>
<path d="M32.8477 60.8743C33.3185 60.9161 33.7227 61.159 33.9852 61.5107C33.6643 61.8122 33.2269 61.9796 32.7561 61.9378C32.2853 61.8959 31.8811 61.6531 31.6187 61.3014C31.9395 60.9999 32.3769 60.8324 32.8477 60.8743Z" fill="#5A8FED"/>
<path d="M33.3559 62.6579C33.3976 62.1848 33.6393 61.7787 33.9892 61.5149C34.2892 61.8373 34.4559 62.2769 34.4142 62.75C34.3725 63.2232 34.1309 63.6293 33.7809 63.8931C33.4809 63.5707 33.3143 63.1311 33.3559 62.6579Z" fill="#5A8FED"/>
<path d="M46.3218 81.0764C46.201 81.5328 46.2885 82.0017 46.5301 82.366C46.9217 82.1692 47.23 81.8091 47.3509 81.3528C47.4717 80.8964 47.3842 80.4274 47.1426 80.0632C46.7551 80.26 46.4468 80.6159 46.3218 81.0764Z" fill="#5A8FED"/>
<path d="M47.8177 82.165C47.3635 82.0436 46.8969 82.1315 46.5344 82.3744C46.7302 82.7679 47.0886 83.0778 47.5427 83.1992C47.9968 83.3206 48.4635 83.2327 48.8259 82.9898C48.6301 82.5963 48.2718 82.2864 47.8177 82.165Z" fill="#5A8FED"/>
<path d="M34.7976 59.5847C35.2518 59.7061 35.6101 60.016 35.8059 60.4095C35.4393 60.6524 34.9768 60.7403 34.5227 60.6189C34.0685 60.4975 33.7102 60.1876 33.5144 59.794C33.8769 59.5512 34.3393 59.4591 34.7976 59.5847Z" fill="#5A8FED"/>
<path d="M34.9894 61.4269C35.1102 60.9706 35.4185 60.6105 35.8102 60.4137C36.0518 60.7821 36.1393 61.2469 36.0185 61.7033C35.8977 62.1597 35.5893 62.5197 35.1977 62.7165C34.9561 62.3523 34.8644 61.8875 34.9894 61.4269Z" fill="#5A8FED"/>
<path d="M44.5636 81.83C44.3636 82.2613 44.3719 82.7344 44.5427 83.1364C44.9635 83.0108 45.326 82.7093 45.526 82.2822C45.726 81.851 45.7177 81.3778 45.5468 80.9759C45.1302 81.0973 44.7636 81.3988 44.5636 81.83Z" fill="#5A8FED"/>
<path d="M45.8509 83.1615C45.4218 82.9605 44.951 82.9689 44.551 83.1405C44.676 83.5634 44.976 83.9277 45.401 84.1287C45.8301 84.3296 46.3009 84.3213 46.7009 84.1496C46.5759 83.7267 46.2759 83.3625 45.8509 83.1615Z" fill="#5A8FED"/>
<path d="M36.9391 58.651C37.3682 58.852 37.664 59.2204 37.789 59.6391C37.3849 59.8108 36.9141 59.8192 36.4891 59.6182C36.06 59.4172 35.7642 59.0487 35.6392 58.63C36.0391 58.4584 36.5141 58.45 36.9391 58.651Z" fill="#5A8FED"/>
<path d="M36.8099 60.5016C37.0099 60.0703 37.3765 59.7731 37.7932 59.6475C37.964 60.0536 37.9723 60.5267 37.7723 60.9538C37.5724 61.385 37.2057 61.6823 36.7891 61.8079C36.6183 61.4018 36.6099 60.9287 36.8099 60.5016Z" fill="#5A8FED"/>
<path d="M42.7013 82.2655C42.4305 82.6549 42.3555 83.1238 42.4555 83.5509C42.8888 83.5007 43.3012 83.2704 43.5721 82.881C43.8429 82.4916 43.9179 82.0227 43.8179 81.5956C43.3846 81.6458 42.9721 81.8761 42.7013 82.2655Z" fill="#5A8FED"/>
<path d="M43.7385 83.8021C43.3511 83.53 42.8844 83.4546 42.4595 83.5551C42.5095 83.9905 42.7386 84.4051 43.1261 84.6772C43.5136 84.9494 43.9802 85.0247 44.4052 84.9242C44.351 84.4888 44.1219 84.0743 43.7385 83.8021Z" fill="#5A8FED"/>
<path d="M39.2139 58.1026C39.6014 58.3747 39.8305 58.7892 39.8805 59.2247C39.4555 59.3251 38.9889 59.2498 38.6014 58.9776C38.214 58.7055 37.9848 58.291 37.9348 57.8555C38.3598 57.755 38.8264 57.8304 39.2139 58.1026Z" fill="#5A8FED"/>
<path d="M38.7638 59.903C39.0346 59.5136 39.4471 59.2833 39.8804 59.233C39.9804 59.6601 39.9054 60.129 39.6346 60.5184C39.3637 60.9078 38.9513 61.1381 38.518 61.1883C38.418 60.7571 38.493 60.2882 38.7638 59.903Z" fill="#5A8FED"/>
<path d="M40.793 82.3744C40.4597 82.7093 40.3055 83.1573 40.3305 83.597C40.768 83.6221 41.2138 83.4672 41.5471 83.1322C41.8804 82.7973 42.0345 82.3493 42.0095 81.9096C41.5721 81.8803 41.1263 82.0352 40.793 82.3744Z" fill="#5A8FED"/>
<path d="M41.5471 84.0659C41.2138 83.7309 40.768 83.576 40.3305 83.6011C40.3055 84.0408 40.4597 84.4888 40.793 84.8237C41.1263 85.1587 41.5721 85.3136 42.0095 85.2885C42.0345 84.8489 41.8804 84.4009 41.5471 84.0659Z" fill="#5A8FED"/>
<path d="M41.5471 57.956C41.8804 58.2909 42.0345 58.7389 42.0095 59.1786C41.5721 59.2037 41.1263 59.0488 40.793 58.7138C40.4597 58.3789 40.3055 57.9308 40.3305 57.4912C40.768 57.4661 41.2138 57.621 41.5471 57.956Z" fill="#5A8FED"/>
<path d="M40.793 59.6517C41.1263 59.3168 41.5721 59.1618 42.0095 59.187C42.0345 59.6266 41.8804 60.0746 41.5471 60.4096C41.2138 60.7445 40.768 60.8994 40.3305 60.8743C40.3055 60.4347 40.4597 59.9867 40.793 59.6517Z" fill="#5A8FED"/>
<path d="M58.3687 43.7521L90.9373 43.7637L90.9373 43.5208L58.3688 43.5093L58.3687 43.7521Z" fill="#4A7ECC"/>
<path d="M58.3673 44.9106L90.9358 44.9221L90.9359 44.6793L58.3674 44.6677L58.3673 44.9106Z" fill="#4A7ECC"/>
<path d="M58.217 52.1802L76.6199 52.1917L76.62 51.9489L58.2172 51.9373L58.217 52.1802Z" fill="#4A7ECC"/>
<path d="M58.2156 53.3386L76.6184 53.3501L76.6186 53.1073L58.2157 53.0958L58.2156 53.3386Z" fill="#4A7ECC"/>
<path d="M58.2141 54.501L76.6169 54.5125L76.6171 54.2697L58.2142 54.2582L58.2141 54.501Z" fill="#4A7ECC"/>
<path d="M58.1794 55.6389L76.5823 55.6505L76.5824 55.4076L58.1796 55.3961L58.1794 55.6389Z" fill="#4A7ECC"/>
<path d="M58.217 58.8793L76.6199 58.8909L76.62 58.648L58.2172 58.6365L58.217 58.8793Z" fill="#4A7ECC"/>
<path d="M58.2153 60.0378L76.6182 60.0493L76.6183 59.8064L58.2155 59.7949L58.2153 60.0378Z" fill="#4A7ECC"/>
<path d="M58.2141 61.2002L76.6169 61.2117L76.6171 60.9688L58.2142 60.9573L58.2141 61.2002Z" fill="#4A7ECC"/>
<path d="M58.1794 62.3381L76.5823 62.3496L76.5824 62.1068L58.1796 62.0952L58.1794 62.3381Z" fill="#4A7ECC"/>
<path d="M58.178 63.4965L76.5808 63.5079L76.581 63.2651L58.1781 63.2536L58.178 63.4965Z" fill="#4A7ECC"/>
<path d="M58.1765 64.6548L76.5793 64.6663L76.5795 64.4234L58.1766 64.4119L58.1765 64.6548Z" fill="#4A7ECC"/>
</g>
<defs>
<clipPath id="clip0">
<rect width="117" height="110" fill="white"/>
</clipPath>
</defs>
</svg>
