<svg width="116" height="103" viewBox="0 0 116 103" fill="none" xmlns="http://www.w3.org/2000/svg">
<path d="M100.092 93.4905C99.968 93.4905 99.8635 93.3903 99.8635 93.263V62.9877C99.8635 62.8643 99.9641 62.7602 100.092 62.7602C100.219 62.7602 100.32 62.8605 100.32 62.9877V93.263C100.32 93.3864 100.215 93.4905 100.092 93.4905Z" fill="#231F20"/>
<path d="M108.879 79.4577H105.495C104.021 79.4577 102.822 78.2622 102.822 76.793V64.1677C102.822 64.0443 102.923 63.9402 103.05 63.9402C103.178 63.9402 103.279 64.0404 103.279 64.1677V76.793C103.279 78.0116 104.273 79.0026 105.495 79.0026H108.879C109.003 79.0026 109.107 79.1029 109.107 79.2301C109.107 79.3574 109.007 79.4577 108.879 79.4577Z" fill="#F9D095"/>
<path d="M95.0788 88.5661H83.7963C83.6725 88.5661 83.5681 88.4658 83.5681 88.3386C83.5681 88.2113 83.6687 88.1111 83.7963 88.1111H95.0788C96.301 88.1111 97.295 87.12 97.295 85.9014V65.2976C97.295 65.1742 97.3956 65.0701 97.5232 65.0701C97.6509 65.0701 97.7514 65.1703 97.7514 65.2976V85.9014C97.7514 87.3707 96.5524 88.5661 95.0788 88.5661Z" fill="#F9D095"/>
<path d="M91.1029 89.9158C92.2885 89.9158 93.2496 89.1665 93.2496 88.2422C93.2496 87.3179 92.2885 86.5686 91.1029 86.5686C89.9174 86.5686 88.9563 87.3179 88.9563 88.2422C88.9563 89.1665 89.9174 89.9158 91.1029 89.9158Z" fill="white"/>
<path d="M91.1029 90.1433C89.7917 90.1433 88.728 89.2911 88.728 88.2422C88.728 87.1933 89.7917 86.3411 91.1029 86.3411C92.4141 86.3411 93.4777 87.1933 93.4777 88.2422C93.4777 89.2911 92.4141 90.1433 91.1029 90.1433ZM91.1029 86.7961C90.0431 86.7961 89.1806 87.444 89.1806 88.2422C89.1806 89.0404 90.0431 89.6883 91.1029 89.6883C92.1627 89.6883 93.0252 89.0404 93.0252 88.2422C93.0252 87.444 92.1627 86.7961 91.1029 86.7961Z" fill="#F9D095"/>
<path d="M103.151 74.5294C104.078 74.5294 104.829 73.5712 104.829 72.3892C104.829 71.2072 104.078 70.249 103.151 70.249C102.224 70.249 101.472 71.2072 101.472 72.3892C101.472 73.5712 102.224 74.5294 103.151 74.5294Z" fill="white"/>
<path d="M103.151 74.7569C102.099 74.7569 101.244 73.6965 101.244 72.3892C101.244 71.0819 102.099 70.0215 103.151 70.0215C104.203 70.0215 105.058 71.0819 105.058 72.3892C105.058 73.6965 104.203 74.7569 103.151 74.7569ZM103.151 70.4765C102.35 70.4765 101.701 71.3365 101.701 72.3931C101.701 73.4497 102.35 74.3096 103.151 74.3096C103.952 74.3096 104.601 73.4497 104.601 72.3931C104.601 71.3365 103.952 70.4765 103.151 70.4765Z" fill="#F9D095"/>
<path d="M21.1609 43.2014H0.228202C0.104431 43.2014 0 43.1011 0 42.9739C0 42.8466 0.100563 42.7463 0.228202 42.7463H21.1648C21.2885 42.7463 21.393 42.8466 21.393 42.9739C21.393 43.1011 21.2885 43.2014 21.1609 43.2014Z" fill="#F9D095"/>
<path d="M21.0641 40.5445H7.41071C5.93706 40.5445 4.73804 39.349 4.73804 37.8798V31.3589C4.73804 31.2355 4.8386 31.1314 4.96624 31.1314C5.09388 31.1314 5.19444 31.2317 5.19444 31.3589V37.8798C5.19444 39.0984 6.18847 40.0894 7.41071 40.0894H21.0641C21.1879 40.0894 21.2923 40.1897 21.2923 40.317C21.2923 40.4442 21.1879 40.5445 21.0641 40.5445Z" fill="#231F20"/>
<path d="M8.22697 44.6513C9.41253 44.6513 10.3736 43.902 10.3736 42.9777C10.3736 42.0534 9.41253 41.3041 8.22697 41.3041C7.04141 41.3041 6.08032 42.0534 6.08032 42.9777C6.08032 43.902 7.04141 44.6513 8.22697 44.6513Z" fill="white"/>
<path d="M8.2269 44.875C6.9157 44.875 5.85205 44.0228 5.85205 42.9739C5.85205 41.925 6.9157 41.0728 8.2269 41.0728C9.53809 41.0728 10.6017 41.925 10.6017 42.9739C10.6017 44.0228 9.53422 44.875 8.2269 44.875ZM8.2269 41.5278C7.16711 41.5278 6.30459 42.1756 6.30459 42.9739C6.30459 43.7721 7.16711 44.42 8.2269 44.42C9.28668 44.42 10.1492 43.7721 10.1492 42.9739C10.1492 42.1756 9.28668 41.5278 8.2269 41.5278Z" fill="#F9D095"/>
<path d="M37.0615 24.4948C36.9377 24.4948 36.8333 24.3946 36.8333 24.2673V3.39738C36.8333 3.27398 36.9338 3.16986 37.0615 3.16986C37.1891 3.16986 37.2897 3.27012 37.2897 3.39738V24.2712C37.2897 24.3946 37.1891 24.4948 37.0615 24.4948Z" fill="#F9D095"/>
<path d="M39.7265 24.3984C39.6027 24.3984 39.4983 24.2982 39.4983 24.1709V10.5584C39.4983 9.08917 40.6973 7.89374 42.171 7.89374H48.7115C48.8352 7.89374 48.9397 7.994 48.9397 8.12126C48.9397 8.24851 48.8391 8.34877 48.7115 8.34877H42.171C40.9487 8.34877 39.9547 9.33983 39.9547 10.5584V24.1709C39.9547 24.2982 39.8541 24.3984 39.7265 24.3984Z" fill="#F9D095"/>
<path d="M37.0617 13.5122C37.9888 13.5122 38.7403 12.554 38.7403 11.372C38.7403 10.19 37.9888 9.23181 37.0617 9.23181C36.1346 9.23181 35.3831 10.19 35.3831 11.372C35.3831 12.554 36.1346 13.5122 37.0617 13.5122Z" fill="white"/>
<path d="M37.0616 13.7398C36.0096 13.7398 35.1548 12.6793 35.1548 11.3721C35.1548 10.0648 36.0096 9.00433 37.0616 9.00433C38.1137 9.00433 38.9685 10.0648 38.9685 11.3721C38.9685 12.6793 38.1137 13.7398 37.0616 13.7398ZM37.0616 9.45551C36.261 9.45551 35.6112 10.3155 35.6112 11.3721C35.6112 12.4287 36.261 13.2886 37.0616 13.2886C37.8623 13.2886 38.5121 12.4287 38.5121 11.3721C38.5121 10.3155 37.8623 9.45551 37.0616 9.45551Z" fill="#F9D095"/>
<path d="M53.4264 16.1422C40.3415 16.1422 27.6048 22.8559 20.8399 35.0995C15.2316 45.2529 14.3304 58.1212 25.8101 73.3109C33.2827 83.1983 42.7357 86.9388 52.7572 86.9388C70.1509 86.9388 89.2579 75.6825 102.691 65.7874C111.749 59.1161 111.177 45.4226 101.635 39.4609L73.6203 21.942C67.3467 18.0202 60.3382 16.1422 53.4264 16.1422Z" fill="#FEECD1"/>
<path d="M65.7377 13.6703H59.9746V24.1709H65.7377V13.6703Z" fill="#EDA337"/>
<path d="M73.4191 3.39734H67.656V29.9822H73.4191V3.39734Z" fill="#EDA337"/>
<path d="M80.911 4.44623H75.1479V31.0311H80.911V4.44623Z" fill="#FDCC70"/>
<path d="M88.7899 2.82275H83.0269V29.4076H88.7899V2.82275Z" fill="#FDCC70"/>
<path d="M96.7074 0H90.9443V26.5849H96.7074V0Z" fill="#EDA337"/>
<path d="M75.4031 54.7315V75.0346C75.4031 75.667 76.0684 76.0758 76.6331 75.7943L82.9686 72.636C83.5449 72.3468 83.9085 71.7606 83.9085 71.1167V54.7315C83.9085 54.1454 84.1096 53.5785 84.4809 53.1235L102.06 31.6211C102.432 31.1661 102.633 30.5992 102.633 30.0131V24.9807C102.633 24.0436 101.871 23.2839 100.931 23.2839H58.3847C57.4448 23.2839 56.6829 24.0436 56.6829 24.9807V30.0131C56.6829 30.5992 56.884 31.1661 57.2553 31.6211L74.8268 53.1235C75.202 53.5785 75.4031 54.1454 75.4031 54.7315Z" fill="#FADC90"/>
<path d="M94.948 30.0709H73.7059C73.2341 30.0709 72.855 29.693 72.855 29.2225V23.2839H58.3893C57.4495 23.2839 56.6875 24.0436 56.6875 24.9807V30.0131C56.6875 30.5992 56.8886 31.1661 57.2599 31.6211L74.8315 53.1235C75.2028 53.5785 75.4039 54.1454 75.4039 54.7315V75.0346C75.4039 75.667 76.0692 76.0758 76.6339 75.7943L78.3976 74.9151V54.6737C78.3976 54.2032 78.7767 53.8253 79.2485 53.8253H80.4592C81.0239 53.8253 81.5499 53.5477 81.8671 53.0811L96.0775 32.1995C96.6963 31.2972 96.0465 30.0709 94.948 30.0709Z" fill="#FDCC70"/>
<path d="M66.0083 30.0709H56.6907C56.7023 30.6378 56.8995 31.1815 57.2592 31.6211L74.8308 53.1235C75.0048 53.3356 75.1363 53.5747 75.233 53.8253H75.8596C76.4591 53.8253 76.8691 53.2237 76.6525 52.6684L68.3831 31.6867C68.0002 30.7111 67.0564 30.0709 66.0083 30.0709Z" fill="#EDA337"/>
<path d="M78.6058 72.0113H65.4552V66.0534H73.8252C74.4866 66.0534 75.0204 65.5213 75.0204 64.8618C75.0204 64.2024 74.4866 63.6703 73.8252 63.6703H65.4552V61.2871C65.4552 59.3127 63.8501 57.7124 61.8697 57.7124H60.6746V54.6235L65.111 50.212C65.3353 49.9883 65.4591 49.6837 65.4591 49.3675V44.6012C65.4591 43.9418 64.9253 43.4096 64.2639 43.4096C63.6025 43.4096 63.0688 43.9418 63.0688 44.6012V48.8816L58.6324 53.2931C58.408 53.5168 58.2843 53.8214 58.2843 54.1377V57.7124H51.1133V49.3675C51.1133 48.7081 50.5796 48.1759 49.9182 48.1759C49.2568 48.1759 48.723 48.7081 48.723 49.3675V57.7124H41.552V54.1377C41.552 53.8214 41.4283 53.5168 41.2039 53.2931L36.7675 48.8816V36.8887C36.7675 36.2293 36.2338 35.6971 35.5724 35.6971C34.911 35.6971 34.3772 36.2293 34.3772 36.8887V49.3675C34.3772 49.6837 34.501 49.9883 34.7253 50.212L39.1617 54.6235V57.7124H37.9666C35.9862 57.7124 34.3811 59.3127 34.3811 61.2871V63.6703H26.0034C25.342 63.6703 24.8082 64.2024 24.8082 64.8618C24.8082 65.5213 25.342 66.0534 26.0034 66.0534H34.3734V72.0113H21.2227C20.5613 72.0113 20.0276 72.5435 20.0276 73.2029C20.0276 73.8623 20.5613 74.3944 21.2227 74.3944H34.3734V80.3523H26.0034C25.342 80.3523 24.8082 80.8845 24.8082 81.5439C24.8082 82.2033 25.342 82.7355 26.0034 82.7355H34.3734V85.1186C34.3734 87.093 35.9785 88.6934 37.9588 88.6934H39.154V91.7822L34.7176 96.1937C34.4933 96.4174 34.3695 96.722 34.3695 97.0383V101.805C34.3695 102.464 34.9033 102.996 35.5646 102.996C36.226 102.996 36.7598 102.464 36.7598 101.805V97.5241L41.1962 93.1126C41.4205 92.8889 41.5443 92.5843 41.5443 92.2681V88.6934H48.7153V97.0383C48.7153 97.6977 49.249 98.2298 49.9104 98.2298C50.5718 98.2298 51.1056 97.6977 51.1056 97.0383V88.6934H58.2765V92.2681C58.2765 92.5843 58.4003 92.8889 58.6246 93.1126L63.061 97.5241V101.805C63.061 102.464 63.5948 102.996 64.2562 102.996C64.9176 102.996 65.4513 102.464 65.4513 101.805V97.0383C65.4513 96.722 65.3276 96.4174 65.1032 96.1937L60.6668 91.7822V88.6934H61.862C63.8423 88.6934 65.4475 87.093 65.4475 85.1186V82.7355H73.8175C74.4789 82.7355 75.0126 82.2033 75.0126 81.5439C75.0126 80.8845 74.4789 80.3523 73.8175 80.3523H65.4475V74.3944H78.5981C79.2595 74.3944 79.7933 73.8623 79.7933 73.2029C79.801 72.5473 79.2634 72.0113 78.6058 72.0113ZM47.524 81.5478C47.524 82.2072 46.9902 82.7393 46.3288 82.7393H41.5482C40.8868 82.7393 40.353 82.2072 40.353 81.5478V76.7815C40.353 76.122 40.8868 75.5899 41.5482 75.5899H46.3288C46.9902 75.5899 47.524 76.122 47.524 76.7815V81.5478ZM47.524 69.6281C47.524 70.2876 46.9902 70.8197 46.3288 70.8197H41.5482C40.8868 70.8197 40.353 70.2876 40.353 69.6281V64.8618C40.353 64.2024 40.8868 63.6703 41.5482 63.6703H46.3288C46.9902 63.6703 47.524 64.2024 47.524 64.8618V69.6281ZM59.4756 81.5478C59.4756 82.2072 58.9418 82.7393 58.2804 82.7393H53.4998C52.8384 82.7393 52.3046 82.2072 52.3046 81.5478V76.7815C52.3046 76.122 52.8384 75.5899 53.4998 75.5899H58.2804C58.9418 75.5899 59.4756 76.122 59.4756 76.7815V81.5478ZM59.4756 69.6281C59.4756 70.2876 58.9418 70.8197 58.2804 70.8197H53.4998C52.8384 70.8197 52.3046 70.2876 52.3046 69.6281V64.8618C52.3046 64.2024 52.8384 63.6703 53.4998 63.6703H58.2804C58.9418 63.6703 59.4756 64.2024 59.4756 64.8618V69.6281Z" fill="#FDCC70"/>
<path d="M77.1978 87.8334C75.0086 87.8334 73.2256 86.0557 73.2256 83.8731C73.2256 81.6904 75.0086 79.9127 77.1978 79.9127C79.387 79.9127 81.1701 81.6904 81.1701 83.8731C81.174 86.0557 79.3909 87.8334 77.1978 87.8334Z" fill="#EDA337"/>
<path d="M82.5394 77.1671C80.3502 77.1671 78.5671 75.3894 78.5671 73.2067C78.5671 71.0241 80.3502 69.2464 82.5394 69.2464C84.7286 69.2464 86.5117 71.0241 86.5117 73.2067C86.5117 75.3894 84.7325 77.1671 82.5394 77.1671Z" fill="#EDA337"/>
<path d="M82.2144 78.7944C80.0253 78.7944 78.2422 77.0167 78.2422 74.8341C78.2422 72.6514 80.0253 70.8737 82.2144 70.8737C84.4036 70.8737 86.1867 72.6514 86.1867 74.8341C86.1867 77.0167 84.4036 78.7944 82.2144 78.7944Z" fill="#FDCC70"/>
<path d="M75.5694 87.8334C73.3802 87.8334 71.5972 86.0557 71.5972 83.8731C71.5972 81.6904 73.3802 79.9127 75.5694 79.9127C77.7586 79.9127 79.5417 81.6904 79.5417 83.8731C79.5455 86.0557 77.7625 87.8334 75.5694 87.8334Z" fill="#FDCC70"/>
<path d="M77.7589 69.686C75.5697 69.686 73.7866 67.9083 73.7866 65.7257C73.7866 63.543 75.5697 61.7653 77.7589 61.7653C79.9481 61.7653 81.7311 63.543 81.7311 65.7257C81.7311 67.9083 79.9519 69.686 77.7589 69.686Z" fill="#EDA337"/>
<path d="M77.9251 67.2489C75.736 67.2489 73.9529 65.4712 73.9529 63.2885C73.9529 61.1059 75.736 59.3282 77.9251 59.3282C80.1143 59.3282 81.8974 61.1059 81.8974 63.2885C81.8974 65.4712 80.1143 67.2489 77.9251 67.2489Z" fill="#FDCC70"/>
<path d="M17.1732 79.0027C14.984 79.0027 13.2009 77.225 13.2009 75.0423C13.2009 72.8597 14.984 71.082 17.1732 71.082C19.3624 71.082 21.1454 72.8597 21.1454 75.0423C21.1454 77.225 19.3662 79.0027 17.1732 79.0027Z" fill="#EDA337"/>
<path d="M19.695 77.9769C17.2815 78.0501 15.2586 76.149 15.1852 73.7427C15.1117 71.3364 17.0185 69.3196 19.432 69.2464C21.8456 69.1731 23.8684 71.0742 23.9419 73.4805C24.0115 75.8868 22.1086 77.9036 19.695 77.9769Z" fill="#FFBB4D"/>
<path d="M26.1737 66.8131C23.9845 66.8131 22.2014 65.0354 22.2014 62.8527C22.2014 60.6701 23.9845 58.8924 26.1737 58.8924C28.3629 58.8924 30.1459 60.6701 30.1459 62.8527C30.1498 65.0354 28.3667 66.8131 26.1737 66.8131Z" fill="#EDA337"/>
<path d="M23.8914 67.7887C21.7023 67.7887 19.9192 66.011 19.9192 63.8284C19.9192 61.6458 21.7023 59.868 23.8914 59.868C26.0806 59.868 27.8637 61.6458 27.8637 63.8284C27.8637 66.011 26.0845 67.7887 23.8914 67.7887Z" fill="#FFBB4D"/>
<path d="M25.5238 88.4311C23.3346 88.4311 21.5515 86.6534 21.5515 84.4708C21.5515 82.2882 23.3346 80.5104 25.5238 80.5104C27.713 80.5104 29.496 82.2882 29.496 84.4708C29.496 86.6534 27.713 88.4311 25.5238 88.4311Z" fill="#FFBB4D"/>
<path d="M26.8272 87.9452C24.638 87.9452 22.855 86.1675 22.855 83.9849C22.855 81.8023 24.638 80.0245 26.8272 80.0245C29.0164 80.0245 30.7995 81.8023 30.7995 83.9849C30.7995 86.1675 29.0164 87.9452 26.8272 87.9452Z" fill="#FDCC70"/>
<path d="M17.15 61.8154H13.8894C13.7811 61.8154 13.696 61.7306 13.696 61.6226C13.696 61.5146 13.7811 61.4298 13.8894 61.4298H17.15C17.2583 61.4298 17.3434 61.5146 17.3434 61.6226C17.3434 61.7306 17.2583 61.8154 17.15 61.8154Z" fill="#231F20"/>
<path d="M11.4488 61.8154H8.18826C8.07997 61.8154 7.99487 61.7306 7.99487 61.6226C7.99487 61.5146 8.07997 61.4298 8.18826 61.4298H11.4488C11.5571 61.4298 11.6422 61.5146 11.6422 61.6226C11.6422 61.7306 11.5533 61.8154 11.4488 61.8154Z" fill="#231F20"/>
<path d="M12.6712 60.5969C12.5629 60.5969 12.4778 60.512 12.4778 60.4041V57.1571C12.4778 57.0491 12.5629 56.9643 12.6712 56.9643C12.7795 56.9643 12.8646 57.0491 12.8646 57.1571V60.4041C12.8646 60.5082 12.7756 60.5969 12.6712 60.5969Z" fill="#231F20"/>
<path d="M12.6712 66.281C12.5629 66.281 12.4778 66.1961 12.4778 66.0882V62.8373C12.4778 62.7294 12.5629 62.6445 12.6712 62.6445C12.7795 62.6445 12.8646 62.7294 12.8646 62.8373V66.0882C12.8646 66.1961 12.7756 66.281 12.6712 66.281Z" fill="#231F20"/>
<path d="M115.807 34.6405H112.546C112.438 34.6405 112.353 34.5557 112.353 34.4477C112.353 34.3397 112.438 34.2549 112.546 34.2549H115.807C115.915 34.2549 116 34.3397 116 34.4477C116 34.5557 115.911 34.6405 115.807 34.6405Z" fill="#231F20"/>
<path d="M110.101 34.6405H106.845C106.736 34.6405 106.651 34.5557 106.651 34.4477C106.651 34.3397 106.736 34.2549 106.845 34.2549H110.101C110.21 34.2549 110.295 34.3397 110.295 34.4477C110.295 34.5557 110.21 34.6405 110.101 34.6405Z" fill="#231F20"/>
<path d="M111.324 33.422C111.215 33.422 111.13 33.3371 111.13 33.2291V29.9783C111.13 29.8704 111.215 29.7855 111.324 29.7855C111.432 29.7855 111.517 29.8704 111.517 29.9783V33.2291C111.517 33.3371 111.432 33.422 111.324 33.422Z" fill="#231F20"/>
<path d="M111.324 39.1099C111.215 39.1099 111.13 39.025 111.13 38.9171V35.6663C111.13 35.5583 111.215 35.4734 111.324 35.4734C111.432 35.4734 111.517 35.5583 111.517 35.6663V38.9171C111.517 39.0212 111.432 39.1099 111.324 39.1099Z" fill="#231F20"/>
</svg>
