<svg width="126" height="112" viewBox="0 0 126 112" fill="none" xmlns="http://www.w3.org/2000/svg">
<path d="M108.656 101.632C108.521 101.632 108.408 101.523 108.408 101.384V68.4712C108.408 68.3371 108.517 68.2239 108.656 68.2239C108.794 68.2239 108.903 68.3329 108.903 68.4712V101.384C108.903 101.523 108.79 101.632 108.656 101.632Z" fill="#D68A25"/>
<path d="M118.195 86.3803H114.521C112.922 86.3803 111.62 85.0808 111.62 83.4835V69.7583C111.62 69.6241 111.729 69.5109 111.868 69.5109C112.006 69.5109 112.116 69.6199 112.116 69.7583V83.4835C112.116 84.8083 113.195 85.8856 114.521 85.8856H118.195C118.33 85.8856 118.443 85.9947 118.443 86.133C118.443 86.2713 118.334 86.3803 118.195 86.3803Z" fill="#FDCC70"/>
<path d="M103.214 96.2823H90.9664C90.832 96.2823 90.7186 96.1733 90.7186 96.0349C90.7186 95.8966 90.8278 95.7876 90.9664 95.7876H103.214C104.541 95.7876 105.62 94.7102 105.62 93.3855V70.9865C105.62 70.8524 105.729 70.7392 105.868 70.7392C106.006 70.7392 106.115 70.8482 106.115 70.9865V93.3855C106.115 94.9827 104.814 96.2823 103.214 96.2823Z" fill="#FDCC70"/>
<path d="M98.8977 97.7496C100.185 97.7496 101.228 96.935 101.228 95.9302C101.228 94.9254 100.185 94.1108 98.8977 94.1108C97.6107 94.1108 96.5674 94.9254 96.5674 95.9302C96.5674 96.935 97.6107 97.7496 98.8977 97.7496Z" fill="white"/>
<path d="M98.9019 97.9928C97.4785 97.9928 96.3239 97.0663 96.3239 95.926C96.3239 94.7857 97.4785 93.8593 98.9019 93.8593C100.325 93.8593 101.48 94.7857 101.48 95.926C101.476 97.0663 100.321 97.9928 98.9019 97.9928ZM98.9019 94.3539C97.7514 94.3539 96.8151 95.0582 96.8151 95.926C96.8151 96.7938 97.7514 97.4981 98.9019 97.4981C100.052 97.4981 100.989 96.7938 100.989 95.926C100.989 95.0582 100.048 94.3539 98.9019 94.3539Z" fill="#FDCC70"/>
<path d="M111.977 81.0227C112.983 81.0227 113.799 79.9811 113.799 78.6961C113.799 77.4111 112.983 76.3694 111.977 76.3694C110.971 76.3694 110.155 77.4111 110.155 78.6961C110.155 79.9811 110.971 81.0227 111.977 81.0227Z" fill="white"/>
<path d="M111.977 81.27C110.835 81.27 109.907 80.1172 109.907 78.696C109.907 77.2749 110.835 76.122 111.977 76.122C113.119 76.122 114.047 77.2749 114.047 78.696C114.047 80.1172 113.119 81.27 111.977 81.27ZM111.977 76.6125C111.108 76.6125 110.402 77.5474 110.402 78.696C110.402 79.8447 111.108 80.7795 111.977 80.7795C112.846 80.7795 113.552 79.8447 113.552 78.696C113.552 77.5474 112.846 76.6125 111.977 76.6125Z" fill="#FDCC70"/>
<path d="M22.9715 46.9653H0.247727C0.113367 46.9653 0 46.8563 0 46.7179C0 46.5796 0.109168 46.4706 0.247727 46.4706H22.9757C23.11 46.4706 23.2234 46.5796 23.2234 46.7179C23.2234 46.8563 23.11 46.9653 22.9715 46.9653Z" fill="#FDCC70"/>
<path d="M22.8664 44.0768H8.04478C6.44505 44.0768 5.14343 42.7772 5.14343 41.18V34.091C5.14343 33.9569 5.2526 33.8437 5.39116 33.8437C5.52972 33.8437 5.63889 33.9527 5.63889 34.091V41.18C5.63889 42.5047 6.71797 43.5821 8.04478 43.5821H22.8664C23.0008 43.5821 23.1142 43.6911 23.1142 43.8294C23.1142 43.9678 23.0008 44.0768 22.8664 44.0768Z" fill="#D68A25"/>
<path d="M8.93078 48.5373C10.2178 48.5373 11.2611 47.7227 11.2611 46.7178C11.2611 45.713 10.2178 44.8984 8.93078 44.8984C7.64378 44.8984 6.60046 45.713 6.60046 46.7178C6.60046 47.7227 7.64378 48.5373 8.93078 48.5373Z" fill="white"/>
<path d="M8.93071 48.7846C7.50732 48.7846 6.35266 47.8582 6.35266 46.7179C6.35266 45.5776 7.50732 44.6511 8.93071 44.6511C10.3541 44.6511 11.5087 45.5776 11.5087 46.7179C11.5087 47.8582 10.3499 48.7846 8.93071 48.7846ZM8.93071 45.1458C7.78024 45.1458 6.84392 45.8501 6.84392 46.7179C6.84392 47.5857 7.78024 48.29 8.93071 48.29C10.0812 48.29 11.0175 47.5857 11.0175 46.7179C11.0175 45.8501 10.0812 45.1458 8.93071 45.1458Z" fill="#FDCC70"/>
<path d="M40.2326 26.6289C40.0982 26.6289 39.9849 26.5199 39.9849 26.3815V3.68916C39.9849 3.55501 40.094 3.44183 40.2326 3.44183C40.3711 3.44183 40.4803 3.55082 40.4803 3.68916V26.3815C40.4803 26.5199 40.3711 26.6289 40.2326 26.6289Z" fill="#FDCC70"/>
<path d="M43.1257 26.5199C42.9913 26.5199 42.8779 26.4109 42.8779 26.2725V11.4741C42.8779 9.87684 44.1795 8.57727 45.7793 8.57727H52.8794C53.0138 8.57727 53.1271 8.68625 53.1271 8.8246C53.1271 8.96294 53.018 9.07195 52.8794 9.07195H45.7793C44.4525 9.07195 43.3734 10.1493 43.3734 11.4741V26.2725C43.3734 26.4109 43.2642 26.5199 43.1257 26.5199Z" fill="#D68A25"/>
<path d="M40.2325 14.6895C41.239 14.6895 42.0548 13.6478 42.0548 12.3628C42.0548 11.0779 41.239 10.0362 40.2325 10.0362C39.2261 10.0362 38.4103 11.0779 38.4103 12.3628C38.4103 13.6478 39.2261 14.6895 40.2325 14.6895Z" fill="white"/>
<path d="M40.2325 14.9369C39.0904 14.9369 38.1625 13.784 38.1625 12.3628C38.1625 10.9417 39.0904 9.78882 40.2325 9.78882C41.3745 9.78882 42.3025 10.9417 42.3025 12.3628C42.3025 13.784 41.3745 14.9369 40.2325 14.9369ZM40.2325 10.2793C39.3633 10.2793 38.6579 11.2142 38.6579 12.3628C38.6579 13.5115 39.3633 14.4464 40.2325 14.4464C41.1016 14.4464 41.807 13.5115 41.807 12.3628C41.807 11.2142 41.1016 10.2793 40.2325 10.2793Z" fill="#FDCC70"/>
<path d="M57.9976 17.5485C43.7931 17.5485 29.9666 24.8472 22.623 38.1574C16.5347 49.1954 15.5564 63.1848 28.0184 79.6979C36.1304 90.4467 46.3922 94.5131 57.2712 94.5131C76.153 94.5131 96.895 82.2761 111.477 71.5189C121.311 64.2664 120.689 49.3799 110.331 42.8988L79.9151 23.8494C73.1089 19.5859 65.5008 17.5485 57.9976 17.5485Z" fill="#F7E6B5"/>
<path d="M71.3622 14.8572H65.1061V26.2725H71.3622V14.8572Z" fill="#EDA337"/>
<path d="M79.701 3.69336H73.4448V32.5944H79.701V3.69336Z" fill="#EDA337"/>
<path d="M87.834 4.83362H81.5779V33.7346H87.834V4.83362Z" fill="#FDCC70"/>
<path d="M96.3869 3.06866H90.1307V31.9697H96.3869V3.06866Z" fill="#FDCC70"/>
<path d="M104.982 0H98.7256V28.901H104.982V0Z" fill="#EDA337"/>
<path d="M81.855 59.4958V81.5677C81.855 82.2552 82.5772 82.6996 83.1902 82.3936L90.0678 78.9602C90.6934 78.6458 91.0881 78.0085 91.0881 77.3084V59.4958C91.0881 58.8585 91.3064 58.2423 91.7095 57.7476L110.784 34.3719C111.188 33.8772 111.406 33.261 111.406 32.6237V27.1529C111.406 26.1342 110.579 25.3083 109.558 25.3083H63.372C62.3517 25.3083 61.5245 26.1342 61.5245 27.1529V32.6237C61.5245 33.261 61.7429 33.8772 62.146 34.3719L81.221 57.7476C81.6366 58.2423 81.855 58.8627 81.855 59.4958Z" fill="#FADC90"/>
<path d="M103.071 32.6907H80.0112C79.4989 32.6907 79.0875 32.2799 79.0875 31.7684V25.3124H63.3841C62.3638 25.3124 61.5366 26.1383 61.5366 27.157V32.6278C61.5366 33.2651 61.755 33.8813 62.158 34.376L81.233 57.7517C81.6361 58.2464 81.8545 58.8626 81.8545 59.4999V81.5718C81.8545 82.2593 82.5766 82.7037 83.1897 82.3977L85.1043 81.4419V59.437C85.1043 58.9255 85.5158 58.5147 86.028 58.5147H87.3422C87.9553 58.5147 88.5263 58.2129 88.8706 57.7056L104.297 35.009C104.969 34.0196 104.263 32.6907 103.071 32.6907Z" fill="#FDCC70"/>
<path d="M71.6561 32.6909H61.5413C61.5539 33.3072 61.768 33.8983 62.1585 34.3762L81.2335 57.7518C81.4224 57.9824 81.5652 58.2423 81.6701 58.5148H82.3503C83.0012 58.5148 83.4462 57.8608 83.2111 57.2572L74.2383 34.4474C73.8184 33.3868 72.794 32.6909 71.6561 32.6909Z" fill="#EDA337"/>
<path d="M85.3315 78.2851H71.0557V71.8082H80.1419C80.8599 71.8082 81.4393 71.2297 81.4393 70.5128C81.4393 69.7959 80.8599 69.2174 80.1419 69.2174H71.0557V66.6266C71.0557 64.4802 69.3133 62.7405 67.1635 62.7405H65.8661V59.3825L70.682 54.5866C70.9256 54.3435 71.0599 54.0123 71.0599 53.6685V48.4828C71.0599 47.7659 70.4805 47.1874 69.7625 47.1874C69.0445 47.1874 68.4651 47.7659 68.4651 48.4828V53.1361L63.6491 57.932C63.4056 58.1751 63.2712 58.5063 63.2712 58.8501V62.7363H55.4867V53.6643C55.4867 52.9475 54.9073 52.3689 54.1893 52.3689C53.4713 52.3689 52.8919 52.9475 52.8919 53.6643V62.7363H45.1074V58.8501C45.1074 58.5063 44.973 58.1751 44.7295 57.932L39.9093 53.1361V40.0984C39.9093 39.3815 39.3298 38.803 38.6119 38.803C37.8939 38.803 37.3144 39.3815 37.3144 40.0984V53.6643C37.3144 54.0081 37.4488 54.3393 37.6923 54.5824L42.5083 59.3783V62.7363H41.2109C39.0611 62.7363 37.3186 64.476 37.3186 66.6224V69.2132H28.2283C27.5103 69.2132 26.9309 69.7917 26.9309 70.5086C26.9309 71.2255 27.5103 71.804 28.2283 71.804H37.3144V78.281H23.0386C22.3206 78.281 21.7412 78.8595 21.7412 79.5763C21.7412 80.2932 22.3206 80.8717 23.0386 80.8717H37.3144V87.3487H28.2283C27.5103 87.3487 26.9309 87.9272 26.9309 88.6441C26.9309 89.3609 27.5103 89.9395 28.2283 89.9395H37.3144V92.5302C37.3144 94.6766 39.0569 96.4164 41.2067 96.4164H42.5041V99.7743L37.6881 104.574C37.4446 104.818 37.3102 105.149 37.3102 105.493V110.674C37.3102 111.391 37.8897 111.969 38.6077 111.969C39.3257 111.969 39.9051 111.391 39.9051 110.674V106.021L44.7211 101.225C44.9646 100.982 45.099 100.651 45.099 100.307V96.4206H52.8835V105.493C52.8835 106.209 53.4629 106.788 54.1809 106.788C54.8989 106.788 55.4783 106.209 55.4783 105.493V96.4206H63.2628V100.307C63.2628 100.651 63.3972 100.982 63.6407 101.225L68.4567 106.021V110.674C68.4567 111.391 69.0361 111.969 69.7541 111.969C70.4721 111.969 71.0515 111.391 71.0515 110.674V105.497C71.0515 105.153 70.9172 104.822 70.6737 104.579L65.8577 99.7827V96.4248H67.1551C69.3049 96.4248 71.0473 94.685 71.0473 92.5386V89.9478H80.1335C80.8515 89.9478 81.4309 89.3693 81.4309 88.6525C81.4309 87.9356 80.8515 87.3571 80.1335 87.3571H71.0473V80.8801H85.3232C86.0411 80.8801 86.6206 80.3016 86.6206 79.5847C86.6206 78.8679 86.0453 78.2851 85.3315 78.2851ZM51.5903 88.6525C51.5903 89.3693 51.0108 89.9478 50.2928 89.9478H45.1032C44.3852 89.9478 43.8057 89.3693 43.8057 88.6525V83.4709C43.8057 82.754 44.3852 82.1755 45.1032 82.1755H50.2928C51.0108 82.1755 51.5903 82.754 51.5903 83.4709V88.6525ZM51.5903 75.6943C51.5903 76.4112 51.0108 76.9897 50.2928 76.9897H45.1032C44.3852 76.9897 43.8057 76.4112 43.8057 75.6943V70.5128C43.8057 69.7959 44.3852 69.2174 45.1032 69.2174H50.2928C51.0108 69.2174 51.5903 69.7959 51.5903 70.5128V75.6943ZM64.5644 88.6525C64.5644 89.3693 63.985 89.9478 63.267 89.9478H58.0774C57.3594 89.9478 56.7799 89.3693 56.7799 88.6525V83.4709C56.7799 82.754 57.3594 82.1755 58.0774 82.1755H63.267C63.985 82.1755 64.5644 82.754 64.5644 83.4709V88.6525ZM64.5644 75.6943C64.5644 76.4112 63.985 76.9897 63.267 76.9897H58.0774C57.3594 76.9897 56.7799 76.4112 56.7799 75.6943V70.5128C56.7799 69.7959 57.3594 69.2174 58.0774 69.2174H63.267C63.985 69.2174 64.5644 69.7959 64.5644 70.5128V75.6943Z" fill="#FDCC70"/>
<path d="M83.8032 95.4816C81.4267 95.4816 79.4911 93.549 79.4911 91.1762C79.4911 88.8034 81.4267 86.8708 83.8032 86.8708C86.1797 86.8708 88.1154 88.8034 88.1154 91.1762C88.1196 93.549 86.1839 95.4816 83.8032 95.4816Z" fill="#EDA337"/>
<path d="M89.6017 83.8901C87.2252 83.8901 85.2896 81.9575 85.2896 79.5848C85.2896 77.212 87.2252 75.2794 89.6017 75.2794C91.9782 75.2794 93.9138 77.212 93.9138 79.5848C93.918 81.9575 91.9824 83.8901 89.6017 83.8901Z" fill="#D68A25"/>
<path d="M89.2489 85.6551C86.8724 85.6551 84.9368 83.7224 84.9368 81.3496C84.9368 78.9768 86.8724 77.0443 89.2489 77.0443C91.6254 77.0443 93.561 78.9768 93.561 81.3496C93.561 83.7224 91.6254 85.6551 89.2489 85.6551Z" fill="#EDA337"/>
<path d="M82.0355 95.4816C79.659 95.4816 77.7234 93.549 77.7234 91.1762C77.7234 88.8034 79.659 86.8708 82.0355 86.8708C84.412 86.8708 86.3477 88.8034 86.3477 91.1762C86.3519 93.549 84.4162 95.4816 82.0355 95.4816Z" fill="#FFBB4D"/>
<path d="M84.412 75.753C82.0355 75.753 80.0999 73.8204 80.0999 71.4476C80.0999 69.0749 82.0355 67.1423 84.412 67.1423C86.7885 67.1423 88.7241 69.0749 88.7241 71.4476C88.7241 73.8204 86.7927 75.753 84.412 75.753Z" fill="#D68A25"/>
<path d="M84.5927 73.1036C82.2162 73.1036 80.2805 71.171 80.2805 68.7982C80.2805 66.4254 82.2162 64.4929 84.5927 64.4929C86.9692 64.4929 88.9048 66.4254 88.9048 68.7982C88.9048 71.171 86.9692 73.1036 84.5927 73.1036Z" fill="#EDA337"/>
<path d="M18.6425 85.8856C16.266 85.8856 14.3303 83.953 14.3303 81.5802C14.3303 79.2075 16.266 77.2748 18.6425 77.2748C21.019 77.2748 22.9546 79.2075 22.9546 81.5802C22.9588 83.953 21.0232 85.8856 18.6425 85.8856Z" fill="#EDA337"/>
<path d="M21.3801 84.7663C18.76 84.846 16.5641 82.7792 16.4843 80.1633C16.4045 77.5474 18.4745 75.3548 21.0945 75.2752C23.7146 75.1955 25.9105 77.2623 25.9903 79.8782C26.0701 82.4942 24.0001 84.6867 21.3801 84.7663Z" fill="#FFBB4D"/>
<path d="M28.413 72.6341C26.0365 72.6341 24.1008 70.7015 24.1008 68.3287C24.1008 65.956 26.0365 64.0234 28.413 64.0234C30.7895 64.0234 32.7251 65.956 32.7251 68.3287C32.7293 70.7015 30.7937 72.6341 28.413 72.6341Z" fill="#EDA337"/>
<path d="M25.9358 73.6947C23.5593 73.6947 21.6237 71.7621 21.6237 69.3894C21.6237 67.0166 23.5593 65.084 25.9358 65.084C28.3123 65.084 30.2479 67.0166 30.2479 69.3894C30.2479 71.7621 28.3165 73.6947 25.9358 73.6947Z" fill="#FFBB4D"/>
<path d="M27.7078 96.1356C25.3313 96.1356 23.3956 94.2029 23.3956 91.8302C23.3956 89.4574 25.3313 87.5248 27.7078 87.5248C30.0843 87.5248 32.0199 89.4574 32.0199 91.8302C32.0199 94.2029 30.0843 96.1356 27.7078 96.1356Z" fill="#FFBB4D"/>
<path d="M29.1226 95.6073C26.7461 95.6073 24.8104 93.6747 24.8104 91.3019C24.8104 88.9291 26.7461 86.9965 29.1226 86.9965C31.4991 86.9965 33.4347 88.9291 33.4347 91.3019C33.4347 93.6747 31.4991 95.6073 29.1226 95.6073Z" fill="#FDCC70"/>
<path d="M125.715 37.6586H122.176C122.058 37.6586 121.966 37.5664 121.966 37.449C121.966 37.3316 122.058 37.2394 122.176 37.2394H125.715C125.833 37.2394 125.925 37.3316 125.925 37.449C125.925 37.5664 125.829 37.6586 125.715 37.6586Z" fill="#D68A25"/>
<path d="M119.522 37.6586H115.987C115.869 37.6586 115.777 37.5664 115.777 37.449C115.777 37.3316 115.869 37.2394 115.987 37.2394H119.522C119.64 37.2394 119.732 37.3316 119.732 37.449C119.732 37.5664 119.64 37.6586 119.522 37.6586Z" fill="#D68A25"/>
<path d="M120.849 36.3338C120.731 36.3338 120.639 36.2415 120.639 36.1242V32.5901C120.639 32.4727 120.731 32.3805 120.849 32.3805C120.967 32.3805 121.059 32.4727 121.059 32.5901V36.1242C121.059 36.2373 120.967 36.3338 120.849 36.3338Z" fill="#D68A25"/>
<path d="M120.849 42.5132C120.731 42.5132 120.639 42.4209 120.639 42.3035V38.7695C120.639 38.6521 120.731 38.5599 120.849 38.5599C120.967 38.5599 121.059 38.6521 121.059 38.7695V42.3035C121.059 42.4209 120.967 42.5132 120.849 42.5132Z" fill="#D68A25"/>
</svg>
