<?xml version="1.0" encoding="UTF-8"?><svg id="Layer_1" xmlns="http://www.w3.org/2000/svg" viewBox="0 0 300.46 325.52"><defs><style>.cls-1{fill:#f6d293;}.cls-2{fill:#ea9437;}.cls-3{fill:#3b2314;}</style></defs><g><rect class="cls-2" x="194.2" y="231.85" width="38.92" height="38.92" transform="translate(464.97 37.65) rotate(90)"/><path class="cls-1" d="m40.81,154.53h37.04s0,38.92,0,38.92h-23.58c17.04,27.92,47.79,46.56,82.89,46.56h3.08c13.41,0,26.18-2.72,37.8-7.64h-22.35s0-38.92,0-38.92h38.92s0,29.91,0,29.91c25.75-17.45,42.67-46.94,42.67-80.39h0c0-53.59-43.45-97.04-97.04-97.04h-3.08c-7,0-13.82.75-20.39,2.15v28.6s-38.92,0-38.92,0v-10.52c-22.95,17.75-37.73,45.55-37.73,76.8h0c0,3.91.24,7.77.69,11.56Zm37.04-38.92h77.84s0,38.92,0,38.92h-77.84s0-38.92,0-38.92Z"/><g><rect class="cls-2" x="155.69" y="115.61" width="38.92" height="38.92" transform="translate(310.22 -40.08) rotate(90)"/><rect class="cls-2" x="116.77" y="154.53" width="38.92" height="38.92" transform="translate(310.22 37.77) rotate(90)"/><rect class="cls-2" x="116.77" y="76.69" width="38.92" height="38.92" transform="translate(40.08 232.38) rotate(-90)"/><rect class="cls-2" x="0" y="115.61" width="38.92" height="38.92" transform="translate(-115.61 154.53) rotate(-90)"/><rect class="cls-2" x="38.92" y="0" width="38.92" height="38.92" transform="translate(77.85 -38.92) rotate(90)"/></g></g><g><path class="cls-3" d="m54,286.46c-2.22,0-4.09-.92-5.32-3.63l-1.97-3.94h-2.15v7.36h-3.75v-18.47h7.26c4.37,0,6.25,2.59,6.25,5.57,0,2.62-1.48,4.65-4.06,5.23l1.82,3.17c.89,1.63,1.79,2.16,3.08,2.16.37,0,.68-.03,1.05-.15v2.37c-.71.21-1.51.34-2.19.34Zm-9.45-10.22h2.89c2.34,0,3.17-1.23,3.17-2.86s-.83-2.92-3.17-2.92h-2.89v5.79Z"/><path class="cls-3" d="m64.56,286.61c-4.09,0-6.96-2.99-6.96-7.11s3.26-6.92,6.71-6.92,5.91,2.09,5.91,5.29c0,.58-.09,1.38-.22,1.82h-8.86c-.06,2.09.86,4.34,4.49,4.34,1.48,0,2.92-.58,3.88-1.32l.98,1.79c-1.26,1.23-3.32,2.12-5.94,2.12Zm-.15-11.76c-1.51,0-2.8.86-3.11,2.92h5.69c.31-1.6-.74-2.92-2.59-2.92Zm2.25-5.94l-4.31,2.09-.55-.86,3.14-2.62c.49-.43.89-.77,1.45-.77.58,0,1.08.49,1.08,1.08,0,.52-.43.92-.8,1.08Z"/><path class="cls-3" d="m83.79,275.28c.4.4.71,1.2.71,1.91,0,2.68-2.31,4.43-5.23,4.59-2.55.15-3.17.37-3.17,1.02,0,.52.62.77,3.39.83,4.52.15,6.09,2.03,6.09,4.28,0,2.74-2.86,4.62-6.8,4.62s-6.74-1.42-6.74-3.29c0-1.35,1.32-2.28,2.37-2.4l1.29.46c-.34.25-.86.55-.86,1.23,0,1.14,1.63,1.72,3.82,1.72,2.43,0,3.69-.83,3.69-1.91,0-1.14-1.08-1.72-3.97-1.75-3.35-.09-5.39-.86-5.39-2.95,0-1.02.89-2.12,2.34-2.49-1.48-.68-2.62-2.03-2.62-3.94,0-2.68,2.31-4.62,5.94-4.62,1.54,0,2.31.37,4.03.37h3.08v2.34h-1.97Zm-7.79,1.91c0,1.54,1.05,2.62,2.68,2.62,1.54,0,2.65-1.08,2.65-2.62s-1.11-2.58-2.65-2.58c-1.63,0-2.68,1.05-2.68,2.58Z"/><path class="cls-3" d="m101.03,286.55c-1.63,0-2.89-.65-3.02-2.55-.98,1.48-2.71,2.62-4.8,2.62-3.54,0-4.86-2.43-4.86-5.72v-7.94h3.57v7.36c0,2.55.89,3.45,2.52,3.45s3.54-1.54,3.54-3.39v-7.42h3.57v10.68c0,.8.28,1.14.8,1.14.31,0,.52-.09.71-.18v1.35c-.4.34-1.23.62-2.03.62Z"/><path class="cls-3" d="m108.69,286.55c-1.75,0-3.05-.83-3.05-2.96v-15.82l3.57-.46v16.31c0,.8.28,1.14.8,1.14.28,0,.52-.09.71-.18v1.35c-.31.28-1.2.62-2.03.62Z"/><path class="cls-3" d="m119.53,286.61c-4.09,0-6.96-2.99-6.96-7.11s3.26-6.92,6.71-6.92,5.91,2.09,5.91,5.29c0,.58-.09,1.38-.22,1.82h-8.86c-.06,2.09.86,4.34,4.49,4.34,1.48,0,2.92-.58,3.88-1.32l.98,1.79c-1.26,1.23-3.32,2.12-5.94,2.12Zm-.15-11.76c-1.51,0-2.8.86-3.11,2.92h5.69c.31-1.6-.74-2.92-2.59-2.92Z"/><path class="cls-3" d="m131.9,278.98v7.26h-3.57v-13.14l3.26-.43.15,2.71c.77-1.54,2.71-2.8,4.96-2.8v3.48c-2.43-.58-4.8.65-4.8,2.92Z"/><path class="cls-3" d="m148.06,286.55c-1.75,0-3.05-.83-3.05-2.96v-15.82l3.57-.46v16.31c0,.8.28,1.14.8,1.14.28,0,.52-.09.71-.18v1.35c-.31.28-1.2.62-2.03.62Z"/><path class="cls-3" d="m158.89,286.61c-4.09,0-6.96-2.99-6.96-7.11s3.26-6.92,6.71-6.92,5.91,2.09,5.91,5.29c0,.58-.09,1.38-.22,1.82h-8.86c-.06,2.09.86,4.34,4.49,4.34,1.48,0,2.92-.58,3.88-1.32l.98,1.79c-1.26,1.23-3.32,2.12-5.94,2.12Zm-.15-11.76c-1.51,0-2.8.86-3.11,2.92h5.69c.31-1.6-.74-2.92-2.59-2.92Z"/><path class="cls-3" d="m53.94,319.55c-1.63,0-2.65-.68-2.95-2.15-1.05,1.42-2.95,2.22-4.83,2.22-3.6,0-6.25-3.02-6.25-7.02s2.65-7.02,6.25-7.02c1.79,0,3.57.71,4.74,2.09v-6.89l3.57-.46v16.31c0,.8.28,1.14.8,1.14.28,0,.49-.06.71-.18v1.35c-.31.28-1.17.62-2.03.62Zm-3.05-9.02c-.68-1.26-2.09-2.31-3.72-2.31-2,0-3.69,1.51-3.69,4.37s1.69,4.37,3.69,4.37c1.63,0,3.05-1.05,3.72-2.31v-4.12Z"/><path class="cls-3" d="m65.18,319.73c-4.31,0-7.48-3.11-7.48-7.14s3.17-7.14,7.48-7.14,7.45,3.14,7.45,7.14-3.17,7.14-7.45,7.14Zm0-11.66c-2.4,0-3.97,1.85-3.97,4.52s1.6,4.52,3.97,4.52,3.94-1.82,3.94-4.52-1.57-4.52-3.94-4.52Z"/><path class="cls-3" d="m93.61,319.24v-7.48c0-2.4-.65-3.32-2.28-3.32s-3.26,1.38-3.26,3.38v7.42h-3.57v-7.48c0-2.4-.62-3.32-2.28-3.32s-3.26,1.38-3.26,3.38v7.42h-3.57v-13.14l3.26-.43.15,2.74c.98-1.75,2.77-2.83,4.68-2.83,2.49,0,3.72,1.2,4.25,2.99,1.2-1.88,2.92-2.99,4.89-2.99,3.54,0,4.56,2.46,4.56,5.75v7.91h-3.57Z"/><path class="cls-3" d="m111.25,319.55c-1.66,0-2.65-.68-2.95-2.09-1.51,1.48-3.29,2.15-5.02,2.15-1.94,0-3.48-1.32-3.48-3.39,0-3.11,3.82-4.96,8.4-5.35v-.52c0-1.57-.68-2.31-2.37-2.31-1.42,0-3.75.8-5.11,1.72v-2.65c1.08-.62,3.94-1.54,5.69-1.54,2.95,0,5.35,1.08,5.35,4.74v6.31c0,.8.28,1.17.8,1.17.28,0,.52-.09.71-.19v1.35c-.4.34-1.23.58-2.03.58Zm-3.05-6.65c-3.2.31-5.23,1.38-5.23,2.89,0,1.2.83,1.54,1.72,1.54.71,0,2.22-.52,3.51-1.82v-2.62Z"/><path class="cls-3" d="m119.5,302.19c0,1.02-.83,1.85-1.88,1.85s-1.88-.83-1.88-1.85.83-1.88,1.88-1.88,1.88.83,1.88,1.88Zm-3.66,17.05v-13.2l3.57-.46v13.67h-3.57Z"/><path class="cls-3" d="m132.67,319.24v-7.36c0-2.59-.89-3.45-2.52-3.45s-3.54,1.54-3.54,3.38v7.42h-3.57v-13.14l3.26-.43.15,2.74c.89-1.69,2.89-2.83,4.92-2.83,3.54,0,4.86,2.46,4.86,5.75v7.91h-3.57Z"/><path class="cls-3" d="m146.06,319.61c-4.09,0-6.96-2.99-6.96-7.11s3.26-6.92,6.71-6.92,5.91,2.09,5.91,5.29c0,.58-.09,1.38-.22,1.82h-8.86c-.06,2.09.86,4.34,4.49,4.34,1.48,0,2.92-.58,3.88-1.32l.98,1.79c-1.26,1.23-3.32,2.12-5.94,2.12Zm-.15-11.76c-1.51,0-2.8.86-3.11,2.92h5.69c.31-1.6-.74-2.92-2.59-2.92Z"/><path class="cls-3" d="m170.65,319.24v-7.36c0-2.59-.89-3.45-2.52-3.45s-3.54,1.54-3.54,3.38v7.42h-3.57v-13.14l3.26-.43.15,2.74c.89-1.69,2.89-2.83,4.92-2.83,3.54,0,4.86,2.46,4.86,5.75v7.91h-3.57Z"/><path class="cls-3" d="m190.47,319.55c-1.63,0-2.89-.65-3.02-2.55-.99,1.48-2.71,2.62-4.8,2.62-3.54,0-4.86-2.43-4.86-5.72v-7.94h3.57v7.36c0,2.55.89,3.45,2.52,3.45s3.54-1.54,3.54-3.39v-7.42h3.57v10.68c0,.8.28,1.14.8,1.14.31,0,.52-.09.71-.18v1.35c-.4.34-1.23.62-2.03.62Z"/><path class="cls-3" d="m213.31,319.24v-7.48c0-2.4-.65-3.32-2.28-3.32s-3.26,1.38-3.26,3.38v7.42h-3.57v-7.48c0-2.4-.62-3.32-2.28-3.32s-3.26,1.38-3.26,3.38v7.42h-3.57v-13.14l3.26-.43.15,2.74c.98-1.75,2.77-2.83,4.68-2.83,2.49,0,3.72,1.2,4.25,2.99,1.2-1.88,2.92-2.99,4.89-2.99,3.54,0,4.55,2.46,4.55,5.75v7.91h-3.57Z"/><path class="cls-3" d="m226.69,319.61c-4.09,0-6.96-2.99-6.96-7.11s3.26-6.92,6.71-6.92,5.91,2.09,5.91,5.29c0,.58-.09,1.38-.22,1.82h-8.86c-.06,2.09.86,4.34,4.49,4.34,1.48,0,2.92-.58,3.88-1.32l.99,1.79c-1.26,1.23-3.32,2.12-5.94,2.12Zm-.15-11.76c-1.51,0-2.8.86-3.11,2.92h5.69c.31-1.6-.74-2.92-2.58-2.92Zm2.25-5.94l-4.31,2.09-.55-.86,3.14-2.62c.49-.43.89-.77,1.45-.77.58,0,1.08.49,1.08,1.08,0,.52-.43.92-.8,1.08Z"/><path class="cls-3" d="m239.07,311.98v7.26h-3.57v-13.14l3.26-.43.15,2.71c.77-1.54,2.71-2.8,4.96-2.8v3.48c-2.43-.58-4.8.65-4.8,2.92Z"/><path class="cls-3" d="m249.69,302.19c0,1.02-.83,1.85-1.88,1.85s-1.88-.83-1.88-1.85.83-1.88,1.88-1.88,1.88.83,1.88,1.88Zm-3.66,17.05v-13.2l3.57-.46v13.67h-3.57Z"/><path class="cls-3" d="m263.44,325.24v-7.72c-1.17,1.38-2.95,2.09-4.74,2.09-3.6,0-6.25-3.02-6.25-7.02s2.65-7.02,6.25-7.02c1.88,0,3.85.8,4.99,2.28l.89-2.09h2.43v19.48h-3.57Zm0-14.71c-.68-1.26-2.09-2.31-3.72-2.31-2,0-3.69,1.51-3.69,4.37s1.69,4.37,3.69,4.37c1.63,0,3.05-1.05,3.72-2.31v-4.12Z"/><path class="cls-3" d="m283.29,319.55c-1.63,0-2.89-.65-3.02-2.55-.98,1.48-2.71,2.62-4.8,2.62-3.54,0-4.86-2.43-4.86-5.72v-7.94h3.57v7.36c0,2.55.89,3.45,2.52,3.45s3.54-1.54,3.54-3.39v-7.42h3.57v10.68c0,.8.28,1.14.8,1.14.31,0,.52-.09.71-.18v1.35c-.4.34-1.23.62-2.03.62Z"/><path class="cls-3" d="m294.13,319.61c-4.09,0-6.96-2.99-6.96-7.11s3.26-6.92,6.71-6.92,5.91,2.09,5.91,5.29c0,.58-.09,1.38-.22,1.82h-8.86c-.06,2.09.86,4.34,4.49,4.34,1.48,0,2.92-.58,3.88-1.32l.98,1.79c-1.26,1.23-3.32,2.12-5.94,2.12Zm-.15-11.76c-1.51,0-2.8.86-3.11,2.92h5.69c.31-1.6-.74-2.92-2.59-2.92Z"/></g></svg>