<?xml version="1.0" encoding="UTF-8"?><svg id="Layer_1" xmlns="http://www.w3.org/2000/svg" viewBox="0 0 140.92 159.33"><defs><style>.cls-1{fill:#f7d394;}.cls-2{fill:#eb9538;}.cls-3{fill:#3c2415;}</style></defs><g><rect class="cls-2" x="95.43" y="109.73" width="17.42" height="17.42" transform="translate(222.59 14.3) rotate(90)"/><path class="cls-1" d="m26.77,75.12h16.58s0,17.42,0,17.42h-10.55c7.63,12.5,21.39,20.84,37.11,20.84h1.38c6,0,11.72-1.22,16.92-3.42h-10s0-17.42,0-17.42h17.42s0,13.39,0,13.39c11.53-7.81,19.1-21.01,19.1-35.98h0c0-23.99-19.45-43.44-43.44-43.44h-1.38c-3.13,0-6.18.33-9.13.96v12.8s-17.42,0-17.42,0v-4.71c-10.27,7.94-16.89,20.39-16.89,34.38h0c0,1.75.11,3.48.31,5.17Zm16.58-17.42h34.85s0,17.42,0,17.42h-34.85s0-17.42,0-17.42Z"/><g><rect class="cls-2" x="78.19" y="57.7" width="17.42" height="17.42" transform="translate(153.32 -20.49) rotate(90)"/><rect class="cls-2" x="60.77" y="75.12" width="17.42" height="17.42" transform="translate(153.32 14.35) rotate(90)"/><rect class="cls-2" x="60.77" y="40.28" width="17.42" height="17.42" transform="translate(20.49 118.47) rotate(-90)"/><rect class="cls-2" x="8.5" y="57.7" width="17.42" height="17.42" transform="translate(-49.2 83.62) rotate(-90)"/><rect class="cls-2" x="25.92" y="5.95" width="17.42" height="17.42" transform="translate(49.3 -19.97) rotate(90)"/></g></g><g><path class="cls-3" d="m32.67,134.18c-.99,0-1.83-.41-2.38-1.63l-.88-1.76h-.96v3.29h-1.68v-8.27h3.25c1.96,0,2.8,1.16,2.8,2.49,0,1.17-.66,2.08-1.82,2.34l.81,1.42c.4.73.8.96,1.38.96.17,0,.3-.01.47-.07v1.06c-.32.1-.67.15-.98.15Zm-4.23-4.58h1.29c1.05,0,1.42-.55,1.42-1.28s-.37-1.31-1.42-1.31h-1.29v2.59Z"/><path class="cls-3" d="m37.4,134.25c-1.83,0-3.11-1.34-3.11-3.18s1.46-3.1,3-3.1,2.65.94,2.65,2.37c0,.26-.04.62-.1.81h-3.97c-.03.94.39,1.94,2.01,1.94.66,0,1.31-.26,1.74-.59l.44.8c-.56.55-1.49.95-2.66.95Zm-.07-5.26c-.68,0-1.25.39-1.39,1.31h2.55c.14-.72-.33-1.31-1.16-1.31Z"/><path class="cls-3" d="m46.01,129.18c.18.18.32.54.32.85,0,1.2-1.03,1.98-2.34,2.05-1.14.07-1.42.17-1.42.46,0,.23.28.34,1.52.37,2.03.07,2.73.91,2.73,1.92,0,1.23-1.28,2.07-3.05,2.07s-3.02-.63-3.02-1.47c0-.61.59-1.02,1.06-1.08l.58.21c-.15.11-.39.25-.39.55,0,.51.73.77,1.71.77,1.09,0,1.65-.37,1.65-.85,0-.51-.48-.77-1.78-.79-1.5-.04-2.41-.39-2.41-1.32,0-.46.4-.95,1.05-1.12-.66-.3-1.17-.91-1.17-1.76,0-1.2,1.03-2.07,2.66-2.07.69,0,1.03.17,1.8.17h1.38v1.05h-.88Zm-3.49.85c0,.69.47,1.17,1.2,1.17.69,0,1.19-.48,1.19-1.17s-.5-1.16-1.19-1.16c-.73,0-1.2.47-1.2,1.16Z"/><path class="cls-3" d="m53.72,134.22c-.73,0-1.29-.29-1.35-1.14-.44.66-1.21,1.17-2.15,1.17-1.58,0-2.18-1.09-2.18-2.56v-3.55h1.6v3.29c0,1.14.4,1.54,1.13,1.54s1.58-.69,1.58-1.52v-3.32h1.6v4.78c0,.36.12.51.36.51.14,0,.23-.04.32-.08v.61c-.18.15-.55.28-.91.28Z"/><path class="cls-3" d="m57.15,134.22c-.79,0-1.36-.37-1.36-1.32v-7.08l1.6-.21v7.3c0,.36.12.51.36.51.12,0,.23-.04.32-.08v.61c-.14.12-.54.28-.91.28Z"/><path class="cls-3" d="m63.9,134.22c-.74,0-1.18-.3-1.32-.94-.67.66-1.47.96-2.25.96-.87,0-1.56-.59-1.56-1.52,0-1.39,1.71-2.22,3.76-2.4v-.23c0-.7-.3-1.03-1.06-1.03-.63,0-1.68.36-2.29.77v-1.18c.48-.28,1.76-.69,2.55-.69,1.32,0,2.4.48,2.4,2.12v2.83c0,.36.12.52.36.52.12,0,.23-.04.32-.08v.61c-.18.15-.55.26-.91.26Zm-1.36-2.98c-1.43.14-2.34.62-2.34,1.3,0,.54.37.69.77.69.32,0,.99-.23,1.57-.81v-1.17Z"/><path class="cls-3" d="m67.9,134.25c-1.03,0-1.68-.63-1.68-1.96v-3.11h-.85v-1.05h.85v-1.42l1.6-.21v1.63h1.46v1.05h-1.46v3.02c0,.67.17.96.67.96.4,0,.66-.14.85-.28l.17.8c-.32.29-.94.56-1.61.56Z"/><path class="cls-3" d="m72.21,126.45c0,.46-.37.83-.84.83s-.84-.37-.84-.83.37-.84.84-.84.84.37.84.84Zm-1.64,7.63v-5.91l1.6-.21v6.12h-1.6Z"/><path class="cls-3" d="m78.11,134.08v-3.29c0-1.16-.4-1.54-1.13-1.54s-1.58.69-1.58,1.52v3.32h-1.6v-5.88l1.46-.19.07,1.23c.4-.76,1.3-1.27,2.21-1.27,1.58,0,2.18,1.1,2.18,2.58v3.54h-1.6Z"/><path class="cls-3" d="m85.99,129.18c.18.18.32.54.32.85,0,1.2-1.03,1.98-2.34,2.05-1.14.07-1.42.17-1.42.46,0,.23.28.34,1.52.37,2.03.07,2.73.91,2.73,1.92,0,1.23-1.28,2.07-3.05,2.07s-3.02-.63-3.02-1.47c0-.61.59-1.02,1.06-1.08l.58.21c-.15.11-.39.25-.39.55,0,.51.73.77,1.71.77,1.09,0,1.65-.37,1.65-.85,0-.51-.48-.77-1.78-.79-1.5-.04-2.41-.39-2.41-1.32,0-.46.4-.95,1.05-1.12-.66-.3-1.17-.91-1.17-1.76,0-1.2,1.03-2.07,2.66-2.07.69,0,1.03.17,1.8.17h1.38v1.05h-.88Zm-3.49.85c0,.69.47,1.17,1.2,1.17.69,0,1.19-.48,1.19-1.17s-.5-1.16-1.19-1.16c-.73,0-1.2.47-1.2,1.16Z"/><path class="cls-3" d="m28.65,149.02c-1.03,0-1.68-.63-1.68-1.96v-3.11h-.85v-1.05h.85v-1.42l1.6-.21v1.63h1.46v1.05h-1.46v3.02c0,.67.17.96.67.96.4,0,.66-.14.85-.28l.17.8c-.32.29-.94.56-1.61.56Z"/><path class="cls-3" d="m35.64,148.85v-3.29c0-1.16-.4-1.54-1.13-1.54s-1.58.69-1.58,1.52v3.32h-1.6v-8.27l1.6-.21v3.51c.44-.65,1.28-1.16,2.14-1.16,1.58,0,2.18,1.1,2.18,2.58v3.54h-1.6Z"/><path class="cls-3" d="m41.63,149.02c-1.83,0-3.11-1.34-3.11-3.18s1.46-3.1,3-3.1,2.65.94,2.65,2.37c0,.26-.04.62-.1.81h-3.97c-.03.94.39,1.94,2.01,1.94.66,0,1.31-.26,1.74-.59l.44.8c-.56.55-1.49.95-2.66.95Zm-.07-5.26c-.68,0-1.25.39-1.39,1.31h2.55c.14-.72-.33-1.31-1.16-1.31Z"/><path class="cls-3" d="m51.29,148.85h-2.91v-8.27h2.91c3.31,0,4.7,1.86,4.7,4.13s-1.39,4.13-4.7,4.13Zm-.08-6.92h-1.14v5.57h1.14c2.26,0,3.06-1.13,3.06-2.78s-.8-2.78-3.06-2.78Z"/><path class="cls-3" d="m58.9,141.22c0,.46-.37.83-.84.83s-.84-.37-.84-.83.37-.84.84-.84.84.37.84.84Zm-1.64,7.63v-5.91l1.6-.21v6.12h-1.6Z"/><path class="cls-3" d="m65.16,143.95c.18.18.32.54.32.85,0,1.2-1.03,1.98-2.34,2.05-1.14.07-1.42.17-1.42.46,0,.23.28.34,1.52.37,2.03.07,2.73.91,2.73,1.92,0,1.23-1.28,2.07-3.05,2.07s-3.02-.63-3.02-1.47c0-.61.59-1.02,1.06-1.08l.58.21c-.15.11-.39.25-.39.55,0,.51.73.77,1.71.77,1.09,0,1.65-.37,1.65-.85,0-.51-.48-.77-1.78-.79-1.5-.04-2.41-.39-2.41-1.32,0-.46.4-.95,1.05-1.12-.66-.3-1.17-.91-1.17-1.76,0-1.2,1.03-2.07,2.66-2.07.69,0,1.03.17,1.8.17h1.38v1.05h-.88Zm-3.49.85c0,.69.47,1.17,1.2,1.17.69,0,1.19-.48,1.19-1.17s-.5-1.16-1.19-1.16c-.73,0-1.2.47-1.2,1.16Z"/><path class="cls-3" d="m68.85,141.22c0,.46-.37.83-.84.83s-.84-.37-.84-.83.37-.84.84-.84.84.37.84.84Zm-1.64,7.63v-5.91l1.6-.21v6.12h-1.6Z"/><path class="cls-3" d="m72.38,149.02c-1.03,0-1.68-.63-1.68-1.96v-3.11h-.85v-1.05h.85v-1.42l1.6-.21v1.63h1.46v1.05h-1.46v3.02c0,.67.17.96.67.96.4,0,.66-.14.85-.28l.17.8c-.32.29-.94.56-1.61.56Z"/><path class="cls-3" d="m79.74,148.99c-.74,0-1.18-.3-1.32-.94-.67.66-1.47.96-2.25.96-.87,0-1.56-.59-1.56-1.52,0-1.39,1.71-2.22,3.76-2.4v-.23c0-.7-.3-1.03-1.06-1.03-.63,0-1.68.36-2.29.77v-1.18c.48-.28,1.76-.69,2.55-.69,1.32,0,2.4.48,2.4,2.12v2.83c0,.36.12.52.36.52.12,0,.23-.04.32-.08v.61c-.18.15-.55.26-.91.26Zm-1.36-2.98c-1.43.14-2.34.62-2.34,1.3,0,.54.37.69.77.69.32,0,.99-.23,1.57-.81v-1.17Z"/><path class="cls-3" d="m83.15,148.99c-.79,0-1.36-.37-1.36-1.32v-7.08l1.6-.21v7.3c0,.36.12.51.36.51.12,0,.23-.04.32-.08v.61c-.14.12-.54.28-.91.28Z"/><path class="cls-3" d="m90.94,148.85h-2.91v-8.27h2.91c3.31,0,4.7,1.86,4.7,4.13s-1.39,4.13-4.7,4.13Zm-.08-6.92h-1.14v5.57h1.14c2.26,0,3.06-1.13,3.06-2.78s-.8-2.78-3.06-2.78Z"/><path class="cls-3" d="m99.88,149.07c-1.93,0-3.35-1.39-3.35-3.2s1.42-3.2,3.35-3.2,3.33,1.41,3.33,3.2-1.42,3.2-3.33,3.2Zm0-5.22c-1.08,0-1.78.83-1.78,2.03s.72,2.03,1.78,2.03,1.76-.81,1.76-2.03-.7-2.03-1.76-2.03Z"/><path class="cls-3" d="m112.61,148.85v-3.35c0-1.07-.29-1.49-1.02-1.49s-1.46.62-1.46,1.52v3.32h-1.6v-3.35c0-1.07-.28-1.49-1.02-1.49s-1.46.62-1.46,1.52v3.32h-1.6v-5.88l1.46-.19.07,1.23c.44-.79,1.24-1.27,2.09-1.27,1.12,0,1.67.54,1.9,1.34.54-.84,1.31-1.34,2.19-1.34,1.58,0,2.04,1.1,2.04,2.58v3.54h-1.6Z"/><path class="cls-3" d="m120.5,148.99c-.74,0-1.18-.3-1.32-.94-.67.66-1.47.96-2.25.96-.87,0-1.56-.59-1.56-1.52,0-1.39,1.71-2.22,3.76-2.4v-.23c0-.7-.3-1.03-1.06-1.03-.63,0-1.68.36-2.29.77v-1.18c.48-.28,1.76-.69,2.55-.69,1.32,0,2.4.48,2.4,2.12v2.83c0,.36.12.52.36.52.12,0,.23-.04.32-.08v.61c-.18.15-.55.26-.91.26Zm-1.36-2.98c-1.43.14-2.34.62-2.34,1.3,0,.54.37.69.77.69.32,0,.99-.23,1.57-.81v-1.17Z"/><path class="cls-3" d="m124.19,141.22c0,.46-.37.83-.84.83s-.84-.37-.84-.83.37-.84.84-.84.84.37.84.84Zm-1.64,7.63v-5.91l1.6-.21v6.12h-1.6Z"/><path class="cls-3" d="m130.09,148.85v-3.29c0-1.16-.4-1.54-1.13-1.54s-1.58.69-1.58,1.52v3.32h-1.6v-5.88l1.46-.19.07,1.23c.4-.76,1.3-1.27,2.21-1.27,1.58,0,2.18,1.1,2.18,2.58v3.54h-1.6Z"/></g></svg>